%TF.GenerationSoftware,KiCad,Pcbnew,7.0.7-7.0.7~ubuntu22.04.1*%
%TF.CreationDate,2023-09-19T11:06:22+02:00*%
%TF.ProjectId,kicad103,6b696361-6431-4303-932e-6b696361645f,rev?*%
%TF.SameCoordinates,Original*%
%TF.FileFunction,Copper,L4,Bot*%
%TF.FilePolarity,Positive*%
%FSLAX46Y46*%
G04 Gerber Fmt 4.6, Leading zero omitted, Abs format (unit mm)*
G04 Created by KiCad (PCBNEW 7.0.7-7.0.7~ubuntu22.04.1) date 2023-09-19 11:06:22*
%MOMM*%
%LPD*%
G01*
G04 APERTURE LIST*
G04 Aperture macros list*
%AMRoundRect*
0 Rectangle with rounded corners*
0 $1 Rounding radius*
0 $2 $3 $4 $5 $6 $7 $8 $9 X,Y pos of 4 corners*
0 Add a 4 corners polygon primitive as box body*
4,1,4,$2,$3,$4,$5,$6,$7,$8,$9,$2,$3,0*
0 Add four circle primitives for the rounded corners*
1,1,$1+$1,$2,$3*
1,1,$1+$1,$4,$5*
1,1,$1+$1,$6,$7*
1,1,$1+$1,$8,$9*
0 Add four rect primitives between the rounded corners*
20,1,$1+$1,$2,$3,$4,$5,0*
20,1,$1+$1,$4,$5,$6,$7,0*
20,1,$1+$1,$6,$7,$8,$9,0*
20,1,$1+$1,$8,$9,$2,$3,0*%
G04 Aperture macros list end*
%TA.AperFunction,ComponentPad*%
%ADD10R,1.700000X1.700000*%
%TD*%
%TA.AperFunction,ComponentPad*%
%ADD11O,1.700000X1.700000*%
%TD*%
%TA.AperFunction,ComponentPad*%
%ADD12C,0.900000*%
%TD*%
%TA.AperFunction,ComponentPad*%
%ADD13C,8.600000*%
%TD*%
%TA.AperFunction,ComponentPad*%
%ADD14C,1.875000*%
%TD*%
%TA.AperFunction,ComponentPad*%
%ADD15C,3.894000*%
%TD*%
%TA.AperFunction,SMDPad,CuDef*%
%ADD16R,2.100000X1.000000*%
%TD*%
%TA.AperFunction,SMDPad,CuDef*%
%ADD17R,5.850000X4.900000*%
%TD*%
%TA.AperFunction,SMDPad,CuDef*%
%ADD18RoundRect,0.250000X0.450000X-0.262500X0.450000X0.262500X-0.450000X0.262500X-0.450000X-0.262500X0*%
%TD*%
%TA.AperFunction,SMDPad,CuDef*%
%ADD19RoundRect,0.250000X-0.475000X0.250000X-0.475000X-0.250000X0.475000X-0.250000X0.475000X0.250000X0*%
%TD*%
%TA.AperFunction,SMDPad,CuDef*%
%ADD20RoundRect,0.250000X-0.325000X-0.650000X0.325000X-0.650000X0.325000X0.650000X-0.325000X0.650000X0*%
%TD*%
%TA.AperFunction,SMDPad,CuDef*%
%ADD21RoundRect,0.225000X0.225000X0.375000X-0.225000X0.375000X-0.225000X-0.375000X0.225000X-0.375000X0*%
%TD*%
%TA.AperFunction,SMDPad,CuDef*%
%ADD22RoundRect,0.250000X-0.450000X0.262500X-0.450000X-0.262500X0.450000X-0.262500X0.450000X0.262500X0*%
%TD*%
%TA.AperFunction,ViaPad*%
%ADD23C,0.700000*%
%TD*%
%TA.AperFunction,ViaPad*%
%ADD24C,0.800000*%
%TD*%
%TA.AperFunction,Conductor*%
%ADD25C,1.000000*%
%TD*%
%TA.AperFunction,Conductor*%
%ADD26C,0.200000*%
%TD*%
%TA.AperFunction,Conductor*%
%ADD27C,0.300000*%
%TD*%
%TA.AperFunction,Conductor*%
%ADD28C,0.500000*%
%TD*%
G04 APERTURE END LIST*
D10*
%TO.P,J5,1,Pin_1*%
%TO.N,PB15*%
X67380000Y-52000000D03*
D11*
%TO.P,J5,2,Pin_2*%
%TO.N,PB14*%
X69920000Y-52000000D03*
%TO.P,J5,3,Pin_3*%
%TO.N,PB13*%
X72460000Y-52000000D03*
%TO.P,J5,4,Pin_4*%
%TO.N,PB12*%
X75000000Y-52000000D03*
%TO.P,J5,5,Pin_5*%
%TO.N,PB11*%
X77540000Y-52000000D03*
%TO.P,J5,6,Pin_6*%
%TO.N,PB10*%
X80080000Y-52000000D03*
%TO.P,J5,7,Pin_7*%
%TO.N,PB9*%
X82620000Y-52000000D03*
%TO.P,J5,8,Pin_8*%
%TO.N,PB8*%
X85160000Y-52000000D03*
%TO.P,J5,9,Pin_9*%
%TO.N,PB7*%
X87700000Y-52000000D03*
%TO.P,J5,10,Pin_10*%
%TO.N,PB6*%
X90240000Y-52000000D03*
%TO.P,J5,11,Pin_11*%
%TO.N,PB5*%
X92780000Y-52000000D03*
%TO.P,J5,12,Pin_12*%
%TO.N,PB4*%
X95320000Y-52000000D03*
%TO.P,J5,13,Pin_13*%
%TO.N,PB3*%
X97860000Y-52000000D03*
%TO.P,J5,14,Pin_14*%
%TO.N,PB2*%
X100400000Y-52000000D03*
%TO.P,J5,15,Pin_15*%
%TO.N,PB1*%
X102940000Y-52000000D03*
%TO.P,J5,16,Pin_16*%
%TO.N,PB0*%
X105480000Y-52000000D03*
%TD*%
D12*
%TO.P,H4,1,1*%
%TO.N,GND*%
X54494581Y-87000000D03*
X55439162Y-84719581D03*
X55439162Y-89280419D03*
X57719581Y-83775000D03*
D13*
X57719581Y-87000000D03*
D12*
X57719581Y-90225000D03*
X60000000Y-84719581D03*
X60000000Y-89280419D03*
X60944581Y-87000000D03*
%TD*%
D10*
%TO.P,J2,1,Pin_1*%
%TO.N,Net-(D1-A)*%
X57460000Y-78000000D03*
D11*
%TO.P,J2,2,Pin_2*%
%TO.N,GND*%
X60000000Y-78000000D03*
%TD*%
D12*
%TO.P,H3,1,1*%
%TO.N,GND*%
X54794581Y-52975000D03*
X55739162Y-50694581D03*
X55739162Y-55255419D03*
X58019581Y-49750000D03*
D13*
X58019581Y-52975000D03*
D12*
X58019581Y-56200000D03*
X60300000Y-50694581D03*
X60300000Y-55255419D03*
X61244581Y-52975000D03*
%TD*%
D10*
%TO.P,J7,1,Pin_1*%
%TO.N,+3.3V*%
X114000000Y-71080000D03*
D11*
%TO.P,J7,2,Pin_2*%
%TO.N,PB14*%
X114000000Y-73620000D03*
%TO.P,J7,3,Pin_3*%
%TO.N,PB13*%
X114000000Y-76160000D03*
%TO.P,J7,4,Pin_4*%
%TO.N,GND*%
X114000000Y-78700000D03*
%TD*%
D12*
%TO.P,H2,1,1*%
%TO.N,GND*%
X111755419Y-86980419D03*
X112700000Y-84700000D03*
X112700000Y-89260838D03*
X114980419Y-83755419D03*
D13*
X114980419Y-86980419D03*
D12*
X114980419Y-90205419D03*
X117260838Y-84700000D03*
X117260838Y-89260838D03*
X118205419Y-86980419D03*
%TD*%
D10*
%TO.P,J8,1,Pin_1*%
%TO.N,PB3*%
X108600000Y-58720000D03*
D11*
%TO.P,J8,2,Pin_2*%
%TO.N,+3.3V*%
X108600000Y-61260000D03*
%TO.P,J8,3,Pin_3*%
%TO.N,PA13*%
X108600000Y-63800000D03*
%TO.P,J8,4,Pin_4*%
%TO.N,PA14*%
X108600000Y-66340000D03*
%TO.P,J8,5,Pin_5*%
%TO.N,GND*%
X108600000Y-68880000D03*
%TD*%
D10*
%TO.P,J9,1,Pin_1*%
%TO.N,PA0*%
X66220000Y-87000000D03*
D11*
%TO.P,J9,2,Pin_2*%
%TO.N,PA1*%
X68760000Y-87000000D03*
%TO.P,J9,3,Pin_3*%
%TO.N,PA2*%
X71300000Y-87000000D03*
%TO.P,J9,4,Pin_4*%
%TO.N,PA3*%
X73840000Y-87000000D03*
%TO.P,J9,5,Pin_5*%
%TO.N,PA4*%
X76380000Y-87000000D03*
%TO.P,J9,6,Pin_6*%
%TO.N,PA5*%
X78920000Y-87000000D03*
%TO.P,J9,7,Pin_7*%
%TO.N,PA6*%
X81460000Y-87000000D03*
%TO.P,J9,8,Pin_8*%
%TO.N,PA7*%
X84000000Y-87000000D03*
%TO.P,J9,9,Pin_9*%
%TO.N,PA8*%
X86540000Y-87000000D03*
%TO.P,J9,10,Pin_10*%
%TO.N,PA9*%
X89080000Y-87000000D03*
%TO.P,J9,11,Pin_11*%
%TO.N,PA10*%
X91620000Y-87000000D03*
%TO.P,J9,12,Pin_12*%
%TO.N,PA13*%
X94160000Y-87000000D03*
%TO.P,J9,13,Pin_13*%
%TO.N,PA14*%
X96700000Y-87000000D03*
%TO.P,J9,14,Pin_14*%
%TO.N,PA15*%
X99240000Y-87000000D03*
%TO.P,J9,15,Pin_15*%
%TO.N,PC13*%
X101780000Y-87000000D03*
%TO.P,J9,16,Pin_16*%
%TO.N,PC14*%
X104320000Y-87000000D03*
%TO.P,J9,17,Pin_17*%
%TO.N,PC15*%
X106860000Y-87000000D03*
%TD*%
D14*
%TO.P,J1,5,5*%
%TO.N,unconnected-(J1-Pad5)*%
X48975000Y-66750000D03*
%TO.P,J1,6,6*%
%TO.N,unconnected-(J1-Pad6)*%
X48975000Y-71250000D03*
D15*
%TO.P,J1,7,7*%
%TO.N,unconnected-(J1-Pad7)*%
X48975000Y-63150000D03*
%TO.P,J1,8,8*%
%TO.N,unconnected-(J1-Pad8)*%
X48975000Y-74850000D03*
%TD*%
D12*
%TO.P,H1,1,1*%
%TO.N,GND*%
X111775000Y-53025000D03*
X112719581Y-50744581D03*
X112719581Y-55305419D03*
X115000000Y-49800000D03*
D13*
X115000000Y-53025000D03*
D12*
X115000000Y-56250000D03*
X117280419Y-50744581D03*
X117280419Y-55305419D03*
X118225000Y-53025000D03*
%TD*%
D16*
%TO.P,IC1,1,GND*%
%TO.N,GND*%
X58200000Y-66080000D03*
%TO.P,IC1,3,VIN*%
%TO.N,Net-(D1-K)*%
X58200000Y-61520000D03*
D17*
%TO.P,IC1,4,(THERMALPAD)*%
%TO.N,+3.3V*%
X65000000Y-63800000D03*
%TD*%
D18*
%TO.P,R1,1*%
%TO.N,Net-(D2-K)*%
X68000000Y-79000000D03*
%TO.P,R1,2*%
%TO.N,GND*%
X68000000Y-77175000D03*
%TD*%
D19*
%TO.P,C2,1*%
%TO.N,+3.3V*%
X70400000Y-62400000D03*
%TO.P,C2,2*%
%TO.N,GND*%
X70400000Y-64300000D03*
%TD*%
D20*
%TO.P,C1,1*%
%TO.N,Net-(D1-K)*%
X59350000Y-70800000D03*
%TO.P,C1,2*%
%TO.N,GND*%
X62300000Y-70800000D03*
%TD*%
D21*
%TO.P,D1,1,K*%
%TO.N,Net-(D1-K)*%
X60400000Y-73800000D03*
%TO.P,D1,2,A*%
%TO.N,Net-(D1-A)*%
X57100000Y-73800000D03*
%TD*%
D22*
%TO.P,R4,1*%
%TO.N,+3.3V*%
X72000000Y-66575000D03*
%TO.P,R4,2*%
%TO.N,/USB_D+*%
X72000000Y-68400000D03*
%TD*%
D18*
%TO.P,R5,1*%
%TO.N,Net-(U1-BOOT0)*%
X96100000Y-71912500D03*
%TO.P,R5,2*%
%TO.N,GND*%
X96100000Y-70087500D03*
%TD*%
D22*
%TO.P,R2,1*%
%TO.N,Net-(D3-K)*%
X74600000Y-58787500D03*
%TO.P,R2,2*%
%TO.N,GND*%
X74600000Y-60612500D03*
%TD*%
D23*
%TO.N,+3.3V*%
X92400000Y-62200000D03*
X88900000Y-76600000D03*
X110900000Y-61300000D03*
X65000000Y-67700000D03*
X79000000Y-70000000D03*
X65000000Y-59600000D03*
X100400000Y-59000000D03*
X72000000Y-65300000D03*
X64000000Y-75900000D03*
X79200000Y-63800000D03*
X68800000Y-63800000D03*
X111300000Y-71600000D03*
X80100000Y-61800000D03*
%TO.N,/USB_D-*%
X70157513Y-69650000D03*
X83549513Y-69650000D03*
%TO.N,GND*%
X111500000Y-78700000D03*
X87300000Y-76600000D03*
X82400000Y-59200000D03*
X78000000Y-61400000D03*
X74200000Y-64100000D03*
X82800000Y-67700000D03*
X100400000Y-60300000D03*
X78000000Y-72800000D03*
D24*
X63900000Y-70800000D03*
D23*
X74200000Y-71800000D03*
X69500000Y-65700000D03*
X100400000Y-61500000D03*
X92400000Y-66000000D03*
X111100000Y-68900000D03*
X76000000Y-60600000D03*
D24*
X61000000Y-80500000D03*
X54100000Y-65500000D03*
D23*
X96100000Y-69000000D03*
D24*
X58700000Y-67800000D03*
D23*
X68000000Y-75900000D03*
%TO.N,/USB_D+*%
X70157513Y-68350000D03*
X83549513Y-68350000D03*
%TO.N,PA13*%
X92900000Y-80500000D03*
X105200000Y-59000000D03*
X92900000Y-69100000D03*
%TO.N,PA14*%
X104300000Y-60300000D03*
X106100000Y-67700000D03*
%TO.N,PB3*%
X106400000Y-56100500D03*
X106400000Y-57600000D03*
%TO.N,PA15*%
X100400000Y-74800000D03*
X99600000Y-66800000D03*
X99200000Y-78200000D03*
X98100000Y-72600000D03*
%TO.N,PC14*%
X82236654Y-65900000D03*
%TO.N,PC15*%
X79398360Y-66700000D03*
%TO.N,PB15*%
X97800000Y-83900000D03*
X95300000Y-75763000D03*
X91100000Y-71700000D03*
X95800000Y-80600000D03*
X91000000Y-68800000D03*
%TO.N,PB14*%
X77000000Y-49000000D03*
X81000000Y-49000000D03*
%TO.N,PB13*%
X109000000Y-75000000D03*
%TO.N,PB12*%
X109000000Y-77000000D03*
%TO.N,PB11*%
X84000000Y-71000000D03*
X68200000Y-74400000D03*
X70000000Y-84100000D03*
X71600000Y-76300000D03*
X66500000Y-68100000D03*
X73200000Y-77800000D03*
%TO.N,PB10*%
X85300000Y-89400000D03*
X86300000Y-78400000D03*
%TO.N,PB9*%
X83050500Y-61896691D03*
%TO.N,PB8*%
X85100000Y-55800000D03*
X84125535Y-57499500D03*
%TO.N,PB7*%
X86600000Y-55900000D03*
X85600000Y-57499500D03*
%TO.N,PB6*%
X86305378Y-58605378D03*
X88000000Y-56000000D03*
%TO.N,PB5*%
X89500000Y-56100000D03*
X87600000Y-58100000D03*
%TO.N,PB4*%
X91000000Y-55700000D03*
X88955378Y-57755378D03*
%TO.N,PB2*%
X85400000Y-77500000D03*
X100400000Y-46349500D03*
X83800000Y-89400000D03*
%TO.N,PB1*%
X81200000Y-89400000D03*
X84300000Y-76600000D03*
X117600000Y-46900000D03*
%TO.N,PB0*%
X118000000Y-62000000D03*
X123000000Y-62000000D03*
X78500000Y-89500000D03*
X83194622Y-76494622D03*
%TO.N,PA1*%
X82200000Y-70000000D03*
%TO.N,PA9*%
X87400000Y-68024500D03*
X90400000Y-77900000D03*
%TO.N,Net-(D3-K)*%
X72700000Y-58800000D03*
%TO.N,PA10*%
X91600000Y-78700000D03*
X91900000Y-67500000D03*
%TO.N,Net-(J3-Pin_10)*%
X105100000Y-64100000D03*
X85000000Y-66200000D03*
%TO.N,Net-(U1-BOOT0)*%
X84050500Y-58844396D03*
D24*
%TO.N,Net-(D1-A)*%
X54600000Y-72500000D03*
D23*
%TO.N,Net-(D2-K)*%
X64000000Y-80300000D03*
%TD*%
D25*
%TO.N,Net-(D1-K)*%
X60400000Y-73800000D02*
X60400000Y-71850000D01*
X60400000Y-71850000D02*
X59350000Y-70800000D01*
X55900000Y-67350000D02*
X55900000Y-61500000D01*
X59350000Y-70800000D02*
X55900000Y-67350000D01*
X55900000Y-61500000D02*
X55920000Y-61520000D01*
X55920000Y-61520000D02*
X58200000Y-61520000D01*
%TO.N,+3.3V*%
X72000000Y-66575000D02*
X72000000Y-65300000D01*
X65000000Y-63800000D02*
X65000000Y-59600000D01*
X70400000Y-62400000D02*
X68800000Y-62400000D01*
X68800000Y-63800000D02*
X68800000Y-62400000D01*
X65000000Y-63800000D02*
X68800000Y-63800000D01*
X65000000Y-63800000D02*
X65000000Y-67700000D01*
X68800000Y-62400000D02*
X66400000Y-62400000D01*
X66400000Y-62400000D02*
X65000000Y-63800000D01*
D26*
%TO.N,/USB_D-*%
X70157513Y-69650000D02*
X70582513Y-69225000D01*
X83124514Y-69225001D02*
X83549513Y-69650000D01*
X70582513Y-69225000D02*
X83124514Y-69225001D01*
D27*
%TO.N,GND*%
X96100000Y-70087500D02*
X96100000Y-69000000D01*
D25*
X58200000Y-67300000D02*
X58700000Y-67800000D01*
X60000000Y-78000000D02*
X61000000Y-79000000D01*
D28*
X68000000Y-77175000D02*
X68000000Y-75900000D01*
D27*
X74600000Y-60612500D02*
X75987500Y-60612500D01*
D25*
X58200000Y-66080000D02*
X58200000Y-67300000D01*
X61000000Y-79000000D02*
X61000000Y-80500000D01*
D27*
X75987500Y-60612500D02*
X76000000Y-60600000D01*
D25*
X70400000Y-64800000D02*
X69500000Y-65700000D01*
X70400000Y-64300000D02*
X70400000Y-64800000D01*
X62300000Y-70800000D02*
X63900000Y-70800000D01*
D26*
%TO.N,/USB_D+*%
X70157513Y-68350000D02*
X70582513Y-68775000D01*
X70582513Y-68775000D02*
X83124514Y-68774999D01*
X83124514Y-68774999D02*
X83549513Y-68350000D01*
D27*
%TO.N,PA13*%
X105200000Y-59000000D02*
X105200000Y-60400000D01*
X92900000Y-80500000D02*
X92900000Y-69100000D01*
X105200000Y-60400000D02*
X108600000Y-63800000D01*
%TO.N,PA14*%
X104300000Y-60300000D02*
X105800000Y-61800000D01*
X105800000Y-67400000D02*
X106100000Y-67700000D01*
X96700000Y-87000000D02*
X96700000Y-77100000D01*
X96700000Y-77100000D02*
X106100000Y-67700000D01*
X105800000Y-61800000D02*
X105800000Y-67400000D01*
%TO.N,PB3*%
X106400000Y-57600000D02*
X106400000Y-56100500D01*
%TO.N,PA15*%
X99200000Y-78200000D02*
X100400000Y-77000000D01*
X100400000Y-77000000D02*
X100400000Y-74800000D01*
X99600000Y-66800000D02*
X98100000Y-68300000D01*
X98100000Y-68300000D02*
X98100000Y-72600000D01*
%TO.N,PC14*%
X89700000Y-78289950D02*
X89700000Y-73110050D01*
X82364053Y-65774103D02*
X82236654Y-65774103D01*
X96202943Y-88200000D02*
X95500000Y-87497057D01*
X95500000Y-87497057D02*
X95500000Y-84089950D01*
X104320000Y-87000000D02*
X103120000Y-88200000D01*
X95500000Y-84089950D02*
X89700000Y-78289950D01*
X103120000Y-88200000D02*
X96202943Y-88200000D01*
X89700000Y-73110050D02*
X82364053Y-65774103D01*
%TO.N,PC15*%
X68601471Y-90700000D02*
X68601471Y-88861472D01*
X69457513Y-68060050D02*
X70027613Y-67489950D01*
X104998528Y-90700000D02*
X68601471Y-90700000D01*
X67560000Y-87820001D02*
X67560000Y-83932893D01*
X68601471Y-88861472D02*
X67560000Y-87820001D01*
X67560000Y-83932893D02*
X69457513Y-82035380D01*
X104998528Y-88861472D02*
X104998528Y-90700000D01*
X78608410Y-67489950D02*
X79398360Y-66700000D01*
X106860000Y-87000000D02*
X104998528Y-88861472D01*
X69457513Y-82035380D02*
X69457513Y-68060050D01*
X70027613Y-67489950D02*
X78608410Y-67489950D01*
%TO.N,PB15*%
X61725000Y-66600000D02*
X61725000Y-57655000D01*
X108060000Y-86502943D02*
X108060000Y-88345635D01*
X63300000Y-86480000D02*
X63300000Y-80010050D01*
X63300000Y-80010050D02*
X65352082Y-77957968D01*
X65352082Y-77957968D02*
X65352082Y-70227082D01*
X67542082Y-90722082D02*
X63300000Y-86480000D01*
X97800000Y-83900000D02*
X104462943Y-83900000D01*
X108060000Y-88345635D02*
X103105635Y-93300000D01*
X70494364Y-93300000D02*
X67916446Y-90722082D01*
X65352082Y-70227082D02*
X61725000Y-66600000D01*
X95300000Y-75763000D02*
X95300000Y-80100000D01*
X91000000Y-71600000D02*
X91100000Y-71700000D01*
X61725000Y-57655000D02*
X67380000Y-52000000D01*
X67916446Y-90722082D02*
X67542082Y-90722082D01*
X95300000Y-80100000D02*
X95800000Y-80600000D01*
X104462943Y-83900000D02*
X106362943Y-85800000D01*
X103105635Y-93300000D02*
X70494364Y-93300000D01*
X91000000Y-68800000D02*
X91000000Y-71600000D01*
X106362943Y-85800000D02*
X107357057Y-85800000D01*
X107357057Y-85800000D02*
X108060000Y-86502943D01*
%TO.N,PB14*%
X81000000Y-49000000D02*
X77000000Y-49000000D01*
%TO.N,PB13*%
X110000000Y-74000000D02*
X110000000Y-57720000D01*
X83820000Y-51502943D02*
X83117057Y-50800000D01*
X79442943Y-50800000D02*
X78740000Y-51502943D01*
X105480000Y-53200000D02*
X84662943Y-53200000D01*
X84662943Y-53200000D02*
X83820000Y-52357057D01*
X73660000Y-53200000D02*
X72460000Y-52000000D01*
X109000000Y-75000000D02*
X110000000Y-74000000D01*
X83820000Y-52357057D02*
X83820000Y-51502943D01*
X110000000Y-57720000D02*
X105480000Y-53200000D01*
X83117057Y-50800000D02*
X79442943Y-50800000D01*
X78740000Y-51502943D02*
X78740000Y-52497057D01*
X78740000Y-52497057D02*
X78037057Y-53200000D01*
X78037057Y-53200000D02*
X73660000Y-53200000D01*
%TO.N,PB12*%
X118640000Y-77360000D02*
X124000000Y-72000000D01*
X75000000Y-46000000D02*
X75000000Y-52000000D01*
X124000000Y-72000000D02*
X124000000Y-52310050D01*
X75350500Y-45649500D02*
X75000000Y-46000000D01*
X109000000Y-77000000D02*
X109360000Y-77360000D01*
X117339450Y-45649500D02*
X75350500Y-45649500D01*
X109360000Y-77360000D02*
X118640000Y-77360000D01*
X124000000Y-52310050D02*
X117339450Y-45649500D01*
%TO.N,PB11*%
X66500000Y-72700000D02*
X66500000Y-68100000D01*
X73200000Y-77800000D02*
X73100000Y-77800000D01*
X73100000Y-77800000D02*
X71600000Y-76300000D01*
X84000000Y-71000000D02*
X70900000Y-84100000D01*
X68200000Y-74400000D02*
X66500000Y-72700000D01*
X70900000Y-84100000D02*
X70000000Y-84100000D01*
%TO.N,PB10*%
X85340000Y-89360000D02*
X85300000Y-89400000D01*
X85340000Y-79360000D02*
X85340000Y-89360000D01*
X86300000Y-78400000D02*
X85340000Y-79360000D01*
%TO.N,PB9*%
X83100000Y-61847191D02*
X83100000Y-52480000D01*
X83050500Y-61896691D02*
X83100000Y-61847191D01*
X83100000Y-52480000D02*
X82620000Y-52000000D01*
%TO.N,PB8*%
X84125535Y-56774465D02*
X85100000Y-55800000D01*
X84125535Y-57499500D02*
X84125535Y-56774465D01*
%TO.N,PB7*%
X85600000Y-57499500D02*
X85600000Y-56900000D01*
X85600000Y-56900000D02*
X86600000Y-55900000D01*
%TO.N,PB6*%
X86305378Y-57694622D02*
X88000000Y-56000000D01*
X86305378Y-58605378D02*
X86305378Y-57694622D01*
%TO.N,PB5*%
X87600000Y-58100000D02*
X87600000Y-58000000D01*
X87600000Y-58000000D02*
X89500000Y-56100000D01*
%TO.N,PB4*%
X88955378Y-57744622D02*
X91000000Y-55700000D01*
X88955378Y-57755378D02*
X88955378Y-57744622D01*
%TO.N,PB2*%
X85400000Y-77500000D02*
X82800000Y-80100000D01*
X82800000Y-80100000D02*
X82800000Y-88400000D01*
X100400000Y-46349500D02*
X100400000Y-52000000D01*
X82800000Y-88400000D02*
X83800000Y-89400000D01*
%TO.N,PB1*%
X80200000Y-88400000D02*
X81200000Y-89400000D01*
X104400000Y-46900000D02*
X102940000Y-48360000D01*
X102940000Y-48360000D02*
X102940000Y-52000000D01*
X84300000Y-76600000D02*
X80200000Y-80700000D01*
X117600000Y-46900000D02*
X104400000Y-46900000D01*
X80200000Y-80700000D02*
X80200000Y-88400000D01*
%TO.N,PB0*%
X77580000Y-82109244D02*
X77580000Y-88580000D01*
X83194622Y-76494622D02*
X77580000Y-82109244D01*
X123000000Y-62000000D02*
X118000000Y-62000000D01*
X77580000Y-88580000D02*
X78500000Y-89500000D01*
%TO.N,PA1*%
X68760000Y-83440000D02*
X82200000Y-70000000D01*
X68760000Y-87000000D02*
X68760000Y-83440000D01*
%TO.N,PA9*%
X87400000Y-68024500D02*
X87400000Y-70102944D01*
X90397056Y-73100000D02*
X90400000Y-73100000D01*
X87400000Y-70102944D02*
X90397056Y-73100000D01*
X90400000Y-73100000D02*
X90400000Y-77900000D01*
%TO.N,Net-(D3-K)*%
X72712500Y-58787500D02*
X72700000Y-58800000D01*
X74600000Y-58787500D02*
X72712500Y-58787500D01*
%TO.N,PA10*%
X91900000Y-67500000D02*
X91900000Y-78400000D01*
X91900000Y-78400000D02*
X91600000Y-78700000D01*
%TO.N,Net-(J3-Pin_10)*%
X105100000Y-64100000D02*
X89000000Y-64100000D01*
X89000000Y-64100000D02*
X86900000Y-66200000D01*
X86900000Y-66200000D02*
X85000000Y-66200000D01*
%TO.N,Net-(U1-BOOT0)*%
X94412500Y-70225000D02*
X94412500Y-69022550D01*
X91610050Y-66800000D02*
X91200000Y-67210050D01*
X84200000Y-58993896D02*
X84050500Y-58844396D01*
X96100000Y-71912500D02*
X94412500Y-70225000D01*
X85020100Y-67210050D02*
X84300000Y-66489950D01*
X94412500Y-69022550D02*
X92189950Y-66800000D01*
X91200000Y-67210050D02*
X85020100Y-67210050D01*
X92189950Y-66800000D02*
X91610050Y-66800000D01*
X84200000Y-62400000D02*
X84300000Y-62500000D01*
X84200000Y-61300000D02*
X84200000Y-62400000D01*
X84300000Y-66489950D02*
X84300000Y-62500000D01*
X84200000Y-61300000D02*
X84200000Y-58993896D01*
D25*
%TO.N,Net-(D1-A)*%
X54600000Y-72500000D02*
X55800000Y-72500000D01*
X55800000Y-72500000D02*
X57100000Y-73800000D01*
X57460000Y-78000000D02*
X57460000Y-74160000D01*
X57460000Y-74160000D02*
X57100000Y-73800000D01*
D28*
%TO.N,Net-(D2-K)*%
X64000000Y-80300000D02*
X68000000Y-80300000D01*
X68000000Y-79000000D02*
X68000000Y-80300000D01*
%TD*%
M02*
