%TF.GenerationSoftware,KiCad,Pcbnew,7.0.7-7.0.7~ubuntu22.04.1*%
%TF.CreationDate,2023-09-19T11:06:22+02:00*%
%TF.ProjectId,kicad103,6b696361-6431-4303-932e-6b696361645f,rev?*%
%TF.SameCoordinates,Original*%
%TF.FileFunction,Legend,Bot*%
%TF.FilePolarity,Positive*%
%FSLAX46Y46*%
G04 Gerber Fmt 4.6, Leading zero omitted, Abs format (unit mm)*
G04 Created by KiCad (PCBNEW 7.0.7-7.0.7~ubuntu22.04.1) date 2023-09-19 11:06:22*
%MOMM*%
%LPD*%
G01*
G04 APERTURE LIST*
%ADD10C,0.200000*%
%ADD11C,0.250000*%
%ADD12C,0.120000*%
G04 APERTURE END LIST*
D10*
X112706517Y-67114838D02*
X112801755Y-67067219D01*
X112801755Y-67067219D02*
X112944612Y-67067219D01*
X112944612Y-67067219D02*
X113087469Y-67114838D01*
X113087469Y-67114838D02*
X113182707Y-67210076D01*
X113182707Y-67210076D02*
X113230326Y-67305314D01*
X113230326Y-67305314D02*
X113277945Y-67495790D01*
X113277945Y-67495790D02*
X113277945Y-67638647D01*
X113277945Y-67638647D02*
X113230326Y-67829123D01*
X113230326Y-67829123D02*
X113182707Y-67924361D01*
X113182707Y-67924361D02*
X113087469Y-68019600D01*
X113087469Y-68019600D02*
X112944612Y-68067219D01*
X112944612Y-68067219D02*
X112849374Y-68067219D01*
X112849374Y-68067219D02*
X112706517Y-68019600D01*
X112706517Y-68019600D02*
X112658898Y-67971980D01*
X112658898Y-67971980D02*
X112658898Y-67638647D01*
X112658898Y-67638647D02*
X112849374Y-67638647D01*
X112230326Y-68067219D02*
X112230326Y-67067219D01*
X112230326Y-67067219D02*
X111658898Y-68067219D01*
X111658898Y-68067219D02*
X111658898Y-67067219D01*
X111182707Y-68067219D02*
X111182707Y-67067219D01*
X111182707Y-67067219D02*
X110944612Y-67067219D01*
X110944612Y-67067219D02*
X110801755Y-67114838D01*
X110801755Y-67114838D02*
X110706517Y-67210076D01*
X110706517Y-67210076D02*
X110658898Y-67305314D01*
X110658898Y-67305314D02*
X110611279Y-67495790D01*
X110611279Y-67495790D02*
X110611279Y-67638647D01*
X110611279Y-67638647D02*
X110658898Y-67829123D01*
X110658898Y-67829123D02*
X110706517Y-67924361D01*
X110706517Y-67924361D02*
X110801755Y-68019600D01*
X110801755Y-68019600D02*
X110944612Y-68067219D01*
X110944612Y-68067219D02*
X111182707Y-68067219D01*
X115177945Y-66419600D02*
X115035088Y-66467219D01*
X115035088Y-66467219D02*
X114796993Y-66467219D01*
X114796993Y-66467219D02*
X114701755Y-66419600D01*
X114701755Y-66419600D02*
X114654136Y-66371980D01*
X114654136Y-66371980D02*
X114606517Y-66276742D01*
X114606517Y-66276742D02*
X114606517Y-66181504D01*
X114606517Y-66181504D02*
X114654136Y-66086266D01*
X114654136Y-66086266D02*
X114701755Y-66038647D01*
X114701755Y-66038647D02*
X114796993Y-65991028D01*
X114796993Y-65991028D02*
X114987469Y-65943409D01*
X114987469Y-65943409D02*
X115082707Y-65895790D01*
X115082707Y-65895790D02*
X115130326Y-65848171D01*
X115130326Y-65848171D02*
X115177945Y-65752933D01*
X115177945Y-65752933D02*
X115177945Y-65657695D01*
X115177945Y-65657695D02*
X115130326Y-65562457D01*
X115130326Y-65562457D02*
X115082707Y-65514838D01*
X115082707Y-65514838D02*
X114987469Y-65467219D01*
X114987469Y-65467219D02*
X114749374Y-65467219D01*
X114749374Y-65467219D02*
X114606517Y-65514838D01*
X114273183Y-65467219D02*
X114035088Y-66467219D01*
X114035088Y-66467219D02*
X113844612Y-65752933D01*
X113844612Y-65752933D02*
X113654136Y-66467219D01*
X113654136Y-66467219D02*
X113416041Y-65467219D01*
X112463660Y-66371980D02*
X112511279Y-66419600D01*
X112511279Y-66419600D02*
X112654136Y-66467219D01*
X112654136Y-66467219D02*
X112749374Y-66467219D01*
X112749374Y-66467219D02*
X112892231Y-66419600D01*
X112892231Y-66419600D02*
X112987469Y-66324361D01*
X112987469Y-66324361D02*
X113035088Y-66229123D01*
X113035088Y-66229123D02*
X113082707Y-66038647D01*
X113082707Y-66038647D02*
X113082707Y-65895790D01*
X113082707Y-65895790D02*
X113035088Y-65705314D01*
X113035088Y-65705314D02*
X112987469Y-65610076D01*
X112987469Y-65610076D02*
X112892231Y-65514838D01*
X112892231Y-65514838D02*
X112749374Y-65467219D01*
X112749374Y-65467219D02*
X112654136Y-65467219D01*
X112654136Y-65467219D02*
X112511279Y-65514838D01*
X112511279Y-65514838D02*
X112463660Y-65562457D01*
X111558898Y-66467219D02*
X112035088Y-66467219D01*
X112035088Y-66467219D02*
X112035088Y-65467219D01*
X111225564Y-66467219D02*
X111225564Y-65467219D01*
X110654136Y-66467219D02*
X111082707Y-65895790D01*
X110654136Y-65467219D02*
X111225564Y-66038647D01*
X111467219Y-73169673D02*
X110467219Y-73169673D01*
X110467219Y-73169673D02*
X111181504Y-73503006D01*
X111181504Y-73503006D02*
X110467219Y-73836339D01*
X110467219Y-73836339D02*
X111467219Y-73836339D01*
X111467219Y-74741101D02*
X110943409Y-74741101D01*
X110943409Y-74741101D02*
X110848171Y-74693482D01*
X110848171Y-74693482D02*
X110800552Y-74598244D01*
X110800552Y-74598244D02*
X110800552Y-74407768D01*
X110800552Y-74407768D02*
X110848171Y-74312530D01*
X111419600Y-74741101D02*
X111467219Y-74645863D01*
X111467219Y-74645863D02*
X111467219Y-74407768D01*
X111467219Y-74407768D02*
X111419600Y-74312530D01*
X111419600Y-74312530D02*
X111324361Y-74264911D01*
X111324361Y-74264911D02*
X111229123Y-74264911D01*
X111229123Y-74264911D02*
X111133885Y-74312530D01*
X111133885Y-74312530D02*
X111086266Y-74407768D01*
X111086266Y-74407768D02*
X111086266Y-74645863D01*
X111086266Y-74645863D02*
X111038647Y-74741101D01*
X111419600Y-75169673D02*
X111467219Y-75264911D01*
X111467219Y-75264911D02*
X111467219Y-75455387D01*
X111467219Y-75455387D02*
X111419600Y-75550625D01*
X111419600Y-75550625D02*
X111324361Y-75598244D01*
X111324361Y-75598244D02*
X111276742Y-75598244D01*
X111276742Y-75598244D02*
X111181504Y-75550625D01*
X111181504Y-75550625D02*
X111133885Y-75455387D01*
X111133885Y-75455387D02*
X111133885Y-75312530D01*
X111133885Y-75312530D02*
X111086266Y-75217292D01*
X111086266Y-75217292D02*
X110991028Y-75169673D01*
X110991028Y-75169673D02*
X110943409Y-75169673D01*
X110943409Y-75169673D02*
X110848171Y-75217292D01*
X110848171Y-75217292D02*
X110800552Y-75312530D01*
X110800552Y-75312530D02*
X110800552Y-75455387D01*
X110800552Y-75455387D02*
X110848171Y-75550625D01*
X110800552Y-75883959D02*
X110800552Y-76264911D01*
X110467219Y-76026816D02*
X111324361Y-76026816D01*
X111324361Y-76026816D02*
X111419600Y-76074435D01*
X111419600Y-76074435D02*
X111467219Y-76169673D01*
X111467219Y-76169673D02*
X111467219Y-76264911D01*
X111419600Y-76979197D02*
X111467219Y-76883959D01*
X111467219Y-76883959D02*
X111467219Y-76693483D01*
X111467219Y-76693483D02*
X111419600Y-76598245D01*
X111419600Y-76598245D02*
X111324361Y-76550626D01*
X111324361Y-76550626D02*
X110943409Y-76550626D01*
X110943409Y-76550626D02*
X110848171Y-76598245D01*
X110848171Y-76598245D02*
X110800552Y-76693483D01*
X110800552Y-76693483D02*
X110800552Y-76883959D01*
X110800552Y-76883959D02*
X110848171Y-76979197D01*
X110848171Y-76979197D02*
X110943409Y-77026816D01*
X110943409Y-77026816D02*
X111038647Y-77026816D01*
X111038647Y-77026816D02*
X111133885Y-76550626D01*
X111467219Y-77455388D02*
X110800552Y-77455388D01*
X110991028Y-77455388D02*
X110895790Y-77503007D01*
X110895790Y-77503007D02*
X110848171Y-77550626D01*
X110848171Y-77550626D02*
X110800552Y-77645864D01*
X110800552Y-77645864D02*
X110800552Y-77741102D01*
X59730326Y-81067219D02*
X59730326Y-80067219D01*
X59730326Y-80067219D02*
X59349374Y-80067219D01*
X59349374Y-80067219D02*
X59254136Y-80114838D01*
X59254136Y-80114838D02*
X59206517Y-80162457D01*
X59206517Y-80162457D02*
X59158898Y-80257695D01*
X59158898Y-80257695D02*
X59158898Y-80400552D01*
X59158898Y-80400552D02*
X59206517Y-80495790D01*
X59206517Y-80495790D02*
X59254136Y-80543409D01*
X59254136Y-80543409D02*
X59349374Y-80591028D01*
X59349374Y-80591028D02*
X59730326Y-80591028D01*
X58825564Y-80067219D02*
X58587469Y-81067219D01*
X58587469Y-81067219D02*
X58396993Y-80352933D01*
X58396993Y-80352933D02*
X58206517Y-81067219D01*
X58206517Y-81067219D02*
X57968422Y-80067219D01*
X57016041Y-81067219D02*
X57349374Y-80591028D01*
X57587469Y-81067219D02*
X57587469Y-80067219D01*
X57587469Y-80067219D02*
X57206517Y-80067219D01*
X57206517Y-80067219D02*
X57111279Y-80114838D01*
X57111279Y-80114838D02*
X57063660Y-80162457D01*
X57063660Y-80162457D02*
X57016041Y-80257695D01*
X57016041Y-80257695D02*
X57016041Y-80400552D01*
X57016041Y-80400552D02*
X57063660Y-80495790D01*
X57063660Y-80495790D02*
X57111279Y-80543409D01*
X57111279Y-80543409D02*
X57206517Y-80591028D01*
X57206517Y-80591028D02*
X57587469Y-80591028D01*
X114977945Y-64119600D02*
X114835088Y-64167219D01*
X114835088Y-64167219D02*
X114596993Y-64167219D01*
X114596993Y-64167219D02*
X114501755Y-64119600D01*
X114501755Y-64119600D02*
X114454136Y-64071980D01*
X114454136Y-64071980D02*
X114406517Y-63976742D01*
X114406517Y-63976742D02*
X114406517Y-63881504D01*
X114406517Y-63881504D02*
X114454136Y-63786266D01*
X114454136Y-63786266D02*
X114501755Y-63738647D01*
X114501755Y-63738647D02*
X114596993Y-63691028D01*
X114596993Y-63691028D02*
X114787469Y-63643409D01*
X114787469Y-63643409D02*
X114882707Y-63595790D01*
X114882707Y-63595790D02*
X114930326Y-63548171D01*
X114930326Y-63548171D02*
X114977945Y-63452933D01*
X114977945Y-63452933D02*
X114977945Y-63357695D01*
X114977945Y-63357695D02*
X114930326Y-63262457D01*
X114930326Y-63262457D02*
X114882707Y-63214838D01*
X114882707Y-63214838D02*
X114787469Y-63167219D01*
X114787469Y-63167219D02*
X114549374Y-63167219D01*
X114549374Y-63167219D02*
X114406517Y-63214838D01*
X114073183Y-63167219D02*
X113835088Y-64167219D01*
X113835088Y-64167219D02*
X113644612Y-63452933D01*
X113644612Y-63452933D02*
X113454136Y-64167219D01*
X113454136Y-64167219D02*
X113216041Y-63167219D01*
X112835088Y-64167219D02*
X112835088Y-63167219D01*
X112835088Y-63167219D02*
X112596993Y-63167219D01*
X112596993Y-63167219D02*
X112454136Y-63214838D01*
X112454136Y-63214838D02*
X112358898Y-63310076D01*
X112358898Y-63310076D02*
X112311279Y-63405314D01*
X112311279Y-63405314D02*
X112263660Y-63595790D01*
X112263660Y-63595790D02*
X112263660Y-63738647D01*
X112263660Y-63738647D02*
X112311279Y-63929123D01*
X112311279Y-63929123D02*
X112358898Y-64024361D01*
X112358898Y-64024361D02*
X112454136Y-64119600D01*
X112454136Y-64119600D02*
X112596993Y-64167219D01*
X112596993Y-64167219D02*
X112835088Y-64167219D01*
X111835088Y-64167219D02*
X111835088Y-63167219D01*
X111168422Y-63167219D02*
X110977946Y-63167219D01*
X110977946Y-63167219D02*
X110882708Y-63214838D01*
X110882708Y-63214838D02*
X110787470Y-63310076D01*
X110787470Y-63310076D02*
X110739851Y-63500552D01*
X110739851Y-63500552D02*
X110739851Y-63833885D01*
X110739851Y-63833885D02*
X110787470Y-64024361D01*
X110787470Y-64024361D02*
X110882708Y-64119600D01*
X110882708Y-64119600D02*
X110977946Y-64167219D01*
X110977946Y-64167219D02*
X111168422Y-64167219D01*
X111168422Y-64167219D02*
X111263660Y-64119600D01*
X111263660Y-64119600D02*
X111358898Y-64024361D01*
X111358898Y-64024361D02*
X111406517Y-63833885D01*
X111406517Y-63833885D02*
X111406517Y-63500552D01*
X111406517Y-63500552D02*
X111358898Y-63310076D01*
X111358898Y-63310076D02*
X111263660Y-63214838D01*
X111263660Y-63214838D02*
X111168422Y-63167219D01*
X55830326Y-73886266D02*
X55068422Y-73886266D01*
X55449374Y-74267219D02*
X55449374Y-73505314D01*
X118106517Y-78314838D02*
X118201755Y-78267219D01*
X118201755Y-78267219D02*
X118344612Y-78267219D01*
X118344612Y-78267219D02*
X118487469Y-78314838D01*
X118487469Y-78314838D02*
X118582707Y-78410076D01*
X118582707Y-78410076D02*
X118630326Y-78505314D01*
X118630326Y-78505314D02*
X118677945Y-78695790D01*
X118677945Y-78695790D02*
X118677945Y-78838647D01*
X118677945Y-78838647D02*
X118630326Y-79029123D01*
X118630326Y-79029123D02*
X118582707Y-79124361D01*
X118582707Y-79124361D02*
X118487469Y-79219600D01*
X118487469Y-79219600D02*
X118344612Y-79267219D01*
X118344612Y-79267219D02*
X118249374Y-79267219D01*
X118249374Y-79267219D02*
X118106517Y-79219600D01*
X118106517Y-79219600D02*
X118058898Y-79171980D01*
X118058898Y-79171980D02*
X118058898Y-78838647D01*
X118058898Y-78838647D02*
X118249374Y-78838647D01*
X117630326Y-79267219D02*
X117630326Y-78267219D01*
X117630326Y-78267219D02*
X117058898Y-79267219D01*
X117058898Y-79267219D02*
X117058898Y-78267219D01*
X116582707Y-79267219D02*
X116582707Y-78267219D01*
X116582707Y-78267219D02*
X116344612Y-78267219D01*
X116344612Y-78267219D02*
X116201755Y-78314838D01*
X116201755Y-78314838D02*
X116106517Y-78410076D01*
X116106517Y-78410076D02*
X116058898Y-78505314D01*
X116058898Y-78505314D02*
X116011279Y-78695790D01*
X116011279Y-78695790D02*
X116011279Y-78838647D01*
X116011279Y-78838647D02*
X116058898Y-79029123D01*
X116058898Y-79029123D02*
X116106517Y-79124361D01*
X116106517Y-79124361D02*
X116201755Y-79219600D01*
X116201755Y-79219600D02*
X116344612Y-79267219D01*
X116344612Y-79267219D02*
X116582707Y-79267219D01*
X120677945Y-76719600D02*
X120535088Y-76767219D01*
X120535088Y-76767219D02*
X120296993Y-76767219D01*
X120296993Y-76767219D02*
X120201755Y-76719600D01*
X120201755Y-76719600D02*
X120154136Y-76671980D01*
X120154136Y-76671980D02*
X120106517Y-76576742D01*
X120106517Y-76576742D02*
X120106517Y-76481504D01*
X120106517Y-76481504D02*
X120154136Y-76386266D01*
X120154136Y-76386266D02*
X120201755Y-76338647D01*
X120201755Y-76338647D02*
X120296993Y-76291028D01*
X120296993Y-76291028D02*
X120487469Y-76243409D01*
X120487469Y-76243409D02*
X120582707Y-76195790D01*
X120582707Y-76195790D02*
X120630326Y-76148171D01*
X120630326Y-76148171D02*
X120677945Y-76052933D01*
X120677945Y-76052933D02*
X120677945Y-75957695D01*
X120677945Y-75957695D02*
X120630326Y-75862457D01*
X120630326Y-75862457D02*
X120582707Y-75814838D01*
X120582707Y-75814838D02*
X120487469Y-75767219D01*
X120487469Y-75767219D02*
X120249374Y-75767219D01*
X120249374Y-75767219D02*
X120106517Y-75814838D01*
X119773183Y-75767219D02*
X119535088Y-76767219D01*
X119535088Y-76767219D02*
X119344612Y-76052933D01*
X119344612Y-76052933D02*
X119154136Y-76767219D01*
X119154136Y-76767219D02*
X118916041Y-75767219D01*
X117963660Y-76671980D02*
X118011279Y-76719600D01*
X118011279Y-76719600D02*
X118154136Y-76767219D01*
X118154136Y-76767219D02*
X118249374Y-76767219D01*
X118249374Y-76767219D02*
X118392231Y-76719600D01*
X118392231Y-76719600D02*
X118487469Y-76624361D01*
X118487469Y-76624361D02*
X118535088Y-76529123D01*
X118535088Y-76529123D02*
X118582707Y-76338647D01*
X118582707Y-76338647D02*
X118582707Y-76195790D01*
X118582707Y-76195790D02*
X118535088Y-76005314D01*
X118535088Y-76005314D02*
X118487469Y-75910076D01*
X118487469Y-75910076D02*
X118392231Y-75814838D01*
X118392231Y-75814838D02*
X118249374Y-75767219D01*
X118249374Y-75767219D02*
X118154136Y-75767219D01*
X118154136Y-75767219D02*
X118011279Y-75814838D01*
X118011279Y-75814838D02*
X117963660Y-75862457D01*
X117058898Y-76767219D02*
X117535088Y-76767219D01*
X117535088Y-76767219D02*
X117535088Y-75767219D01*
X116725564Y-76767219D02*
X116725564Y-75767219D01*
X116154136Y-76767219D02*
X116582707Y-76195790D01*
X116154136Y-75767219D02*
X116725564Y-76338647D01*
X114825564Y-60767219D02*
X114206517Y-60767219D01*
X114206517Y-60767219D02*
X114539850Y-61148171D01*
X114539850Y-61148171D02*
X114396993Y-61148171D01*
X114396993Y-61148171D02*
X114301755Y-61195790D01*
X114301755Y-61195790D02*
X114254136Y-61243409D01*
X114254136Y-61243409D02*
X114206517Y-61338647D01*
X114206517Y-61338647D02*
X114206517Y-61576742D01*
X114206517Y-61576742D02*
X114254136Y-61671980D01*
X114254136Y-61671980D02*
X114301755Y-61719600D01*
X114301755Y-61719600D02*
X114396993Y-61767219D01*
X114396993Y-61767219D02*
X114682707Y-61767219D01*
X114682707Y-61767219D02*
X114777945Y-61719600D01*
X114777945Y-61719600D02*
X114825564Y-61671980D01*
X113777945Y-61671980D02*
X113730326Y-61719600D01*
X113730326Y-61719600D02*
X113777945Y-61767219D01*
X113777945Y-61767219D02*
X113825564Y-61719600D01*
X113825564Y-61719600D02*
X113777945Y-61671980D01*
X113777945Y-61671980D02*
X113777945Y-61767219D01*
X113396993Y-60767219D02*
X112777946Y-60767219D01*
X112777946Y-60767219D02*
X113111279Y-61148171D01*
X113111279Y-61148171D02*
X112968422Y-61148171D01*
X112968422Y-61148171D02*
X112873184Y-61195790D01*
X112873184Y-61195790D02*
X112825565Y-61243409D01*
X112825565Y-61243409D02*
X112777946Y-61338647D01*
X112777946Y-61338647D02*
X112777946Y-61576742D01*
X112777946Y-61576742D02*
X112825565Y-61671980D01*
X112825565Y-61671980D02*
X112873184Y-61719600D01*
X112873184Y-61719600D02*
X112968422Y-61767219D01*
X112968422Y-61767219D02*
X113254136Y-61767219D01*
X113254136Y-61767219D02*
X113349374Y-61719600D01*
X113349374Y-61719600D02*
X113396993Y-61671980D01*
X112492231Y-60767219D02*
X112158898Y-61767219D01*
X112158898Y-61767219D02*
X111825565Y-60767219D01*
X55330326Y-78086266D02*
X54568422Y-78086266D01*
X54949374Y-78467219D02*
X54949374Y-77705314D01*
X113477945Y-59319600D02*
X113335088Y-59367219D01*
X113335088Y-59367219D02*
X113096993Y-59367219D01*
X113096993Y-59367219D02*
X113001755Y-59319600D01*
X113001755Y-59319600D02*
X112954136Y-59271980D01*
X112954136Y-59271980D02*
X112906517Y-59176742D01*
X112906517Y-59176742D02*
X112906517Y-59081504D01*
X112906517Y-59081504D02*
X112954136Y-58986266D01*
X112954136Y-58986266D02*
X113001755Y-58938647D01*
X113001755Y-58938647D02*
X113096993Y-58891028D01*
X113096993Y-58891028D02*
X113287469Y-58843409D01*
X113287469Y-58843409D02*
X113382707Y-58795790D01*
X113382707Y-58795790D02*
X113430326Y-58748171D01*
X113430326Y-58748171D02*
X113477945Y-58652933D01*
X113477945Y-58652933D02*
X113477945Y-58557695D01*
X113477945Y-58557695D02*
X113430326Y-58462457D01*
X113430326Y-58462457D02*
X113382707Y-58414838D01*
X113382707Y-58414838D02*
X113287469Y-58367219D01*
X113287469Y-58367219D02*
X113049374Y-58367219D01*
X113049374Y-58367219D02*
X112906517Y-58414838D01*
X112573183Y-58367219D02*
X112335088Y-59367219D01*
X112335088Y-59367219D02*
X112144612Y-58652933D01*
X112144612Y-58652933D02*
X111954136Y-59367219D01*
X111954136Y-59367219D02*
X111716041Y-58367219D01*
X111144612Y-58367219D02*
X110954136Y-58367219D01*
X110954136Y-58367219D02*
X110858898Y-58414838D01*
X110858898Y-58414838D02*
X110763660Y-58510076D01*
X110763660Y-58510076D02*
X110716041Y-58700552D01*
X110716041Y-58700552D02*
X110716041Y-59033885D01*
X110716041Y-59033885D02*
X110763660Y-59224361D01*
X110763660Y-59224361D02*
X110858898Y-59319600D01*
X110858898Y-59319600D02*
X110954136Y-59367219D01*
X110954136Y-59367219D02*
X111144612Y-59367219D01*
X111144612Y-59367219D02*
X111239850Y-59319600D01*
X111239850Y-59319600D02*
X111335088Y-59224361D01*
X111335088Y-59224361D02*
X111382707Y-59033885D01*
X111382707Y-59033885D02*
X111382707Y-58700552D01*
X111382707Y-58700552D02*
X111335088Y-58510076D01*
X111335088Y-58510076D02*
X111239850Y-58414838D01*
X111239850Y-58414838D02*
X111144612Y-58367219D01*
X106419600Y-62122054D02*
X106467219Y-62264911D01*
X106467219Y-62264911D02*
X106467219Y-62503006D01*
X106467219Y-62503006D02*
X106419600Y-62598244D01*
X106419600Y-62598244D02*
X106371980Y-62645863D01*
X106371980Y-62645863D02*
X106276742Y-62693482D01*
X106276742Y-62693482D02*
X106181504Y-62693482D01*
X106181504Y-62693482D02*
X106086266Y-62645863D01*
X106086266Y-62645863D02*
X106038647Y-62598244D01*
X106038647Y-62598244D02*
X105991028Y-62503006D01*
X105991028Y-62503006D02*
X105943409Y-62312530D01*
X105943409Y-62312530D02*
X105895790Y-62217292D01*
X105895790Y-62217292D02*
X105848171Y-62169673D01*
X105848171Y-62169673D02*
X105752933Y-62122054D01*
X105752933Y-62122054D02*
X105657695Y-62122054D01*
X105657695Y-62122054D02*
X105562457Y-62169673D01*
X105562457Y-62169673D02*
X105514838Y-62217292D01*
X105514838Y-62217292D02*
X105467219Y-62312530D01*
X105467219Y-62312530D02*
X105467219Y-62550625D01*
X105467219Y-62550625D02*
X105514838Y-62693482D01*
X106467219Y-63264911D02*
X106419600Y-63169673D01*
X106419600Y-63169673D02*
X106324361Y-63122054D01*
X106324361Y-63122054D02*
X105467219Y-63122054D01*
X106467219Y-64074435D02*
X105943409Y-64074435D01*
X105943409Y-64074435D02*
X105848171Y-64026816D01*
X105848171Y-64026816D02*
X105800552Y-63931578D01*
X105800552Y-63931578D02*
X105800552Y-63741102D01*
X105800552Y-63741102D02*
X105848171Y-63645864D01*
X106419600Y-64074435D02*
X106467219Y-63979197D01*
X106467219Y-63979197D02*
X106467219Y-63741102D01*
X106467219Y-63741102D02*
X106419600Y-63645864D01*
X106419600Y-63645864D02*
X106324361Y-63598245D01*
X106324361Y-63598245D02*
X106229123Y-63598245D01*
X106229123Y-63598245D02*
X106133885Y-63645864D01*
X106133885Y-63645864D02*
X106086266Y-63741102D01*
X106086266Y-63741102D02*
X106086266Y-63979197D01*
X106086266Y-63979197D02*
X106038647Y-64074435D01*
X105800552Y-64455388D02*
X106467219Y-64693483D01*
X106467219Y-64693483D02*
X105800552Y-64931578D01*
X106419600Y-65693483D02*
X106467219Y-65598245D01*
X106467219Y-65598245D02*
X106467219Y-65407769D01*
X106467219Y-65407769D02*
X106419600Y-65312531D01*
X106419600Y-65312531D02*
X106324361Y-65264912D01*
X106324361Y-65264912D02*
X105943409Y-65264912D01*
X105943409Y-65264912D02*
X105848171Y-65312531D01*
X105848171Y-65312531D02*
X105800552Y-65407769D01*
X105800552Y-65407769D02*
X105800552Y-65598245D01*
X105800552Y-65598245D02*
X105848171Y-65693483D01*
X105848171Y-65693483D02*
X105943409Y-65741102D01*
X105943409Y-65741102D02*
X106038647Y-65741102D01*
X106038647Y-65741102D02*
X106133885Y-65264912D01*
X62430326Y-77986266D02*
X61668422Y-77986266D01*
X119025564Y-70767219D02*
X118406517Y-70767219D01*
X118406517Y-70767219D02*
X118739850Y-71148171D01*
X118739850Y-71148171D02*
X118596993Y-71148171D01*
X118596993Y-71148171D02*
X118501755Y-71195790D01*
X118501755Y-71195790D02*
X118454136Y-71243409D01*
X118454136Y-71243409D02*
X118406517Y-71338647D01*
X118406517Y-71338647D02*
X118406517Y-71576742D01*
X118406517Y-71576742D02*
X118454136Y-71671980D01*
X118454136Y-71671980D02*
X118501755Y-71719600D01*
X118501755Y-71719600D02*
X118596993Y-71767219D01*
X118596993Y-71767219D02*
X118882707Y-71767219D01*
X118882707Y-71767219D02*
X118977945Y-71719600D01*
X118977945Y-71719600D02*
X119025564Y-71671980D01*
X117977945Y-71671980D02*
X117930326Y-71719600D01*
X117930326Y-71719600D02*
X117977945Y-71767219D01*
X117977945Y-71767219D02*
X118025564Y-71719600D01*
X118025564Y-71719600D02*
X117977945Y-71671980D01*
X117977945Y-71671980D02*
X117977945Y-71767219D01*
X117596993Y-70767219D02*
X116977946Y-70767219D01*
X116977946Y-70767219D02*
X117311279Y-71148171D01*
X117311279Y-71148171D02*
X117168422Y-71148171D01*
X117168422Y-71148171D02*
X117073184Y-71195790D01*
X117073184Y-71195790D02*
X117025565Y-71243409D01*
X117025565Y-71243409D02*
X116977946Y-71338647D01*
X116977946Y-71338647D02*
X116977946Y-71576742D01*
X116977946Y-71576742D02*
X117025565Y-71671980D01*
X117025565Y-71671980D02*
X117073184Y-71719600D01*
X117073184Y-71719600D02*
X117168422Y-71767219D01*
X117168422Y-71767219D02*
X117454136Y-71767219D01*
X117454136Y-71767219D02*
X117549374Y-71719600D01*
X117549374Y-71719600D02*
X117596993Y-71671980D01*
X116692231Y-70767219D02*
X116358898Y-71767219D01*
X116358898Y-71767219D02*
X116025565Y-70767219D01*
X120277945Y-74119600D02*
X120135088Y-74167219D01*
X120135088Y-74167219D02*
X119896993Y-74167219D01*
X119896993Y-74167219D02*
X119801755Y-74119600D01*
X119801755Y-74119600D02*
X119754136Y-74071980D01*
X119754136Y-74071980D02*
X119706517Y-73976742D01*
X119706517Y-73976742D02*
X119706517Y-73881504D01*
X119706517Y-73881504D02*
X119754136Y-73786266D01*
X119754136Y-73786266D02*
X119801755Y-73738647D01*
X119801755Y-73738647D02*
X119896993Y-73691028D01*
X119896993Y-73691028D02*
X120087469Y-73643409D01*
X120087469Y-73643409D02*
X120182707Y-73595790D01*
X120182707Y-73595790D02*
X120230326Y-73548171D01*
X120230326Y-73548171D02*
X120277945Y-73452933D01*
X120277945Y-73452933D02*
X120277945Y-73357695D01*
X120277945Y-73357695D02*
X120230326Y-73262457D01*
X120230326Y-73262457D02*
X120182707Y-73214838D01*
X120182707Y-73214838D02*
X120087469Y-73167219D01*
X120087469Y-73167219D02*
X119849374Y-73167219D01*
X119849374Y-73167219D02*
X119706517Y-73214838D01*
X119373183Y-73167219D02*
X119135088Y-74167219D01*
X119135088Y-74167219D02*
X118944612Y-73452933D01*
X118944612Y-73452933D02*
X118754136Y-74167219D01*
X118754136Y-74167219D02*
X118516041Y-73167219D01*
X118135088Y-74167219D02*
X118135088Y-73167219D01*
X118135088Y-73167219D02*
X117896993Y-73167219D01*
X117896993Y-73167219D02*
X117754136Y-73214838D01*
X117754136Y-73214838D02*
X117658898Y-73310076D01*
X117658898Y-73310076D02*
X117611279Y-73405314D01*
X117611279Y-73405314D02*
X117563660Y-73595790D01*
X117563660Y-73595790D02*
X117563660Y-73738647D01*
X117563660Y-73738647D02*
X117611279Y-73929123D01*
X117611279Y-73929123D02*
X117658898Y-74024361D01*
X117658898Y-74024361D02*
X117754136Y-74119600D01*
X117754136Y-74119600D02*
X117896993Y-74167219D01*
X117896993Y-74167219D02*
X118135088Y-74167219D01*
X117135088Y-74167219D02*
X117135088Y-73167219D01*
X116468422Y-73167219D02*
X116277946Y-73167219D01*
X116277946Y-73167219D02*
X116182708Y-73214838D01*
X116182708Y-73214838D02*
X116087470Y-73310076D01*
X116087470Y-73310076D02*
X116039851Y-73500552D01*
X116039851Y-73500552D02*
X116039851Y-73833885D01*
X116039851Y-73833885D02*
X116087470Y-74024361D01*
X116087470Y-74024361D02*
X116182708Y-74119600D01*
X116182708Y-74119600D02*
X116277946Y-74167219D01*
X116277946Y-74167219D02*
X116468422Y-74167219D01*
X116468422Y-74167219D02*
X116563660Y-74119600D01*
X116563660Y-74119600D02*
X116658898Y-74024361D01*
X116658898Y-74024361D02*
X116706517Y-73833885D01*
X116706517Y-73833885D02*
X116706517Y-73500552D01*
X116706517Y-73500552D02*
X116658898Y-73310076D01*
X116658898Y-73310076D02*
X116563660Y-73214838D01*
X116563660Y-73214838D02*
X116468422Y-73167219D01*
%TO.C,IC1*%
X59600000Y-60550000D02*
X59600000Y-67050000D01*
X59600000Y-67050000D02*
X61700000Y-67050000D01*
X61700000Y-60550000D02*
X59600000Y-60550000D01*
D11*
X57525000Y-67100000D02*
G75*
G03*
X57525000Y-67100000I-125000J0D01*
G01*
D12*
%TO.C,R1*%
X67265000Y-78314564D02*
X67265000Y-77860436D01*
X68735000Y-78314564D02*
X68735000Y-77860436D01*
%TO.C,C2*%
X71135000Y-63088748D02*
X71135000Y-63611252D01*
X69665000Y-63088748D02*
X69665000Y-63611252D01*
%TO.C,C1*%
X60113748Y-69890000D02*
X61536252Y-69890000D01*
X60113748Y-71710000D02*
X61536252Y-71710000D01*
%TO.C,D1*%
X61110000Y-74800000D02*
X57100000Y-74800000D01*
X61110000Y-72800000D02*
X61110000Y-74800000D01*
X61110000Y-72800000D02*
X57100000Y-72800000D01*
%TO.C,R4*%
X72735000Y-67260436D02*
X72735000Y-67714564D01*
X71265000Y-67260436D02*
X71265000Y-67714564D01*
%TO.C,R5*%
X95365000Y-71227064D02*
X95365000Y-70772936D01*
X96835000Y-71227064D02*
X96835000Y-70772936D01*
%TO.C,R2*%
X75335000Y-59472936D02*
X75335000Y-59927064D01*
X73865000Y-59472936D02*
X73865000Y-59927064D01*
%TD*%
M02*
