%TF.GenerationSoftware,KiCad,Pcbnew,7.0.7-7.0.7~ubuntu22.04.1*%
%TF.CreationDate,2023-09-19T15:28:46+02:00*%
%TF.ProjectId,kicad103,6b696361-6431-4303-932e-6b696361645f,rev?*%
%TF.SameCoordinates,Original*%
%TF.FileFunction,Legend,Bot*%
%TF.FilePolarity,Positive*%
%FSLAX46Y46*%
G04 Gerber Fmt 4.6, Leading zero omitted, Abs format (unit mm)*
G04 Created by KiCad (PCBNEW 7.0.7-7.0.7~ubuntu22.04.1) date 2023-09-19 15:28:46*
%MOMM*%
%LPD*%
G01*
G04 APERTURE LIST*
%ADD10C,0.200000*%
%ADD11C,0.250000*%
G04 APERTURE END LIST*
D10*
X71867219Y-89569673D02*
X70867219Y-89569673D01*
X70867219Y-89569673D02*
X70867219Y-89950625D01*
X70867219Y-89950625D02*
X70914838Y-90045863D01*
X70914838Y-90045863D02*
X70962457Y-90093482D01*
X70962457Y-90093482D02*
X71057695Y-90141101D01*
X71057695Y-90141101D02*
X71200552Y-90141101D01*
X71200552Y-90141101D02*
X71295790Y-90093482D01*
X71295790Y-90093482D02*
X71343409Y-90045863D01*
X71343409Y-90045863D02*
X71391028Y-89950625D01*
X71391028Y-89950625D02*
X71391028Y-89569673D01*
X71581504Y-90522054D02*
X71581504Y-90998244D01*
X71867219Y-90426816D02*
X70867219Y-90760149D01*
X70867219Y-90760149D02*
X71867219Y-91093482D01*
X70962457Y-91379197D02*
X70914838Y-91426816D01*
X70914838Y-91426816D02*
X70867219Y-91522054D01*
X70867219Y-91522054D02*
X70867219Y-91760149D01*
X70867219Y-91760149D02*
X70914838Y-91855387D01*
X70914838Y-91855387D02*
X70962457Y-91903006D01*
X70962457Y-91903006D02*
X71057695Y-91950625D01*
X71057695Y-91950625D02*
X71152933Y-91950625D01*
X71152933Y-91950625D02*
X71295790Y-91903006D01*
X71295790Y-91903006D02*
X71867219Y-91331578D01*
X71867219Y-91331578D02*
X71867219Y-91950625D01*
X112806517Y-68414838D02*
X112901755Y-68367219D01*
X112901755Y-68367219D02*
X113044612Y-68367219D01*
X113044612Y-68367219D02*
X113187469Y-68414838D01*
X113187469Y-68414838D02*
X113282707Y-68510076D01*
X113282707Y-68510076D02*
X113330326Y-68605314D01*
X113330326Y-68605314D02*
X113377945Y-68795790D01*
X113377945Y-68795790D02*
X113377945Y-68938647D01*
X113377945Y-68938647D02*
X113330326Y-69129123D01*
X113330326Y-69129123D02*
X113282707Y-69224361D01*
X113282707Y-69224361D02*
X113187469Y-69319600D01*
X113187469Y-69319600D02*
X113044612Y-69367219D01*
X113044612Y-69367219D02*
X112949374Y-69367219D01*
X112949374Y-69367219D02*
X112806517Y-69319600D01*
X112806517Y-69319600D02*
X112758898Y-69271980D01*
X112758898Y-69271980D02*
X112758898Y-68938647D01*
X112758898Y-68938647D02*
X112949374Y-68938647D01*
X112330326Y-69367219D02*
X112330326Y-68367219D01*
X112330326Y-68367219D02*
X111758898Y-69367219D01*
X111758898Y-69367219D02*
X111758898Y-68367219D01*
X111282707Y-69367219D02*
X111282707Y-68367219D01*
X111282707Y-68367219D02*
X111044612Y-68367219D01*
X111044612Y-68367219D02*
X110901755Y-68414838D01*
X110901755Y-68414838D02*
X110806517Y-68510076D01*
X110806517Y-68510076D02*
X110758898Y-68605314D01*
X110758898Y-68605314D02*
X110711279Y-68795790D01*
X110711279Y-68795790D02*
X110711279Y-68938647D01*
X110711279Y-68938647D02*
X110758898Y-69129123D01*
X110758898Y-69129123D02*
X110806517Y-69224361D01*
X110806517Y-69224361D02*
X110901755Y-69319600D01*
X110901755Y-69319600D02*
X111044612Y-69367219D01*
X111044612Y-69367219D02*
X111282707Y-69367219D01*
X115277945Y-66919600D02*
X115135088Y-66967219D01*
X115135088Y-66967219D02*
X114896993Y-66967219D01*
X114896993Y-66967219D02*
X114801755Y-66919600D01*
X114801755Y-66919600D02*
X114754136Y-66871980D01*
X114754136Y-66871980D02*
X114706517Y-66776742D01*
X114706517Y-66776742D02*
X114706517Y-66681504D01*
X114706517Y-66681504D02*
X114754136Y-66586266D01*
X114754136Y-66586266D02*
X114801755Y-66538647D01*
X114801755Y-66538647D02*
X114896993Y-66491028D01*
X114896993Y-66491028D02*
X115087469Y-66443409D01*
X115087469Y-66443409D02*
X115182707Y-66395790D01*
X115182707Y-66395790D02*
X115230326Y-66348171D01*
X115230326Y-66348171D02*
X115277945Y-66252933D01*
X115277945Y-66252933D02*
X115277945Y-66157695D01*
X115277945Y-66157695D02*
X115230326Y-66062457D01*
X115230326Y-66062457D02*
X115182707Y-66014838D01*
X115182707Y-66014838D02*
X115087469Y-65967219D01*
X115087469Y-65967219D02*
X114849374Y-65967219D01*
X114849374Y-65967219D02*
X114706517Y-66014838D01*
X114373183Y-65967219D02*
X114135088Y-66967219D01*
X114135088Y-66967219D02*
X113944612Y-66252933D01*
X113944612Y-66252933D02*
X113754136Y-66967219D01*
X113754136Y-66967219D02*
X113516041Y-65967219D01*
X112563660Y-66871980D02*
X112611279Y-66919600D01*
X112611279Y-66919600D02*
X112754136Y-66967219D01*
X112754136Y-66967219D02*
X112849374Y-66967219D01*
X112849374Y-66967219D02*
X112992231Y-66919600D01*
X112992231Y-66919600D02*
X113087469Y-66824361D01*
X113087469Y-66824361D02*
X113135088Y-66729123D01*
X113135088Y-66729123D02*
X113182707Y-66538647D01*
X113182707Y-66538647D02*
X113182707Y-66395790D01*
X113182707Y-66395790D02*
X113135088Y-66205314D01*
X113135088Y-66205314D02*
X113087469Y-66110076D01*
X113087469Y-66110076D02*
X112992231Y-66014838D01*
X112992231Y-66014838D02*
X112849374Y-65967219D01*
X112849374Y-65967219D02*
X112754136Y-65967219D01*
X112754136Y-65967219D02*
X112611279Y-66014838D01*
X112611279Y-66014838D02*
X112563660Y-66062457D01*
X111658898Y-66967219D02*
X112135088Y-66967219D01*
X112135088Y-66967219D02*
X112135088Y-65967219D01*
X111325564Y-66967219D02*
X111325564Y-65967219D01*
X110754136Y-66967219D02*
X111182707Y-66395790D01*
X110754136Y-65967219D02*
X111325564Y-66538647D01*
X111467219Y-73169673D02*
X110467219Y-73169673D01*
X110467219Y-73169673D02*
X111181504Y-73503006D01*
X111181504Y-73503006D02*
X110467219Y-73836339D01*
X110467219Y-73836339D02*
X111467219Y-73836339D01*
X111467219Y-74741101D02*
X110943409Y-74741101D01*
X110943409Y-74741101D02*
X110848171Y-74693482D01*
X110848171Y-74693482D02*
X110800552Y-74598244D01*
X110800552Y-74598244D02*
X110800552Y-74407768D01*
X110800552Y-74407768D02*
X110848171Y-74312530D01*
X111419600Y-74741101D02*
X111467219Y-74645863D01*
X111467219Y-74645863D02*
X111467219Y-74407768D01*
X111467219Y-74407768D02*
X111419600Y-74312530D01*
X111419600Y-74312530D02*
X111324361Y-74264911D01*
X111324361Y-74264911D02*
X111229123Y-74264911D01*
X111229123Y-74264911D02*
X111133885Y-74312530D01*
X111133885Y-74312530D02*
X111086266Y-74407768D01*
X111086266Y-74407768D02*
X111086266Y-74645863D01*
X111086266Y-74645863D02*
X111038647Y-74741101D01*
X111419600Y-75169673D02*
X111467219Y-75264911D01*
X111467219Y-75264911D02*
X111467219Y-75455387D01*
X111467219Y-75455387D02*
X111419600Y-75550625D01*
X111419600Y-75550625D02*
X111324361Y-75598244D01*
X111324361Y-75598244D02*
X111276742Y-75598244D01*
X111276742Y-75598244D02*
X111181504Y-75550625D01*
X111181504Y-75550625D02*
X111133885Y-75455387D01*
X111133885Y-75455387D02*
X111133885Y-75312530D01*
X111133885Y-75312530D02*
X111086266Y-75217292D01*
X111086266Y-75217292D02*
X110991028Y-75169673D01*
X110991028Y-75169673D02*
X110943409Y-75169673D01*
X110943409Y-75169673D02*
X110848171Y-75217292D01*
X110848171Y-75217292D02*
X110800552Y-75312530D01*
X110800552Y-75312530D02*
X110800552Y-75455387D01*
X110800552Y-75455387D02*
X110848171Y-75550625D01*
X110800552Y-75883959D02*
X110800552Y-76264911D01*
X110467219Y-76026816D02*
X111324361Y-76026816D01*
X111324361Y-76026816D02*
X111419600Y-76074435D01*
X111419600Y-76074435D02*
X111467219Y-76169673D01*
X111467219Y-76169673D02*
X111467219Y-76264911D01*
X111419600Y-76979197D02*
X111467219Y-76883959D01*
X111467219Y-76883959D02*
X111467219Y-76693483D01*
X111467219Y-76693483D02*
X111419600Y-76598245D01*
X111419600Y-76598245D02*
X111324361Y-76550626D01*
X111324361Y-76550626D02*
X110943409Y-76550626D01*
X110943409Y-76550626D02*
X110848171Y-76598245D01*
X110848171Y-76598245D02*
X110800552Y-76693483D01*
X110800552Y-76693483D02*
X110800552Y-76883959D01*
X110800552Y-76883959D02*
X110848171Y-76979197D01*
X110848171Y-76979197D02*
X110943409Y-77026816D01*
X110943409Y-77026816D02*
X111038647Y-77026816D01*
X111038647Y-77026816D02*
X111133885Y-76550626D01*
X111467219Y-77455388D02*
X110800552Y-77455388D01*
X110991028Y-77455388D02*
X110895790Y-77503007D01*
X110895790Y-77503007D02*
X110848171Y-77550626D01*
X110848171Y-77550626D02*
X110800552Y-77645864D01*
X110800552Y-77645864D02*
X110800552Y-77741102D01*
X97267219Y-89569673D02*
X96267219Y-89569673D01*
X96267219Y-89569673D02*
X96267219Y-89950625D01*
X96267219Y-89950625D02*
X96314838Y-90045863D01*
X96314838Y-90045863D02*
X96362457Y-90093482D01*
X96362457Y-90093482D02*
X96457695Y-90141101D01*
X96457695Y-90141101D02*
X96600552Y-90141101D01*
X96600552Y-90141101D02*
X96695790Y-90093482D01*
X96695790Y-90093482D02*
X96743409Y-90045863D01*
X96743409Y-90045863D02*
X96791028Y-89950625D01*
X96791028Y-89950625D02*
X96791028Y-89569673D01*
X96981504Y-90522054D02*
X96981504Y-90998244D01*
X97267219Y-90426816D02*
X96267219Y-90760149D01*
X96267219Y-90760149D02*
X97267219Y-91093482D01*
X97267219Y-91950625D02*
X97267219Y-91379197D01*
X97267219Y-91664911D02*
X96267219Y-91664911D01*
X96267219Y-91664911D02*
X96410076Y-91569673D01*
X96410076Y-91569673D02*
X96505314Y-91474435D01*
X96505314Y-91474435D02*
X96552933Y-91379197D01*
X96600552Y-92807768D02*
X97267219Y-92807768D01*
X96219600Y-92569673D02*
X96933885Y-92331578D01*
X96933885Y-92331578D02*
X96933885Y-92950625D01*
X89667219Y-89569673D02*
X88667219Y-89569673D01*
X88667219Y-89569673D02*
X88667219Y-89950625D01*
X88667219Y-89950625D02*
X88714838Y-90045863D01*
X88714838Y-90045863D02*
X88762457Y-90093482D01*
X88762457Y-90093482D02*
X88857695Y-90141101D01*
X88857695Y-90141101D02*
X89000552Y-90141101D01*
X89000552Y-90141101D02*
X89095790Y-90093482D01*
X89095790Y-90093482D02*
X89143409Y-90045863D01*
X89143409Y-90045863D02*
X89191028Y-89950625D01*
X89191028Y-89950625D02*
X89191028Y-89569673D01*
X89381504Y-90522054D02*
X89381504Y-90998244D01*
X89667219Y-90426816D02*
X88667219Y-90760149D01*
X88667219Y-90760149D02*
X89667219Y-91093482D01*
X89667219Y-91474435D02*
X89667219Y-91664911D01*
X89667219Y-91664911D02*
X89619600Y-91760149D01*
X89619600Y-91760149D02*
X89571980Y-91807768D01*
X89571980Y-91807768D02*
X89429123Y-91903006D01*
X89429123Y-91903006D02*
X89238647Y-91950625D01*
X89238647Y-91950625D02*
X88857695Y-91950625D01*
X88857695Y-91950625D02*
X88762457Y-91903006D01*
X88762457Y-91903006D02*
X88714838Y-91855387D01*
X88714838Y-91855387D02*
X88667219Y-91760149D01*
X88667219Y-91760149D02*
X88667219Y-91569673D01*
X88667219Y-91569673D02*
X88714838Y-91474435D01*
X88714838Y-91474435D02*
X88762457Y-91426816D01*
X88762457Y-91426816D02*
X88857695Y-91379197D01*
X88857695Y-91379197D02*
X89095790Y-91379197D01*
X89095790Y-91379197D02*
X89191028Y-91426816D01*
X89191028Y-91426816D02*
X89238647Y-91474435D01*
X89238647Y-91474435D02*
X89286266Y-91569673D01*
X89286266Y-91569673D02*
X89286266Y-91760149D01*
X89286266Y-91760149D02*
X89238647Y-91855387D01*
X89238647Y-91855387D02*
X89191028Y-91903006D01*
X89191028Y-91903006D02*
X89095790Y-91950625D01*
X93167219Y-47269673D02*
X92167219Y-47269673D01*
X92167219Y-47269673D02*
X92167219Y-47650625D01*
X92167219Y-47650625D02*
X92214838Y-47745863D01*
X92214838Y-47745863D02*
X92262457Y-47793482D01*
X92262457Y-47793482D02*
X92357695Y-47841101D01*
X92357695Y-47841101D02*
X92500552Y-47841101D01*
X92500552Y-47841101D02*
X92595790Y-47793482D01*
X92595790Y-47793482D02*
X92643409Y-47745863D01*
X92643409Y-47745863D02*
X92691028Y-47650625D01*
X92691028Y-47650625D02*
X92691028Y-47269673D01*
X92643409Y-48603006D02*
X92691028Y-48745863D01*
X92691028Y-48745863D02*
X92738647Y-48793482D01*
X92738647Y-48793482D02*
X92833885Y-48841101D01*
X92833885Y-48841101D02*
X92976742Y-48841101D01*
X92976742Y-48841101D02*
X93071980Y-48793482D01*
X93071980Y-48793482D02*
X93119600Y-48745863D01*
X93119600Y-48745863D02*
X93167219Y-48650625D01*
X93167219Y-48650625D02*
X93167219Y-48269673D01*
X93167219Y-48269673D02*
X92167219Y-48269673D01*
X92167219Y-48269673D02*
X92167219Y-48603006D01*
X92167219Y-48603006D02*
X92214838Y-48698244D01*
X92214838Y-48698244D02*
X92262457Y-48745863D01*
X92262457Y-48745863D02*
X92357695Y-48793482D01*
X92357695Y-48793482D02*
X92452933Y-48793482D01*
X92452933Y-48793482D02*
X92548171Y-48745863D01*
X92548171Y-48745863D02*
X92595790Y-48698244D01*
X92595790Y-48698244D02*
X92643409Y-48603006D01*
X92643409Y-48603006D02*
X92643409Y-48269673D01*
X92167219Y-49745863D02*
X92167219Y-49269673D01*
X92167219Y-49269673D02*
X92643409Y-49222054D01*
X92643409Y-49222054D02*
X92595790Y-49269673D01*
X92595790Y-49269673D02*
X92548171Y-49364911D01*
X92548171Y-49364911D02*
X92548171Y-49603006D01*
X92548171Y-49603006D02*
X92595790Y-49698244D01*
X92595790Y-49698244D02*
X92643409Y-49745863D01*
X92643409Y-49745863D02*
X92738647Y-49793482D01*
X92738647Y-49793482D02*
X92976742Y-49793482D01*
X92976742Y-49793482D02*
X93071980Y-49745863D01*
X93071980Y-49745863D02*
X93119600Y-49698244D01*
X93119600Y-49698244D02*
X93167219Y-49603006D01*
X93167219Y-49603006D02*
X93167219Y-49364911D01*
X93167219Y-49364911D02*
X93119600Y-49269673D01*
X93119600Y-49269673D02*
X93071980Y-49222054D01*
X76967219Y-89569673D02*
X75967219Y-89569673D01*
X75967219Y-89569673D02*
X75967219Y-89950625D01*
X75967219Y-89950625D02*
X76014838Y-90045863D01*
X76014838Y-90045863D02*
X76062457Y-90093482D01*
X76062457Y-90093482D02*
X76157695Y-90141101D01*
X76157695Y-90141101D02*
X76300552Y-90141101D01*
X76300552Y-90141101D02*
X76395790Y-90093482D01*
X76395790Y-90093482D02*
X76443409Y-90045863D01*
X76443409Y-90045863D02*
X76491028Y-89950625D01*
X76491028Y-89950625D02*
X76491028Y-89569673D01*
X76681504Y-90522054D02*
X76681504Y-90998244D01*
X76967219Y-90426816D02*
X75967219Y-90760149D01*
X75967219Y-90760149D02*
X76967219Y-91093482D01*
X76300552Y-91855387D02*
X76967219Y-91855387D01*
X75919600Y-91617292D02*
X76633885Y-91379197D01*
X76633885Y-91379197D02*
X76633885Y-91998244D01*
X59730326Y-81067219D02*
X59730326Y-80067219D01*
X59730326Y-80067219D02*
X59349374Y-80067219D01*
X59349374Y-80067219D02*
X59254136Y-80114838D01*
X59254136Y-80114838D02*
X59206517Y-80162457D01*
X59206517Y-80162457D02*
X59158898Y-80257695D01*
X59158898Y-80257695D02*
X59158898Y-80400552D01*
X59158898Y-80400552D02*
X59206517Y-80495790D01*
X59206517Y-80495790D02*
X59254136Y-80543409D01*
X59254136Y-80543409D02*
X59349374Y-80591028D01*
X59349374Y-80591028D02*
X59730326Y-80591028D01*
X58825564Y-80067219D02*
X58587469Y-81067219D01*
X58587469Y-81067219D02*
X58396993Y-80352933D01*
X58396993Y-80352933D02*
X58206517Y-81067219D01*
X58206517Y-81067219D02*
X57968422Y-80067219D01*
X57016041Y-81067219D02*
X57349374Y-80591028D01*
X57587469Y-81067219D02*
X57587469Y-80067219D01*
X57587469Y-80067219D02*
X57206517Y-80067219D01*
X57206517Y-80067219D02*
X57111279Y-80114838D01*
X57111279Y-80114838D02*
X57063660Y-80162457D01*
X57063660Y-80162457D02*
X57016041Y-80257695D01*
X57016041Y-80257695D02*
X57016041Y-80400552D01*
X57016041Y-80400552D02*
X57063660Y-80495790D01*
X57063660Y-80495790D02*
X57111279Y-80543409D01*
X57111279Y-80543409D02*
X57206517Y-80591028D01*
X57206517Y-80591028D02*
X57587469Y-80591028D01*
X100967219Y-47269673D02*
X99967219Y-47269673D01*
X99967219Y-47269673D02*
X99967219Y-47650625D01*
X99967219Y-47650625D02*
X100014838Y-47745863D01*
X100014838Y-47745863D02*
X100062457Y-47793482D01*
X100062457Y-47793482D02*
X100157695Y-47841101D01*
X100157695Y-47841101D02*
X100300552Y-47841101D01*
X100300552Y-47841101D02*
X100395790Y-47793482D01*
X100395790Y-47793482D02*
X100443409Y-47745863D01*
X100443409Y-47745863D02*
X100491028Y-47650625D01*
X100491028Y-47650625D02*
X100491028Y-47269673D01*
X100443409Y-48603006D02*
X100491028Y-48745863D01*
X100491028Y-48745863D02*
X100538647Y-48793482D01*
X100538647Y-48793482D02*
X100633885Y-48841101D01*
X100633885Y-48841101D02*
X100776742Y-48841101D01*
X100776742Y-48841101D02*
X100871980Y-48793482D01*
X100871980Y-48793482D02*
X100919600Y-48745863D01*
X100919600Y-48745863D02*
X100967219Y-48650625D01*
X100967219Y-48650625D02*
X100967219Y-48269673D01*
X100967219Y-48269673D02*
X99967219Y-48269673D01*
X99967219Y-48269673D02*
X99967219Y-48603006D01*
X99967219Y-48603006D02*
X100014838Y-48698244D01*
X100014838Y-48698244D02*
X100062457Y-48745863D01*
X100062457Y-48745863D02*
X100157695Y-48793482D01*
X100157695Y-48793482D02*
X100252933Y-48793482D01*
X100252933Y-48793482D02*
X100348171Y-48745863D01*
X100348171Y-48745863D02*
X100395790Y-48698244D01*
X100395790Y-48698244D02*
X100443409Y-48603006D01*
X100443409Y-48603006D02*
X100443409Y-48269673D01*
X100062457Y-49222054D02*
X100014838Y-49269673D01*
X100014838Y-49269673D02*
X99967219Y-49364911D01*
X99967219Y-49364911D02*
X99967219Y-49603006D01*
X99967219Y-49603006D02*
X100014838Y-49698244D01*
X100014838Y-49698244D02*
X100062457Y-49745863D01*
X100062457Y-49745863D02*
X100157695Y-49793482D01*
X100157695Y-49793482D02*
X100252933Y-49793482D01*
X100252933Y-49793482D02*
X100395790Y-49745863D01*
X100395790Y-49745863D02*
X100967219Y-49174435D01*
X100967219Y-49174435D02*
X100967219Y-49793482D01*
X94667219Y-89569673D02*
X93667219Y-89569673D01*
X93667219Y-89569673D02*
X93667219Y-89950625D01*
X93667219Y-89950625D02*
X93714838Y-90045863D01*
X93714838Y-90045863D02*
X93762457Y-90093482D01*
X93762457Y-90093482D02*
X93857695Y-90141101D01*
X93857695Y-90141101D02*
X94000552Y-90141101D01*
X94000552Y-90141101D02*
X94095790Y-90093482D01*
X94095790Y-90093482D02*
X94143409Y-90045863D01*
X94143409Y-90045863D02*
X94191028Y-89950625D01*
X94191028Y-89950625D02*
X94191028Y-89569673D01*
X94381504Y-90522054D02*
X94381504Y-90998244D01*
X94667219Y-90426816D02*
X93667219Y-90760149D01*
X93667219Y-90760149D02*
X94667219Y-91093482D01*
X94667219Y-91950625D02*
X94667219Y-91379197D01*
X94667219Y-91664911D02*
X93667219Y-91664911D01*
X93667219Y-91664911D02*
X93810076Y-91569673D01*
X93810076Y-91569673D02*
X93905314Y-91474435D01*
X93905314Y-91474435D02*
X93952933Y-91379197D01*
X93667219Y-92283959D02*
X93667219Y-92903006D01*
X93667219Y-92903006D02*
X94048171Y-92569673D01*
X94048171Y-92569673D02*
X94048171Y-92712530D01*
X94048171Y-92712530D02*
X94095790Y-92807768D01*
X94095790Y-92807768D02*
X94143409Y-92855387D01*
X94143409Y-92855387D02*
X94238647Y-92903006D01*
X94238647Y-92903006D02*
X94476742Y-92903006D01*
X94476742Y-92903006D02*
X94571980Y-92855387D01*
X94571980Y-92855387D02*
X94619600Y-92807768D01*
X94619600Y-92807768D02*
X94667219Y-92712530D01*
X94667219Y-92712530D02*
X94667219Y-92426816D01*
X94667219Y-92426816D02*
X94619600Y-92331578D01*
X94619600Y-92331578D02*
X94571980Y-92283959D01*
X90667219Y-47269673D02*
X89667219Y-47269673D01*
X89667219Y-47269673D02*
X89667219Y-47650625D01*
X89667219Y-47650625D02*
X89714838Y-47745863D01*
X89714838Y-47745863D02*
X89762457Y-47793482D01*
X89762457Y-47793482D02*
X89857695Y-47841101D01*
X89857695Y-47841101D02*
X90000552Y-47841101D01*
X90000552Y-47841101D02*
X90095790Y-47793482D01*
X90095790Y-47793482D02*
X90143409Y-47745863D01*
X90143409Y-47745863D02*
X90191028Y-47650625D01*
X90191028Y-47650625D02*
X90191028Y-47269673D01*
X90143409Y-48603006D02*
X90191028Y-48745863D01*
X90191028Y-48745863D02*
X90238647Y-48793482D01*
X90238647Y-48793482D02*
X90333885Y-48841101D01*
X90333885Y-48841101D02*
X90476742Y-48841101D01*
X90476742Y-48841101D02*
X90571980Y-48793482D01*
X90571980Y-48793482D02*
X90619600Y-48745863D01*
X90619600Y-48745863D02*
X90667219Y-48650625D01*
X90667219Y-48650625D02*
X90667219Y-48269673D01*
X90667219Y-48269673D02*
X89667219Y-48269673D01*
X89667219Y-48269673D02*
X89667219Y-48603006D01*
X89667219Y-48603006D02*
X89714838Y-48698244D01*
X89714838Y-48698244D02*
X89762457Y-48745863D01*
X89762457Y-48745863D02*
X89857695Y-48793482D01*
X89857695Y-48793482D02*
X89952933Y-48793482D01*
X89952933Y-48793482D02*
X90048171Y-48745863D01*
X90048171Y-48745863D02*
X90095790Y-48698244D01*
X90095790Y-48698244D02*
X90143409Y-48603006D01*
X90143409Y-48603006D02*
X90143409Y-48269673D01*
X89667219Y-49698244D02*
X89667219Y-49507768D01*
X89667219Y-49507768D02*
X89714838Y-49412530D01*
X89714838Y-49412530D02*
X89762457Y-49364911D01*
X89762457Y-49364911D02*
X89905314Y-49269673D01*
X89905314Y-49269673D02*
X90095790Y-49222054D01*
X90095790Y-49222054D02*
X90476742Y-49222054D01*
X90476742Y-49222054D02*
X90571980Y-49269673D01*
X90571980Y-49269673D02*
X90619600Y-49317292D01*
X90619600Y-49317292D02*
X90667219Y-49412530D01*
X90667219Y-49412530D02*
X90667219Y-49603006D01*
X90667219Y-49603006D02*
X90619600Y-49698244D01*
X90619600Y-49698244D02*
X90571980Y-49745863D01*
X90571980Y-49745863D02*
X90476742Y-49793482D01*
X90476742Y-49793482D02*
X90238647Y-49793482D01*
X90238647Y-49793482D02*
X90143409Y-49745863D01*
X90143409Y-49745863D02*
X90095790Y-49698244D01*
X90095790Y-49698244D02*
X90048171Y-49603006D01*
X90048171Y-49603006D02*
X90048171Y-49412530D01*
X90048171Y-49412530D02*
X90095790Y-49317292D01*
X90095790Y-49317292D02*
X90143409Y-49269673D01*
X90143409Y-49269673D02*
X90238647Y-49222054D01*
X92167219Y-89569673D02*
X91167219Y-89569673D01*
X91167219Y-89569673D02*
X91167219Y-89950625D01*
X91167219Y-89950625D02*
X91214838Y-90045863D01*
X91214838Y-90045863D02*
X91262457Y-90093482D01*
X91262457Y-90093482D02*
X91357695Y-90141101D01*
X91357695Y-90141101D02*
X91500552Y-90141101D01*
X91500552Y-90141101D02*
X91595790Y-90093482D01*
X91595790Y-90093482D02*
X91643409Y-90045863D01*
X91643409Y-90045863D02*
X91691028Y-89950625D01*
X91691028Y-89950625D02*
X91691028Y-89569673D01*
X91881504Y-90522054D02*
X91881504Y-90998244D01*
X92167219Y-90426816D02*
X91167219Y-90760149D01*
X91167219Y-90760149D02*
X92167219Y-91093482D01*
X92167219Y-91950625D02*
X92167219Y-91379197D01*
X92167219Y-91664911D02*
X91167219Y-91664911D01*
X91167219Y-91664911D02*
X91310076Y-91569673D01*
X91310076Y-91569673D02*
X91405314Y-91474435D01*
X91405314Y-91474435D02*
X91452933Y-91379197D01*
X91167219Y-92569673D02*
X91167219Y-92664911D01*
X91167219Y-92664911D02*
X91214838Y-92760149D01*
X91214838Y-92760149D02*
X91262457Y-92807768D01*
X91262457Y-92807768D02*
X91357695Y-92855387D01*
X91357695Y-92855387D02*
X91548171Y-92903006D01*
X91548171Y-92903006D02*
X91786266Y-92903006D01*
X91786266Y-92903006D02*
X91976742Y-92855387D01*
X91976742Y-92855387D02*
X92071980Y-92807768D01*
X92071980Y-92807768D02*
X92119600Y-92760149D01*
X92119600Y-92760149D02*
X92167219Y-92664911D01*
X92167219Y-92664911D02*
X92167219Y-92569673D01*
X92167219Y-92569673D02*
X92119600Y-92474435D01*
X92119600Y-92474435D02*
X92071980Y-92426816D01*
X92071980Y-92426816D02*
X91976742Y-92379197D01*
X91976742Y-92379197D02*
X91786266Y-92331578D01*
X91786266Y-92331578D02*
X91548171Y-92331578D01*
X91548171Y-92331578D02*
X91357695Y-92379197D01*
X91357695Y-92379197D02*
X91262457Y-92426816D01*
X91262457Y-92426816D02*
X91214838Y-92474435D01*
X91214838Y-92474435D02*
X91167219Y-92569673D01*
X114977945Y-64119600D02*
X114835088Y-64167219D01*
X114835088Y-64167219D02*
X114596993Y-64167219D01*
X114596993Y-64167219D02*
X114501755Y-64119600D01*
X114501755Y-64119600D02*
X114454136Y-64071980D01*
X114454136Y-64071980D02*
X114406517Y-63976742D01*
X114406517Y-63976742D02*
X114406517Y-63881504D01*
X114406517Y-63881504D02*
X114454136Y-63786266D01*
X114454136Y-63786266D02*
X114501755Y-63738647D01*
X114501755Y-63738647D02*
X114596993Y-63691028D01*
X114596993Y-63691028D02*
X114787469Y-63643409D01*
X114787469Y-63643409D02*
X114882707Y-63595790D01*
X114882707Y-63595790D02*
X114930326Y-63548171D01*
X114930326Y-63548171D02*
X114977945Y-63452933D01*
X114977945Y-63452933D02*
X114977945Y-63357695D01*
X114977945Y-63357695D02*
X114930326Y-63262457D01*
X114930326Y-63262457D02*
X114882707Y-63214838D01*
X114882707Y-63214838D02*
X114787469Y-63167219D01*
X114787469Y-63167219D02*
X114549374Y-63167219D01*
X114549374Y-63167219D02*
X114406517Y-63214838D01*
X114073183Y-63167219D02*
X113835088Y-64167219D01*
X113835088Y-64167219D02*
X113644612Y-63452933D01*
X113644612Y-63452933D02*
X113454136Y-64167219D01*
X113454136Y-64167219D02*
X113216041Y-63167219D01*
X112835088Y-64167219D02*
X112835088Y-63167219D01*
X112835088Y-63167219D02*
X112596993Y-63167219D01*
X112596993Y-63167219D02*
X112454136Y-63214838D01*
X112454136Y-63214838D02*
X112358898Y-63310076D01*
X112358898Y-63310076D02*
X112311279Y-63405314D01*
X112311279Y-63405314D02*
X112263660Y-63595790D01*
X112263660Y-63595790D02*
X112263660Y-63738647D01*
X112263660Y-63738647D02*
X112311279Y-63929123D01*
X112311279Y-63929123D02*
X112358898Y-64024361D01*
X112358898Y-64024361D02*
X112454136Y-64119600D01*
X112454136Y-64119600D02*
X112596993Y-64167219D01*
X112596993Y-64167219D02*
X112835088Y-64167219D01*
X111835088Y-64167219D02*
X111835088Y-63167219D01*
X111168422Y-63167219D02*
X110977946Y-63167219D01*
X110977946Y-63167219D02*
X110882708Y-63214838D01*
X110882708Y-63214838D02*
X110787470Y-63310076D01*
X110787470Y-63310076D02*
X110739851Y-63500552D01*
X110739851Y-63500552D02*
X110739851Y-63833885D01*
X110739851Y-63833885D02*
X110787470Y-64024361D01*
X110787470Y-64024361D02*
X110882708Y-64119600D01*
X110882708Y-64119600D02*
X110977946Y-64167219D01*
X110977946Y-64167219D02*
X111168422Y-64167219D01*
X111168422Y-64167219D02*
X111263660Y-64119600D01*
X111263660Y-64119600D02*
X111358898Y-64024361D01*
X111358898Y-64024361D02*
X111406517Y-63833885D01*
X111406517Y-63833885D02*
X111406517Y-63500552D01*
X111406517Y-63500552D02*
X111358898Y-63310076D01*
X111358898Y-63310076D02*
X111263660Y-63214838D01*
X111263660Y-63214838D02*
X111168422Y-63167219D01*
X55830326Y-73886266D02*
X55068422Y-73886266D01*
X55449374Y-74267219D02*
X55449374Y-73505314D01*
X98367219Y-47269673D02*
X97367219Y-47269673D01*
X97367219Y-47269673D02*
X97367219Y-47650625D01*
X97367219Y-47650625D02*
X97414838Y-47745863D01*
X97414838Y-47745863D02*
X97462457Y-47793482D01*
X97462457Y-47793482D02*
X97557695Y-47841101D01*
X97557695Y-47841101D02*
X97700552Y-47841101D01*
X97700552Y-47841101D02*
X97795790Y-47793482D01*
X97795790Y-47793482D02*
X97843409Y-47745863D01*
X97843409Y-47745863D02*
X97891028Y-47650625D01*
X97891028Y-47650625D02*
X97891028Y-47269673D01*
X97843409Y-48603006D02*
X97891028Y-48745863D01*
X97891028Y-48745863D02*
X97938647Y-48793482D01*
X97938647Y-48793482D02*
X98033885Y-48841101D01*
X98033885Y-48841101D02*
X98176742Y-48841101D01*
X98176742Y-48841101D02*
X98271980Y-48793482D01*
X98271980Y-48793482D02*
X98319600Y-48745863D01*
X98319600Y-48745863D02*
X98367219Y-48650625D01*
X98367219Y-48650625D02*
X98367219Y-48269673D01*
X98367219Y-48269673D02*
X97367219Y-48269673D01*
X97367219Y-48269673D02*
X97367219Y-48603006D01*
X97367219Y-48603006D02*
X97414838Y-48698244D01*
X97414838Y-48698244D02*
X97462457Y-48745863D01*
X97462457Y-48745863D02*
X97557695Y-48793482D01*
X97557695Y-48793482D02*
X97652933Y-48793482D01*
X97652933Y-48793482D02*
X97748171Y-48745863D01*
X97748171Y-48745863D02*
X97795790Y-48698244D01*
X97795790Y-48698244D02*
X97843409Y-48603006D01*
X97843409Y-48603006D02*
X97843409Y-48269673D01*
X97367219Y-49174435D02*
X97367219Y-49793482D01*
X97367219Y-49793482D02*
X97748171Y-49460149D01*
X97748171Y-49460149D02*
X97748171Y-49603006D01*
X97748171Y-49603006D02*
X97795790Y-49698244D01*
X97795790Y-49698244D02*
X97843409Y-49745863D01*
X97843409Y-49745863D02*
X97938647Y-49793482D01*
X97938647Y-49793482D02*
X98176742Y-49793482D01*
X98176742Y-49793482D02*
X98271980Y-49745863D01*
X98271980Y-49745863D02*
X98319600Y-49698244D01*
X98319600Y-49698244D02*
X98367219Y-49603006D01*
X98367219Y-49603006D02*
X98367219Y-49317292D01*
X98367219Y-49317292D02*
X98319600Y-49222054D01*
X98319600Y-49222054D02*
X98271980Y-49174435D01*
X105967219Y-47269673D02*
X104967219Y-47269673D01*
X104967219Y-47269673D02*
X104967219Y-47650625D01*
X104967219Y-47650625D02*
X105014838Y-47745863D01*
X105014838Y-47745863D02*
X105062457Y-47793482D01*
X105062457Y-47793482D02*
X105157695Y-47841101D01*
X105157695Y-47841101D02*
X105300552Y-47841101D01*
X105300552Y-47841101D02*
X105395790Y-47793482D01*
X105395790Y-47793482D02*
X105443409Y-47745863D01*
X105443409Y-47745863D02*
X105491028Y-47650625D01*
X105491028Y-47650625D02*
X105491028Y-47269673D01*
X105443409Y-48603006D02*
X105491028Y-48745863D01*
X105491028Y-48745863D02*
X105538647Y-48793482D01*
X105538647Y-48793482D02*
X105633885Y-48841101D01*
X105633885Y-48841101D02*
X105776742Y-48841101D01*
X105776742Y-48841101D02*
X105871980Y-48793482D01*
X105871980Y-48793482D02*
X105919600Y-48745863D01*
X105919600Y-48745863D02*
X105967219Y-48650625D01*
X105967219Y-48650625D02*
X105967219Y-48269673D01*
X105967219Y-48269673D02*
X104967219Y-48269673D01*
X104967219Y-48269673D02*
X104967219Y-48603006D01*
X104967219Y-48603006D02*
X105014838Y-48698244D01*
X105014838Y-48698244D02*
X105062457Y-48745863D01*
X105062457Y-48745863D02*
X105157695Y-48793482D01*
X105157695Y-48793482D02*
X105252933Y-48793482D01*
X105252933Y-48793482D02*
X105348171Y-48745863D01*
X105348171Y-48745863D02*
X105395790Y-48698244D01*
X105395790Y-48698244D02*
X105443409Y-48603006D01*
X105443409Y-48603006D02*
X105443409Y-48269673D01*
X104967219Y-49460149D02*
X104967219Y-49555387D01*
X104967219Y-49555387D02*
X105014838Y-49650625D01*
X105014838Y-49650625D02*
X105062457Y-49698244D01*
X105062457Y-49698244D02*
X105157695Y-49745863D01*
X105157695Y-49745863D02*
X105348171Y-49793482D01*
X105348171Y-49793482D02*
X105586266Y-49793482D01*
X105586266Y-49793482D02*
X105776742Y-49745863D01*
X105776742Y-49745863D02*
X105871980Y-49698244D01*
X105871980Y-49698244D02*
X105919600Y-49650625D01*
X105919600Y-49650625D02*
X105967219Y-49555387D01*
X105967219Y-49555387D02*
X105967219Y-49460149D01*
X105967219Y-49460149D02*
X105919600Y-49364911D01*
X105919600Y-49364911D02*
X105871980Y-49317292D01*
X105871980Y-49317292D02*
X105776742Y-49269673D01*
X105776742Y-49269673D02*
X105586266Y-49222054D01*
X105586266Y-49222054D02*
X105348171Y-49222054D01*
X105348171Y-49222054D02*
X105157695Y-49269673D01*
X105157695Y-49269673D02*
X105062457Y-49317292D01*
X105062457Y-49317292D02*
X105014838Y-49364911D01*
X105014838Y-49364911D02*
X104967219Y-49460149D01*
X118106517Y-78314838D02*
X118201755Y-78267219D01*
X118201755Y-78267219D02*
X118344612Y-78267219D01*
X118344612Y-78267219D02*
X118487469Y-78314838D01*
X118487469Y-78314838D02*
X118582707Y-78410076D01*
X118582707Y-78410076D02*
X118630326Y-78505314D01*
X118630326Y-78505314D02*
X118677945Y-78695790D01*
X118677945Y-78695790D02*
X118677945Y-78838647D01*
X118677945Y-78838647D02*
X118630326Y-79029123D01*
X118630326Y-79029123D02*
X118582707Y-79124361D01*
X118582707Y-79124361D02*
X118487469Y-79219600D01*
X118487469Y-79219600D02*
X118344612Y-79267219D01*
X118344612Y-79267219D02*
X118249374Y-79267219D01*
X118249374Y-79267219D02*
X118106517Y-79219600D01*
X118106517Y-79219600D02*
X118058898Y-79171980D01*
X118058898Y-79171980D02*
X118058898Y-78838647D01*
X118058898Y-78838647D02*
X118249374Y-78838647D01*
X117630326Y-79267219D02*
X117630326Y-78267219D01*
X117630326Y-78267219D02*
X117058898Y-79267219D01*
X117058898Y-79267219D02*
X117058898Y-78267219D01*
X116582707Y-79267219D02*
X116582707Y-78267219D01*
X116582707Y-78267219D02*
X116344612Y-78267219D01*
X116344612Y-78267219D02*
X116201755Y-78314838D01*
X116201755Y-78314838D02*
X116106517Y-78410076D01*
X116106517Y-78410076D02*
X116058898Y-78505314D01*
X116058898Y-78505314D02*
X116011279Y-78695790D01*
X116011279Y-78695790D02*
X116011279Y-78838647D01*
X116011279Y-78838647D02*
X116058898Y-79029123D01*
X116058898Y-79029123D02*
X116106517Y-79124361D01*
X116106517Y-79124361D02*
X116201755Y-79219600D01*
X116201755Y-79219600D02*
X116344612Y-79267219D01*
X116344612Y-79267219D02*
X116582707Y-79267219D01*
X80467219Y-46369673D02*
X79467219Y-46369673D01*
X79467219Y-46369673D02*
X79467219Y-46750625D01*
X79467219Y-46750625D02*
X79514838Y-46845863D01*
X79514838Y-46845863D02*
X79562457Y-46893482D01*
X79562457Y-46893482D02*
X79657695Y-46941101D01*
X79657695Y-46941101D02*
X79800552Y-46941101D01*
X79800552Y-46941101D02*
X79895790Y-46893482D01*
X79895790Y-46893482D02*
X79943409Y-46845863D01*
X79943409Y-46845863D02*
X79991028Y-46750625D01*
X79991028Y-46750625D02*
X79991028Y-46369673D01*
X79943409Y-47703006D02*
X79991028Y-47845863D01*
X79991028Y-47845863D02*
X80038647Y-47893482D01*
X80038647Y-47893482D02*
X80133885Y-47941101D01*
X80133885Y-47941101D02*
X80276742Y-47941101D01*
X80276742Y-47941101D02*
X80371980Y-47893482D01*
X80371980Y-47893482D02*
X80419600Y-47845863D01*
X80419600Y-47845863D02*
X80467219Y-47750625D01*
X80467219Y-47750625D02*
X80467219Y-47369673D01*
X80467219Y-47369673D02*
X79467219Y-47369673D01*
X79467219Y-47369673D02*
X79467219Y-47703006D01*
X79467219Y-47703006D02*
X79514838Y-47798244D01*
X79514838Y-47798244D02*
X79562457Y-47845863D01*
X79562457Y-47845863D02*
X79657695Y-47893482D01*
X79657695Y-47893482D02*
X79752933Y-47893482D01*
X79752933Y-47893482D02*
X79848171Y-47845863D01*
X79848171Y-47845863D02*
X79895790Y-47798244D01*
X79895790Y-47798244D02*
X79943409Y-47703006D01*
X79943409Y-47703006D02*
X79943409Y-47369673D01*
X80467219Y-48893482D02*
X80467219Y-48322054D01*
X80467219Y-48607768D02*
X79467219Y-48607768D01*
X79467219Y-48607768D02*
X79610076Y-48512530D01*
X79610076Y-48512530D02*
X79705314Y-48417292D01*
X79705314Y-48417292D02*
X79752933Y-48322054D01*
X79467219Y-49512530D02*
X79467219Y-49607768D01*
X79467219Y-49607768D02*
X79514838Y-49703006D01*
X79514838Y-49703006D02*
X79562457Y-49750625D01*
X79562457Y-49750625D02*
X79657695Y-49798244D01*
X79657695Y-49798244D02*
X79848171Y-49845863D01*
X79848171Y-49845863D02*
X80086266Y-49845863D01*
X80086266Y-49845863D02*
X80276742Y-49798244D01*
X80276742Y-49798244D02*
X80371980Y-49750625D01*
X80371980Y-49750625D02*
X80419600Y-49703006D01*
X80419600Y-49703006D02*
X80467219Y-49607768D01*
X80467219Y-49607768D02*
X80467219Y-49512530D01*
X80467219Y-49512530D02*
X80419600Y-49417292D01*
X80419600Y-49417292D02*
X80371980Y-49369673D01*
X80371980Y-49369673D02*
X80276742Y-49322054D01*
X80276742Y-49322054D02*
X80086266Y-49274435D01*
X80086266Y-49274435D02*
X79848171Y-49274435D01*
X79848171Y-49274435D02*
X79657695Y-49322054D01*
X79657695Y-49322054D02*
X79562457Y-49369673D01*
X79562457Y-49369673D02*
X79514838Y-49417292D01*
X79514838Y-49417292D02*
X79467219Y-49512530D01*
X99767219Y-89569673D02*
X98767219Y-89569673D01*
X98767219Y-89569673D02*
X98767219Y-89950625D01*
X98767219Y-89950625D02*
X98814838Y-90045863D01*
X98814838Y-90045863D02*
X98862457Y-90093482D01*
X98862457Y-90093482D02*
X98957695Y-90141101D01*
X98957695Y-90141101D02*
X99100552Y-90141101D01*
X99100552Y-90141101D02*
X99195790Y-90093482D01*
X99195790Y-90093482D02*
X99243409Y-90045863D01*
X99243409Y-90045863D02*
X99291028Y-89950625D01*
X99291028Y-89950625D02*
X99291028Y-89569673D01*
X99481504Y-90522054D02*
X99481504Y-90998244D01*
X99767219Y-90426816D02*
X98767219Y-90760149D01*
X98767219Y-90760149D02*
X99767219Y-91093482D01*
X99767219Y-91950625D02*
X99767219Y-91379197D01*
X99767219Y-91664911D02*
X98767219Y-91664911D01*
X98767219Y-91664911D02*
X98910076Y-91569673D01*
X98910076Y-91569673D02*
X99005314Y-91474435D01*
X99005314Y-91474435D02*
X99052933Y-91379197D01*
X98767219Y-92855387D02*
X98767219Y-92379197D01*
X98767219Y-92379197D02*
X99243409Y-92331578D01*
X99243409Y-92331578D02*
X99195790Y-92379197D01*
X99195790Y-92379197D02*
X99148171Y-92474435D01*
X99148171Y-92474435D02*
X99148171Y-92712530D01*
X99148171Y-92712530D02*
X99195790Y-92807768D01*
X99195790Y-92807768D02*
X99243409Y-92855387D01*
X99243409Y-92855387D02*
X99338647Y-92903006D01*
X99338647Y-92903006D02*
X99576742Y-92903006D01*
X99576742Y-92903006D02*
X99671980Y-92855387D01*
X99671980Y-92855387D02*
X99719600Y-92807768D01*
X99719600Y-92807768D02*
X99767219Y-92712530D01*
X99767219Y-92712530D02*
X99767219Y-92474435D01*
X99767219Y-92474435D02*
X99719600Y-92379197D01*
X99719600Y-92379197D02*
X99671980Y-92331578D01*
X81967219Y-89569673D02*
X80967219Y-89569673D01*
X80967219Y-89569673D02*
X80967219Y-89950625D01*
X80967219Y-89950625D02*
X81014838Y-90045863D01*
X81014838Y-90045863D02*
X81062457Y-90093482D01*
X81062457Y-90093482D02*
X81157695Y-90141101D01*
X81157695Y-90141101D02*
X81300552Y-90141101D01*
X81300552Y-90141101D02*
X81395790Y-90093482D01*
X81395790Y-90093482D02*
X81443409Y-90045863D01*
X81443409Y-90045863D02*
X81491028Y-89950625D01*
X81491028Y-89950625D02*
X81491028Y-89569673D01*
X81681504Y-90522054D02*
X81681504Y-90998244D01*
X81967219Y-90426816D02*
X80967219Y-90760149D01*
X80967219Y-90760149D02*
X81967219Y-91093482D01*
X80967219Y-91855387D02*
X80967219Y-91664911D01*
X80967219Y-91664911D02*
X81014838Y-91569673D01*
X81014838Y-91569673D02*
X81062457Y-91522054D01*
X81062457Y-91522054D02*
X81205314Y-91426816D01*
X81205314Y-91426816D02*
X81395790Y-91379197D01*
X81395790Y-91379197D02*
X81776742Y-91379197D01*
X81776742Y-91379197D02*
X81871980Y-91426816D01*
X81871980Y-91426816D02*
X81919600Y-91474435D01*
X81919600Y-91474435D02*
X81967219Y-91569673D01*
X81967219Y-91569673D02*
X81967219Y-91760149D01*
X81967219Y-91760149D02*
X81919600Y-91855387D01*
X81919600Y-91855387D02*
X81871980Y-91903006D01*
X81871980Y-91903006D02*
X81776742Y-91950625D01*
X81776742Y-91950625D02*
X81538647Y-91950625D01*
X81538647Y-91950625D02*
X81443409Y-91903006D01*
X81443409Y-91903006D02*
X81395790Y-91855387D01*
X81395790Y-91855387D02*
X81348171Y-91760149D01*
X81348171Y-91760149D02*
X81348171Y-91569673D01*
X81348171Y-91569673D02*
X81395790Y-91474435D01*
X81395790Y-91474435D02*
X81443409Y-91426816D01*
X81443409Y-91426816D02*
X81538647Y-91379197D01*
X70467219Y-46369673D02*
X69467219Y-46369673D01*
X69467219Y-46369673D02*
X69467219Y-46750625D01*
X69467219Y-46750625D02*
X69514838Y-46845863D01*
X69514838Y-46845863D02*
X69562457Y-46893482D01*
X69562457Y-46893482D02*
X69657695Y-46941101D01*
X69657695Y-46941101D02*
X69800552Y-46941101D01*
X69800552Y-46941101D02*
X69895790Y-46893482D01*
X69895790Y-46893482D02*
X69943409Y-46845863D01*
X69943409Y-46845863D02*
X69991028Y-46750625D01*
X69991028Y-46750625D02*
X69991028Y-46369673D01*
X69943409Y-47703006D02*
X69991028Y-47845863D01*
X69991028Y-47845863D02*
X70038647Y-47893482D01*
X70038647Y-47893482D02*
X70133885Y-47941101D01*
X70133885Y-47941101D02*
X70276742Y-47941101D01*
X70276742Y-47941101D02*
X70371980Y-47893482D01*
X70371980Y-47893482D02*
X70419600Y-47845863D01*
X70419600Y-47845863D02*
X70467219Y-47750625D01*
X70467219Y-47750625D02*
X70467219Y-47369673D01*
X70467219Y-47369673D02*
X69467219Y-47369673D01*
X69467219Y-47369673D02*
X69467219Y-47703006D01*
X69467219Y-47703006D02*
X69514838Y-47798244D01*
X69514838Y-47798244D02*
X69562457Y-47845863D01*
X69562457Y-47845863D02*
X69657695Y-47893482D01*
X69657695Y-47893482D02*
X69752933Y-47893482D01*
X69752933Y-47893482D02*
X69848171Y-47845863D01*
X69848171Y-47845863D02*
X69895790Y-47798244D01*
X69895790Y-47798244D02*
X69943409Y-47703006D01*
X69943409Y-47703006D02*
X69943409Y-47369673D01*
X70467219Y-48893482D02*
X70467219Y-48322054D01*
X70467219Y-48607768D02*
X69467219Y-48607768D01*
X69467219Y-48607768D02*
X69610076Y-48512530D01*
X69610076Y-48512530D02*
X69705314Y-48417292D01*
X69705314Y-48417292D02*
X69752933Y-48322054D01*
X69800552Y-49750625D02*
X70467219Y-49750625D01*
X69419600Y-49512530D02*
X70133885Y-49274435D01*
X70133885Y-49274435D02*
X70133885Y-49893482D01*
X83167219Y-47269673D02*
X82167219Y-47269673D01*
X82167219Y-47269673D02*
X82167219Y-47650625D01*
X82167219Y-47650625D02*
X82214838Y-47745863D01*
X82214838Y-47745863D02*
X82262457Y-47793482D01*
X82262457Y-47793482D02*
X82357695Y-47841101D01*
X82357695Y-47841101D02*
X82500552Y-47841101D01*
X82500552Y-47841101D02*
X82595790Y-47793482D01*
X82595790Y-47793482D02*
X82643409Y-47745863D01*
X82643409Y-47745863D02*
X82691028Y-47650625D01*
X82691028Y-47650625D02*
X82691028Y-47269673D01*
X82643409Y-48603006D02*
X82691028Y-48745863D01*
X82691028Y-48745863D02*
X82738647Y-48793482D01*
X82738647Y-48793482D02*
X82833885Y-48841101D01*
X82833885Y-48841101D02*
X82976742Y-48841101D01*
X82976742Y-48841101D02*
X83071980Y-48793482D01*
X83071980Y-48793482D02*
X83119600Y-48745863D01*
X83119600Y-48745863D02*
X83167219Y-48650625D01*
X83167219Y-48650625D02*
X83167219Y-48269673D01*
X83167219Y-48269673D02*
X82167219Y-48269673D01*
X82167219Y-48269673D02*
X82167219Y-48603006D01*
X82167219Y-48603006D02*
X82214838Y-48698244D01*
X82214838Y-48698244D02*
X82262457Y-48745863D01*
X82262457Y-48745863D02*
X82357695Y-48793482D01*
X82357695Y-48793482D02*
X82452933Y-48793482D01*
X82452933Y-48793482D02*
X82548171Y-48745863D01*
X82548171Y-48745863D02*
X82595790Y-48698244D01*
X82595790Y-48698244D02*
X82643409Y-48603006D01*
X82643409Y-48603006D02*
X82643409Y-48269673D01*
X83167219Y-49317292D02*
X83167219Y-49507768D01*
X83167219Y-49507768D02*
X83119600Y-49603006D01*
X83119600Y-49603006D02*
X83071980Y-49650625D01*
X83071980Y-49650625D02*
X82929123Y-49745863D01*
X82929123Y-49745863D02*
X82738647Y-49793482D01*
X82738647Y-49793482D02*
X82357695Y-49793482D01*
X82357695Y-49793482D02*
X82262457Y-49745863D01*
X82262457Y-49745863D02*
X82214838Y-49698244D01*
X82214838Y-49698244D02*
X82167219Y-49603006D01*
X82167219Y-49603006D02*
X82167219Y-49412530D01*
X82167219Y-49412530D02*
X82214838Y-49317292D01*
X82214838Y-49317292D02*
X82262457Y-49269673D01*
X82262457Y-49269673D02*
X82357695Y-49222054D01*
X82357695Y-49222054D02*
X82595790Y-49222054D01*
X82595790Y-49222054D02*
X82691028Y-49269673D01*
X82691028Y-49269673D02*
X82738647Y-49317292D01*
X82738647Y-49317292D02*
X82786266Y-49412530D01*
X82786266Y-49412530D02*
X82786266Y-49603006D01*
X82786266Y-49603006D02*
X82738647Y-49698244D01*
X82738647Y-49698244D02*
X82691028Y-49745863D01*
X82691028Y-49745863D02*
X82595790Y-49793482D01*
X67867219Y-46369673D02*
X66867219Y-46369673D01*
X66867219Y-46369673D02*
X66867219Y-46750625D01*
X66867219Y-46750625D02*
X66914838Y-46845863D01*
X66914838Y-46845863D02*
X66962457Y-46893482D01*
X66962457Y-46893482D02*
X67057695Y-46941101D01*
X67057695Y-46941101D02*
X67200552Y-46941101D01*
X67200552Y-46941101D02*
X67295790Y-46893482D01*
X67295790Y-46893482D02*
X67343409Y-46845863D01*
X67343409Y-46845863D02*
X67391028Y-46750625D01*
X67391028Y-46750625D02*
X67391028Y-46369673D01*
X67343409Y-47703006D02*
X67391028Y-47845863D01*
X67391028Y-47845863D02*
X67438647Y-47893482D01*
X67438647Y-47893482D02*
X67533885Y-47941101D01*
X67533885Y-47941101D02*
X67676742Y-47941101D01*
X67676742Y-47941101D02*
X67771980Y-47893482D01*
X67771980Y-47893482D02*
X67819600Y-47845863D01*
X67819600Y-47845863D02*
X67867219Y-47750625D01*
X67867219Y-47750625D02*
X67867219Y-47369673D01*
X67867219Y-47369673D02*
X66867219Y-47369673D01*
X66867219Y-47369673D02*
X66867219Y-47703006D01*
X66867219Y-47703006D02*
X66914838Y-47798244D01*
X66914838Y-47798244D02*
X66962457Y-47845863D01*
X66962457Y-47845863D02*
X67057695Y-47893482D01*
X67057695Y-47893482D02*
X67152933Y-47893482D01*
X67152933Y-47893482D02*
X67248171Y-47845863D01*
X67248171Y-47845863D02*
X67295790Y-47798244D01*
X67295790Y-47798244D02*
X67343409Y-47703006D01*
X67343409Y-47703006D02*
X67343409Y-47369673D01*
X67867219Y-48893482D02*
X67867219Y-48322054D01*
X67867219Y-48607768D02*
X66867219Y-48607768D01*
X66867219Y-48607768D02*
X67010076Y-48512530D01*
X67010076Y-48512530D02*
X67105314Y-48417292D01*
X67105314Y-48417292D02*
X67152933Y-48322054D01*
X66867219Y-49798244D02*
X66867219Y-49322054D01*
X66867219Y-49322054D02*
X67343409Y-49274435D01*
X67343409Y-49274435D02*
X67295790Y-49322054D01*
X67295790Y-49322054D02*
X67248171Y-49417292D01*
X67248171Y-49417292D02*
X67248171Y-49655387D01*
X67248171Y-49655387D02*
X67295790Y-49750625D01*
X67295790Y-49750625D02*
X67343409Y-49798244D01*
X67343409Y-49798244D02*
X67438647Y-49845863D01*
X67438647Y-49845863D02*
X67676742Y-49845863D01*
X67676742Y-49845863D02*
X67771980Y-49798244D01*
X67771980Y-49798244D02*
X67819600Y-49750625D01*
X67819600Y-49750625D02*
X67867219Y-49655387D01*
X67867219Y-49655387D02*
X67867219Y-49417292D01*
X67867219Y-49417292D02*
X67819600Y-49322054D01*
X67819600Y-49322054D02*
X67771980Y-49274435D01*
X120677945Y-76719600D02*
X120535088Y-76767219D01*
X120535088Y-76767219D02*
X120296993Y-76767219D01*
X120296993Y-76767219D02*
X120201755Y-76719600D01*
X120201755Y-76719600D02*
X120154136Y-76671980D01*
X120154136Y-76671980D02*
X120106517Y-76576742D01*
X120106517Y-76576742D02*
X120106517Y-76481504D01*
X120106517Y-76481504D02*
X120154136Y-76386266D01*
X120154136Y-76386266D02*
X120201755Y-76338647D01*
X120201755Y-76338647D02*
X120296993Y-76291028D01*
X120296993Y-76291028D02*
X120487469Y-76243409D01*
X120487469Y-76243409D02*
X120582707Y-76195790D01*
X120582707Y-76195790D02*
X120630326Y-76148171D01*
X120630326Y-76148171D02*
X120677945Y-76052933D01*
X120677945Y-76052933D02*
X120677945Y-75957695D01*
X120677945Y-75957695D02*
X120630326Y-75862457D01*
X120630326Y-75862457D02*
X120582707Y-75814838D01*
X120582707Y-75814838D02*
X120487469Y-75767219D01*
X120487469Y-75767219D02*
X120249374Y-75767219D01*
X120249374Y-75767219D02*
X120106517Y-75814838D01*
X119773183Y-75767219D02*
X119535088Y-76767219D01*
X119535088Y-76767219D02*
X119344612Y-76052933D01*
X119344612Y-76052933D02*
X119154136Y-76767219D01*
X119154136Y-76767219D02*
X118916041Y-75767219D01*
X117963660Y-76671980D02*
X118011279Y-76719600D01*
X118011279Y-76719600D02*
X118154136Y-76767219D01*
X118154136Y-76767219D02*
X118249374Y-76767219D01*
X118249374Y-76767219D02*
X118392231Y-76719600D01*
X118392231Y-76719600D02*
X118487469Y-76624361D01*
X118487469Y-76624361D02*
X118535088Y-76529123D01*
X118535088Y-76529123D02*
X118582707Y-76338647D01*
X118582707Y-76338647D02*
X118582707Y-76195790D01*
X118582707Y-76195790D02*
X118535088Y-76005314D01*
X118535088Y-76005314D02*
X118487469Y-75910076D01*
X118487469Y-75910076D02*
X118392231Y-75814838D01*
X118392231Y-75814838D02*
X118249374Y-75767219D01*
X118249374Y-75767219D02*
X118154136Y-75767219D01*
X118154136Y-75767219D02*
X118011279Y-75814838D01*
X118011279Y-75814838D02*
X117963660Y-75862457D01*
X117058898Y-76767219D02*
X117535088Y-76767219D01*
X117535088Y-76767219D02*
X117535088Y-75767219D01*
X116725564Y-76767219D02*
X116725564Y-75767219D01*
X116154136Y-76767219D02*
X116582707Y-76195790D01*
X116154136Y-75767219D02*
X116725564Y-76338647D01*
X102367219Y-89569673D02*
X101367219Y-89569673D01*
X101367219Y-89569673D02*
X101367219Y-89950625D01*
X101367219Y-89950625D02*
X101414838Y-90045863D01*
X101414838Y-90045863D02*
X101462457Y-90093482D01*
X101462457Y-90093482D02*
X101557695Y-90141101D01*
X101557695Y-90141101D02*
X101700552Y-90141101D01*
X101700552Y-90141101D02*
X101795790Y-90093482D01*
X101795790Y-90093482D02*
X101843409Y-90045863D01*
X101843409Y-90045863D02*
X101891028Y-89950625D01*
X101891028Y-89950625D02*
X101891028Y-89569673D01*
X102271980Y-91141101D02*
X102319600Y-91093482D01*
X102319600Y-91093482D02*
X102367219Y-90950625D01*
X102367219Y-90950625D02*
X102367219Y-90855387D01*
X102367219Y-90855387D02*
X102319600Y-90712530D01*
X102319600Y-90712530D02*
X102224361Y-90617292D01*
X102224361Y-90617292D02*
X102129123Y-90569673D01*
X102129123Y-90569673D02*
X101938647Y-90522054D01*
X101938647Y-90522054D02*
X101795790Y-90522054D01*
X101795790Y-90522054D02*
X101605314Y-90569673D01*
X101605314Y-90569673D02*
X101510076Y-90617292D01*
X101510076Y-90617292D02*
X101414838Y-90712530D01*
X101414838Y-90712530D02*
X101367219Y-90855387D01*
X101367219Y-90855387D02*
X101367219Y-90950625D01*
X101367219Y-90950625D02*
X101414838Y-91093482D01*
X101414838Y-91093482D02*
X101462457Y-91141101D01*
X102367219Y-92093482D02*
X102367219Y-91522054D01*
X102367219Y-91807768D02*
X101367219Y-91807768D01*
X101367219Y-91807768D02*
X101510076Y-91712530D01*
X101510076Y-91712530D02*
X101605314Y-91617292D01*
X101605314Y-91617292D02*
X101652933Y-91522054D01*
X101367219Y-92426816D02*
X101367219Y-93045863D01*
X101367219Y-93045863D02*
X101748171Y-92712530D01*
X101748171Y-92712530D02*
X101748171Y-92855387D01*
X101748171Y-92855387D02*
X101795790Y-92950625D01*
X101795790Y-92950625D02*
X101843409Y-92998244D01*
X101843409Y-92998244D02*
X101938647Y-93045863D01*
X101938647Y-93045863D02*
X102176742Y-93045863D01*
X102176742Y-93045863D02*
X102271980Y-92998244D01*
X102271980Y-92998244D02*
X102319600Y-92950625D01*
X102319600Y-92950625D02*
X102367219Y-92855387D01*
X102367219Y-92855387D02*
X102367219Y-92569673D01*
X102367219Y-92569673D02*
X102319600Y-92474435D01*
X102319600Y-92474435D02*
X102271980Y-92426816D01*
X104867219Y-89569673D02*
X103867219Y-89569673D01*
X103867219Y-89569673D02*
X103867219Y-89950625D01*
X103867219Y-89950625D02*
X103914838Y-90045863D01*
X103914838Y-90045863D02*
X103962457Y-90093482D01*
X103962457Y-90093482D02*
X104057695Y-90141101D01*
X104057695Y-90141101D02*
X104200552Y-90141101D01*
X104200552Y-90141101D02*
X104295790Y-90093482D01*
X104295790Y-90093482D02*
X104343409Y-90045863D01*
X104343409Y-90045863D02*
X104391028Y-89950625D01*
X104391028Y-89950625D02*
X104391028Y-89569673D01*
X104771980Y-91141101D02*
X104819600Y-91093482D01*
X104819600Y-91093482D02*
X104867219Y-90950625D01*
X104867219Y-90950625D02*
X104867219Y-90855387D01*
X104867219Y-90855387D02*
X104819600Y-90712530D01*
X104819600Y-90712530D02*
X104724361Y-90617292D01*
X104724361Y-90617292D02*
X104629123Y-90569673D01*
X104629123Y-90569673D02*
X104438647Y-90522054D01*
X104438647Y-90522054D02*
X104295790Y-90522054D01*
X104295790Y-90522054D02*
X104105314Y-90569673D01*
X104105314Y-90569673D02*
X104010076Y-90617292D01*
X104010076Y-90617292D02*
X103914838Y-90712530D01*
X103914838Y-90712530D02*
X103867219Y-90855387D01*
X103867219Y-90855387D02*
X103867219Y-90950625D01*
X103867219Y-90950625D02*
X103914838Y-91093482D01*
X103914838Y-91093482D02*
X103962457Y-91141101D01*
X104867219Y-92093482D02*
X104867219Y-91522054D01*
X104867219Y-91807768D02*
X103867219Y-91807768D01*
X103867219Y-91807768D02*
X104010076Y-91712530D01*
X104010076Y-91712530D02*
X104105314Y-91617292D01*
X104105314Y-91617292D02*
X104152933Y-91522054D01*
X104200552Y-92950625D02*
X104867219Y-92950625D01*
X103819600Y-92712530D02*
X104533885Y-92474435D01*
X104533885Y-92474435D02*
X104533885Y-93093482D01*
X85667219Y-47269673D02*
X84667219Y-47269673D01*
X84667219Y-47269673D02*
X84667219Y-47650625D01*
X84667219Y-47650625D02*
X84714838Y-47745863D01*
X84714838Y-47745863D02*
X84762457Y-47793482D01*
X84762457Y-47793482D02*
X84857695Y-47841101D01*
X84857695Y-47841101D02*
X85000552Y-47841101D01*
X85000552Y-47841101D02*
X85095790Y-47793482D01*
X85095790Y-47793482D02*
X85143409Y-47745863D01*
X85143409Y-47745863D02*
X85191028Y-47650625D01*
X85191028Y-47650625D02*
X85191028Y-47269673D01*
X85143409Y-48603006D02*
X85191028Y-48745863D01*
X85191028Y-48745863D02*
X85238647Y-48793482D01*
X85238647Y-48793482D02*
X85333885Y-48841101D01*
X85333885Y-48841101D02*
X85476742Y-48841101D01*
X85476742Y-48841101D02*
X85571980Y-48793482D01*
X85571980Y-48793482D02*
X85619600Y-48745863D01*
X85619600Y-48745863D02*
X85667219Y-48650625D01*
X85667219Y-48650625D02*
X85667219Y-48269673D01*
X85667219Y-48269673D02*
X84667219Y-48269673D01*
X84667219Y-48269673D02*
X84667219Y-48603006D01*
X84667219Y-48603006D02*
X84714838Y-48698244D01*
X84714838Y-48698244D02*
X84762457Y-48745863D01*
X84762457Y-48745863D02*
X84857695Y-48793482D01*
X84857695Y-48793482D02*
X84952933Y-48793482D01*
X84952933Y-48793482D02*
X85048171Y-48745863D01*
X85048171Y-48745863D02*
X85095790Y-48698244D01*
X85095790Y-48698244D02*
X85143409Y-48603006D01*
X85143409Y-48603006D02*
X85143409Y-48269673D01*
X85095790Y-49412530D02*
X85048171Y-49317292D01*
X85048171Y-49317292D02*
X85000552Y-49269673D01*
X85000552Y-49269673D02*
X84905314Y-49222054D01*
X84905314Y-49222054D02*
X84857695Y-49222054D01*
X84857695Y-49222054D02*
X84762457Y-49269673D01*
X84762457Y-49269673D02*
X84714838Y-49317292D01*
X84714838Y-49317292D02*
X84667219Y-49412530D01*
X84667219Y-49412530D02*
X84667219Y-49603006D01*
X84667219Y-49603006D02*
X84714838Y-49698244D01*
X84714838Y-49698244D02*
X84762457Y-49745863D01*
X84762457Y-49745863D02*
X84857695Y-49793482D01*
X84857695Y-49793482D02*
X84905314Y-49793482D01*
X84905314Y-49793482D02*
X85000552Y-49745863D01*
X85000552Y-49745863D02*
X85048171Y-49698244D01*
X85048171Y-49698244D02*
X85095790Y-49603006D01*
X85095790Y-49603006D02*
X85095790Y-49412530D01*
X85095790Y-49412530D02*
X85143409Y-49317292D01*
X85143409Y-49317292D02*
X85191028Y-49269673D01*
X85191028Y-49269673D02*
X85286266Y-49222054D01*
X85286266Y-49222054D02*
X85476742Y-49222054D01*
X85476742Y-49222054D02*
X85571980Y-49269673D01*
X85571980Y-49269673D02*
X85619600Y-49317292D01*
X85619600Y-49317292D02*
X85667219Y-49412530D01*
X85667219Y-49412530D02*
X85667219Y-49603006D01*
X85667219Y-49603006D02*
X85619600Y-49698244D01*
X85619600Y-49698244D02*
X85571980Y-49745863D01*
X85571980Y-49745863D02*
X85476742Y-49793482D01*
X85476742Y-49793482D02*
X85286266Y-49793482D01*
X85286266Y-49793482D02*
X85191028Y-49745863D01*
X85191028Y-49745863D02*
X85143409Y-49698244D01*
X85143409Y-49698244D02*
X85095790Y-49603006D01*
X103467219Y-47269673D02*
X102467219Y-47269673D01*
X102467219Y-47269673D02*
X102467219Y-47650625D01*
X102467219Y-47650625D02*
X102514838Y-47745863D01*
X102514838Y-47745863D02*
X102562457Y-47793482D01*
X102562457Y-47793482D02*
X102657695Y-47841101D01*
X102657695Y-47841101D02*
X102800552Y-47841101D01*
X102800552Y-47841101D02*
X102895790Y-47793482D01*
X102895790Y-47793482D02*
X102943409Y-47745863D01*
X102943409Y-47745863D02*
X102991028Y-47650625D01*
X102991028Y-47650625D02*
X102991028Y-47269673D01*
X102943409Y-48603006D02*
X102991028Y-48745863D01*
X102991028Y-48745863D02*
X103038647Y-48793482D01*
X103038647Y-48793482D02*
X103133885Y-48841101D01*
X103133885Y-48841101D02*
X103276742Y-48841101D01*
X103276742Y-48841101D02*
X103371980Y-48793482D01*
X103371980Y-48793482D02*
X103419600Y-48745863D01*
X103419600Y-48745863D02*
X103467219Y-48650625D01*
X103467219Y-48650625D02*
X103467219Y-48269673D01*
X103467219Y-48269673D02*
X102467219Y-48269673D01*
X102467219Y-48269673D02*
X102467219Y-48603006D01*
X102467219Y-48603006D02*
X102514838Y-48698244D01*
X102514838Y-48698244D02*
X102562457Y-48745863D01*
X102562457Y-48745863D02*
X102657695Y-48793482D01*
X102657695Y-48793482D02*
X102752933Y-48793482D01*
X102752933Y-48793482D02*
X102848171Y-48745863D01*
X102848171Y-48745863D02*
X102895790Y-48698244D01*
X102895790Y-48698244D02*
X102943409Y-48603006D01*
X102943409Y-48603006D02*
X102943409Y-48269673D01*
X103467219Y-49793482D02*
X103467219Y-49222054D01*
X103467219Y-49507768D02*
X102467219Y-49507768D01*
X102467219Y-49507768D02*
X102610076Y-49412530D01*
X102610076Y-49412530D02*
X102705314Y-49317292D01*
X102705314Y-49317292D02*
X102752933Y-49222054D01*
X66667219Y-89569673D02*
X65667219Y-89569673D01*
X65667219Y-89569673D02*
X65667219Y-89950625D01*
X65667219Y-89950625D02*
X65714838Y-90045863D01*
X65714838Y-90045863D02*
X65762457Y-90093482D01*
X65762457Y-90093482D02*
X65857695Y-90141101D01*
X65857695Y-90141101D02*
X66000552Y-90141101D01*
X66000552Y-90141101D02*
X66095790Y-90093482D01*
X66095790Y-90093482D02*
X66143409Y-90045863D01*
X66143409Y-90045863D02*
X66191028Y-89950625D01*
X66191028Y-89950625D02*
X66191028Y-89569673D01*
X66381504Y-90522054D02*
X66381504Y-90998244D01*
X66667219Y-90426816D02*
X65667219Y-90760149D01*
X65667219Y-90760149D02*
X66667219Y-91093482D01*
X65667219Y-91617292D02*
X65667219Y-91712530D01*
X65667219Y-91712530D02*
X65714838Y-91807768D01*
X65714838Y-91807768D02*
X65762457Y-91855387D01*
X65762457Y-91855387D02*
X65857695Y-91903006D01*
X65857695Y-91903006D02*
X66048171Y-91950625D01*
X66048171Y-91950625D02*
X66286266Y-91950625D01*
X66286266Y-91950625D02*
X66476742Y-91903006D01*
X66476742Y-91903006D02*
X66571980Y-91855387D01*
X66571980Y-91855387D02*
X66619600Y-91807768D01*
X66619600Y-91807768D02*
X66667219Y-91712530D01*
X66667219Y-91712530D02*
X66667219Y-91617292D01*
X66667219Y-91617292D02*
X66619600Y-91522054D01*
X66619600Y-91522054D02*
X66571980Y-91474435D01*
X66571980Y-91474435D02*
X66476742Y-91426816D01*
X66476742Y-91426816D02*
X66286266Y-91379197D01*
X66286266Y-91379197D02*
X66048171Y-91379197D01*
X66048171Y-91379197D02*
X65857695Y-91426816D01*
X65857695Y-91426816D02*
X65762457Y-91474435D01*
X65762457Y-91474435D02*
X65714838Y-91522054D01*
X65714838Y-91522054D02*
X65667219Y-91617292D01*
X114825564Y-60767219D02*
X114206517Y-60767219D01*
X114206517Y-60767219D02*
X114539850Y-61148171D01*
X114539850Y-61148171D02*
X114396993Y-61148171D01*
X114396993Y-61148171D02*
X114301755Y-61195790D01*
X114301755Y-61195790D02*
X114254136Y-61243409D01*
X114254136Y-61243409D02*
X114206517Y-61338647D01*
X114206517Y-61338647D02*
X114206517Y-61576742D01*
X114206517Y-61576742D02*
X114254136Y-61671980D01*
X114254136Y-61671980D02*
X114301755Y-61719600D01*
X114301755Y-61719600D02*
X114396993Y-61767219D01*
X114396993Y-61767219D02*
X114682707Y-61767219D01*
X114682707Y-61767219D02*
X114777945Y-61719600D01*
X114777945Y-61719600D02*
X114825564Y-61671980D01*
X113777945Y-61671980D02*
X113730326Y-61719600D01*
X113730326Y-61719600D02*
X113777945Y-61767219D01*
X113777945Y-61767219D02*
X113825564Y-61719600D01*
X113825564Y-61719600D02*
X113777945Y-61671980D01*
X113777945Y-61671980D02*
X113777945Y-61767219D01*
X113396993Y-60767219D02*
X112777946Y-60767219D01*
X112777946Y-60767219D02*
X113111279Y-61148171D01*
X113111279Y-61148171D02*
X112968422Y-61148171D01*
X112968422Y-61148171D02*
X112873184Y-61195790D01*
X112873184Y-61195790D02*
X112825565Y-61243409D01*
X112825565Y-61243409D02*
X112777946Y-61338647D01*
X112777946Y-61338647D02*
X112777946Y-61576742D01*
X112777946Y-61576742D02*
X112825565Y-61671980D01*
X112825565Y-61671980D02*
X112873184Y-61719600D01*
X112873184Y-61719600D02*
X112968422Y-61767219D01*
X112968422Y-61767219D02*
X113254136Y-61767219D01*
X113254136Y-61767219D02*
X113349374Y-61719600D01*
X113349374Y-61719600D02*
X113396993Y-61671980D01*
X112492231Y-60767219D02*
X112158898Y-61767219D01*
X112158898Y-61767219D02*
X111825565Y-60767219D01*
X55330326Y-78086266D02*
X54568422Y-78086266D01*
X54949374Y-78467219D02*
X54949374Y-77705314D01*
X113677945Y-59419600D02*
X113535088Y-59467219D01*
X113535088Y-59467219D02*
X113296993Y-59467219D01*
X113296993Y-59467219D02*
X113201755Y-59419600D01*
X113201755Y-59419600D02*
X113154136Y-59371980D01*
X113154136Y-59371980D02*
X113106517Y-59276742D01*
X113106517Y-59276742D02*
X113106517Y-59181504D01*
X113106517Y-59181504D02*
X113154136Y-59086266D01*
X113154136Y-59086266D02*
X113201755Y-59038647D01*
X113201755Y-59038647D02*
X113296993Y-58991028D01*
X113296993Y-58991028D02*
X113487469Y-58943409D01*
X113487469Y-58943409D02*
X113582707Y-58895790D01*
X113582707Y-58895790D02*
X113630326Y-58848171D01*
X113630326Y-58848171D02*
X113677945Y-58752933D01*
X113677945Y-58752933D02*
X113677945Y-58657695D01*
X113677945Y-58657695D02*
X113630326Y-58562457D01*
X113630326Y-58562457D02*
X113582707Y-58514838D01*
X113582707Y-58514838D02*
X113487469Y-58467219D01*
X113487469Y-58467219D02*
X113249374Y-58467219D01*
X113249374Y-58467219D02*
X113106517Y-58514838D01*
X112773183Y-58467219D02*
X112535088Y-59467219D01*
X112535088Y-59467219D02*
X112344612Y-58752933D01*
X112344612Y-58752933D02*
X112154136Y-59467219D01*
X112154136Y-59467219D02*
X111916041Y-58467219D01*
X111344612Y-58467219D02*
X111154136Y-58467219D01*
X111154136Y-58467219D02*
X111058898Y-58514838D01*
X111058898Y-58514838D02*
X110963660Y-58610076D01*
X110963660Y-58610076D02*
X110916041Y-58800552D01*
X110916041Y-58800552D02*
X110916041Y-59133885D01*
X110916041Y-59133885D02*
X110963660Y-59324361D01*
X110963660Y-59324361D02*
X111058898Y-59419600D01*
X111058898Y-59419600D02*
X111154136Y-59467219D01*
X111154136Y-59467219D02*
X111344612Y-59467219D01*
X111344612Y-59467219D02*
X111439850Y-59419600D01*
X111439850Y-59419600D02*
X111535088Y-59324361D01*
X111535088Y-59324361D02*
X111582707Y-59133885D01*
X111582707Y-59133885D02*
X111582707Y-58800552D01*
X111582707Y-58800552D02*
X111535088Y-58610076D01*
X111535088Y-58610076D02*
X111439850Y-58514838D01*
X111439850Y-58514838D02*
X111344612Y-58467219D01*
X69267219Y-89569673D02*
X68267219Y-89569673D01*
X68267219Y-89569673D02*
X68267219Y-89950625D01*
X68267219Y-89950625D02*
X68314838Y-90045863D01*
X68314838Y-90045863D02*
X68362457Y-90093482D01*
X68362457Y-90093482D02*
X68457695Y-90141101D01*
X68457695Y-90141101D02*
X68600552Y-90141101D01*
X68600552Y-90141101D02*
X68695790Y-90093482D01*
X68695790Y-90093482D02*
X68743409Y-90045863D01*
X68743409Y-90045863D02*
X68791028Y-89950625D01*
X68791028Y-89950625D02*
X68791028Y-89569673D01*
X68981504Y-90522054D02*
X68981504Y-90998244D01*
X69267219Y-90426816D02*
X68267219Y-90760149D01*
X68267219Y-90760149D02*
X69267219Y-91093482D01*
X69267219Y-91950625D02*
X69267219Y-91379197D01*
X69267219Y-91664911D02*
X68267219Y-91664911D01*
X68267219Y-91664911D02*
X68410076Y-91569673D01*
X68410076Y-91569673D02*
X68505314Y-91474435D01*
X68505314Y-91474435D02*
X68552933Y-91379197D01*
X78067219Y-46369673D02*
X77067219Y-46369673D01*
X77067219Y-46369673D02*
X77067219Y-46750625D01*
X77067219Y-46750625D02*
X77114838Y-46845863D01*
X77114838Y-46845863D02*
X77162457Y-46893482D01*
X77162457Y-46893482D02*
X77257695Y-46941101D01*
X77257695Y-46941101D02*
X77400552Y-46941101D01*
X77400552Y-46941101D02*
X77495790Y-46893482D01*
X77495790Y-46893482D02*
X77543409Y-46845863D01*
X77543409Y-46845863D02*
X77591028Y-46750625D01*
X77591028Y-46750625D02*
X77591028Y-46369673D01*
X77543409Y-47703006D02*
X77591028Y-47845863D01*
X77591028Y-47845863D02*
X77638647Y-47893482D01*
X77638647Y-47893482D02*
X77733885Y-47941101D01*
X77733885Y-47941101D02*
X77876742Y-47941101D01*
X77876742Y-47941101D02*
X77971980Y-47893482D01*
X77971980Y-47893482D02*
X78019600Y-47845863D01*
X78019600Y-47845863D02*
X78067219Y-47750625D01*
X78067219Y-47750625D02*
X78067219Y-47369673D01*
X78067219Y-47369673D02*
X77067219Y-47369673D01*
X77067219Y-47369673D02*
X77067219Y-47703006D01*
X77067219Y-47703006D02*
X77114838Y-47798244D01*
X77114838Y-47798244D02*
X77162457Y-47845863D01*
X77162457Y-47845863D02*
X77257695Y-47893482D01*
X77257695Y-47893482D02*
X77352933Y-47893482D01*
X77352933Y-47893482D02*
X77448171Y-47845863D01*
X77448171Y-47845863D02*
X77495790Y-47798244D01*
X77495790Y-47798244D02*
X77543409Y-47703006D01*
X77543409Y-47703006D02*
X77543409Y-47369673D01*
X78067219Y-48893482D02*
X78067219Y-48322054D01*
X78067219Y-48607768D02*
X77067219Y-48607768D01*
X77067219Y-48607768D02*
X77210076Y-48512530D01*
X77210076Y-48512530D02*
X77305314Y-48417292D01*
X77305314Y-48417292D02*
X77352933Y-48322054D01*
X78067219Y-49845863D02*
X78067219Y-49274435D01*
X78067219Y-49560149D02*
X77067219Y-49560149D01*
X77067219Y-49560149D02*
X77210076Y-49464911D01*
X77210076Y-49464911D02*
X77305314Y-49369673D01*
X77305314Y-49369673D02*
X77352933Y-49274435D01*
X95767219Y-47269673D02*
X94767219Y-47269673D01*
X94767219Y-47269673D02*
X94767219Y-47650625D01*
X94767219Y-47650625D02*
X94814838Y-47745863D01*
X94814838Y-47745863D02*
X94862457Y-47793482D01*
X94862457Y-47793482D02*
X94957695Y-47841101D01*
X94957695Y-47841101D02*
X95100552Y-47841101D01*
X95100552Y-47841101D02*
X95195790Y-47793482D01*
X95195790Y-47793482D02*
X95243409Y-47745863D01*
X95243409Y-47745863D02*
X95291028Y-47650625D01*
X95291028Y-47650625D02*
X95291028Y-47269673D01*
X95243409Y-48603006D02*
X95291028Y-48745863D01*
X95291028Y-48745863D02*
X95338647Y-48793482D01*
X95338647Y-48793482D02*
X95433885Y-48841101D01*
X95433885Y-48841101D02*
X95576742Y-48841101D01*
X95576742Y-48841101D02*
X95671980Y-48793482D01*
X95671980Y-48793482D02*
X95719600Y-48745863D01*
X95719600Y-48745863D02*
X95767219Y-48650625D01*
X95767219Y-48650625D02*
X95767219Y-48269673D01*
X95767219Y-48269673D02*
X94767219Y-48269673D01*
X94767219Y-48269673D02*
X94767219Y-48603006D01*
X94767219Y-48603006D02*
X94814838Y-48698244D01*
X94814838Y-48698244D02*
X94862457Y-48745863D01*
X94862457Y-48745863D02*
X94957695Y-48793482D01*
X94957695Y-48793482D02*
X95052933Y-48793482D01*
X95052933Y-48793482D02*
X95148171Y-48745863D01*
X95148171Y-48745863D02*
X95195790Y-48698244D01*
X95195790Y-48698244D02*
X95243409Y-48603006D01*
X95243409Y-48603006D02*
X95243409Y-48269673D01*
X95100552Y-49698244D02*
X95767219Y-49698244D01*
X94719600Y-49460149D02*
X95433885Y-49222054D01*
X95433885Y-49222054D02*
X95433885Y-49841101D01*
X74367219Y-89569673D02*
X73367219Y-89569673D01*
X73367219Y-89569673D02*
X73367219Y-89950625D01*
X73367219Y-89950625D02*
X73414838Y-90045863D01*
X73414838Y-90045863D02*
X73462457Y-90093482D01*
X73462457Y-90093482D02*
X73557695Y-90141101D01*
X73557695Y-90141101D02*
X73700552Y-90141101D01*
X73700552Y-90141101D02*
X73795790Y-90093482D01*
X73795790Y-90093482D02*
X73843409Y-90045863D01*
X73843409Y-90045863D02*
X73891028Y-89950625D01*
X73891028Y-89950625D02*
X73891028Y-89569673D01*
X74081504Y-90522054D02*
X74081504Y-90998244D01*
X74367219Y-90426816D02*
X73367219Y-90760149D01*
X73367219Y-90760149D02*
X74367219Y-91093482D01*
X73367219Y-91331578D02*
X73367219Y-91950625D01*
X73367219Y-91950625D02*
X73748171Y-91617292D01*
X73748171Y-91617292D02*
X73748171Y-91760149D01*
X73748171Y-91760149D02*
X73795790Y-91855387D01*
X73795790Y-91855387D02*
X73843409Y-91903006D01*
X73843409Y-91903006D02*
X73938647Y-91950625D01*
X73938647Y-91950625D02*
X74176742Y-91950625D01*
X74176742Y-91950625D02*
X74271980Y-91903006D01*
X74271980Y-91903006D02*
X74319600Y-91855387D01*
X74319600Y-91855387D02*
X74367219Y-91760149D01*
X74367219Y-91760149D02*
X74367219Y-91474435D01*
X74367219Y-91474435D02*
X74319600Y-91379197D01*
X74319600Y-91379197D02*
X74271980Y-91331578D01*
X87067219Y-89569673D02*
X86067219Y-89569673D01*
X86067219Y-89569673D02*
X86067219Y-89950625D01*
X86067219Y-89950625D02*
X86114838Y-90045863D01*
X86114838Y-90045863D02*
X86162457Y-90093482D01*
X86162457Y-90093482D02*
X86257695Y-90141101D01*
X86257695Y-90141101D02*
X86400552Y-90141101D01*
X86400552Y-90141101D02*
X86495790Y-90093482D01*
X86495790Y-90093482D02*
X86543409Y-90045863D01*
X86543409Y-90045863D02*
X86591028Y-89950625D01*
X86591028Y-89950625D02*
X86591028Y-89569673D01*
X86781504Y-90522054D02*
X86781504Y-90998244D01*
X87067219Y-90426816D02*
X86067219Y-90760149D01*
X86067219Y-90760149D02*
X87067219Y-91093482D01*
X86495790Y-91569673D02*
X86448171Y-91474435D01*
X86448171Y-91474435D02*
X86400552Y-91426816D01*
X86400552Y-91426816D02*
X86305314Y-91379197D01*
X86305314Y-91379197D02*
X86257695Y-91379197D01*
X86257695Y-91379197D02*
X86162457Y-91426816D01*
X86162457Y-91426816D02*
X86114838Y-91474435D01*
X86114838Y-91474435D02*
X86067219Y-91569673D01*
X86067219Y-91569673D02*
X86067219Y-91760149D01*
X86067219Y-91760149D02*
X86114838Y-91855387D01*
X86114838Y-91855387D02*
X86162457Y-91903006D01*
X86162457Y-91903006D02*
X86257695Y-91950625D01*
X86257695Y-91950625D02*
X86305314Y-91950625D01*
X86305314Y-91950625D02*
X86400552Y-91903006D01*
X86400552Y-91903006D02*
X86448171Y-91855387D01*
X86448171Y-91855387D02*
X86495790Y-91760149D01*
X86495790Y-91760149D02*
X86495790Y-91569673D01*
X86495790Y-91569673D02*
X86543409Y-91474435D01*
X86543409Y-91474435D02*
X86591028Y-91426816D01*
X86591028Y-91426816D02*
X86686266Y-91379197D01*
X86686266Y-91379197D02*
X86876742Y-91379197D01*
X86876742Y-91379197D02*
X86971980Y-91426816D01*
X86971980Y-91426816D02*
X87019600Y-91474435D01*
X87019600Y-91474435D02*
X87067219Y-91569673D01*
X87067219Y-91569673D02*
X87067219Y-91760149D01*
X87067219Y-91760149D02*
X87019600Y-91855387D01*
X87019600Y-91855387D02*
X86971980Y-91903006D01*
X86971980Y-91903006D02*
X86876742Y-91950625D01*
X86876742Y-91950625D02*
X86686266Y-91950625D01*
X86686266Y-91950625D02*
X86591028Y-91903006D01*
X86591028Y-91903006D02*
X86543409Y-91855387D01*
X86543409Y-91855387D02*
X86495790Y-91760149D01*
X106419600Y-62122054D02*
X106467219Y-62264911D01*
X106467219Y-62264911D02*
X106467219Y-62503006D01*
X106467219Y-62503006D02*
X106419600Y-62598244D01*
X106419600Y-62598244D02*
X106371980Y-62645863D01*
X106371980Y-62645863D02*
X106276742Y-62693482D01*
X106276742Y-62693482D02*
X106181504Y-62693482D01*
X106181504Y-62693482D02*
X106086266Y-62645863D01*
X106086266Y-62645863D02*
X106038647Y-62598244D01*
X106038647Y-62598244D02*
X105991028Y-62503006D01*
X105991028Y-62503006D02*
X105943409Y-62312530D01*
X105943409Y-62312530D02*
X105895790Y-62217292D01*
X105895790Y-62217292D02*
X105848171Y-62169673D01*
X105848171Y-62169673D02*
X105752933Y-62122054D01*
X105752933Y-62122054D02*
X105657695Y-62122054D01*
X105657695Y-62122054D02*
X105562457Y-62169673D01*
X105562457Y-62169673D02*
X105514838Y-62217292D01*
X105514838Y-62217292D02*
X105467219Y-62312530D01*
X105467219Y-62312530D02*
X105467219Y-62550625D01*
X105467219Y-62550625D02*
X105514838Y-62693482D01*
X106467219Y-63264911D02*
X106419600Y-63169673D01*
X106419600Y-63169673D02*
X106324361Y-63122054D01*
X106324361Y-63122054D02*
X105467219Y-63122054D01*
X106467219Y-64074435D02*
X105943409Y-64074435D01*
X105943409Y-64074435D02*
X105848171Y-64026816D01*
X105848171Y-64026816D02*
X105800552Y-63931578D01*
X105800552Y-63931578D02*
X105800552Y-63741102D01*
X105800552Y-63741102D02*
X105848171Y-63645864D01*
X106419600Y-64074435D02*
X106467219Y-63979197D01*
X106467219Y-63979197D02*
X106467219Y-63741102D01*
X106467219Y-63741102D02*
X106419600Y-63645864D01*
X106419600Y-63645864D02*
X106324361Y-63598245D01*
X106324361Y-63598245D02*
X106229123Y-63598245D01*
X106229123Y-63598245D02*
X106133885Y-63645864D01*
X106133885Y-63645864D02*
X106086266Y-63741102D01*
X106086266Y-63741102D02*
X106086266Y-63979197D01*
X106086266Y-63979197D02*
X106038647Y-64074435D01*
X105800552Y-64455388D02*
X106467219Y-64693483D01*
X106467219Y-64693483D02*
X105800552Y-64931578D01*
X106419600Y-65693483D02*
X106467219Y-65598245D01*
X106467219Y-65598245D02*
X106467219Y-65407769D01*
X106467219Y-65407769D02*
X106419600Y-65312531D01*
X106419600Y-65312531D02*
X106324361Y-65264912D01*
X106324361Y-65264912D02*
X105943409Y-65264912D01*
X105943409Y-65264912D02*
X105848171Y-65312531D01*
X105848171Y-65312531D02*
X105800552Y-65407769D01*
X105800552Y-65407769D02*
X105800552Y-65598245D01*
X105800552Y-65598245D02*
X105848171Y-65693483D01*
X105848171Y-65693483D02*
X105943409Y-65741102D01*
X105943409Y-65741102D02*
X106038647Y-65741102D01*
X106038647Y-65741102D02*
X106133885Y-65264912D01*
X75367219Y-46369673D02*
X74367219Y-46369673D01*
X74367219Y-46369673D02*
X74367219Y-46750625D01*
X74367219Y-46750625D02*
X74414838Y-46845863D01*
X74414838Y-46845863D02*
X74462457Y-46893482D01*
X74462457Y-46893482D02*
X74557695Y-46941101D01*
X74557695Y-46941101D02*
X74700552Y-46941101D01*
X74700552Y-46941101D02*
X74795790Y-46893482D01*
X74795790Y-46893482D02*
X74843409Y-46845863D01*
X74843409Y-46845863D02*
X74891028Y-46750625D01*
X74891028Y-46750625D02*
X74891028Y-46369673D01*
X74843409Y-47703006D02*
X74891028Y-47845863D01*
X74891028Y-47845863D02*
X74938647Y-47893482D01*
X74938647Y-47893482D02*
X75033885Y-47941101D01*
X75033885Y-47941101D02*
X75176742Y-47941101D01*
X75176742Y-47941101D02*
X75271980Y-47893482D01*
X75271980Y-47893482D02*
X75319600Y-47845863D01*
X75319600Y-47845863D02*
X75367219Y-47750625D01*
X75367219Y-47750625D02*
X75367219Y-47369673D01*
X75367219Y-47369673D02*
X74367219Y-47369673D01*
X74367219Y-47369673D02*
X74367219Y-47703006D01*
X74367219Y-47703006D02*
X74414838Y-47798244D01*
X74414838Y-47798244D02*
X74462457Y-47845863D01*
X74462457Y-47845863D02*
X74557695Y-47893482D01*
X74557695Y-47893482D02*
X74652933Y-47893482D01*
X74652933Y-47893482D02*
X74748171Y-47845863D01*
X74748171Y-47845863D02*
X74795790Y-47798244D01*
X74795790Y-47798244D02*
X74843409Y-47703006D01*
X74843409Y-47703006D02*
X74843409Y-47369673D01*
X75367219Y-48893482D02*
X75367219Y-48322054D01*
X75367219Y-48607768D02*
X74367219Y-48607768D01*
X74367219Y-48607768D02*
X74510076Y-48512530D01*
X74510076Y-48512530D02*
X74605314Y-48417292D01*
X74605314Y-48417292D02*
X74652933Y-48322054D01*
X74462457Y-49274435D02*
X74414838Y-49322054D01*
X74414838Y-49322054D02*
X74367219Y-49417292D01*
X74367219Y-49417292D02*
X74367219Y-49655387D01*
X74367219Y-49655387D02*
X74414838Y-49750625D01*
X74414838Y-49750625D02*
X74462457Y-49798244D01*
X74462457Y-49798244D02*
X74557695Y-49845863D01*
X74557695Y-49845863D02*
X74652933Y-49845863D01*
X74652933Y-49845863D02*
X74795790Y-49798244D01*
X74795790Y-49798244D02*
X75367219Y-49226816D01*
X75367219Y-49226816D02*
X75367219Y-49845863D01*
X72967219Y-46369673D02*
X71967219Y-46369673D01*
X71967219Y-46369673D02*
X71967219Y-46750625D01*
X71967219Y-46750625D02*
X72014838Y-46845863D01*
X72014838Y-46845863D02*
X72062457Y-46893482D01*
X72062457Y-46893482D02*
X72157695Y-46941101D01*
X72157695Y-46941101D02*
X72300552Y-46941101D01*
X72300552Y-46941101D02*
X72395790Y-46893482D01*
X72395790Y-46893482D02*
X72443409Y-46845863D01*
X72443409Y-46845863D02*
X72491028Y-46750625D01*
X72491028Y-46750625D02*
X72491028Y-46369673D01*
X72443409Y-47703006D02*
X72491028Y-47845863D01*
X72491028Y-47845863D02*
X72538647Y-47893482D01*
X72538647Y-47893482D02*
X72633885Y-47941101D01*
X72633885Y-47941101D02*
X72776742Y-47941101D01*
X72776742Y-47941101D02*
X72871980Y-47893482D01*
X72871980Y-47893482D02*
X72919600Y-47845863D01*
X72919600Y-47845863D02*
X72967219Y-47750625D01*
X72967219Y-47750625D02*
X72967219Y-47369673D01*
X72967219Y-47369673D02*
X71967219Y-47369673D01*
X71967219Y-47369673D02*
X71967219Y-47703006D01*
X71967219Y-47703006D02*
X72014838Y-47798244D01*
X72014838Y-47798244D02*
X72062457Y-47845863D01*
X72062457Y-47845863D02*
X72157695Y-47893482D01*
X72157695Y-47893482D02*
X72252933Y-47893482D01*
X72252933Y-47893482D02*
X72348171Y-47845863D01*
X72348171Y-47845863D02*
X72395790Y-47798244D01*
X72395790Y-47798244D02*
X72443409Y-47703006D01*
X72443409Y-47703006D02*
X72443409Y-47369673D01*
X72967219Y-48893482D02*
X72967219Y-48322054D01*
X72967219Y-48607768D02*
X71967219Y-48607768D01*
X71967219Y-48607768D02*
X72110076Y-48512530D01*
X72110076Y-48512530D02*
X72205314Y-48417292D01*
X72205314Y-48417292D02*
X72252933Y-48322054D01*
X71967219Y-49226816D02*
X71967219Y-49845863D01*
X71967219Y-49845863D02*
X72348171Y-49512530D01*
X72348171Y-49512530D02*
X72348171Y-49655387D01*
X72348171Y-49655387D02*
X72395790Y-49750625D01*
X72395790Y-49750625D02*
X72443409Y-49798244D01*
X72443409Y-49798244D02*
X72538647Y-49845863D01*
X72538647Y-49845863D02*
X72776742Y-49845863D01*
X72776742Y-49845863D02*
X72871980Y-49798244D01*
X72871980Y-49798244D02*
X72919600Y-49750625D01*
X72919600Y-49750625D02*
X72967219Y-49655387D01*
X72967219Y-49655387D02*
X72967219Y-49369673D01*
X72967219Y-49369673D02*
X72919600Y-49274435D01*
X72919600Y-49274435D02*
X72871980Y-49226816D01*
X79467219Y-89569673D02*
X78467219Y-89569673D01*
X78467219Y-89569673D02*
X78467219Y-89950625D01*
X78467219Y-89950625D02*
X78514838Y-90045863D01*
X78514838Y-90045863D02*
X78562457Y-90093482D01*
X78562457Y-90093482D02*
X78657695Y-90141101D01*
X78657695Y-90141101D02*
X78800552Y-90141101D01*
X78800552Y-90141101D02*
X78895790Y-90093482D01*
X78895790Y-90093482D02*
X78943409Y-90045863D01*
X78943409Y-90045863D02*
X78991028Y-89950625D01*
X78991028Y-89950625D02*
X78991028Y-89569673D01*
X79181504Y-90522054D02*
X79181504Y-90998244D01*
X79467219Y-90426816D02*
X78467219Y-90760149D01*
X78467219Y-90760149D02*
X79467219Y-91093482D01*
X78467219Y-91903006D02*
X78467219Y-91426816D01*
X78467219Y-91426816D02*
X78943409Y-91379197D01*
X78943409Y-91379197D02*
X78895790Y-91426816D01*
X78895790Y-91426816D02*
X78848171Y-91522054D01*
X78848171Y-91522054D02*
X78848171Y-91760149D01*
X78848171Y-91760149D02*
X78895790Y-91855387D01*
X78895790Y-91855387D02*
X78943409Y-91903006D01*
X78943409Y-91903006D02*
X79038647Y-91950625D01*
X79038647Y-91950625D02*
X79276742Y-91950625D01*
X79276742Y-91950625D02*
X79371980Y-91903006D01*
X79371980Y-91903006D02*
X79419600Y-91855387D01*
X79419600Y-91855387D02*
X79467219Y-91760149D01*
X79467219Y-91760149D02*
X79467219Y-91522054D01*
X79467219Y-91522054D02*
X79419600Y-91426816D01*
X79419600Y-91426816D02*
X79371980Y-91379197D01*
X107367219Y-89569673D02*
X106367219Y-89569673D01*
X106367219Y-89569673D02*
X106367219Y-89950625D01*
X106367219Y-89950625D02*
X106414838Y-90045863D01*
X106414838Y-90045863D02*
X106462457Y-90093482D01*
X106462457Y-90093482D02*
X106557695Y-90141101D01*
X106557695Y-90141101D02*
X106700552Y-90141101D01*
X106700552Y-90141101D02*
X106795790Y-90093482D01*
X106795790Y-90093482D02*
X106843409Y-90045863D01*
X106843409Y-90045863D02*
X106891028Y-89950625D01*
X106891028Y-89950625D02*
X106891028Y-89569673D01*
X107271980Y-91141101D02*
X107319600Y-91093482D01*
X107319600Y-91093482D02*
X107367219Y-90950625D01*
X107367219Y-90950625D02*
X107367219Y-90855387D01*
X107367219Y-90855387D02*
X107319600Y-90712530D01*
X107319600Y-90712530D02*
X107224361Y-90617292D01*
X107224361Y-90617292D02*
X107129123Y-90569673D01*
X107129123Y-90569673D02*
X106938647Y-90522054D01*
X106938647Y-90522054D02*
X106795790Y-90522054D01*
X106795790Y-90522054D02*
X106605314Y-90569673D01*
X106605314Y-90569673D02*
X106510076Y-90617292D01*
X106510076Y-90617292D02*
X106414838Y-90712530D01*
X106414838Y-90712530D02*
X106367219Y-90855387D01*
X106367219Y-90855387D02*
X106367219Y-90950625D01*
X106367219Y-90950625D02*
X106414838Y-91093482D01*
X106414838Y-91093482D02*
X106462457Y-91141101D01*
X107367219Y-92093482D02*
X107367219Y-91522054D01*
X107367219Y-91807768D02*
X106367219Y-91807768D01*
X106367219Y-91807768D02*
X106510076Y-91712530D01*
X106510076Y-91712530D02*
X106605314Y-91617292D01*
X106605314Y-91617292D02*
X106652933Y-91522054D01*
X106367219Y-92998244D02*
X106367219Y-92522054D01*
X106367219Y-92522054D02*
X106843409Y-92474435D01*
X106843409Y-92474435D02*
X106795790Y-92522054D01*
X106795790Y-92522054D02*
X106748171Y-92617292D01*
X106748171Y-92617292D02*
X106748171Y-92855387D01*
X106748171Y-92855387D02*
X106795790Y-92950625D01*
X106795790Y-92950625D02*
X106843409Y-92998244D01*
X106843409Y-92998244D02*
X106938647Y-93045863D01*
X106938647Y-93045863D02*
X107176742Y-93045863D01*
X107176742Y-93045863D02*
X107271980Y-92998244D01*
X107271980Y-92998244D02*
X107319600Y-92950625D01*
X107319600Y-92950625D02*
X107367219Y-92855387D01*
X107367219Y-92855387D02*
X107367219Y-92617292D01*
X107367219Y-92617292D02*
X107319600Y-92522054D01*
X107319600Y-92522054D02*
X107271980Y-92474435D01*
X62430326Y-77986266D02*
X61668422Y-77986266D01*
X84567219Y-89569673D02*
X83567219Y-89569673D01*
X83567219Y-89569673D02*
X83567219Y-89950625D01*
X83567219Y-89950625D02*
X83614838Y-90045863D01*
X83614838Y-90045863D02*
X83662457Y-90093482D01*
X83662457Y-90093482D02*
X83757695Y-90141101D01*
X83757695Y-90141101D02*
X83900552Y-90141101D01*
X83900552Y-90141101D02*
X83995790Y-90093482D01*
X83995790Y-90093482D02*
X84043409Y-90045863D01*
X84043409Y-90045863D02*
X84091028Y-89950625D01*
X84091028Y-89950625D02*
X84091028Y-89569673D01*
X84281504Y-90522054D02*
X84281504Y-90998244D01*
X84567219Y-90426816D02*
X83567219Y-90760149D01*
X83567219Y-90760149D02*
X84567219Y-91093482D01*
X83567219Y-91331578D02*
X83567219Y-91998244D01*
X83567219Y-91998244D02*
X84567219Y-91569673D01*
X119025564Y-70767219D02*
X118406517Y-70767219D01*
X118406517Y-70767219D02*
X118739850Y-71148171D01*
X118739850Y-71148171D02*
X118596993Y-71148171D01*
X118596993Y-71148171D02*
X118501755Y-71195790D01*
X118501755Y-71195790D02*
X118454136Y-71243409D01*
X118454136Y-71243409D02*
X118406517Y-71338647D01*
X118406517Y-71338647D02*
X118406517Y-71576742D01*
X118406517Y-71576742D02*
X118454136Y-71671980D01*
X118454136Y-71671980D02*
X118501755Y-71719600D01*
X118501755Y-71719600D02*
X118596993Y-71767219D01*
X118596993Y-71767219D02*
X118882707Y-71767219D01*
X118882707Y-71767219D02*
X118977945Y-71719600D01*
X118977945Y-71719600D02*
X119025564Y-71671980D01*
X117977945Y-71671980D02*
X117930326Y-71719600D01*
X117930326Y-71719600D02*
X117977945Y-71767219D01*
X117977945Y-71767219D02*
X118025564Y-71719600D01*
X118025564Y-71719600D02*
X117977945Y-71671980D01*
X117977945Y-71671980D02*
X117977945Y-71767219D01*
X117596993Y-70767219D02*
X116977946Y-70767219D01*
X116977946Y-70767219D02*
X117311279Y-71148171D01*
X117311279Y-71148171D02*
X117168422Y-71148171D01*
X117168422Y-71148171D02*
X117073184Y-71195790D01*
X117073184Y-71195790D02*
X117025565Y-71243409D01*
X117025565Y-71243409D02*
X116977946Y-71338647D01*
X116977946Y-71338647D02*
X116977946Y-71576742D01*
X116977946Y-71576742D02*
X117025565Y-71671980D01*
X117025565Y-71671980D02*
X117073184Y-71719600D01*
X117073184Y-71719600D02*
X117168422Y-71767219D01*
X117168422Y-71767219D02*
X117454136Y-71767219D01*
X117454136Y-71767219D02*
X117549374Y-71719600D01*
X117549374Y-71719600D02*
X117596993Y-71671980D01*
X116692231Y-70767219D02*
X116358898Y-71767219D01*
X116358898Y-71767219D02*
X116025565Y-70767219D01*
X88167219Y-47269673D02*
X87167219Y-47269673D01*
X87167219Y-47269673D02*
X87167219Y-47650625D01*
X87167219Y-47650625D02*
X87214838Y-47745863D01*
X87214838Y-47745863D02*
X87262457Y-47793482D01*
X87262457Y-47793482D02*
X87357695Y-47841101D01*
X87357695Y-47841101D02*
X87500552Y-47841101D01*
X87500552Y-47841101D02*
X87595790Y-47793482D01*
X87595790Y-47793482D02*
X87643409Y-47745863D01*
X87643409Y-47745863D02*
X87691028Y-47650625D01*
X87691028Y-47650625D02*
X87691028Y-47269673D01*
X87643409Y-48603006D02*
X87691028Y-48745863D01*
X87691028Y-48745863D02*
X87738647Y-48793482D01*
X87738647Y-48793482D02*
X87833885Y-48841101D01*
X87833885Y-48841101D02*
X87976742Y-48841101D01*
X87976742Y-48841101D02*
X88071980Y-48793482D01*
X88071980Y-48793482D02*
X88119600Y-48745863D01*
X88119600Y-48745863D02*
X88167219Y-48650625D01*
X88167219Y-48650625D02*
X88167219Y-48269673D01*
X88167219Y-48269673D02*
X87167219Y-48269673D01*
X87167219Y-48269673D02*
X87167219Y-48603006D01*
X87167219Y-48603006D02*
X87214838Y-48698244D01*
X87214838Y-48698244D02*
X87262457Y-48745863D01*
X87262457Y-48745863D02*
X87357695Y-48793482D01*
X87357695Y-48793482D02*
X87452933Y-48793482D01*
X87452933Y-48793482D02*
X87548171Y-48745863D01*
X87548171Y-48745863D02*
X87595790Y-48698244D01*
X87595790Y-48698244D02*
X87643409Y-48603006D01*
X87643409Y-48603006D02*
X87643409Y-48269673D01*
X87167219Y-49174435D02*
X87167219Y-49841101D01*
X87167219Y-49841101D02*
X88167219Y-49412530D01*
X120277945Y-74119600D02*
X120135088Y-74167219D01*
X120135088Y-74167219D02*
X119896993Y-74167219D01*
X119896993Y-74167219D02*
X119801755Y-74119600D01*
X119801755Y-74119600D02*
X119754136Y-74071980D01*
X119754136Y-74071980D02*
X119706517Y-73976742D01*
X119706517Y-73976742D02*
X119706517Y-73881504D01*
X119706517Y-73881504D02*
X119754136Y-73786266D01*
X119754136Y-73786266D02*
X119801755Y-73738647D01*
X119801755Y-73738647D02*
X119896993Y-73691028D01*
X119896993Y-73691028D02*
X120087469Y-73643409D01*
X120087469Y-73643409D02*
X120182707Y-73595790D01*
X120182707Y-73595790D02*
X120230326Y-73548171D01*
X120230326Y-73548171D02*
X120277945Y-73452933D01*
X120277945Y-73452933D02*
X120277945Y-73357695D01*
X120277945Y-73357695D02*
X120230326Y-73262457D01*
X120230326Y-73262457D02*
X120182707Y-73214838D01*
X120182707Y-73214838D02*
X120087469Y-73167219D01*
X120087469Y-73167219D02*
X119849374Y-73167219D01*
X119849374Y-73167219D02*
X119706517Y-73214838D01*
X119373183Y-73167219D02*
X119135088Y-74167219D01*
X119135088Y-74167219D02*
X118944612Y-73452933D01*
X118944612Y-73452933D02*
X118754136Y-74167219D01*
X118754136Y-74167219D02*
X118516041Y-73167219D01*
X118135088Y-74167219D02*
X118135088Y-73167219D01*
X118135088Y-73167219D02*
X117896993Y-73167219D01*
X117896993Y-73167219D02*
X117754136Y-73214838D01*
X117754136Y-73214838D02*
X117658898Y-73310076D01*
X117658898Y-73310076D02*
X117611279Y-73405314D01*
X117611279Y-73405314D02*
X117563660Y-73595790D01*
X117563660Y-73595790D02*
X117563660Y-73738647D01*
X117563660Y-73738647D02*
X117611279Y-73929123D01*
X117611279Y-73929123D02*
X117658898Y-74024361D01*
X117658898Y-74024361D02*
X117754136Y-74119600D01*
X117754136Y-74119600D02*
X117896993Y-74167219D01*
X117896993Y-74167219D02*
X118135088Y-74167219D01*
X117135088Y-74167219D02*
X117135088Y-73167219D01*
X116468422Y-73167219D02*
X116277946Y-73167219D01*
X116277946Y-73167219D02*
X116182708Y-73214838D01*
X116182708Y-73214838D02*
X116087470Y-73310076D01*
X116087470Y-73310076D02*
X116039851Y-73500552D01*
X116039851Y-73500552D02*
X116039851Y-73833885D01*
X116039851Y-73833885D02*
X116087470Y-74024361D01*
X116087470Y-74024361D02*
X116182708Y-74119600D01*
X116182708Y-74119600D02*
X116277946Y-74167219D01*
X116277946Y-74167219D02*
X116468422Y-74167219D01*
X116468422Y-74167219D02*
X116563660Y-74119600D01*
X116563660Y-74119600D02*
X116658898Y-74024361D01*
X116658898Y-74024361D02*
X116706517Y-73833885D01*
X116706517Y-73833885D02*
X116706517Y-73500552D01*
X116706517Y-73500552D02*
X116658898Y-73310076D01*
X116658898Y-73310076D02*
X116563660Y-73214838D01*
X116563660Y-73214838D02*
X116468422Y-73167219D01*
D11*
%TO.C,IC1*%
X57525000Y-67100000D02*
G75*
G03*
X57525000Y-67100000I-125000J0D01*
G01*
%TD*%
M02*
