%TF.GenerationSoftware,KiCad,Pcbnew,7.0.7-7.0.7~ubuntu22.04.1*%
%TF.CreationDate,2023-09-19T20:56:04+02:00*%
%TF.ProjectId,kicad103,6b696361-6431-4303-932e-6b696361645f,rev?*%
%TF.SameCoordinates,Original*%
%TF.FileFunction,Legend,Top*%
%TF.FilePolarity,Positive*%
%FSLAX46Y46*%
G04 Gerber Fmt 4.6, Leading zero omitted, Abs format (unit mm)*
G04 Created by KiCad (PCBNEW 7.0.7-7.0.7~ubuntu22.04.1) date 2023-09-19 20:56:04*
%MOMM*%
%LPD*%
G01*
G04 APERTURE LIST*
%ADD10C,0.200000*%
%ADD11C,0.250000*%
%ADD12C,0.120000*%
%ADD13C,0.100000*%
G04 APERTURE END LIST*
D10*
X104867219Y-92530326D02*
X103867219Y-92530326D01*
X103867219Y-92530326D02*
X103867219Y-92149374D01*
X103867219Y-92149374D02*
X103914838Y-92054136D01*
X103914838Y-92054136D02*
X103962457Y-92006517D01*
X103962457Y-92006517D02*
X104057695Y-91958898D01*
X104057695Y-91958898D02*
X104200552Y-91958898D01*
X104200552Y-91958898D02*
X104295790Y-92006517D01*
X104295790Y-92006517D02*
X104343409Y-92054136D01*
X104343409Y-92054136D02*
X104391028Y-92149374D01*
X104391028Y-92149374D02*
X104391028Y-92530326D01*
X104771980Y-90958898D02*
X104819600Y-91006517D01*
X104819600Y-91006517D02*
X104867219Y-91149374D01*
X104867219Y-91149374D02*
X104867219Y-91244612D01*
X104867219Y-91244612D02*
X104819600Y-91387469D01*
X104819600Y-91387469D02*
X104724361Y-91482707D01*
X104724361Y-91482707D02*
X104629123Y-91530326D01*
X104629123Y-91530326D02*
X104438647Y-91577945D01*
X104438647Y-91577945D02*
X104295790Y-91577945D01*
X104295790Y-91577945D02*
X104105314Y-91530326D01*
X104105314Y-91530326D02*
X104010076Y-91482707D01*
X104010076Y-91482707D02*
X103914838Y-91387469D01*
X103914838Y-91387469D02*
X103867219Y-91244612D01*
X103867219Y-91244612D02*
X103867219Y-91149374D01*
X103867219Y-91149374D02*
X103914838Y-91006517D01*
X103914838Y-91006517D02*
X103962457Y-90958898D01*
X104867219Y-90006517D02*
X104867219Y-90577945D01*
X104867219Y-90292231D02*
X103867219Y-90292231D01*
X103867219Y-90292231D02*
X104010076Y-90387469D01*
X104010076Y-90387469D02*
X104105314Y-90482707D01*
X104105314Y-90482707D02*
X104152933Y-90577945D01*
X104200552Y-89149374D02*
X104867219Y-89149374D01*
X103819600Y-89387469D02*
X104533885Y-89625564D01*
X104533885Y-89625564D02*
X104533885Y-89006517D01*
X95993482Y-59367219D02*
X95422054Y-59367219D01*
X95707768Y-59367219D02*
X95707768Y-58367219D01*
X95707768Y-58367219D02*
X95612530Y-58510076D01*
X95612530Y-58510076D02*
X95517292Y-58605314D01*
X95517292Y-58605314D02*
X95422054Y-58652933D01*
X116374435Y-70567219D02*
X116993482Y-70567219D01*
X116993482Y-70567219D02*
X116660149Y-70948171D01*
X116660149Y-70948171D02*
X116803006Y-70948171D01*
X116803006Y-70948171D02*
X116898244Y-70995790D01*
X116898244Y-70995790D02*
X116945863Y-71043409D01*
X116945863Y-71043409D02*
X116993482Y-71138647D01*
X116993482Y-71138647D02*
X116993482Y-71376742D01*
X116993482Y-71376742D02*
X116945863Y-71471980D01*
X116945863Y-71471980D02*
X116898244Y-71519600D01*
X116898244Y-71519600D02*
X116803006Y-71567219D01*
X116803006Y-71567219D02*
X116517292Y-71567219D01*
X116517292Y-71567219D02*
X116422054Y-71519600D01*
X116422054Y-71519600D02*
X116374435Y-71471980D01*
X117422054Y-71471980D02*
X117469673Y-71519600D01*
X117469673Y-71519600D02*
X117422054Y-71567219D01*
X117422054Y-71567219D02*
X117374435Y-71519600D01*
X117374435Y-71519600D02*
X117422054Y-71471980D01*
X117422054Y-71471980D02*
X117422054Y-71567219D01*
X117803006Y-70567219D02*
X118422053Y-70567219D01*
X118422053Y-70567219D02*
X118088720Y-70948171D01*
X118088720Y-70948171D02*
X118231577Y-70948171D01*
X118231577Y-70948171D02*
X118326815Y-70995790D01*
X118326815Y-70995790D02*
X118374434Y-71043409D01*
X118374434Y-71043409D02*
X118422053Y-71138647D01*
X118422053Y-71138647D02*
X118422053Y-71376742D01*
X118422053Y-71376742D02*
X118374434Y-71471980D01*
X118374434Y-71471980D02*
X118326815Y-71519600D01*
X118326815Y-71519600D02*
X118231577Y-71567219D01*
X118231577Y-71567219D02*
X117945863Y-71567219D01*
X117945863Y-71567219D02*
X117850625Y-71519600D01*
X117850625Y-71519600D02*
X117803006Y-71471980D01*
X118707768Y-70567219D02*
X119041101Y-71567219D01*
X119041101Y-71567219D02*
X119374434Y-70567219D01*
X70467219Y-49830326D02*
X69467219Y-49830326D01*
X69467219Y-49830326D02*
X69467219Y-49449374D01*
X69467219Y-49449374D02*
X69514838Y-49354136D01*
X69514838Y-49354136D02*
X69562457Y-49306517D01*
X69562457Y-49306517D02*
X69657695Y-49258898D01*
X69657695Y-49258898D02*
X69800552Y-49258898D01*
X69800552Y-49258898D02*
X69895790Y-49306517D01*
X69895790Y-49306517D02*
X69943409Y-49354136D01*
X69943409Y-49354136D02*
X69991028Y-49449374D01*
X69991028Y-49449374D02*
X69991028Y-49830326D01*
X69943409Y-48496993D02*
X69991028Y-48354136D01*
X69991028Y-48354136D02*
X70038647Y-48306517D01*
X70038647Y-48306517D02*
X70133885Y-48258898D01*
X70133885Y-48258898D02*
X70276742Y-48258898D01*
X70276742Y-48258898D02*
X70371980Y-48306517D01*
X70371980Y-48306517D02*
X70419600Y-48354136D01*
X70419600Y-48354136D02*
X70467219Y-48449374D01*
X70467219Y-48449374D02*
X70467219Y-48830326D01*
X70467219Y-48830326D02*
X69467219Y-48830326D01*
X69467219Y-48830326D02*
X69467219Y-48496993D01*
X69467219Y-48496993D02*
X69514838Y-48401755D01*
X69514838Y-48401755D02*
X69562457Y-48354136D01*
X69562457Y-48354136D02*
X69657695Y-48306517D01*
X69657695Y-48306517D02*
X69752933Y-48306517D01*
X69752933Y-48306517D02*
X69848171Y-48354136D01*
X69848171Y-48354136D02*
X69895790Y-48401755D01*
X69895790Y-48401755D02*
X69943409Y-48496993D01*
X69943409Y-48496993D02*
X69943409Y-48830326D01*
X70467219Y-47306517D02*
X70467219Y-47877945D01*
X70467219Y-47592231D02*
X69467219Y-47592231D01*
X69467219Y-47592231D02*
X69610076Y-47687469D01*
X69610076Y-47687469D02*
X69705314Y-47782707D01*
X69705314Y-47782707D02*
X69752933Y-47877945D01*
X69800552Y-46449374D02*
X70467219Y-46449374D01*
X69419600Y-46687469D02*
X70133885Y-46925564D01*
X70133885Y-46925564D02*
X70133885Y-46306517D01*
X94667219Y-92530326D02*
X93667219Y-92530326D01*
X93667219Y-92530326D02*
X93667219Y-92149374D01*
X93667219Y-92149374D02*
X93714838Y-92054136D01*
X93714838Y-92054136D02*
X93762457Y-92006517D01*
X93762457Y-92006517D02*
X93857695Y-91958898D01*
X93857695Y-91958898D02*
X94000552Y-91958898D01*
X94000552Y-91958898D02*
X94095790Y-92006517D01*
X94095790Y-92006517D02*
X94143409Y-92054136D01*
X94143409Y-92054136D02*
X94191028Y-92149374D01*
X94191028Y-92149374D02*
X94191028Y-92530326D01*
X94381504Y-91577945D02*
X94381504Y-91101755D01*
X94667219Y-91673183D02*
X93667219Y-91339850D01*
X93667219Y-91339850D02*
X94667219Y-91006517D01*
X94667219Y-90149374D02*
X94667219Y-90720802D01*
X94667219Y-90435088D02*
X93667219Y-90435088D01*
X93667219Y-90435088D02*
X93810076Y-90530326D01*
X93810076Y-90530326D02*
X93905314Y-90625564D01*
X93905314Y-90625564D02*
X93952933Y-90720802D01*
X93667219Y-89816040D02*
X93667219Y-89196993D01*
X93667219Y-89196993D02*
X94048171Y-89530326D01*
X94048171Y-89530326D02*
X94048171Y-89387469D01*
X94048171Y-89387469D02*
X94095790Y-89292231D01*
X94095790Y-89292231D02*
X94143409Y-89244612D01*
X94143409Y-89244612D02*
X94238647Y-89196993D01*
X94238647Y-89196993D02*
X94476742Y-89196993D01*
X94476742Y-89196993D02*
X94571980Y-89244612D01*
X94571980Y-89244612D02*
X94619600Y-89292231D01*
X94619600Y-89292231D02*
X94667219Y-89387469D01*
X94667219Y-89387469D02*
X94667219Y-89673183D01*
X94667219Y-89673183D02*
X94619600Y-89768421D01*
X94619600Y-89768421D02*
X94571980Y-89816040D01*
X69167219Y-91430326D02*
X68167219Y-91430326D01*
X68167219Y-91430326D02*
X68167219Y-91049374D01*
X68167219Y-91049374D02*
X68214838Y-90954136D01*
X68214838Y-90954136D02*
X68262457Y-90906517D01*
X68262457Y-90906517D02*
X68357695Y-90858898D01*
X68357695Y-90858898D02*
X68500552Y-90858898D01*
X68500552Y-90858898D02*
X68595790Y-90906517D01*
X68595790Y-90906517D02*
X68643409Y-90954136D01*
X68643409Y-90954136D02*
X68691028Y-91049374D01*
X68691028Y-91049374D02*
X68691028Y-91430326D01*
X68881504Y-90477945D02*
X68881504Y-90001755D01*
X69167219Y-90573183D02*
X68167219Y-90239850D01*
X68167219Y-90239850D02*
X69167219Y-89906517D01*
X69167219Y-89049374D02*
X69167219Y-89620802D01*
X69167219Y-89335088D02*
X68167219Y-89335088D01*
X68167219Y-89335088D02*
X68310076Y-89430326D01*
X68310076Y-89430326D02*
X68405314Y-89525564D01*
X68405314Y-89525564D02*
X68452933Y-89620802D01*
X99355387Y-56467219D02*
X99355387Y-57181504D01*
X99355387Y-57181504D02*
X99307768Y-57324361D01*
X99307768Y-57324361D02*
X99212530Y-57419600D01*
X99212530Y-57419600D02*
X99069673Y-57467219D01*
X99069673Y-57467219D02*
X98974435Y-57467219D01*
X99688721Y-56467219D02*
X100260149Y-56467219D01*
X99974435Y-57467219D02*
X99974435Y-56467219D01*
X100545864Y-57181504D02*
X101022054Y-57181504D01*
X100450626Y-57467219D02*
X100783959Y-56467219D01*
X100783959Y-56467219D02*
X101117292Y-57467219D01*
X101974435Y-56514838D02*
X101879197Y-56467219D01*
X101879197Y-56467219D02*
X101736340Y-56467219D01*
X101736340Y-56467219D02*
X101593483Y-56514838D01*
X101593483Y-56514838D02*
X101498245Y-56610076D01*
X101498245Y-56610076D02*
X101450626Y-56705314D01*
X101450626Y-56705314D02*
X101403007Y-56895790D01*
X101403007Y-56895790D02*
X101403007Y-57038647D01*
X101403007Y-57038647D02*
X101450626Y-57229123D01*
X101450626Y-57229123D02*
X101498245Y-57324361D01*
X101498245Y-57324361D02*
X101593483Y-57419600D01*
X101593483Y-57419600D02*
X101736340Y-57467219D01*
X101736340Y-57467219D02*
X101831578Y-57467219D01*
X101831578Y-57467219D02*
X101974435Y-57419600D01*
X101974435Y-57419600D02*
X102022054Y-57371980D01*
X102022054Y-57371980D02*
X102022054Y-57038647D01*
X102022054Y-57038647D02*
X101831578Y-57038647D01*
X79467219Y-91430326D02*
X78467219Y-91430326D01*
X78467219Y-91430326D02*
X78467219Y-91049374D01*
X78467219Y-91049374D02*
X78514838Y-90954136D01*
X78514838Y-90954136D02*
X78562457Y-90906517D01*
X78562457Y-90906517D02*
X78657695Y-90858898D01*
X78657695Y-90858898D02*
X78800552Y-90858898D01*
X78800552Y-90858898D02*
X78895790Y-90906517D01*
X78895790Y-90906517D02*
X78943409Y-90954136D01*
X78943409Y-90954136D02*
X78991028Y-91049374D01*
X78991028Y-91049374D02*
X78991028Y-91430326D01*
X79181504Y-90477945D02*
X79181504Y-90001755D01*
X79467219Y-90573183D02*
X78467219Y-90239850D01*
X78467219Y-90239850D02*
X79467219Y-89906517D01*
X78467219Y-89096993D02*
X78467219Y-89573183D01*
X78467219Y-89573183D02*
X78943409Y-89620802D01*
X78943409Y-89620802D02*
X78895790Y-89573183D01*
X78895790Y-89573183D02*
X78848171Y-89477945D01*
X78848171Y-89477945D02*
X78848171Y-89239850D01*
X78848171Y-89239850D02*
X78895790Y-89144612D01*
X78895790Y-89144612D02*
X78943409Y-89096993D01*
X78943409Y-89096993D02*
X79038647Y-89049374D01*
X79038647Y-89049374D02*
X79276742Y-89049374D01*
X79276742Y-89049374D02*
X79371980Y-89096993D01*
X79371980Y-89096993D02*
X79419600Y-89144612D01*
X79419600Y-89144612D02*
X79467219Y-89239850D01*
X79467219Y-89239850D02*
X79467219Y-89477945D01*
X79467219Y-89477945D02*
X79419600Y-89573183D01*
X79419600Y-89573183D02*
X79371980Y-89620802D01*
X111122054Y-59519600D02*
X111264911Y-59567219D01*
X111264911Y-59567219D02*
X111503006Y-59567219D01*
X111503006Y-59567219D02*
X111598244Y-59519600D01*
X111598244Y-59519600D02*
X111645863Y-59471980D01*
X111645863Y-59471980D02*
X111693482Y-59376742D01*
X111693482Y-59376742D02*
X111693482Y-59281504D01*
X111693482Y-59281504D02*
X111645863Y-59186266D01*
X111645863Y-59186266D02*
X111598244Y-59138647D01*
X111598244Y-59138647D02*
X111503006Y-59091028D01*
X111503006Y-59091028D02*
X111312530Y-59043409D01*
X111312530Y-59043409D02*
X111217292Y-58995790D01*
X111217292Y-58995790D02*
X111169673Y-58948171D01*
X111169673Y-58948171D02*
X111122054Y-58852933D01*
X111122054Y-58852933D02*
X111122054Y-58757695D01*
X111122054Y-58757695D02*
X111169673Y-58662457D01*
X111169673Y-58662457D02*
X111217292Y-58614838D01*
X111217292Y-58614838D02*
X111312530Y-58567219D01*
X111312530Y-58567219D02*
X111550625Y-58567219D01*
X111550625Y-58567219D02*
X111693482Y-58614838D01*
X112026816Y-58567219D02*
X112264911Y-59567219D01*
X112264911Y-59567219D02*
X112455387Y-58852933D01*
X112455387Y-58852933D02*
X112645863Y-59567219D01*
X112645863Y-59567219D02*
X112883959Y-58567219D01*
X113455387Y-58567219D02*
X113645863Y-58567219D01*
X113645863Y-58567219D02*
X113741101Y-58614838D01*
X113741101Y-58614838D02*
X113836339Y-58710076D01*
X113836339Y-58710076D02*
X113883958Y-58900552D01*
X113883958Y-58900552D02*
X113883958Y-59233885D01*
X113883958Y-59233885D02*
X113836339Y-59424361D01*
X113836339Y-59424361D02*
X113741101Y-59519600D01*
X113741101Y-59519600D02*
X113645863Y-59567219D01*
X113645863Y-59567219D02*
X113455387Y-59567219D01*
X113455387Y-59567219D02*
X113360149Y-59519600D01*
X113360149Y-59519600D02*
X113264911Y-59424361D01*
X113264911Y-59424361D02*
X113217292Y-59233885D01*
X113217292Y-59233885D02*
X113217292Y-58900552D01*
X113217292Y-58900552D02*
X113264911Y-58710076D01*
X113264911Y-58710076D02*
X113360149Y-58614838D01*
X113360149Y-58614838D02*
X113455387Y-58567219D01*
X71767219Y-91430326D02*
X70767219Y-91430326D01*
X70767219Y-91430326D02*
X70767219Y-91049374D01*
X70767219Y-91049374D02*
X70814838Y-90954136D01*
X70814838Y-90954136D02*
X70862457Y-90906517D01*
X70862457Y-90906517D02*
X70957695Y-90858898D01*
X70957695Y-90858898D02*
X71100552Y-90858898D01*
X71100552Y-90858898D02*
X71195790Y-90906517D01*
X71195790Y-90906517D02*
X71243409Y-90954136D01*
X71243409Y-90954136D02*
X71291028Y-91049374D01*
X71291028Y-91049374D02*
X71291028Y-91430326D01*
X71481504Y-90477945D02*
X71481504Y-90001755D01*
X71767219Y-90573183D02*
X70767219Y-90239850D01*
X70767219Y-90239850D02*
X71767219Y-89906517D01*
X70862457Y-89620802D02*
X70814838Y-89573183D01*
X70814838Y-89573183D02*
X70767219Y-89477945D01*
X70767219Y-89477945D02*
X70767219Y-89239850D01*
X70767219Y-89239850D02*
X70814838Y-89144612D01*
X70814838Y-89144612D02*
X70862457Y-89096993D01*
X70862457Y-89096993D02*
X70957695Y-89049374D01*
X70957695Y-89049374D02*
X71052933Y-89049374D01*
X71052933Y-89049374D02*
X71195790Y-89096993D01*
X71195790Y-89096993D02*
X71767219Y-89668421D01*
X71767219Y-89668421D02*
X71767219Y-89049374D01*
X110822054Y-64119600D02*
X110964911Y-64167219D01*
X110964911Y-64167219D02*
X111203006Y-64167219D01*
X111203006Y-64167219D02*
X111298244Y-64119600D01*
X111298244Y-64119600D02*
X111345863Y-64071980D01*
X111345863Y-64071980D02*
X111393482Y-63976742D01*
X111393482Y-63976742D02*
X111393482Y-63881504D01*
X111393482Y-63881504D02*
X111345863Y-63786266D01*
X111345863Y-63786266D02*
X111298244Y-63738647D01*
X111298244Y-63738647D02*
X111203006Y-63691028D01*
X111203006Y-63691028D02*
X111012530Y-63643409D01*
X111012530Y-63643409D02*
X110917292Y-63595790D01*
X110917292Y-63595790D02*
X110869673Y-63548171D01*
X110869673Y-63548171D02*
X110822054Y-63452933D01*
X110822054Y-63452933D02*
X110822054Y-63357695D01*
X110822054Y-63357695D02*
X110869673Y-63262457D01*
X110869673Y-63262457D02*
X110917292Y-63214838D01*
X110917292Y-63214838D02*
X111012530Y-63167219D01*
X111012530Y-63167219D02*
X111250625Y-63167219D01*
X111250625Y-63167219D02*
X111393482Y-63214838D01*
X111726816Y-63167219D02*
X111964911Y-64167219D01*
X111964911Y-64167219D02*
X112155387Y-63452933D01*
X112155387Y-63452933D02*
X112345863Y-64167219D01*
X112345863Y-64167219D02*
X112583959Y-63167219D01*
X112964911Y-64167219D02*
X112964911Y-63167219D01*
X112964911Y-63167219D02*
X113203006Y-63167219D01*
X113203006Y-63167219D02*
X113345863Y-63214838D01*
X113345863Y-63214838D02*
X113441101Y-63310076D01*
X113441101Y-63310076D02*
X113488720Y-63405314D01*
X113488720Y-63405314D02*
X113536339Y-63595790D01*
X113536339Y-63595790D02*
X113536339Y-63738647D01*
X113536339Y-63738647D02*
X113488720Y-63929123D01*
X113488720Y-63929123D02*
X113441101Y-64024361D01*
X113441101Y-64024361D02*
X113345863Y-64119600D01*
X113345863Y-64119600D02*
X113203006Y-64167219D01*
X113203006Y-64167219D02*
X112964911Y-64167219D01*
X113964911Y-64167219D02*
X113964911Y-63167219D01*
X114631577Y-63167219D02*
X114822053Y-63167219D01*
X114822053Y-63167219D02*
X114917291Y-63214838D01*
X114917291Y-63214838D02*
X115012529Y-63310076D01*
X115012529Y-63310076D02*
X115060148Y-63500552D01*
X115060148Y-63500552D02*
X115060148Y-63833885D01*
X115060148Y-63833885D02*
X115012529Y-64024361D01*
X115012529Y-64024361D02*
X114917291Y-64119600D01*
X114917291Y-64119600D02*
X114822053Y-64167219D01*
X114822053Y-64167219D02*
X114631577Y-64167219D01*
X114631577Y-64167219D02*
X114536339Y-64119600D01*
X114536339Y-64119600D02*
X114441101Y-64024361D01*
X114441101Y-64024361D02*
X114393482Y-63833885D01*
X114393482Y-63833885D02*
X114393482Y-63500552D01*
X114393482Y-63500552D02*
X114441101Y-63310076D01*
X114441101Y-63310076D02*
X114536339Y-63214838D01*
X114536339Y-63214838D02*
X114631577Y-63167219D01*
X107367219Y-92530326D02*
X106367219Y-92530326D01*
X106367219Y-92530326D02*
X106367219Y-92149374D01*
X106367219Y-92149374D02*
X106414838Y-92054136D01*
X106414838Y-92054136D02*
X106462457Y-92006517D01*
X106462457Y-92006517D02*
X106557695Y-91958898D01*
X106557695Y-91958898D02*
X106700552Y-91958898D01*
X106700552Y-91958898D02*
X106795790Y-92006517D01*
X106795790Y-92006517D02*
X106843409Y-92054136D01*
X106843409Y-92054136D02*
X106891028Y-92149374D01*
X106891028Y-92149374D02*
X106891028Y-92530326D01*
X107271980Y-90958898D02*
X107319600Y-91006517D01*
X107319600Y-91006517D02*
X107367219Y-91149374D01*
X107367219Y-91149374D02*
X107367219Y-91244612D01*
X107367219Y-91244612D02*
X107319600Y-91387469D01*
X107319600Y-91387469D02*
X107224361Y-91482707D01*
X107224361Y-91482707D02*
X107129123Y-91530326D01*
X107129123Y-91530326D02*
X106938647Y-91577945D01*
X106938647Y-91577945D02*
X106795790Y-91577945D01*
X106795790Y-91577945D02*
X106605314Y-91530326D01*
X106605314Y-91530326D02*
X106510076Y-91482707D01*
X106510076Y-91482707D02*
X106414838Y-91387469D01*
X106414838Y-91387469D02*
X106367219Y-91244612D01*
X106367219Y-91244612D02*
X106367219Y-91149374D01*
X106367219Y-91149374D02*
X106414838Y-91006517D01*
X106414838Y-91006517D02*
X106462457Y-90958898D01*
X107367219Y-90006517D02*
X107367219Y-90577945D01*
X107367219Y-90292231D02*
X106367219Y-90292231D01*
X106367219Y-90292231D02*
X106510076Y-90387469D01*
X106510076Y-90387469D02*
X106605314Y-90482707D01*
X106605314Y-90482707D02*
X106652933Y-90577945D01*
X106367219Y-89101755D02*
X106367219Y-89577945D01*
X106367219Y-89577945D02*
X106843409Y-89625564D01*
X106843409Y-89625564D02*
X106795790Y-89577945D01*
X106795790Y-89577945D02*
X106748171Y-89482707D01*
X106748171Y-89482707D02*
X106748171Y-89244612D01*
X106748171Y-89244612D02*
X106795790Y-89149374D01*
X106795790Y-89149374D02*
X106843409Y-89101755D01*
X106843409Y-89101755D02*
X106938647Y-89054136D01*
X106938647Y-89054136D02*
X107176742Y-89054136D01*
X107176742Y-89054136D02*
X107271980Y-89101755D01*
X107271980Y-89101755D02*
X107319600Y-89149374D01*
X107319600Y-89149374D02*
X107367219Y-89244612D01*
X107367219Y-89244612D02*
X107367219Y-89482707D01*
X107367219Y-89482707D02*
X107319600Y-89577945D01*
X107319600Y-89577945D02*
X107271980Y-89625564D01*
X99767219Y-92530326D02*
X98767219Y-92530326D01*
X98767219Y-92530326D02*
X98767219Y-92149374D01*
X98767219Y-92149374D02*
X98814838Y-92054136D01*
X98814838Y-92054136D02*
X98862457Y-92006517D01*
X98862457Y-92006517D02*
X98957695Y-91958898D01*
X98957695Y-91958898D02*
X99100552Y-91958898D01*
X99100552Y-91958898D02*
X99195790Y-92006517D01*
X99195790Y-92006517D02*
X99243409Y-92054136D01*
X99243409Y-92054136D02*
X99291028Y-92149374D01*
X99291028Y-92149374D02*
X99291028Y-92530326D01*
X99481504Y-91577945D02*
X99481504Y-91101755D01*
X99767219Y-91673183D02*
X98767219Y-91339850D01*
X98767219Y-91339850D02*
X99767219Y-91006517D01*
X99767219Y-90149374D02*
X99767219Y-90720802D01*
X99767219Y-90435088D02*
X98767219Y-90435088D01*
X98767219Y-90435088D02*
X98910076Y-90530326D01*
X98910076Y-90530326D02*
X99005314Y-90625564D01*
X99005314Y-90625564D02*
X99052933Y-90720802D01*
X98767219Y-89244612D02*
X98767219Y-89720802D01*
X98767219Y-89720802D02*
X99243409Y-89768421D01*
X99243409Y-89768421D02*
X99195790Y-89720802D01*
X99195790Y-89720802D02*
X99148171Y-89625564D01*
X99148171Y-89625564D02*
X99148171Y-89387469D01*
X99148171Y-89387469D02*
X99195790Y-89292231D01*
X99195790Y-89292231D02*
X99243409Y-89244612D01*
X99243409Y-89244612D02*
X99338647Y-89196993D01*
X99338647Y-89196993D02*
X99576742Y-89196993D01*
X99576742Y-89196993D02*
X99671980Y-89244612D01*
X99671980Y-89244612D02*
X99719600Y-89292231D01*
X99719600Y-89292231D02*
X99767219Y-89387469D01*
X99767219Y-89387469D02*
X99767219Y-89625564D01*
X99767219Y-89625564D02*
X99719600Y-89720802D01*
X99719600Y-89720802D02*
X99671980Y-89768421D01*
X87067219Y-91430326D02*
X86067219Y-91430326D01*
X86067219Y-91430326D02*
X86067219Y-91049374D01*
X86067219Y-91049374D02*
X86114838Y-90954136D01*
X86114838Y-90954136D02*
X86162457Y-90906517D01*
X86162457Y-90906517D02*
X86257695Y-90858898D01*
X86257695Y-90858898D02*
X86400552Y-90858898D01*
X86400552Y-90858898D02*
X86495790Y-90906517D01*
X86495790Y-90906517D02*
X86543409Y-90954136D01*
X86543409Y-90954136D02*
X86591028Y-91049374D01*
X86591028Y-91049374D02*
X86591028Y-91430326D01*
X86781504Y-90477945D02*
X86781504Y-90001755D01*
X87067219Y-90573183D02*
X86067219Y-90239850D01*
X86067219Y-90239850D02*
X87067219Y-89906517D01*
X86495790Y-89430326D02*
X86448171Y-89525564D01*
X86448171Y-89525564D02*
X86400552Y-89573183D01*
X86400552Y-89573183D02*
X86305314Y-89620802D01*
X86305314Y-89620802D02*
X86257695Y-89620802D01*
X86257695Y-89620802D02*
X86162457Y-89573183D01*
X86162457Y-89573183D02*
X86114838Y-89525564D01*
X86114838Y-89525564D02*
X86067219Y-89430326D01*
X86067219Y-89430326D02*
X86067219Y-89239850D01*
X86067219Y-89239850D02*
X86114838Y-89144612D01*
X86114838Y-89144612D02*
X86162457Y-89096993D01*
X86162457Y-89096993D02*
X86257695Y-89049374D01*
X86257695Y-89049374D02*
X86305314Y-89049374D01*
X86305314Y-89049374D02*
X86400552Y-89096993D01*
X86400552Y-89096993D02*
X86448171Y-89144612D01*
X86448171Y-89144612D02*
X86495790Y-89239850D01*
X86495790Y-89239850D02*
X86495790Y-89430326D01*
X86495790Y-89430326D02*
X86543409Y-89525564D01*
X86543409Y-89525564D02*
X86591028Y-89573183D01*
X86591028Y-89573183D02*
X86686266Y-89620802D01*
X86686266Y-89620802D02*
X86876742Y-89620802D01*
X86876742Y-89620802D02*
X86971980Y-89573183D01*
X86971980Y-89573183D02*
X87019600Y-89525564D01*
X87019600Y-89525564D02*
X87067219Y-89430326D01*
X87067219Y-89430326D02*
X87067219Y-89239850D01*
X87067219Y-89239850D02*
X87019600Y-89144612D01*
X87019600Y-89144612D02*
X86971980Y-89096993D01*
X86971980Y-89096993D02*
X86876742Y-89049374D01*
X86876742Y-89049374D02*
X86686266Y-89049374D01*
X86686266Y-89049374D02*
X86591028Y-89096993D01*
X86591028Y-89096993D02*
X86543409Y-89144612D01*
X86543409Y-89144612D02*
X86495790Y-89239850D01*
X80467219Y-49830326D02*
X79467219Y-49830326D01*
X79467219Y-49830326D02*
X79467219Y-49449374D01*
X79467219Y-49449374D02*
X79514838Y-49354136D01*
X79514838Y-49354136D02*
X79562457Y-49306517D01*
X79562457Y-49306517D02*
X79657695Y-49258898D01*
X79657695Y-49258898D02*
X79800552Y-49258898D01*
X79800552Y-49258898D02*
X79895790Y-49306517D01*
X79895790Y-49306517D02*
X79943409Y-49354136D01*
X79943409Y-49354136D02*
X79991028Y-49449374D01*
X79991028Y-49449374D02*
X79991028Y-49830326D01*
X79943409Y-48496993D02*
X79991028Y-48354136D01*
X79991028Y-48354136D02*
X80038647Y-48306517D01*
X80038647Y-48306517D02*
X80133885Y-48258898D01*
X80133885Y-48258898D02*
X80276742Y-48258898D01*
X80276742Y-48258898D02*
X80371980Y-48306517D01*
X80371980Y-48306517D02*
X80419600Y-48354136D01*
X80419600Y-48354136D02*
X80467219Y-48449374D01*
X80467219Y-48449374D02*
X80467219Y-48830326D01*
X80467219Y-48830326D02*
X79467219Y-48830326D01*
X79467219Y-48830326D02*
X79467219Y-48496993D01*
X79467219Y-48496993D02*
X79514838Y-48401755D01*
X79514838Y-48401755D02*
X79562457Y-48354136D01*
X79562457Y-48354136D02*
X79657695Y-48306517D01*
X79657695Y-48306517D02*
X79752933Y-48306517D01*
X79752933Y-48306517D02*
X79848171Y-48354136D01*
X79848171Y-48354136D02*
X79895790Y-48401755D01*
X79895790Y-48401755D02*
X79943409Y-48496993D01*
X79943409Y-48496993D02*
X79943409Y-48830326D01*
X80467219Y-47306517D02*
X80467219Y-47877945D01*
X80467219Y-47592231D02*
X79467219Y-47592231D01*
X79467219Y-47592231D02*
X79610076Y-47687469D01*
X79610076Y-47687469D02*
X79705314Y-47782707D01*
X79705314Y-47782707D02*
X79752933Y-47877945D01*
X79467219Y-46687469D02*
X79467219Y-46592231D01*
X79467219Y-46592231D02*
X79514838Y-46496993D01*
X79514838Y-46496993D02*
X79562457Y-46449374D01*
X79562457Y-46449374D02*
X79657695Y-46401755D01*
X79657695Y-46401755D02*
X79848171Y-46354136D01*
X79848171Y-46354136D02*
X80086266Y-46354136D01*
X80086266Y-46354136D02*
X80276742Y-46401755D01*
X80276742Y-46401755D02*
X80371980Y-46449374D01*
X80371980Y-46449374D02*
X80419600Y-46496993D01*
X80419600Y-46496993D02*
X80467219Y-46592231D01*
X80467219Y-46592231D02*
X80467219Y-46687469D01*
X80467219Y-46687469D02*
X80419600Y-46782707D01*
X80419600Y-46782707D02*
X80371980Y-46830326D01*
X80371980Y-46830326D02*
X80276742Y-46877945D01*
X80276742Y-46877945D02*
X80086266Y-46925564D01*
X80086266Y-46925564D02*
X79848171Y-46925564D01*
X79848171Y-46925564D02*
X79657695Y-46877945D01*
X79657695Y-46877945D02*
X79562457Y-46830326D01*
X79562457Y-46830326D02*
X79514838Y-46782707D01*
X79514838Y-46782707D02*
X79467219Y-46687469D01*
X110822054Y-66819600D02*
X110964911Y-66867219D01*
X110964911Y-66867219D02*
X111203006Y-66867219D01*
X111203006Y-66867219D02*
X111298244Y-66819600D01*
X111298244Y-66819600D02*
X111345863Y-66771980D01*
X111345863Y-66771980D02*
X111393482Y-66676742D01*
X111393482Y-66676742D02*
X111393482Y-66581504D01*
X111393482Y-66581504D02*
X111345863Y-66486266D01*
X111345863Y-66486266D02*
X111298244Y-66438647D01*
X111298244Y-66438647D02*
X111203006Y-66391028D01*
X111203006Y-66391028D02*
X111012530Y-66343409D01*
X111012530Y-66343409D02*
X110917292Y-66295790D01*
X110917292Y-66295790D02*
X110869673Y-66248171D01*
X110869673Y-66248171D02*
X110822054Y-66152933D01*
X110822054Y-66152933D02*
X110822054Y-66057695D01*
X110822054Y-66057695D02*
X110869673Y-65962457D01*
X110869673Y-65962457D02*
X110917292Y-65914838D01*
X110917292Y-65914838D02*
X111012530Y-65867219D01*
X111012530Y-65867219D02*
X111250625Y-65867219D01*
X111250625Y-65867219D02*
X111393482Y-65914838D01*
X111726816Y-65867219D02*
X111964911Y-66867219D01*
X111964911Y-66867219D02*
X112155387Y-66152933D01*
X112155387Y-66152933D02*
X112345863Y-66867219D01*
X112345863Y-66867219D02*
X112583959Y-65867219D01*
X113536339Y-66771980D02*
X113488720Y-66819600D01*
X113488720Y-66819600D02*
X113345863Y-66867219D01*
X113345863Y-66867219D02*
X113250625Y-66867219D01*
X113250625Y-66867219D02*
X113107768Y-66819600D01*
X113107768Y-66819600D02*
X113012530Y-66724361D01*
X113012530Y-66724361D02*
X112964911Y-66629123D01*
X112964911Y-66629123D02*
X112917292Y-66438647D01*
X112917292Y-66438647D02*
X112917292Y-66295790D01*
X112917292Y-66295790D02*
X112964911Y-66105314D01*
X112964911Y-66105314D02*
X113012530Y-66010076D01*
X113012530Y-66010076D02*
X113107768Y-65914838D01*
X113107768Y-65914838D02*
X113250625Y-65867219D01*
X113250625Y-65867219D02*
X113345863Y-65867219D01*
X113345863Y-65867219D02*
X113488720Y-65914838D01*
X113488720Y-65914838D02*
X113536339Y-65962457D01*
X114441101Y-66867219D02*
X113964911Y-66867219D01*
X113964911Y-66867219D02*
X113964911Y-65867219D01*
X114774435Y-66867219D02*
X114774435Y-65867219D01*
X115345863Y-66867219D02*
X114917292Y-66295790D01*
X115345863Y-65867219D02*
X114774435Y-66438647D01*
X90667219Y-49830326D02*
X89667219Y-49830326D01*
X89667219Y-49830326D02*
X89667219Y-49449374D01*
X89667219Y-49449374D02*
X89714838Y-49354136D01*
X89714838Y-49354136D02*
X89762457Y-49306517D01*
X89762457Y-49306517D02*
X89857695Y-49258898D01*
X89857695Y-49258898D02*
X90000552Y-49258898D01*
X90000552Y-49258898D02*
X90095790Y-49306517D01*
X90095790Y-49306517D02*
X90143409Y-49354136D01*
X90143409Y-49354136D02*
X90191028Y-49449374D01*
X90191028Y-49449374D02*
X90191028Y-49830326D01*
X90143409Y-48496993D02*
X90191028Y-48354136D01*
X90191028Y-48354136D02*
X90238647Y-48306517D01*
X90238647Y-48306517D02*
X90333885Y-48258898D01*
X90333885Y-48258898D02*
X90476742Y-48258898D01*
X90476742Y-48258898D02*
X90571980Y-48306517D01*
X90571980Y-48306517D02*
X90619600Y-48354136D01*
X90619600Y-48354136D02*
X90667219Y-48449374D01*
X90667219Y-48449374D02*
X90667219Y-48830326D01*
X90667219Y-48830326D02*
X89667219Y-48830326D01*
X89667219Y-48830326D02*
X89667219Y-48496993D01*
X89667219Y-48496993D02*
X89714838Y-48401755D01*
X89714838Y-48401755D02*
X89762457Y-48354136D01*
X89762457Y-48354136D02*
X89857695Y-48306517D01*
X89857695Y-48306517D02*
X89952933Y-48306517D01*
X89952933Y-48306517D02*
X90048171Y-48354136D01*
X90048171Y-48354136D02*
X90095790Y-48401755D01*
X90095790Y-48401755D02*
X90143409Y-48496993D01*
X90143409Y-48496993D02*
X90143409Y-48830326D01*
X89667219Y-47401755D02*
X89667219Y-47592231D01*
X89667219Y-47592231D02*
X89714838Y-47687469D01*
X89714838Y-47687469D02*
X89762457Y-47735088D01*
X89762457Y-47735088D02*
X89905314Y-47830326D01*
X89905314Y-47830326D02*
X90095790Y-47877945D01*
X90095790Y-47877945D02*
X90476742Y-47877945D01*
X90476742Y-47877945D02*
X90571980Y-47830326D01*
X90571980Y-47830326D02*
X90619600Y-47782707D01*
X90619600Y-47782707D02*
X90667219Y-47687469D01*
X90667219Y-47687469D02*
X90667219Y-47496993D01*
X90667219Y-47496993D02*
X90619600Y-47401755D01*
X90619600Y-47401755D02*
X90571980Y-47354136D01*
X90571980Y-47354136D02*
X90476742Y-47306517D01*
X90476742Y-47306517D02*
X90238647Y-47306517D01*
X90238647Y-47306517D02*
X90143409Y-47354136D01*
X90143409Y-47354136D02*
X90095790Y-47401755D01*
X90095790Y-47401755D02*
X90048171Y-47496993D01*
X90048171Y-47496993D02*
X90048171Y-47687469D01*
X90048171Y-47687469D02*
X90095790Y-47782707D01*
X90095790Y-47782707D02*
X90143409Y-47830326D01*
X90143409Y-47830326D02*
X90238647Y-47877945D01*
X66667219Y-91430326D02*
X65667219Y-91430326D01*
X65667219Y-91430326D02*
X65667219Y-91049374D01*
X65667219Y-91049374D02*
X65714838Y-90954136D01*
X65714838Y-90954136D02*
X65762457Y-90906517D01*
X65762457Y-90906517D02*
X65857695Y-90858898D01*
X65857695Y-90858898D02*
X66000552Y-90858898D01*
X66000552Y-90858898D02*
X66095790Y-90906517D01*
X66095790Y-90906517D02*
X66143409Y-90954136D01*
X66143409Y-90954136D02*
X66191028Y-91049374D01*
X66191028Y-91049374D02*
X66191028Y-91430326D01*
X66381504Y-90477945D02*
X66381504Y-90001755D01*
X66667219Y-90573183D02*
X65667219Y-90239850D01*
X65667219Y-90239850D02*
X66667219Y-89906517D01*
X65667219Y-89382707D02*
X65667219Y-89287469D01*
X65667219Y-89287469D02*
X65714838Y-89192231D01*
X65714838Y-89192231D02*
X65762457Y-89144612D01*
X65762457Y-89144612D02*
X65857695Y-89096993D01*
X65857695Y-89096993D02*
X66048171Y-89049374D01*
X66048171Y-89049374D02*
X66286266Y-89049374D01*
X66286266Y-89049374D02*
X66476742Y-89096993D01*
X66476742Y-89096993D02*
X66571980Y-89144612D01*
X66571980Y-89144612D02*
X66619600Y-89192231D01*
X66619600Y-89192231D02*
X66667219Y-89287469D01*
X66667219Y-89287469D02*
X66667219Y-89382707D01*
X66667219Y-89382707D02*
X66619600Y-89477945D01*
X66619600Y-89477945D02*
X66571980Y-89525564D01*
X66571980Y-89525564D02*
X66476742Y-89573183D01*
X66476742Y-89573183D02*
X66286266Y-89620802D01*
X66286266Y-89620802D02*
X66048171Y-89620802D01*
X66048171Y-89620802D02*
X65857695Y-89573183D01*
X65857695Y-89573183D02*
X65762457Y-89525564D01*
X65762457Y-89525564D02*
X65714838Y-89477945D01*
X65714838Y-89477945D02*
X65667219Y-89382707D01*
X88167219Y-49830326D02*
X87167219Y-49830326D01*
X87167219Y-49830326D02*
X87167219Y-49449374D01*
X87167219Y-49449374D02*
X87214838Y-49354136D01*
X87214838Y-49354136D02*
X87262457Y-49306517D01*
X87262457Y-49306517D02*
X87357695Y-49258898D01*
X87357695Y-49258898D02*
X87500552Y-49258898D01*
X87500552Y-49258898D02*
X87595790Y-49306517D01*
X87595790Y-49306517D02*
X87643409Y-49354136D01*
X87643409Y-49354136D02*
X87691028Y-49449374D01*
X87691028Y-49449374D02*
X87691028Y-49830326D01*
X87643409Y-48496993D02*
X87691028Y-48354136D01*
X87691028Y-48354136D02*
X87738647Y-48306517D01*
X87738647Y-48306517D02*
X87833885Y-48258898D01*
X87833885Y-48258898D02*
X87976742Y-48258898D01*
X87976742Y-48258898D02*
X88071980Y-48306517D01*
X88071980Y-48306517D02*
X88119600Y-48354136D01*
X88119600Y-48354136D02*
X88167219Y-48449374D01*
X88167219Y-48449374D02*
X88167219Y-48830326D01*
X88167219Y-48830326D02*
X87167219Y-48830326D01*
X87167219Y-48830326D02*
X87167219Y-48496993D01*
X87167219Y-48496993D02*
X87214838Y-48401755D01*
X87214838Y-48401755D02*
X87262457Y-48354136D01*
X87262457Y-48354136D02*
X87357695Y-48306517D01*
X87357695Y-48306517D02*
X87452933Y-48306517D01*
X87452933Y-48306517D02*
X87548171Y-48354136D01*
X87548171Y-48354136D02*
X87595790Y-48401755D01*
X87595790Y-48401755D02*
X87643409Y-48496993D01*
X87643409Y-48496993D02*
X87643409Y-48830326D01*
X87167219Y-47925564D02*
X87167219Y-47258898D01*
X87167219Y-47258898D02*
X88167219Y-47687469D01*
X79393482Y-65567219D02*
X78822054Y-65567219D01*
X79107768Y-65567219D02*
X79107768Y-64567219D01*
X79107768Y-64567219D02*
X79012530Y-64710076D01*
X79012530Y-64710076D02*
X78917292Y-64805314D01*
X78917292Y-64805314D02*
X78822054Y-64852933D01*
X76867219Y-91430326D02*
X75867219Y-91430326D01*
X75867219Y-91430326D02*
X75867219Y-91049374D01*
X75867219Y-91049374D02*
X75914838Y-90954136D01*
X75914838Y-90954136D02*
X75962457Y-90906517D01*
X75962457Y-90906517D02*
X76057695Y-90858898D01*
X76057695Y-90858898D02*
X76200552Y-90858898D01*
X76200552Y-90858898D02*
X76295790Y-90906517D01*
X76295790Y-90906517D02*
X76343409Y-90954136D01*
X76343409Y-90954136D02*
X76391028Y-91049374D01*
X76391028Y-91049374D02*
X76391028Y-91430326D01*
X76581504Y-90477945D02*
X76581504Y-90001755D01*
X76867219Y-90573183D02*
X75867219Y-90239850D01*
X75867219Y-90239850D02*
X76867219Y-89906517D01*
X76200552Y-89144612D02*
X76867219Y-89144612D01*
X75819600Y-89382707D02*
X76533885Y-89620802D01*
X76533885Y-89620802D02*
X76533885Y-89001755D01*
X92067219Y-92530326D02*
X91067219Y-92530326D01*
X91067219Y-92530326D02*
X91067219Y-92149374D01*
X91067219Y-92149374D02*
X91114838Y-92054136D01*
X91114838Y-92054136D02*
X91162457Y-92006517D01*
X91162457Y-92006517D02*
X91257695Y-91958898D01*
X91257695Y-91958898D02*
X91400552Y-91958898D01*
X91400552Y-91958898D02*
X91495790Y-92006517D01*
X91495790Y-92006517D02*
X91543409Y-92054136D01*
X91543409Y-92054136D02*
X91591028Y-92149374D01*
X91591028Y-92149374D02*
X91591028Y-92530326D01*
X91781504Y-91577945D02*
X91781504Y-91101755D01*
X92067219Y-91673183D02*
X91067219Y-91339850D01*
X91067219Y-91339850D02*
X92067219Y-91006517D01*
X92067219Y-90149374D02*
X92067219Y-90720802D01*
X92067219Y-90435088D02*
X91067219Y-90435088D01*
X91067219Y-90435088D02*
X91210076Y-90530326D01*
X91210076Y-90530326D02*
X91305314Y-90625564D01*
X91305314Y-90625564D02*
X91352933Y-90720802D01*
X91067219Y-89530326D02*
X91067219Y-89435088D01*
X91067219Y-89435088D02*
X91114838Y-89339850D01*
X91114838Y-89339850D02*
X91162457Y-89292231D01*
X91162457Y-89292231D02*
X91257695Y-89244612D01*
X91257695Y-89244612D02*
X91448171Y-89196993D01*
X91448171Y-89196993D02*
X91686266Y-89196993D01*
X91686266Y-89196993D02*
X91876742Y-89244612D01*
X91876742Y-89244612D02*
X91971980Y-89292231D01*
X91971980Y-89292231D02*
X92019600Y-89339850D01*
X92019600Y-89339850D02*
X92067219Y-89435088D01*
X92067219Y-89435088D02*
X92067219Y-89530326D01*
X92067219Y-89530326D02*
X92019600Y-89625564D01*
X92019600Y-89625564D02*
X91971980Y-89673183D01*
X91971980Y-89673183D02*
X91876742Y-89720802D01*
X91876742Y-89720802D02*
X91686266Y-89768421D01*
X91686266Y-89768421D02*
X91448171Y-89768421D01*
X91448171Y-89768421D02*
X91257695Y-89720802D01*
X91257695Y-89720802D02*
X91162457Y-89673183D01*
X91162457Y-89673183D02*
X91114838Y-89625564D01*
X91114838Y-89625564D02*
X91067219Y-89530326D01*
X116893482Y-78414838D02*
X116798244Y-78367219D01*
X116798244Y-78367219D02*
X116655387Y-78367219D01*
X116655387Y-78367219D02*
X116512530Y-78414838D01*
X116512530Y-78414838D02*
X116417292Y-78510076D01*
X116417292Y-78510076D02*
X116369673Y-78605314D01*
X116369673Y-78605314D02*
X116322054Y-78795790D01*
X116322054Y-78795790D02*
X116322054Y-78938647D01*
X116322054Y-78938647D02*
X116369673Y-79129123D01*
X116369673Y-79129123D02*
X116417292Y-79224361D01*
X116417292Y-79224361D02*
X116512530Y-79319600D01*
X116512530Y-79319600D02*
X116655387Y-79367219D01*
X116655387Y-79367219D02*
X116750625Y-79367219D01*
X116750625Y-79367219D02*
X116893482Y-79319600D01*
X116893482Y-79319600D02*
X116941101Y-79271980D01*
X116941101Y-79271980D02*
X116941101Y-78938647D01*
X116941101Y-78938647D02*
X116750625Y-78938647D01*
X117369673Y-79367219D02*
X117369673Y-78367219D01*
X117369673Y-78367219D02*
X117941101Y-79367219D01*
X117941101Y-79367219D02*
X117941101Y-78367219D01*
X118417292Y-79367219D02*
X118417292Y-78367219D01*
X118417292Y-78367219D02*
X118655387Y-78367219D01*
X118655387Y-78367219D02*
X118798244Y-78414838D01*
X118798244Y-78414838D02*
X118893482Y-78510076D01*
X118893482Y-78510076D02*
X118941101Y-78605314D01*
X118941101Y-78605314D02*
X118988720Y-78795790D01*
X118988720Y-78795790D02*
X118988720Y-78938647D01*
X118988720Y-78938647D02*
X118941101Y-79129123D01*
X118941101Y-79129123D02*
X118893482Y-79224361D01*
X118893482Y-79224361D02*
X118798244Y-79319600D01*
X118798244Y-79319600D02*
X118655387Y-79367219D01*
X118655387Y-79367219D02*
X118417292Y-79367219D01*
X103367219Y-49830326D02*
X102367219Y-49830326D01*
X102367219Y-49830326D02*
X102367219Y-49449374D01*
X102367219Y-49449374D02*
X102414838Y-49354136D01*
X102414838Y-49354136D02*
X102462457Y-49306517D01*
X102462457Y-49306517D02*
X102557695Y-49258898D01*
X102557695Y-49258898D02*
X102700552Y-49258898D01*
X102700552Y-49258898D02*
X102795790Y-49306517D01*
X102795790Y-49306517D02*
X102843409Y-49354136D01*
X102843409Y-49354136D02*
X102891028Y-49449374D01*
X102891028Y-49449374D02*
X102891028Y-49830326D01*
X102843409Y-48496993D02*
X102891028Y-48354136D01*
X102891028Y-48354136D02*
X102938647Y-48306517D01*
X102938647Y-48306517D02*
X103033885Y-48258898D01*
X103033885Y-48258898D02*
X103176742Y-48258898D01*
X103176742Y-48258898D02*
X103271980Y-48306517D01*
X103271980Y-48306517D02*
X103319600Y-48354136D01*
X103319600Y-48354136D02*
X103367219Y-48449374D01*
X103367219Y-48449374D02*
X103367219Y-48830326D01*
X103367219Y-48830326D02*
X102367219Y-48830326D01*
X102367219Y-48830326D02*
X102367219Y-48496993D01*
X102367219Y-48496993D02*
X102414838Y-48401755D01*
X102414838Y-48401755D02*
X102462457Y-48354136D01*
X102462457Y-48354136D02*
X102557695Y-48306517D01*
X102557695Y-48306517D02*
X102652933Y-48306517D01*
X102652933Y-48306517D02*
X102748171Y-48354136D01*
X102748171Y-48354136D02*
X102795790Y-48401755D01*
X102795790Y-48401755D02*
X102843409Y-48496993D01*
X102843409Y-48496993D02*
X102843409Y-48830326D01*
X103367219Y-47306517D02*
X103367219Y-47877945D01*
X103367219Y-47592231D02*
X102367219Y-47592231D01*
X102367219Y-47592231D02*
X102510076Y-47687469D01*
X102510076Y-47687469D02*
X102605314Y-47782707D01*
X102605314Y-47782707D02*
X102652933Y-47877945D01*
X116422054Y-76819600D02*
X116564911Y-76867219D01*
X116564911Y-76867219D02*
X116803006Y-76867219D01*
X116803006Y-76867219D02*
X116898244Y-76819600D01*
X116898244Y-76819600D02*
X116945863Y-76771980D01*
X116945863Y-76771980D02*
X116993482Y-76676742D01*
X116993482Y-76676742D02*
X116993482Y-76581504D01*
X116993482Y-76581504D02*
X116945863Y-76486266D01*
X116945863Y-76486266D02*
X116898244Y-76438647D01*
X116898244Y-76438647D02*
X116803006Y-76391028D01*
X116803006Y-76391028D02*
X116612530Y-76343409D01*
X116612530Y-76343409D02*
X116517292Y-76295790D01*
X116517292Y-76295790D02*
X116469673Y-76248171D01*
X116469673Y-76248171D02*
X116422054Y-76152933D01*
X116422054Y-76152933D02*
X116422054Y-76057695D01*
X116422054Y-76057695D02*
X116469673Y-75962457D01*
X116469673Y-75962457D02*
X116517292Y-75914838D01*
X116517292Y-75914838D02*
X116612530Y-75867219D01*
X116612530Y-75867219D02*
X116850625Y-75867219D01*
X116850625Y-75867219D02*
X116993482Y-75914838D01*
X117326816Y-75867219D02*
X117564911Y-76867219D01*
X117564911Y-76867219D02*
X117755387Y-76152933D01*
X117755387Y-76152933D02*
X117945863Y-76867219D01*
X117945863Y-76867219D02*
X118183959Y-75867219D01*
X119136339Y-76771980D02*
X119088720Y-76819600D01*
X119088720Y-76819600D02*
X118945863Y-76867219D01*
X118945863Y-76867219D02*
X118850625Y-76867219D01*
X118850625Y-76867219D02*
X118707768Y-76819600D01*
X118707768Y-76819600D02*
X118612530Y-76724361D01*
X118612530Y-76724361D02*
X118564911Y-76629123D01*
X118564911Y-76629123D02*
X118517292Y-76438647D01*
X118517292Y-76438647D02*
X118517292Y-76295790D01*
X118517292Y-76295790D02*
X118564911Y-76105314D01*
X118564911Y-76105314D02*
X118612530Y-76010076D01*
X118612530Y-76010076D02*
X118707768Y-75914838D01*
X118707768Y-75914838D02*
X118850625Y-75867219D01*
X118850625Y-75867219D02*
X118945863Y-75867219D01*
X118945863Y-75867219D02*
X119088720Y-75914838D01*
X119088720Y-75914838D02*
X119136339Y-75962457D01*
X120041101Y-76867219D02*
X119564911Y-76867219D01*
X119564911Y-76867219D02*
X119564911Y-75867219D01*
X120374435Y-76867219D02*
X120374435Y-75867219D01*
X120945863Y-76867219D02*
X120517292Y-76295790D01*
X120945863Y-75867219D02*
X120374435Y-76438647D01*
X100867219Y-49830326D02*
X99867219Y-49830326D01*
X99867219Y-49830326D02*
X99867219Y-49449374D01*
X99867219Y-49449374D02*
X99914838Y-49354136D01*
X99914838Y-49354136D02*
X99962457Y-49306517D01*
X99962457Y-49306517D02*
X100057695Y-49258898D01*
X100057695Y-49258898D02*
X100200552Y-49258898D01*
X100200552Y-49258898D02*
X100295790Y-49306517D01*
X100295790Y-49306517D02*
X100343409Y-49354136D01*
X100343409Y-49354136D02*
X100391028Y-49449374D01*
X100391028Y-49449374D02*
X100391028Y-49830326D01*
X100343409Y-48496993D02*
X100391028Y-48354136D01*
X100391028Y-48354136D02*
X100438647Y-48306517D01*
X100438647Y-48306517D02*
X100533885Y-48258898D01*
X100533885Y-48258898D02*
X100676742Y-48258898D01*
X100676742Y-48258898D02*
X100771980Y-48306517D01*
X100771980Y-48306517D02*
X100819600Y-48354136D01*
X100819600Y-48354136D02*
X100867219Y-48449374D01*
X100867219Y-48449374D02*
X100867219Y-48830326D01*
X100867219Y-48830326D02*
X99867219Y-48830326D01*
X99867219Y-48830326D02*
X99867219Y-48496993D01*
X99867219Y-48496993D02*
X99914838Y-48401755D01*
X99914838Y-48401755D02*
X99962457Y-48354136D01*
X99962457Y-48354136D02*
X100057695Y-48306517D01*
X100057695Y-48306517D02*
X100152933Y-48306517D01*
X100152933Y-48306517D02*
X100248171Y-48354136D01*
X100248171Y-48354136D02*
X100295790Y-48401755D01*
X100295790Y-48401755D02*
X100343409Y-48496993D01*
X100343409Y-48496993D02*
X100343409Y-48830326D01*
X99962457Y-47877945D02*
X99914838Y-47830326D01*
X99914838Y-47830326D02*
X99867219Y-47735088D01*
X99867219Y-47735088D02*
X99867219Y-47496993D01*
X99867219Y-47496993D02*
X99914838Y-47401755D01*
X99914838Y-47401755D02*
X99962457Y-47354136D01*
X99962457Y-47354136D02*
X100057695Y-47306517D01*
X100057695Y-47306517D02*
X100152933Y-47306517D01*
X100152933Y-47306517D02*
X100295790Y-47354136D01*
X100295790Y-47354136D02*
X100867219Y-47925564D01*
X100867219Y-47925564D02*
X100867219Y-47306517D01*
X64569673Y-75586266D02*
X65331578Y-75586266D01*
X64950625Y-75967219D02*
X64950625Y-75205314D01*
X89567219Y-91430326D02*
X88567219Y-91430326D01*
X88567219Y-91430326D02*
X88567219Y-91049374D01*
X88567219Y-91049374D02*
X88614838Y-90954136D01*
X88614838Y-90954136D02*
X88662457Y-90906517D01*
X88662457Y-90906517D02*
X88757695Y-90858898D01*
X88757695Y-90858898D02*
X88900552Y-90858898D01*
X88900552Y-90858898D02*
X88995790Y-90906517D01*
X88995790Y-90906517D02*
X89043409Y-90954136D01*
X89043409Y-90954136D02*
X89091028Y-91049374D01*
X89091028Y-91049374D02*
X89091028Y-91430326D01*
X89281504Y-90477945D02*
X89281504Y-90001755D01*
X89567219Y-90573183D02*
X88567219Y-90239850D01*
X88567219Y-90239850D02*
X89567219Y-89906517D01*
X89567219Y-89525564D02*
X89567219Y-89335088D01*
X89567219Y-89335088D02*
X89519600Y-89239850D01*
X89519600Y-89239850D02*
X89471980Y-89192231D01*
X89471980Y-89192231D02*
X89329123Y-89096993D01*
X89329123Y-89096993D02*
X89138647Y-89049374D01*
X89138647Y-89049374D02*
X88757695Y-89049374D01*
X88757695Y-89049374D02*
X88662457Y-89096993D01*
X88662457Y-89096993D02*
X88614838Y-89144612D01*
X88614838Y-89144612D02*
X88567219Y-89239850D01*
X88567219Y-89239850D02*
X88567219Y-89430326D01*
X88567219Y-89430326D02*
X88614838Y-89525564D01*
X88614838Y-89525564D02*
X88662457Y-89573183D01*
X88662457Y-89573183D02*
X88757695Y-89620802D01*
X88757695Y-89620802D02*
X88995790Y-89620802D01*
X88995790Y-89620802D02*
X89091028Y-89573183D01*
X89091028Y-89573183D02*
X89138647Y-89525564D01*
X89138647Y-89525564D02*
X89186266Y-89430326D01*
X89186266Y-89430326D02*
X89186266Y-89239850D01*
X89186266Y-89239850D02*
X89138647Y-89144612D01*
X89138647Y-89144612D02*
X89091028Y-89096993D01*
X89091028Y-89096993D02*
X88995790Y-89049374D01*
X84567219Y-91430326D02*
X83567219Y-91430326D01*
X83567219Y-91430326D02*
X83567219Y-91049374D01*
X83567219Y-91049374D02*
X83614838Y-90954136D01*
X83614838Y-90954136D02*
X83662457Y-90906517D01*
X83662457Y-90906517D02*
X83757695Y-90858898D01*
X83757695Y-90858898D02*
X83900552Y-90858898D01*
X83900552Y-90858898D02*
X83995790Y-90906517D01*
X83995790Y-90906517D02*
X84043409Y-90954136D01*
X84043409Y-90954136D02*
X84091028Y-91049374D01*
X84091028Y-91049374D02*
X84091028Y-91430326D01*
X84281504Y-90477945D02*
X84281504Y-90001755D01*
X84567219Y-90573183D02*
X83567219Y-90239850D01*
X83567219Y-90239850D02*
X84567219Y-89906517D01*
X83567219Y-89668421D02*
X83567219Y-89001755D01*
X83567219Y-89001755D02*
X84567219Y-89430326D01*
X72867219Y-49830326D02*
X71867219Y-49830326D01*
X71867219Y-49830326D02*
X71867219Y-49449374D01*
X71867219Y-49449374D02*
X71914838Y-49354136D01*
X71914838Y-49354136D02*
X71962457Y-49306517D01*
X71962457Y-49306517D02*
X72057695Y-49258898D01*
X72057695Y-49258898D02*
X72200552Y-49258898D01*
X72200552Y-49258898D02*
X72295790Y-49306517D01*
X72295790Y-49306517D02*
X72343409Y-49354136D01*
X72343409Y-49354136D02*
X72391028Y-49449374D01*
X72391028Y-49449374D02*
X72391028Y-49830326D01*
X72343409Y-48496993D02*
X72391028Y-48354136D01*
X72391028Y-48354136D02*
X72438647Y-48306517D01*
X72438647Y-48306517D02*
X72533885Y-48258898D01*
X72533885Y-48258898D02*
X72676742Y-48258898D01*
X72676742Y-48258898D02*
X72771980Y-48306517D01*
X72771980Y-48306517D02*
X72819600Y-48354136D01*
X72819600Y-48354136D02*
X72867219Y-48449374D01*
X72867219Y-48449374D02*
X72867219Y-48830326D01*
X72867219Y-48830326D02*
X71867219Y-48830326D01*
X71867219Y-48830326D02*
X71867219Y-48496993D01*
X71867219Y-48496993D02*
X71914838Y-48401755D01*
X71914838Y-48401755D02*
X71962457Y-48354136D01*
X71962457Y-48354136D02*
X72057695Y-48306517D01*
X72057695Y-48306517D02*
X72152933Y-48306517D01*
X72152933Y-48306517D02*
X72248171Y-48354136D01*
X72248171Y-48354136D02*
X72295790Y-48401755D01*
X72295790Y-48401755D02*
X72343409Y-48496993D01*
X72343409Y-48496993D02*
X72343409Y-48830326D01*
X72867219Y-47306517D02*
X72867219Y-47877945D01*
X72867219Y-47592231D02*
X71867219Y-47592231D01*
X71867219Y-47592231D02*
X72010076Y-47687469D01*
X72010076Y-47687469D02*
X72105314Y-47782707D01*
X72105314Y-47782707D02*
X72152933Y-47877945D01*
X71867219Y-46973183D02*
X71867219Y-46354136D01*
X71867219Y-46354136D02*
X72248171Y-46687469D01*
X72248171Y-46687469D02*
X72248171Y-46544612D01*
X72248171Y-46544612D02*
X72295790Y-46449374D01*
X72295790Y-46449374D02*
X72343409Y-46401755D01*
X72343409Y-46401755D02*
X72438647Y-46354136D01*
X72438647Y-46354136D02*
X72676742Y-46354136D01*
X72676742Y-46354136D02*
X72771980Y-46401755D01*
X72771980Y-46401755D02*
X72819600Y-46449374D01*
X72819600Y-46449374D02*
X72867219Y-46544612D01*
X72867219Y-46544612D02*
X72867219Y-46830326D01*
X72867219Y-46830326D02*
X72819600Y-46925564D01*
X72819600Y-46925564D02*
X72771980Y-46973183D01*
X83267219Y-49830326D02*
X82267219Y-49830326D01*
X82267219Y-49830326D02*
X82267219Y-49449374D01*
X82267219Y-49449374D02*
X82314838Y-49354136D01*
X82314838Y-49354136D02*
X82362457Y-49306517D01*
X82362457Y-49306517D02*
X82457695Y-49258898D01*
X82457695Y-49258898D02*
X82600552Y-49258898D01*
X82600552Y-49258898D02*
X82695790Y-49306517D01*
X82695790Y-49306517D02*
X82743409Y-49354136D01*
X82743409Y-49354136D02*
X82791028Y-49449374D01*
X82791028Y-49449374D02*
X82791028Y-49830326D01*
X82743409Y-48496993D02*
X82791028Y-48354136D01*
X82791028Y-48354136D02*
X82838647Y-48306517D01*
X82838647Y-48306517D02*
X82933885Y-48258898D01*
X82933885Y-48258898D02*
X83076742Y-48258898D01*
X83076742Y-48258898D02*
X83171980Y-48306517D01*
X83171980Y-48306517D02*
X83219600Y-48354136D01*
X83219600Y-48354136D02*
X83267219Y-48449374D01*
X83267219Y-48449374D02*
X83267219Y-48830326D01*
X83267219Y-48830326D02*
X82267219Y-48830326D01*
X82267219Y-48830326D02*
X82267219Y-48496993D01*
X82267219Y-48496993D02*
X82314838Y-48401755D01*
X82314838Y-48401755D02*
X82362457Y-48354136D01*
X82362457Y-48354136D02*
X82457695Y-48306517D01*
X82457695Y-48306517D02*
X82552933Y-48306517D01*
X82552933Y-48306517D02*
X82648171Y-48354136D01*
X82648171Y-48354136D02*
X82695790Y-48401755D01*
X82695790Y-48401755D02*
X82743409Y-48496993D01*
X82743409Y-48496993D02*
X82743409Y-48830326D01*
X83267219Y-47782707D02*
X83267219Y-47592231D01*
X83267219Y-47592231D02*
X83219600Y-47496993D01*
X83219600Y-47496993D02*
X83171980Y-47449374D01*
X83171980Y-47449374D02*
X83029123Y-47354136D01*
X83029123Y-47354136D02*
X82838647Y-47306517D01*
X82838647Y-47306517D02*
X82457695Y-47306517D01*
X82457695Y-47306517D02*
X82362457Y-47354136D01*
X82362457Y-47354136D02*
X82314838Y-47401755D01*
X82314838Y-47401755D02*
X82267219Y-47496993D01*
X82267219Y-47496993D02*
X82267219Y-47687469D01*
X82267219Y-47687469D02*
X82314838Y-47782707D01*
X82314838Y-47782707D02*
X82362457Y-47830326D01*
X82362457Y-47830326D02*
X82457695Y-47877945D01*
X82457695Y-47877945D02*
X82695790Y-47877945D01*
X82695790Y-47877945D02*
X82791028Y-47830326D01*
X82791028Y-47830326D02*
X82838647Y-47782707D01*
X82838647Y-47782707D02*
X82886266Y-47687469D01*
X82886266Y-47687469D02*
X82886266Y-47496993D01*
X82886266Y-47496993D02*
X82838647Y-47401755D01*
X82838647Y-47401755D02*
X82791028Y-47354136D01*
X82791028Y-47354136D02*
X82695790Y-47306517D01*
X97167219Y-92530326D02*
X96167219Y-92530326D01*
X96167219Y-92530326D02*
X96167219Y-92149374D01*
X96167219Y-92149374D02*
X96214838Y-92054136D01*
X96214838Y-92054136D02*
X96262457Y-92006517D01*
X96262457Y-92006517D02*
X96357695Y-91958898D01*
X96357695Y-91958898D02*
X96500552Y-91958898D01*
X96500552Y-91958898D02*
X96595790Y-92006517D01*
X96595790Y-92006517D02*
X96643409Y-92054136D01*
X96643409Y-92054136D02*
X96691028Y-92149374D01*
X96691028Y-92149374D02*
X96691028Y-92530326D01*
X96881504Y-91577945D02*
X96881504Y-91101755D01*
X97167219Y-91673183D02*
X96167219Y-91339850D01*
X96167219Y-91339850D02*
X97167219Y-91006517D01*
X97167219Y-90149374D02*
X97167219Y-90720802D01*
X97167219Y-90435088D02*
X96167219Y-90435088D01*
X96167219Y-90435088D02*
X96310076Y-90530326D01*
X96310076Y-90530326D02*
X96405314Y-90625564D01*
X96405314Y-90625564D02*
X96452933Y-90720802D01*
X96500552Y-89292231D02*
X97167219Y-89292231D01*
X96119600Y-89530326D02*
X96833885Y-89768421D01*
X96833885Y-89768421D02*
X96833885Y-89149374D01*
X95767219Y-49830326D02*
X94767219Y-49830326D01*
X94767219Y-49830326D02*
X94767219Y-49449374D01*
X94767219Y-49449374D02*
X94814838Y-49354136D01*
X94814838Y-49354136D02*
X94862457Y-49306517D01*
X94862457Y-49306517D02*
X94957695Y-49258898D01*
X94957695Y-49258898D02*
X95100552Y-49258898D01*
X95100552Y-49258898D02*
X95195790Y-49306517D01*
X95195790Y-49306517D02*
X95243409Y-49354136D01*
X95243409Y-49354136D02*
X95291028Y-49449374D01*
X95291028Y-49449374D02*
X95291028Y-49830326D01*
X95243409Y-48496993D02*
X95291028Y-48354136D01*
X95291028Y-48354136D02*
X95338647Y-48306517D01*
X95338647Y-48306517D02*
X95433885Y-48258898D01*
X95433885Y-48258898D02*
X95576742Y-48258898D01*
X95576742Y-48258898D02*
X95671980Y-48306517D01*
X95671980Y-48306517D02*
X95719600Y-48354136D01*
X95719600Y-48354136D02*
X95767219Y-48449374D01*
X95767219Y-48449374D02*
X95767219Y-48830326D01*
X95767219Y-48830326D02*
X94767219Y-48830326D01*
X94767219Y-48830326D02*
X94767219Y-48496993D01*
X94767219Y-48496993D02*
X94814838Y-48401755D01*
X94814838Y-48401755D02*
X94862457Y-48354136D01*
X94862457Y-48354136D02*
X94957695Y-48306517D01*
X94957695Y-48306517D02*
X95052933Y-48306517D01*
X95052933Y-48306517D02*
X95148171Y-48354136D01*
X95148171Y-48354136D02*
X95195790Y-48401755D01*
X95195790Y-48401755D02*
X95243409Y-48496993D01*
X95243409Y-48496993D02*
X95243409Y-48830326D01*
X95100552Y-47401755D02*
X95767219Y-47401755D01*
X94719600Y-47639850D02*
X95433885Y-47877945D01*
X95433885Y-47877945D02*
X95433885Y-47258898D01*
X74267219Y-91430326D02*
X73267219Y-91430326D01*
X73267219Y-91430326D02*
X73267219Y-91049374D01*
X73267219Y-91049374D02*
X73314838Y-90954136D01*
X73314838Y-90954136D02*
X73362457Y-90906517D01*
X73362457Y-90906517D02*
X73457695Y-90858898D01*
X73457695Y-90858898D02*
X73600552Y-90858898D01*
X73600552Y-90858898D02*
X73695790Y-90906517D01*
X73695790Y-90906517D02*
X73743409Y-90954136D01*
X73743409Y-90954136D02*
X73791028Y-91049374D01*
X73791028Y-91049374D02*
X73791028Y-91430326D01*
X73981504Y-90477945D02*
X73981504Y-90001755D01*
X74267219Y-90573183D02*
X73267219Y-90239850D01*
X73267219Y-90239850D02*
X74267219Y-89906517D01*
X73267219Y-89668421D02*
X73267219Y-89049374D01*
X73267219Y-89049374D02*
X73648171Y-89382707D01*
X73648171Y-89382707D02*
X73648171Y-89239850D01*
X73648171Y-89239850D02*
X73695790Y-89144612D01*
X73695790Y-89144612D02*
X73743409Y-89096993D01*
X73743409Y-89096993D02*
X73838647Y-89049374D01*
X73838647Y-89049374D02*
X74076742Y-89049374D01*
X74076742Y-89049374D02*
X74171980Y-89096993D01*
X74171980Y-89096993D02*
X74219600Y-89144612D01*
X74219600Y-89144612D02*
X74267219Y-89239850D01*
X74267219Y-89239850D02*
X74267219Y-89525564D01*
X74267219Y-89525564D02*
X74219600Y-89620802D01*
X74219600Y-89620802D02*
X74171980Y-89668421D01*
X106219600Y-65077945D02*
X106267219Y-64935088D01*
X106267219Y-64935088D02*
X106267219Y-64696993D01*
X106267219Y-64696993D02*
X106219600Y-64601755D01*
X106219600Y-64601755D02*
X106171980Y-64554136D01*
X106171980Y-64554136D02*
X106076742Y-64506517D01*
X106076742Y-64506517D02*
X105981504Y-64506517D01*
X105981504Y-64506517D02*
X105886266Y-64554136D01*
X105886266Y-64554136D02*
X105838647Y-64601755D01*
X105838647Y-64601755D02*
X105791028Y-64696993D01*
X105791028Y-64696993D02*
X105743409Y-64887469D01*
X105743409Y-64887469D02*
X105695790Y-64982707D01*
X105695790Y-64982707D02*
X105648171Y-65030326D01*
X105648171Y-65030326D02*
X105552933Y-65077945D01*
X105552933Y-65077945D02*
X105457695Y-65077945D01*
X105457695Y-65077945D02*
X105362457Y-65030326D01*
X105362457Y-65030326D02*
X105314838Y-64982707D01*
X105314838Y-64982707D02*
X105267219Y-64887469D01*
X105267219Y-64887469D02*
X105267219Y-64649374D01*
X105267219Y-64649374D02*
X105314838Y-64506517D01*
X106267219Y-63935088D02*
X106219600Y-64030326D01*
X106219600Y-64030326D02*
X106124361Y-64077945D01*
X106124361Y-64077945D02*
X105267219Y-64077945D01*
X106267219Y-63125564D02*
X105743409Y-63125564D01*
X105743409Y-63125564D02*
X105648171Y-63173183D01*
X105648171Y-63173183D02*
X105600552Y-63268421D01*
X105600552Y-63268421D02*
X105600552Y-63458897D01*
X105600552Y-63458897D02*
X105648171Y-63554135D01*
X106219600Y-63125564D02*
X106267219Y-63220802D01*
X106267219Y-63220802D02*
X106267219Y-63458897D01*
X106267219Y-63458897D02*
X106219600Y-63554135D01*
X106219600Y-63554135D02*
X106124361Y-63601754D01*
X106124361Y-63601754D02*
X106029123Y-63601754D01*
X106029123Y-63601754D02*
X105933885Y-63554135D01*
X105933885Y-63554135D02*
X105886266Y-63458897D01*
X105886266Y-63458897D02*
X105886266Y-63220802D01*
X105886266Y-63220802D02*
X105838647Y-63125564D01*
X105600552Y-62744611D02*
X106267219Y-62506516D01*
X106267219Y-62506516D02*
X105600552Y-62268421D01*
X106219600Y-61506516D02*
X106267219Y-61601754D01*
X106267219Y-61601754D02*
X106267219Y-61792230D01*
X106267219Y-61792230D02*
X106219600Y-61887468D01*
X106219600Y-61887468D02*
X106124361Y-61935087D01*
X106124361Y-61935087D02*
X105743409Y-61935087D01*
X105743409Y-61935087D02*
X105648171Y-61887468D01*
X105648171Y-61887468D02*
X105600552Y-61792230D01*
X105600552Y-61792230D02*
X105600552Y-61601754D01*
X105600552Y-61601754D02*
X105648171Y-61506516D01*
X105648171Y-61506516D02*
X105743409Y-61458897D01*
X105743409Y-61458897D02*
X105838647Y-61458897D01*
X105838647Y-61458897D02*
X105933885Y-61935087D01*
X57269673Y-81067219D02*
X57269673Y-80067219D01*
X57269673Y-80067219D02*
X57650625Y-80067219D01*
X57650625Y-80067219D02*
X57745863Y-80114838D01*
X57745863Y-80114838D02*
X57793482Y-80162457D01*
X57793482Y-80162457D02*
X57841101Y-80257695D01*
X57841101Y-80257695D02*
X57841101Y-80400552D01*
X57841101Y-80400552D02*
X57793482Y-80495790D01*
X57793482Y-80495790D02*
X57745863Y-80543409D01*
X57745863Y-80543409D02*
X57650625Y-80591028D01*
X57650625Y-80591028D02*
X57269673Y-80591028D01*
X58174435Y-80067219D02*
X58412530Y-81067219D01*
X58412530Y-81067219D02*
X58603006Y-80352933D01*
X58603006Y-80352933D02*
X58793482Y-81067219D01*
X58793482Y-81067219D02*
X59031578Y-80067219D01*
X59983958Y-81067219D02*
X59650625Y-80591028D01*
X59412530Y-81067219D02*
X59412530Y-80067219D01*
X59412530Y-80067219D02*
X59793482Y-80067219D01*
X59793482Y-80067219D02*
X59888720Y-80114838D01*
X59888720Y-80114838D02*
X59936339Y-80162457D01*
X59936339Y-80162457D02*
X59983958Y-80257695D01*
X59983958Y-80257695D02*
X59983958Y-80400552D01*
X59983958Y-80400552D02*
X59936339Y-80495790D01*
X59936339Y-80495790D02*
X59888720Y-80543409D01*
X59888720Y-80543409D02*
X59793482Y-80591028D01*
X59793482Y-80591028D02*
X59412530Y-80591028D01*
X111467219Y-77430326D02*
X110467219Y-77430326D01*
X110467219Y-77430326D02*
X111181504Y-77096993D01*
X111181504Y-77096993D02*
X110467219Y-76763660D01*
X110467219Y-76763660D02*
X111467219Y-76763660D01*
X111467219Y-75858898D02*
X110943409Y-75858898D01*
X110943409Y-75858898D02*
X110848171Y-75906517D01*
X110848171Y-75906517D02*
X110800552Y-76001755D01*
X110800552Y-76001755D02*
X110800552Y-76192231D01*
X110800552Y-76192231D02*
X110848171Y-76287469D01*
X111419600Y-75858898D02*
X111467219Y-75954136D01*
X111467219Y-75954136D02*
X111467219Y-76192231D01*
X111467219Y-76192231D02*
X111419600Y-76287469D01*
X111419600Y-76287469D02*
X111324361Y-76335088D01*
X111324361Y-76335088D02*
X111229123Y-76335088D01*
X111229123Y-76335088D02*
X111133885Y-76287469D01*
X111133885Y-76287469D02*
X111086266Y-76192231D01*
X111086266Y-76192231D02*
X111086266Y-75954136D01*
X111086266Y-75954136D02*
X111038647Y-75858898D01*
X111419600Y-75430326D02*
X111467219Y-75335088D01*
X111467219Y-75335088D02*
X111467219Y-75144612D01*
X111467219Y-75144612D02*
X111419600Y-75049374D01*
X111419600Y-75049374D02*
X111324361Y-75001755D01*
X111324361Y-75001755D02*
X111276742Y-75001755D01*
X111276742Y-75001755D02*
X111181504Y-75049374D01*
X111181504Y-75049374D02*
X111133885Y-75144612D01*
X111133885Y-75144612D02*
X111133885Y-75287469D01*
X111133885Y-75287469D02*
X111086266Y-75382707D01*
X111086266Y-75382707D02*
X110991028Y-75430326D01*
X110991028Y-75430326D02*
X110943409Y-75430326D01*
X110943409Y-75430326D02*
X110848171Y-75382707D01*
X110848171Y-75382707D02*
X110800552Y-75287469D01*
X110800552Y-75287469D02*
X110800552Y-75144612D01*
X110800552Y-75144612D02*
X110848171Y-75049374D01*
X110800552Y-74716040D02*
X110800552Y-74335088D01*
X110467219Y-74573183D02*
X111324361Y-74573183D01*
X111324361Y-74573183D02*
X111419600Y-74525564D01*
X111419600Y-74525564D02*
X111467219Y-74430326D01*
X111467219Y-74430326D02*
X111467219Y-74335088D01*
X111419600Y-73620802D02*
X111467219Y-73716040D01*
X111467219Y-73716040D02*
X111467219Y-73906516D01*
X111467219Y-73906516D02*
X111419600Y-74001754D01*
X111419600Y-74001754D02*
X111324361Y-74049373D01*
X111324361Y-74049373D02*
X110943409Y-74049373D01*
X110943409Y-74049373D02*
X110848171Y-74001754D01*
X110848171Y-74001754D02*
X110800552Y-73906516D01*
X110800552Y-73906516D02*
X110800552Y-73716040D01*
X110800552Y-73716040D02*
X110848171Y-73620802D01*
X110848171Y-73620802D02*
X110943409Y-73573183D01*
X110943409Y-73573183D02*
X111038647Y-73573183D01*
X111038647Y-73573183D02*
X111133885Y-74049373D01*
X111467219Y-73144611D02*
X110800552Y-73144611D01*
X110991028Y-73144611D02*
X110895790Y-73096992D01*
X110895790Y-73096992D02*
X110848171Y-73049373D01*
X110848171Y-73049373D02*
X110800552Y-72954135D01*
X110800552Y-72954135D02*
X110800552Y-72858897D01*
X67867219Y-49830326D02*
X66867219Y-49830326D01*
X66867219Y-49830326D02*
X66867219Y-49449374D01*
X66867219Y-49449374D02*
X66914838Y-49354136D01*
X66914838Y-49354136D02*
X66962457Y-49306517D01*
X66962457Y-49306517D02*
X67057695Y-49258898D01*
X67057695Y-49258898D02*
X67200552Y-49258898D01*
X67200552Y-49258898D02*
X67295790Y-49306517D01*
X67295790Y-49306517D02*
X67343409Y-49354136D01*
X67343409Y-49354136D02*
X67391028Y-49449374D01*
X67391028Y-49449374D02*
X67391028Y-49830326D01*
X67343409Y-48496993D02*
X67391028Y-48354136D01*
X67391028Y-48354136D02*
X67438647Y-48306517D01*
X67438647Y-48306517D02*
X67533885Y-48258898D01*
X67533885Y-48258898D02*
X67676742Y-48258898D01*
X67676742Y-48258898D02*
X67771980Y-48306517D01*
X67771980Y-48306517D02*
X67819600Y-48354136D01*
X67819600Y-48354136D02*
X67867219Y-48449374D01*
X67867219Y-48449374D02*
X67867219Y-48830326D01*
X67867219Y-48830326D02*
X66867219Y-48830326D01*
X66867219Y-48830326D02*
X66867219Y-48496993D01*
X66867219Y-48496993D02*
X66914838Y-48401755D01*
X66914838Y-48401755D02*
X66962457Y-48354136D01*
X66962457Y-48354136D02*
X67057695Y-48306517D01*
X67057695Y-48306517D02*
X67152933Y-48306517D01*
X67152933Y-48306517D02*
X67248171Y-48354136D01*
X67248171Y-48354136D02*
X67295790Y-48401755D01*
X67295790Y-48401755D02*
X67343409Y-48496993D01*
X67343409Y-48496993D02*
X67343409Y-48830326D01*
X67867219Y-47306517D02*
X67867219Y-47877945D01*
X67867219Y-47592231D02*
X66867219Y-47592231D01*
X66867219Y-47592231D02*
X67010076Y-47687469D01*
X67010076Y-47687469D02*
X67105314Y-47782707D01*
X67105314Y-47782707D02*
X67152933Y-47877945D01*
X66867219Y-46401755D02*
X66867219Y-46877945D01*
X66867219Y-46877945D02*
X67343409Y-46925564D01*
X67343409Y-46925564D02*
X67295790Y-46877945D01*
X67295790Y-46877945D02*
X67248171Y-46782707D01*
X67248171Y-46782707D02*
X67248171Y-46544612D01*
X67248171Y-46544612D02*
X67295790Y-46449374D01*
X67295790Y-46449374D02*
X67343409Y-46401755D01*
X67343409Y-46401755D02*
X67438647Y-46354136D01*
X67438647Y-46354136D02*
X67676742Y-46354136D01*
X67676742Y-46354136D02*
X67771980Y-46401755D01*
X67771980Y-46401755D02*
X67819600Y-46449374D01*
X67819600Y-46449374D02*
X67867219Y-46544612D01*
X67867219Y-46544612D02*
X67867219Y-46782707D01*
X67867219Y-46782707D02*
X67819600Y-46877945D01*
X67819600Y-46877945D02*
X67771980Y-46925564D01*
X85567219Y-49830326D02*
X84567219Y-49830326D01*
X84567219Y-49830326D02*
X84567219Y-49449374D01*
X84567219Y-49449374D02*
X84614838Y-49354136D01*
X84614838Y-49354136D02*
X84662457Y-49306517D01*
X84662457Y-49306517D02*
X84757695Y-49258898D01*
X84757695Y-49258898D02*
X84900552Y-49258898D01*
X84900552Y-49258898D02*
X84995790Y-49306517D01*
X84995790Y-49306517D02*
X85043409Y-49354136D01*
X85043409Y-49354136D02*
X85091028Y-49449374D01*
X85091028Y-49449374D02*
X85091028Y-49830326D01*
X85043409Y-48496993D02*
X85091028Y-48354136D01*
X85091028Y-48354136D02*
X85138647Y-48306517D01*
X85138647Y-48306517D02*
X85233885Y-48258898D01*
X85233885Y-48258898D02*
X85376742Y-48258898D01*
X85376742Y-48258898D02*
X85471980Y-48306517D01*
X85471980Y-48306517D02*
X85519600Y-48354136D01*
X85519600Y-48354136D02*
X85567219Y-48449374D01*
X85567219Y-48449374D02*
X85567219Y-48830326D01*
X85567219Y-48830326D02*
X84567219Y-48830326D01*
X84567219Y-48830326D02*
X84567219Y-48496993D01*
X84567219Y-48496993D02*
X84614838Y-48401755D01*
X84614838Y-48401755D02*
X84662457Y-48354136D01*
X84662457Y-48354136D02*
X84757695Y-48306517D01*
X84757695Y-48306517D02*
X84852933Y-48306517D01*
X84852933Y-48306517D02*
X84948171Y-48354136D01*
X84948171Y-48354136D02*
X84995790Y-48401755D01*
X84995790Y-48401755D02*
X85043409Y-48496993D01*
X85043409Y-48496993D02*
X85043409Y-48830326D01*
X84995790Y-47687469D02*
X84948171Y-47782707D01*
X84948171Y-47782707D02*
X84900552Y-47830326D01*
X84900552Y-47830326D02*
X84805314Y-47877945D01*
X84805314Y-47877945D02*
X84757695Y-47877945D01*
X84757695Y-47877945D02*
X84662457Y-47830326D01*
X84662457Y-47830326D02*
X84614838Y-47782707D01*
X84614838Y-47782707D02*
X84567219Y-47687469D01*
X84567219Y-47687469D02*
X84567219Y-47496993D01*
X84567219Y-47496993D02*
X84614838Y-47401755D01*
X84614838Y-47401755D02*
X84662457Y-47354136D01*
X84662457Y-47354136D02*
X84757695Y-47306517D01*
X84757695Y-47306517D02*
X84805314Y-47306517D01*
X84805314Y-47306517D02*
X84900552Y-47354136D01*
X84900552Y-47354136D02*
X84948171Y-47401755D01*
X84948171Y-47401755D02*
X84995790Y-47496993D01*
X84995790Y-47496993D02*
X84995790Y-47687469D01*
X84995790Y-47687469D02*
X85043409Y-47782707D01*
X85043409Y-47782707D02*
X85091028Y-47830326D01*
X85091028Y-47830326D02*
X85186266Y-47877945D01*
X85186266Y-47877945D02*
X85376742Y-47877945D01*
X85376742Y-47877945D02*
X85471980Y-47830326D01*
X85471980Y-47830326D02*
X85519600Y-47782707D01*
X85519600Y-47782707D02*
X85567219Y-47687469D01*
X85567219Y-47687469D02*
X85567219Y-47496993D01*
X85567219Y-47496993D02*
X85519600Y-47401755D01*
X85519600Y-47401755D02*
X85471980Y-47354136D01*
X85471980Y-47354136D02*
X85376742Y-47306517D01*
X85376742Y-47306517D02*
X85186266Y-47306517D01*
X85186266Y-47306517D02*
X85091028Y-47354136D01*
X85091028Y-47354136D02*
X85043409Y-47401755D01*
X85043409Y-47401755D02*
X84995790Y-47496993D01*
X111774435Y-60767219D02*
X112393482Y-60767219D01*
X112393482Y-60767219D02*
X112060149Y-61148171D01*
X112060149Y-61148171D02*
X112203006Y-61148171D01*
X112203006Y-61148171D02*
X112298244Y-61195790D01*
X112298244Y-61195790D02*
X112345863Y-61243409D01*
X112345863Y-61243409D02*
X112393482Y-61338647D01*
X112393482Y-61338647D02*
X112393482Y-61576742D01*
X112393482Y-61576742D02*
X112345863Y-61671980D01*
X112345863Y-61671980D02*
X112298244Y-61719600D01*
X112298244Y-61719600D02*
X112203006Y-61767219D01*
X112203006Y-61767219D02*
X111917292Y-61767219D01*
X111917292Y-61767219D02*
X111822054Y-61719600D01*
X111822054Y-61719600D02*
X111774435Y-61671980D01*
X112822054Y-61671980D02*
X112869673Y-61719600D01*
X112869673Y-61719600D02*
X112822054Y-61767219D01*
X112822054Y-61767219D02*
X112774435Y-61719600D01*
X112774435Y-61719600D02*
X112822054Y-61671980D01*
X112822054Y-61671980D02*
X112822054Y-61767219D01*
X113203006Y-60767219D02*
X113822053Y-60767219D01*
X113822053Y-60767219D02*
X113488720Y-61148171D01*
X113488720Y-61148171D02*
X113631577Y-61148171D01*
X113631577Y-61148171D02*
X113726815Y-61195790D01*
X113726815Y-61195790D02*
X113774434Y-61243409D01*
X113774434Y-61243409D02*
X113822053Y-61338647D01*
X113822053Y-61338647D02*
X113822053Y-61576742D01*
X113822053Y-61576742D02*
X113774434Y-61671980D01*
X113774434Y-61671980D02*
X113726815Y-61719600D01*
X113726815Y-61719600D02*
X113631577Y-61767219D01*
X113631577Y-61767219D02*
X113345863Y-61767219D01*
X113345863Y-61767219D02*
X113250625Y-61719600D01*
X113250625Y-61719600D02*
X113203006Y-61671980D01*
X114107768Y-60767219D02*
X114441101Y-61767219D01*
X114441101Y-61767219D02*
X114774434Y-60767219D01*
X57069673Y-75486266D02*
X57831578Y-75486266D01*
X57450625Y-75867219D02*
X57450625Y-75105314D01*
X116322054Y-74019600D02*
X116464911Y-74067219D01*
X116464911Y-74067219D02*
X116703006Y-74067219D01*
X116703006Y-74067219D02*
X116798244Y-74019600D01*
X116798244Y-74019600D02*
X116845863Y-73971980D01*
X116845863Y-73971980D02*
X116893482Y-73876742D01*
X116893482Y-73876742D02*
X116893482Y-73781504D01*
X116893482Y-73781504D02*
X116845863Y-73686266D01*
X116845863Y-73686266D02*
X116798244Y-73638647D01*
X116798244Y-73638647D02*
X116703006Y-73591028D01*
X116703006Y-73591028D02*
X116512530Y-73543409D01*
X116512530Y-73543409D02*
X116417292Y-73495790D01*
X116417292Y-73495790D02*
X116369673Y-73448171D01*
X116369673Y-73448171D02*
X116322054Y-73352933D01*
X116322054Y-73352933D02*
X116322054Y-73257695D01*
X116322054Y-73257695D02*
X116369673Y-73162457D01*
X116369673Y-73162457D02*
X116417292Y-73114838D01*
X116417292Y-73114838D02*
X116512530Y-73067219D01*
X116512530Y-73067219D02*
X116750625Y-73067219D01*
X116750625Y-73067219D02*
X116893482Y-73114838D01*
X117226816Y-73067219D02*
X117464911Y-74067219D01*
X117464911Y-74067219D02*
X117655387Y-73352933D01*
X117655387Y-73352933D02*
X117845863Y-74067219D01*
X117845863Y-74067219D02*
X118083959Y-73067219D01*
X118464911Y-74067219D02*
X118464911Y-73067219D01*
X118464911Y-73067219D02*
X118703006Y-73067219D01*
X118703006Y-73067219D02*
X118845863Y-73114838D01*
X118845863Y-73114838D02*
X118941101Y-73210076D01*
X118941101Y-73210076D02*
X118988720Y-73305314D01*
X118988720Y-73305314D02*
X119036339Y-73495790D01*
X119036339Y-73495790D02*
X119036339Y-73638647D01*
X119036339Y-73638647D02*
X118988720Y-73829123D01*
X118988720Y-73829123D02*
X118941101Y-73924361D01*
X118941101Y-73924361D02*
X118845863Y-74019600D01*
X118845863Y-74019600D02*
X118703006Y-74067219D01*
X118703006Y-74067219D02*
X118464911Y-74067219D01*
X119464911Y-74067219D02*
X119464911Y-73067219D01*
X120131577Y-73067219D02*
X120322053Y-73067219D01*
X120322053Y-73067219D02*
X120417291Y-73114838D01*
X120417291Y-73114838D02*
X120512529Y-73210076D01*
X120512529Y-73210076D02*
X120560148Y-73400552D01*
X120560148Y-73400552D02*
X120560148Y-73733885D01*
X120560148Y-73733885D02*
X120512529Y-73924361D01*
X120512529Y-73924361D02*
X120417291Y-74019600D01*
X120417291Y-74019600D02*
X120322053Y-74067219D01*
X120322053Y-74067219D02*
X120131577Y-74067219D01*
X120131577Y-74067219D02*
X120036339Y-74019600D01*
X120036339Y-74019600D02*
X119941101Y-73924361D01*
X119941101Y-73924361D02*
X119893482Y-73733885D01*
X119893482Y-73733885D02*
X119893482Y-73400552D01*
X119893482Y-73400552D02*
X119941101Y-73210076D01*
X119941101Y-73210076D02*
X120036339Y-73114838D01*
X120036339Y-73114838D02*
X120131577Y-73067219D01*
X93267219Y-49830326D02*
X92267219Y-49830326D01*
X92267219Y-49830326D02*
X92267219Y-49449374D01*
X92267219Y-49449374D02*
X92314838Y-49354136D01*
X92314838Y-49354136D02*
X92362457Y-49306517D01*
X92362457Y-49306517D02*
X92457695Y-49258898D01*
X92457695Y-49258898D02*
X92600552Y-49258898D01*
X92600552Y-49258898D02*
X92695790Y-49306517D01*
X92695790Y-49306517D02*
X92743409Y-49354136D01*
X92743409Y-49354136D02*
X92791028Y-49449374D01*
X92791028Y-49449374D02*
X92791028Y-49830326D01*
X92743409Y-48496993D02*
X92791028Y-48354136D01*
X92791028Y-48354136D02*
X92838647Y-48306517D01*
X92838647Y-48306517D02*
X92933885Y-48258898D01*
X92933885Y-48258898D02*
X93076742Y-48258898D01*
X93076742Y-48258898D02*
X93171980Y-48306517D01*
X93171980Y-48306517D02*
X93219600Y-48354136D01*
X93219600Y-48354136D02*
X93267219Y-48449374D01*
X93267219Y-48449374D02*
X93267219Y-48830326D01*
X93267219Y-48830326D02*
X92267219Y-48830326D01*
X92267219Y-48830326D02*
X92267219Y-48496993D01*
X92267219Y-48496993D02*
X92314838Y-48401755D01*
X92314838Y-48401755D02*
X92362457Y-48354136D01*
X92362457Y-48354136D02*
X92457695Y-48306517D01*
X92457695Y-48306517D02*
X92552933Y-48306517D01*
X92552933Y-48306517D02*
X92648171Y-48354136D01*
X92648171Y-48354136D02*
X92695790Y-48401755D01*
X92695790Y-48401755D02*
X92743409Y-48496993D01*
X92743409Y-48496993D02*
X92743409Y-48830326D01*
X92267219Y-47354136D02*
X92267219Y-47830326D01*
X92267219Y-47830326D02*
X92743409Y-47877945D01*
X92743409Y-47877945D02*
X92695790Y-47830326D01*
X92695790Y-47830326D02*
X92648171Y-47735088D01*
X92648171Y-47735088D02*
X92648171Y-47496993D01*
X92648171Y-47496993D02*
X92695790Y-47401755D01*
X92695790Y-47401755D02*
X92743409Y-47354136D01*
X92743409Y-47354136D02*
X92838647Y-47306517D01*
X92838647Y-47306517D02*
X93076742Y-47306517D01*
X93076742Y-47306517D02*
X93171980Y-47354136D01*
X93171980Y-47354136D02*
X93219600Y-47401755D01*
X93219600Y-47401755D02*
X93267219Y-47496993D01*
X93267219Y-47496993D02*
X93267219Y-47735088D01*
X93267219Y-47735088D02*
X93219600Y-47830326D01*
X93219600Y-47830326D02*
X93171980Y-47877945D01*
X98367219Y-49830326D02*
X97367219Y-49830326D01*
X97367219Y-49830326D02*
X97367219Y-49449374D01*
X97367219Y-49449374D02*
X97414838Y-49354136D01*
X97414838Y-49354136D02*
X97462457Y-49306517D01*
X97462457Y-49306517D02*
X97557695Y-49258898D01*
X97557695Y-49258898D02*
X97700552Y-49258898D01*
X97700552Y-49258898D02*
X97795790Y-49306517D01*
X97795790Y-49306517D02*
X97843409Y-49354136D01*
X97843409Y-49354136D02*
X97891028Y-49449374D01*
X97891028Y-49449374D02*
X97891028Y-49830326D01*
X97843409Y-48496993D02*
X97891028Y-48354136D01*
X97891028Y-48354136D02*
X97938647Y-48306517D01*
X97938647Y-48306517D02*
X98033885Y-48258898D01*
X98033885Y-48258898D02*
X98176742Y-48258898D01*
X98176742Y-48258898D02*
X98271980Y-48306517D01*
X98271980Y-48306517D02*
X98319600Y-48354136D01*
X98319600Y-48354136D02*
X98367219Y-48449374D01*
X98367219Y-48449374D02*
X98367219Y-48830326D01*
X98367219Y-48830326D02*
X97367219Y-48830326D01*
X97367219Y-48830326D02*
X97367219Y-48496993D01*
X97367219Y-48496993D02*
X97414838Y-48401755D01*
X97414838Y-48401755D02*
X97462457Y-48354136D01*
X97462457Y-48354136D02*
X97557695Y-48306517D01*
X97557695Y-48306517D02*
X97652933Y-48306517D01*
X97652933Y-48306517D02*
X97748171Y-48354136D01*
X97748171Y-48354136D02*
X97795790Y-48401755D01*
X97795790Y-48401755D02*
X97843409Y-48496993D01*
X97843409Y-48496993D02*
X97843409Y-48830326D01*
X97367219Y-47925564D02*
X97367219Y-47306517D01*
X97367219Y-47306517D02*
X97748171Y-47639850D01*
X97748171Y-47639850D02*
X97748171Y-47496993D01*
X97748171Y-47496993D02*
X97795790Y-47401755D01*
X97795790Y-47401755D02*
X97843409Y-47354136D01*
X97843409Y-47354136D02*
X97938647Y-47306517D01*
X97938647Y-47306517D02*
X98176742Y-47306517D01*
X98176742Y-47306517D02*
X98271980Y-47354136D01*
X98271980Y-47354136D02*
X98319600Y-47401755D01*
X98319600Y-47401755D02*
X98367219Y-47496993D01*
X98367219Y-47496993D02*
X98367219Y-47782707D01*
X98367219Y-47782707D02*
X98319600Y-47877945D01*
X98319600Y-47877945D02*
X98271980Y-47925564D01*
X71769673Y-61586266D02*
X72531578Y-61586266D01*
X72150625Y-61967219D02*
X72150625Y-61205314D01*
X59769673Y-75486266D02*
X60531578Y-75486266D01*
X111393482Y-68414838D02*
X111298244Y-68367219D01*
X111298244Y-68367219D02*
X111155387Y-68367219D01*
X111155387Y-68367219D02*
X111012530Y-68414838D01*
X111012530Y-68414838D02*
X110917292Y-68510076D01*
X110917292Y-68510076D02*
X110869673Y-68605314D01*
X110869673Y-68605314D02*
X110822054Y-68795790D01*
X110822054Y-68795790D02*
X110822054Y-68938647D01*
X110822054Y-68938647D02*
X110869673Y-69129123D01*
X110869673Y-69129123D02*
X110917292Y-69224361D01*
X110917292Y-69224361D02*
X111012530Y-69319600D01*
X111012530Y-69319600D02*
X111155387Y-69367219D01*
X111155387Y-69367219D02*
X111250625Y-69367219D01*
X111250625Y-69367219D02*
X111393482Y-69319600D01*
X111393482Y-69319600D02*
X111441101Y-69271980D01*
X111441101Y-69271980D02*
X111441101Y-68938647D01*
X111441101Y-68938647D02*
X111250625Y-68938647D01*
X111869673Y-69367219D02*
X111869673Y-68367219D01*
X111869673Y-68367219D02*
X112441101Y-69367219D01*
X112441101Y-69367219D02*
X112441101Y-68367219D01*
X112917292Y-69367219D02*
X112917292Y-68367219D01*
X112917292Y-68367219D02*
X113155387Y-68367219D01*
X113155387Y-68367219D02*
X113298244Y-68414838D01*
X113298244Y-68414838D02*
X113393482Y-68510076D01*
X113393482Y-68510076D02*
X113441101Y-68605314D01*
X113441101Y-68605314D02*
X113488720Y-68795790D01*
X113488720Y-68795790D02*
X113488720Y-68938647D01*
X113488720Y-68938647D02*
X113441101Y-69129123D01*
X113441101Y-69129123D02*
X113393482Y-69224361D01*
X113393482Y-69224361D02*
X113298244Y-69319600D01*
X113298244Y-69319600D02*
X113155387Y-69367219D01*
X113155387Y-69367219D02*
X112917292Y-69367219D01*
X75267219Y-49830326D02*
X74267219Y-49830326D01*
X74267219Y-49830326D02*
X74267219Y-49449374D01*
X74267219Y-49449374D02*
X74314838Y-49354136D01*
X74314838Y-49354136D02*
X74362457Y-49306517D01*
X74362457Y-49306517D02*
X74457695Y-49258898D01*
X74457695Y-49258898D02*
X74600552Y-49258898D01*
X74600552Y-49258898D02*
X74695790Y-49306517D01*
X74695790Y-49306517D02*
X74743409Y-49354136D01*
X74743409Y-49354136D02*
X74791028Y-49449374D01*
X74791028Y-49449374D02*
X74791028Y-49830326D01*
X74743409Y-48496993D02*
X74791028Y-48354136D01*
X74791028Y-48354136D02*
X74838647Y-48306517D01*
X74838647Y-48306517D02*
X74933885Y-48258898D01*
X74933885Y-48258898D02*
X75076742Y-48258898D01*
X75076742Y-48258898D02*
X75171980Y-48306517D01*
X75171980Y-48306517D02*
X75219600Y-48354136D01*
X75219600Y-48354136D02*
X75267219Y-48449374D01*
X75267219Y-48449374D02*
X75267219Y-48830326D01*
X75267219Y-48830326D02*
X74267219Y-48830326D01*
X74267219Y-48830326D02*
X74267219Y-48496993D01*
X74267219Y-48496993D02*
X74314838Y-48401755D01*
X74314838Y-48401755D02*
X74362457Y-48354136D01*
X74362457Y-48354136D02*
X74457695Y-48306517D01*
X74457695Y-48306517D02*
X74552933Y-48306517D01*
X74552933Y-48306517D02*
X74648171Y-48354136D01*
X74648171Y-48354136D02*
X74695790Y-48401755D01*
X74695790Y-48401755D02*
X74743409Y-48496993D01*
X74743409Y-48496993D02*
X74743409Y-48830326D01*
X75267219Y-47306517D02*
X75267219Y-47877945D01*
X75267219Y-47592231D02*
X74267219Y-47592231D01*
X74267219Y-47592231D02*
X74410076Y-47687469D01*
X74410076Y-47687469D02*
X74505314Y-47782707D01*
X74505314Y-47782707D02*
X74552933Y-47877945D01*
X74362457Y-46925564D02*
X74314838Y-46877945D01*
X74314838Y-46877945D02*
X74267219Y-46782707D01*
X74267219Y-46782707D02*
X74267219Y-46544612D01*
X74267219Y-46544612D02*
X74314838Y-46449374D01*
X74314838Y-46449374D02*
X74362457Y-46401755D01*
X74362457Y-46401755D02*
X74457695Y-46354136D01*
X74457695Y-46354136D02*
X74552933Y-46354136D01*
X74552933Y-46354136D02*
X74695790Y-46401755D01*
X74695790Y-46401755D02*
X75267219Y-46973183D01*
X75267219Y-46973183D02*
X75267219Y-46354136D01*
X102267219Y-92530326D02*
X101267219Y-92530326D01*
X101267219Y-92530326D02*
X101267219Y-92149374D01*
X101267219Y-92149374D02*
X101314838Y-92054136D01*
X101314838Y-92054136D02*
X101362457Y-92006517D01*
X101362457Y-92006517D02*
X101457695Y-91958898D01*
X101457695Y-91958898D02*
X101600552Y-91958898D01*
X101600552Y-91958898D02*
X101695790Y-92006517D01*
X101695790Y-92006517D02*
X101743409Y-92054136D01*
X101743409Y-92054136D02*
X101791028Y-92149374D01*
X101791028Y-92149374D02*
X101791028Y-92530326D01*
X102171980Y-90958898D02*
X102219600Y-91006517D01*
X102219600Y-91006517D02*
X102267219Y-91149374D01*
X102267219Y-91149374D02*
X102267219Y-91244612D01*
X102267219Y-91244612D02*
X102219600Y-91387469D01*
X102219600Y-91387469D02*
X102124361Y-91482707D01*
X102124361Y-91482707D02*
X102029123Y-91530326D01*
X102029123Y-91530326D02*
X101838647Y-91577945D01*
X101838647Y-91577945D02*
X101695790Y-91577945D01*
X101695790Y-91577945D02*
X101505314Y-91530326D01*
X101505314Y-91530326D02*
X101410076Y-91482707D01*
X101410076Y-91482707D02*
X101314838Y-91387469D01*
X101314838Y-91387469D02*
X101267219Y-91244612D01*
X101267219Y-91244612D02*
X101267219Y-91149374D01*
X101267219Y-91149374D02*
X101314838Y-91006517D01*
X101314838Y-91006517D02*
X101362457Y-90958898D01*
X102267219Y-90006517D02*
X102267219Y-90577945D01*
X102267219Y-90292231D02*
X101267219Y-90292231D01*
X101267219Y-90292231D02*
X101410076Y-90387469D01*
X101410076Y-90387469D02*
X101505314Y-90482707D01*
X101505314Y-90482707D02*
X101552933Y-90577945D01*
X101267219Y-89673183D02*
X101267219Y-89054136D01*
X101267219Y-89054136D02*
X101648171Y-89387469D01*
X101648171Y-89387469D02*
X101648171Y-89244612D01*
X101648171Y-89244612D02*
X101695790Y-89149374D01*
X101695790Y-89149374D02*
X101743409Y-89101755D01*
X101743409Y-89101755D02*
X101838647Y-89054136D01*
X101838647Y-89054136D02*
X102076742Y-89054136D01*
X102076742Y-89054136D02*
X102171980Y-89101755D01*
X102171980Y-89101755D02*
X102219600Y-89149374D01*
X102219600Y-89149374D02*
X102267219Y-89244612D01*
X102267219Y-89244612D02*
X102267219Y-89530326D01*
X102267219Y-89530326D02*
X102219600Y-89625564D01*
X102219600Y-89625564D02*
X102171980Y-89673183D01*
X78167219Y-49830326D02*
X77167219Y-49830326D01*
X77167219Y-49830326D02*
X77167219Y-49449374D01*
X77167219Y-49449374D02*
X77214838Y-49354136D01*
X77214838Y-49354136D02*
X77262457Y-49306517D01*
X77262457Y-49306517D02*
X77357695Y-49258898D01*
X77357695Y-49258898D02*
X77500552Y-49258898D01*
X77500552Y-49258898D02*
X77595790Y-49306517D01*
X77595790Y-49306517D02*
X77643409Y-49354136D01*
X77643409Y-49354136D02*
X77691028Y-49449374D01*
X77691028Y-49449374D02*
X77691028Y-49830326D01*
X77643409Y-48496993D02*
X77691028Y-48354136D01*
X77691028Y-48354136D02*
X77738647Y-48306517D01*
X77738647Y-48306517D02*
X77833885Y-48258898D01*
X77833885Y-48258898D02*
X77976742Y-48258898D01*
X77976742Y-48258898D02*
X78071980Y-48306517D01*
X78071980Y-48306517D02*
X78119600Y-48354136D01*
X78119600Y-48354136D02*
X78167219Y-48449374D01*
X78167219Y-48449374D02*
X78167219Y-48830326D01*
X78167219Y-48830326D02*
X77167219Y-48830326D01*
X77167219Y-48830326D02*
X77167219Y-48496993D01*
X77167219Y-48496993D02*
X77214838Y-48401755D01*
X77214838Y-48401755D02*
X77262457Y-48354136D01*
X77262457Y-48354136D02*
X77357695Y-48306517D01*
X77357695Y-48306517D02*
X77452933Y-48306517D01*
X77452933Y-48306517D02*
X77548171Y-48354136D01*
X77548171Y-48354136D02*
X77595790Y-48401755D01*
X77595790Y-48401755D02*
X77643409Y-48496993D01*
X77643409Y-48496993D02*
X77643409Y-48830326D01*
X78167219Y-47306517D02*
X78167219Y-47877945D01*
X78167219Y-47592231D02*
X77167219Y-47592231D01*
X77167219Y-47592231D02*
X77310076Y-47687469D01*
X77310076Y-47687469D02*
X77405314Y-47782707D01*
X77405314Y-47782707D02*
X77452933Y-47877945D01*
X78167219Y-46354136D02*
X78167219Y-46925564D01*
X78167219Y-46639850D02*
X77167219Y-46639850D01*
X77167219Y-46639850D02*
X77310076Y-46735088D01*
X77310076Y-46735088D02*
X77405314Y-46830326D01*
X77405314Y-46830326D02*
X77452933Y-46925564D01*
X82067219Y-91430326D02*
X81067219Y-91430326D01*
X81067219Y-91430326D02*
X81067219Y-91049374D01*
X81067219Y-91049374D02*
X81114838Y-90954136D01*
X81114838Y-90954136D02*
X81162457Y-90906517D01*
X81162457Y-90906517D02*
X81257695Y-90858898D01*
X81257695Y-90858898D02*
X81400552Y-90858898D01*
X81400552Y-90858898D02*
X81495790Y-90906517D01*
X81495790Y-90906517D02*
X81543409Y-90954136D01*
X81543409Y-90954136D02*
X81591028Y-91049374D01*
X81591028Y-91049374D02*
X81591028Y-91430326D01*
X81781504Y-90477945D02*
X81781504Y-90001755D01*
X82067219Y-90573183D02*
X81067219Y-90239850D01*
X81067219Y-90239850D02*
X82067219Y-89906517D01*
X81067219Y-89144612D02*
X81067219Y-89335088D01*
X81067219Y-89335088D02*
X81114838Y-89430326D01*
X81114838Y-89430326D02*
X81162457Y-89477945D01*
X81162457Y-89477945D02*
X81305314Y-89573183D01*
X81305314Y-89573183D02*
X81495790Y-89620802D01*
X81495790Y-89620802D02*
X81876742Y-89620802D01*
X81876742Y-89620802D02*
X81971980Y-89573183D01*
X81971980Y-89573183D02*
X82019600Y-89525564D01*
X82019600Y-89525564D02*
X82067219Y-89430326D01*
X82067219Y-89430326D02*
X82067219Y-89239850D01*
X82067219Y-89239850D02*
X82019600Y-89144612D01*
X82019600Y-89144612D02*
X81971980Y-89096993D01*
X81971980Y-89096993D02*
X81876742Y-89049374D01*
X81876742Y-89049374D02*
X81638647Y-89049374D01*
X81638647Y-89049374D02*
X81543409Y-89096993D01*
X81543409Y-89096993D02*
X81495790Y-89144612D01*
X81495790Y-89144612D02*
X81448171Y-89239850D01*
X81448171Y-89239850D02*
X81448171Y-89430326D01*
X81448171Y-89430326D02*
X81495790Y-89525564D01*
X81495790Y-89525564D02*
X81543409Y-89573183D01*
X81543409Y-89573183D02*
X81638647Y-89620802D01*
X105967219Y-49830326D02*
X104967219Y-49830326D01*
X104967219Y-49830326D02*
X104967219Y-49449374D01*
X104967219Y-49449374D02*
X105014838Y-49354136D01*
X105014838Y-49354136D02*
X105062457Y-49306517D01*
X105062457Y-49306517D02*
X105157695Y-49258898D01*
X105157695Y-49258898D02*
X105300552Y-49258898D01*
X105300552Y-49258898D02*
X105395790Y-49306517D01*
X105395790Y-49306517D02*
X105443409Y-49354136D01*
X105443409Y-49354136D02*
X105491028Y-49449374D01*
X105491028Y-49449374D02*
X105491028Y-49830326D01*
X105443409Y-48496993D02*
X105491028Y-48354136D01*
X105491028Y-48354136D02*
X105538647Y-48306517D01*
X105538647Y-48306517D02*
X105633885Y-48258898D01*
X105633885Y-48258898D02*
X105776742Y-48258898D01*
X105776742Y-48258898D02*
X105871980Y-48306517D01*
X105871980Y-48306517D02*
X105919600Y-48354136D01*
X105919600Y-48354136D02*
X105967219Y-48449374D01*
X105967219Y-48449374D02*
X105967219Y-48830326D01*
X105967219Y-48830326D02*
X104967219Y-48830326D01*
X104967219Y-48830326D02*
X104967219Y-48496993D01*
X104967219Y-48496993D02*
X105014838Y-48401755D01*
X105014838Y-48401755D02*
X105062457Y-48354136D01*
X105062457Y-48354136D02*
X105157695Y-48306517D01*
X105157695Y-48306517D02*
X105252933Y-48306517D01*
X105252933Y-48306517D02*
X105348171Y-48354136D01*
X105348171Y-48354136D02*
X105395790Y-48401755D01*
X105395790Y-48401755D02*
X105443409Y-48496993D01*
X105443409Y-48496993D02*
X105443409Y-48830326D01*
X104967219Y-47639850D02*
X104967219Y-47544612D01*
X104967219Y-47544612D02*
X105014838Y-47449374D01*
X105014838Y-47449374D02*
X105062457Y-47401755D01*
X105062457Y-47401755D02*
X105157695Y-47354136D01*
X105157695Y-47354136D02*
X105348171Y-47306517D01*
X105348171Y-47306517D02*
X105586266Y-47306517D01*
X105586266Y-47306517D02*
X105776742Y-47354136D01*
X105776742Y-47354136D02*
X105871980Y-47401755D01*
X105871980Y-47401755D02*
X105919600Y-47449374D01*
X105919600Y-47449374D02*
X105967219Y-47544612D01*
X105967219Y-47544612D02*
X105967219Y-47639850D01*
X105967219Y-47639850D02*
X105919600Y-47735088D01*
X105919600Y-47735088D02*
X105871980Y-47782707D01*
X105871980Y-47782707D02*
X105776742Y-47830326D01*
X105776742Y-47830326D02*
X105586266Y-47877945D01*
X105586266Y-47877945D02*
X105348171Y-47877945D01*
X105348171Y-47877945D02*
X105157695Y-47830326D01*
X105157695Y-47830326D02*
X105062457Y-47782707D01*
X105062457Y-47782707D02*
X105014838Y-47735088D01*
X105014838Y-47735088D02*
X104967219Y-47639850D01*
D11*
%TO.C,IC1*%
X55225000Y-57900000D02*
G75*
G03*
X55225000Y-57900000I-125000J0D01*
G01*
D12*
%TO.C,C6*%
X81484420Y-59690000D02*
X81765580Y-59690000D01*
X81484420Y-60710000D02*
X81765580Y-60710000D01*
%TO.C,C5*%
X88215580Y-75960000D02*
X87934420Y-75960000D01*
X88215580Y-74940000D02*
X87934420Y-74940000D01*
%TO.C,C3*%
X92910000Y-64084420D02*
X92910000Y-64365580D01*
X91890000Y-64084420D02*
X91890000Y-64365580D01*
%TO.C,J3*%
X97360000Y-58390000D02*
X98685000Y-58390000D01*
X98685000Y-58325000D02*
X98685000Y-58390000D01*
X98685000Y-58325000D02*
X102215000Y-58325000D01*
X98685000Y-64730000D02*
X98685000Y-64795000D01*
X98685000Y-64795000D02*
X102215000Y-64795000D01*
X102215000Y-58325000D02*
X102215000Y-58390000D01*
X102215000Y-64730000D02*
X102215000Y-64795000D01*
%TO.C,C4*%
X78510000Y-70634420D02*
X78510000Y-70915580D01*
X77490000Y-70634420D02*
X77490000Y-70915580D01*
%TO.C,C9*%
X75587836Y-72160000D02*
X75372164Y-72160000D01*
X75587836Y-71440000D02*
X75372164Y-71440000D01*
%TO.C,U1*%
X81390000Y-64540000D02*
X81390000Y-64990000D01*
X81390000Y-64990000D02*
X80100000Y-64990000D01*
X81390000Y-71760000D02*
X81390000Y-71310000D01*
X81840000Y-64540000D02*
X81390000Y-64540000D01*
X81840000Y-71760000D02*
X81390000Y-71760000D01*
X88160000Y-64540000D02*
X88610000Y-64540000D01*
X88160000Y-71760000D02*
X88610000Y-71760000D01*
X88610000Y-64540000D02*
X88610000Y-64990000D01*
X88610000Y-71760000D02*
X88610000Y-71310000D01*
%TO.C,Y1*%
X73200000Y-71050000D02*
X76800000Y-71050000D01*
X76800000Y-71050000D02*
X76800000Y-65300000D01*
X73200000Y-65300000D02*
X73200000Y-71050000D01*
%TO.C,C8*%
X75587836Y-64510000D02*
X75372164Y-64510000D01*
X75587836Y-63790000D02*
X75372164Y-63790000D01*
%TO.C,C7*%
X77490000Y-63365580D02*
X77490000Y-63084420D01*
X78510000Y-63365580D02*
X78510000Y-63084420D01*
%TO.C,R3*%
X78156359Y-67920000D02*
X78463641Y-67920000D01*
X78156359Y-68680000D02*
X78463641Y-68680000D01*
D13*
%TO.C,J1*%
X49975000Y-68000000D02*
X49975000Y-70000000D01*
%TD*%
M02*
