%TF.GenerationSoftware,KiCad,Pcbnew,7.0.7-7.0.7~ubuntu22.04.1*%
%TF.CreationDate,2023-09-19T20:56:04+02:00*%
%TF.ProjectId,kicad103,6b696361-6431-4303-932e-6b696361645f,rev?*%
%TF.SameCoordinates,Original*%
%TF.FileFunction,Copper,L4,Bot*%
%TF.FilePolarity,Positive*%
%FSLAX46Y46*%
G04 Gerber Fmt 4.6, Leading zero omitted, Abs format (unit mm)*
G04 Created by KiCad (PCBNEW 7.0.7-7.0.7~ubuntu22.04.1) date 2023-09-19 20:56:04*
%MOMM*%
%LPD*%
G01*
G04 APERTURE LIST*
%TA.AperFunction,ComponentPad*%
%ADD10R,1.700000X1.700000*%
%TD*%
%TA.AperFunction,ComponentPad*%
%ADD11O,1.700000X1.700000*%
%TD*%
%TA.AperFunction,ComponentPad*%
%ADD12C,0.900000*%
%TD*%
%TA.AperFunction,ComponentPad*%
%ADD13C,8.600000*%
%TD*%
%TA.AperFunction,ComponentPad*%
%ADD14C,1.875000*%
%TD*%
%TA.AperFunction,ComponentPad*%
%ADD15C,3.894000*%
%TD*%
%TA.AperFunction,ViaPad*%
%ADD16C,0.700000*%
%TD*%
%TA.AperFunction,ViaPad*%
%ADD17C,0.800000*%
%TD*%
%TA.AperFunction,Conductor*%
%ADD18C,1.000000*%
%TD*%
%TA.AperFunction,Conductor*%
%ADD19C,0.200000*%
%TD*%
%TA.AperFunction,Conductor*%
%ADD20C,0.300000*%
%TD*%
%TA.AperFunction,Conductor*%
%ADD21C,0.500000*%
%TD*%
G04 APERTURE END LIST*
D10*
%TO.P,J5,1,Pin_1*%
%TO.N,PB15*%
X67380000Y-52000000D03*
D11*
%TO.P,J5,2,Pin_2*%
%TO.N,PB14*%
X69920000Y-52000000D03*
%TO.P,J5,3,Pin_3*%
%TO.N,PB13*%
X72460000Y-52000000D03*
%TO.P,J5,4,Pin_4*%
%TO.N,PB12*%
X75000000Y-52000000D03*
%TO.P,J5,5,Pin_5*%
%TO.N,PB11*%
X77540000Y-52000000D03*
%TO.P,J5,6,Pin_6*%
%TO.N,PB10*%
X80080000Y-52000000D03*
%TO.P,J5,7,Pin_7*%
%TO.N,PB9*%
X82620000Y-52000000D03*
%TO.P,J5,8,Pin_8*%
%TO.N,PB8*%
X85160000Y-52000000D03*
%TO.P,J5,9,Pin_9*%
%TO.N,PB7*%
X87700000Y-52000000D03*
%TO.P,J5,10,Pin_10*%
%TO.N,PB6*%
X90240000Y-52000000D03*
%TO.P,J5,11,Pin_11*%
%TO.N,PB5*%
X92780000Y-52000000D03*
%TO.P,J5,12,Pin_12*%
%TO.N,PB4*%
X95320000Y-52000000D03*
%TO.P,J5,13,Pin_13*%
%TO.N,PB3*%
X97860000Y-52000000D03*
%TO.P,J5,14,Pin_14*%
%TO.N,PB2*%
X100400000Y-52000000D03*
%TO.P,J5,15,Pin_15*%
%TO.N,PB1*%
X102940000Y-52000000D03*
%TO.P,J5,16,Pin_16*%
%TO.N,PB0*%
X105480000Y-52000000D03*
%TD*%
D10*
%TO.P,J2,1,Pin_1*%
%TO.N,Net-(D1-A)*%
X57460000Y-78000000D03*
D11*
%TO.P,J2,2,Pin_2*%
%TO.N,GND*%
X60000000Y-78000000D03*
%TD*%
D12*
%TO.P,H3,1,1*%
%TO.N,GND*%
X54794581Y-50600000D03*
X55739162Y-48319581D03*
X55739162Y-52880419D03*
X58019581Y-47375000D03*
D13*
X58019581Y-50600000D03*
D12*
X58019581Y-53825000D03*
X60300000Y-48319581D03*
X60300000Y-52880419D03*
X61244581Y-50600000D03*
%TD*%
D10*
%TO.P,J7,1,Pin_1*%
%TO.N,+3.3V*%
X114000000Y-71080000D03*
D11*
%TO.P,J7,2,Pin_2*%
%TO.N,PB14*%
X114000000Y-73620000D03*
%TO.P,J7,3,Pin_3*%
%TO.N,PB13*%
X114000000Y-76160000D03*
%TO.P,J7,4,Pin_4*%
%TO.N,GND*%
X114000000Y-78700000D03*
%TD*%
D12*
%TO.P,H2,1,1*%
%TO.N,GND*%
X117994581Y-88180419D03*
X118939162Y-85900000D03*
X118939162Y-90460838D03*
X121219581Y-84955419D03*
D13*
X121219581Y-88180419D03*
D12*
X121219581Y-91405419D03*
X123500000Y-85900000D03*
X123500000Y-90460838D03*
X124444581Y-88180419D03*
%TD*%
D10*
%TO.P,J8,1,Pin_1*%
%TO.N,PB3*%
X108600000Y-58720000D03*
D11*
%TO.P,J8,2,Pin_2*%
%TO.N,+3.3V*%
X108600000Y-61260000D03*
%TO.P,J8,3,Pin_3*%
%TO.N,PA13*%
X108600000Y-63800000D03*
%TO.P,J8,4,Pin_4*%
%TO.N,PA14*%
X108600000Y-66340000D03*
%TO.P,J8,5,Pin_5*%
%TO.N,GND*%
X108600000Y-68880000D03*
%TD*%
D10*
%TO.P,J9,1,Pin_1*%
%TO.N,PA0*%
X66220000Y-87000000D03*
D11*
%TO.P,J9,2,Pin_2*%
%TO.N,PA1*%
X68760000Y-87000000D03*
%TO.P,J9,3,Pin_3*%
%TO.N,PA2*%
X71300000Y-87000000D03*
%TO.P,J9,4,Pin_4*%
%TO.N,PA3*%
X73840000Y-87000000D03*
%TO.P,J9,5,Pin_5*%
%TO.N,PA4*%
X76380000Y-87000000D03*
%TO.P,J9,6,Pin_6*%
%TO.N,PA5*%
X78920000Y-87000000D03*
%TO.P,J9,7,Pin_7*%
%TO.N,PA6*%
X81460000Y-87000000D03*
%TO.P,J9,8,Pin_8*%
%TO.N,PA7*%
X84000000Y-87000000D03*
%TO.P,J9,9,Pin_9*%
%TO.N,PA8*%
X86540000Y-87000000D03*
%TO.P,J9,10,Pin_10*%
%TO.N,PA9*%
X89080000Y-87000000D03*
%TO.P,J9,11,Pin_11*%
%TO.N,PA10*%
X91620000Y-87000000D03*
%TO.P,J9,12,Pin_12*%
%TO.N,PA13*%
X94160000Y-87000000D03*
%TO.P,J9,13,Pin_13*%
%TO.N,PA14*%
X96700000Y-87000000D03*
%TO.P,J9,14,Pin_14*%
%TO.N,PA15*%
X99240000Y-87000000D03*
%TO.P,J9,15,Pin_15*%
%TO.N,PC13*%
X101780000Y-87000000D03*
%TO.P,J9,16,Pin_16*%
%TO.N,PC14*%
X104320000Y-87000000D03*
%TO.P,J9,17,Pin_17*%
%TO.N,PC15*%
X106860000Y-87000000D03*
%TD*%
D14*
%TO.P,J1,5,5*%
%TO.N,unconnected-(J1-Pad5)*%
X48975000Y-66750000D03*
%TO.P,J1,6,6*%
%TO.N,unconnected-(J1-Pad6)*%
X48975000Y-71250000D03*
D15*
%TO.P,J1,7,7*%
%TO.N,unconnected-(J1-Pad7)*%
X48975000Y-63150000D03*
%TO.P,J1,8,8*%
%TO.N,unconnected-(J1-Pad8)*%
X48975000Y-74850000D03*
%TD*%
D12*
%TO.P,H1,1,1*%
%TO.N,GND*%
X117975000Y-49600000D03*
X118919581Y-47319581D03*
X118919581Y-51880419D03*
X121200000Y-46375000D03*
D13*
X121200000Y-49600000D03*
D12*
X121200000Y-52825000D03*
X123480419Y-47319581D03*
X123480419Y-51880419D03*
X124425000Y-49600000D03*
%TD*%
D16*
%TO.N,Net-(D1-K)*%
X58300000Y-67700000D03*
X58300000Y-70100000D03*
%TO.N,+3.3V*%
X92400000Y-62200000D03*
X88900000Y-76600000D03*
X110900000Y-61300000D03*
X62700000Y-65600000D03*
X79000000Y-70000000D03*
X100400000Y-59000000D03*
X66800000Y-61200000D03*
X64000000Y-75900000D03*
X79200000Y-63800000D03*
X64800000Y-65600000D03*
X111300000Y-71600000D03*
X66700000Y-59300000D03*
X80100000Y-61800000D03*
X66700000Y-63100000D03*
%TO.N,/USB_D-*%
X70157513Y-69650000D03*
X83549513Y-69650000D03*
%TO.N,GND*%
X111500000Y-78700000D03*
X87300000Y-76600000D03*
X82400000Y-59200000D03*
X78000000Y-61400000D03*
X74200000Y-64100000D03*
X82800000Y-67700000D03*
X106300000Y-71200000D03*
X100400000Y-60300000D03*
X53700000Y-58900000D03*
X78000000Y-72800000D03*
X76200000Y-59400000D03*
X74200000Y-71800000D03*
X55900000Y-57100000D03*
X100400000Y-61500000D03*
X58900000Y-57000000D03*
X92400000Y-66000000D03*
D17*
X61000000Y-80500000D03*
D16*
X68600000Y-56500000D03*
D17*
X54100000Y-65500000D03*
D16*
X94700000Y-66600000D03*
X68000000Y-75900000D03*
%TO.N,/USB_D+*%
X70157513Y-68350000D03*
X83549513Y-68350000D03*
%TO.N,PA13*%
X92900000Y-80500000D03*
X105200000Y-59000000D03*
X92900000Y-69100000D03*
%TO.N,PA14*%
X104300000Y-60300000D03*
X106100000Y-67700000D03*
%TO.N,PB3*%
X106400000Y-56100500D03*
X106400000Y-57600000D03*
%TO.N,PA15*%
X100400000Y-74800000D03*
X99600000Y-66800000D03*
X99200000Y-78200000D03*
X98100000Y-72600000D03*
%TO.N,PC14*%
X97700000Y-81600000D03*
X95800000Y-81600000D03*
X82236654Y-65900000D03*
%TO.N,PC15*%
X79398360Y-66700000D03*
%TO.N,PB15*%
X97800000Y-80600000D03*
X95300000Y-75763000D03*
X91100000Y-71700000D03*
X95800000Y-80600000D03*
X91000000Y-68800000D03*
%TO.N,PB14*%
X76200000Y-49000000D03*
X81400000Y-49000000D03*
%TO.N,PB13*%
X82000000Y-55000000D03*
X109000000Y-75000000D03*
X83900000Y-55000000D03*
%TO.N,PB12*%
X109000000Y-77000000D03*
%TO.N,PB11*%
X84000000Y-71000000D03*
X68200000Y-74400000D03*
X72100000Y-81500000D03*
X71600000Y-76300000D03*
X66500000Y-68100000D03*
X73200000Y-77800000D03*
%TO.N,PB10*%
X61200000Y-87900000D03*
X86300000Y-78400000D03*
%TO.N,PB9*%
X83050500Y-61896691D03*
%TO.N,PB8*%
X85100000Y-55800000D03*
X84125535Y-57499500D03*
%TO.N,PB7*%
X86600000Y-55900000D03*
X85600000Y-57499500D03*
%TO.N,PB6*%
X86305378Y-58605378D03*
X88000000Y-56000000D03*
%TO.N,PB5*%
X89500000Y-56100000D03*
X87600000Y-58100000D03*
%TO.N,PB4*%
X91000000Y-55700000D03*
X88955378Y-57755378D03*
%TO.N,PB2*%
X85400000Y-77500000D03*
X100400000Y-46349500D03*
X61000000Y-86200000D03*
%TO.N,PB1*%
X59900000Y-84700000D03*
D17*
X107900000Y-48300000D03*
D16*
X84300000Y-76600000D03*
X118500000Y-59000000D03*
X121500000Y-59000000D03*
%TO.N,PB0*%
X118000000Y-62000000D03*
X123000000Y-62000000D03*
X83194622Y-76494622D03*
X58000000Y-84300000D03*
%TO.N,PA1*%
X82200000Y-70000000D03*
%TO.N,PA9*%
X87400000Y-68024500D03*
X90400000Y-77900000D03*
%TO.N,PA10*%
X91600000Y-78700000D03*
X91900000Y-67500000D03*
%TO.N,Net-(J3-Pin_10)*%
X105100000Y-64100000D03*
X85000000Y-66200000D03*
%TO.N,Net-(U1-BOOT0)*%
X84050500Y-58844396D03*
X93794975Y-68405025D03*
%TO.N,Net-(D2-K)*%
X66500000Y-80300000D03*
X64000000Y-80300000D03*
%TD*%
D18*
%TO.N,Net-(D1-K)*%
X58300000Y-67700000D02*
X58300000Y-70100000D01*
D19*
%TO.N,/USB_D-*%
X70157513Y-69650000D02*
X70582513Y-69225000D01*
X83124514Y-69225001D02*
X83549513Y-69650000D01*
X70582513Y-69225000D02*
X83124514Y-69225001D01*
D18*
%TO.N,GND*%
X60000000Y-78000000D02*
X61000000Y-79000000D01*
X61000000Y-79000000D02*
X61000000Y-80500000D01*
D19*
%TO.N,/USB_D+*%
X70157513Y-68350000D02*
X70582513Y-68775000D01*
X70582513Y-68775000D02*
X83124514Y-68774999D01*
X83124514Y-68774999D02*
X83549513Y-68350000D01*
D20*
%TO.N,PA13*%
X105200000Y-59000000D02*
X105200000Y-60400000D01*
X92900000Y-80500000D02*
X92900000Y-69100000D01*
X106300000Y-61500000D02*
X105200000Y-60400000D01*
X108600000Y-63800000D02*
X106300000Y-63800000D01*
X106300000Y-63800000D02*
X106300000Y-61500000D01*
%TO.N,PA14*%
X104300000Y-60300000D02*
X105800000Y-61800000D01*
X105800000Y-67400000D02*
X106100000Y-67700000D01*
X96700000Y-87000000D02*
X96700000Y-77100000D01*
X96700000Y-77100000D02*
X106100000Y-67700000D01*
X105800000Y-61800000D02*
X105800000Y-67400000D01*
%TO.N,PB3*%
X106400000Y-57600000D02*
X106400000Y-56100500D01*
%TO.N,PA15*%
X99200000Y-78200000D02*
X100400000Y-77000000D01*
X100400000Y-77000000D02*
X100400000Y-74800000D01*
X99600000Y-66800000D02*
X98100000Y-68300000D01*
X98100000Y-68300000D02*
X98100000Y-72600000D01*
%TO.N,PC14*%
X95600000Y-81400000D02*
X95800000Y-81600000D01*
X89700000Y-79000000D02*
X92100000Y-81400000D01*
X89700000Y-78289950D02*
X89700000Y-73110050D01*
X82364053Y-65774103D02*
X82236654Y-65774103D01*
X89700000Y-78289950D02*
X89700000Y-79000000D01*
X104320000Y-82120000D02*
X104320000Y-87000000D01*
X103800000Y-81600000D02*
X104320000Y-82120000D01*
X92100000Y-81400000D02*
X95600000Y-81400000D01*
X97700000Y-81600000D02*
X103800000Y-81600000D01*
X89700000Y-73110050D02*
X82364053Y-65774103D01*
%TO.N,PC15*%
X69457513Y-80300000D02*
X67257513Y-82500000D01*
X79398360Y-66700000D02*
X78608410Y-67489950D01*
X54900000Y-88700000D02*
X58900000Y-92700000D01*
X70027613Y-67489950D02*
X69457513Y-68060050D01*
X67257513Y-82500000D02*
X56600000Y-82500000D01*
X54900000Y-84200000D02*
X54900000Y-88700000D01*
X58900000Y-92700000D02*
X105700000Y-92700000D01*
X106860000Y-91540000D02*
X106860000Y-87000000D01*
X105700000Y-92700000D02*
X106860000Y-91540000D01*
X69457513Y-68060050D02*
X69457513Y-80300000D01*
X78608410Y-67489950D02*
X70027613Y-67489950D01*
X56600000Y-82500000D02*
X54900000Y-84200000D01*
%TO.N,PB15*%
X108600000Y-93300000D02*
X57700000Y-93300000D01*
X108600000Y-80600000D02*
X109100000Y-81100000D01*
X57700000Y-93300000D02*
X53700000Y-89300000D01*
X97800000Y-80600000D02*
X108600000Y-80600000D01*
X53700000Y-84200000D02*
X56189950Y-81710050D01*
X65352082Y-70227082D02*
X61725000Y-66600000D01*
X95300000Y-75763000D02*
X95300000Y-80100000D01*
X53700000Y-89300000D02*
X53700000Y-84200000D01*
X91000000Y-71600000D02*
X91100000Y-71700000D01*
X65352082Y-77957968D02*
X65352082Y-70227082D01*
X61725000Y-57655000D02*
X67380000Y-52000000D01*
X95300000Y-80100000D02*
X95800000Y-80600000D01*
X56189950Y-81710050D02*
X61600000Y-81710050D01*
X61725000Y-66600000D02*
X61725000Y-57655000D01*
X109100000Y-81100000D02*
X109100000Y-92800000D01*
X109100000Y-92800000D02*
X108600000Y-93300000D01*
X91000000Y-68800000D02*
X91000000Y-71600000D01*
X61600000Y-81710050D02*
X65352082Y-77957968D01*
%TO.N,PB14*%
X81400000Y-49000000D02*
X76200000Y-49000000D01*
%TO.N,PB13*%
X72600000Y-54100000D02*
X73500000Y-55000000D01*
X72460000Y-53960000D02*
X72600000Y-54100000D01*
X112900000Y-68600000D02*
X112900000Y-56400000D01*
X110000000Y-71500000D02*
X112900000Y-68600000D01*
X73500000Y-55000000D02*
X74100000Y-55000000D01*
X72460000Y-52000000D02*
X72460000Y-53960000D01*
X110000000Y-74000000D02*
X110000000Y-71500000D01*
X109000000Y-75000000D02*
X110000000Y-74000000D01*
X111500000Y-55000000D02*
X83900000Y-55000000D01*
X74100000Y-55000000D02*
X82000000Y-55000000D01*
X112900000Y-56400000D02*
X111500000Y-55000000D01*
%TO.N,PB12*%
X75350500Y-45649500D02*
X75000000Y-46000000D01*
X109549500Y-45649500D02*
X75350500Y-45649500D01*
X124000000Y-75900000D02*
X124000000Y-60100000D01*
X109000000Y-77000000D02*
X109000000Y-78500000D01*
X75000000Y-46000000D02*
X75000000Y-52000000D01*
X109000000Y-78500000D02*
X113900000Y-83400000D01*
X113900000Y-83400000D02*
X116500000Y-83400000D01*
X116500000Y-83400000D02*
X124000000Y-75900000D01*
X124000000Y-60100000D02*
X109549500Y-45649500D01*
%TO.N,PB11*%
X84000000Y-71000000D02*
X82600000Y-71000000D01*
X66500000Y-72700000D02*
X66500000Y-68100000D01*
X73200000Y-77800000D02*
X73100000Y-77800000D01*
X82600000Y-71000000D02*
X72100000Y-81500000D01*
X73100000Y-77800000D02*
X71600000Y-76300000D01*
X68200000Y-74400000D02*
X66500000Y-72700000D01*
%TO.N,PB10*%
X61800000Y-85800000D02*
X62500000Y-85100000D01*
X86300000Y-77589950D02*
X86300000Y-78400000D01*
X61200000Y-87900000D02*
X61800000Y-87300000D01*
X78789950Y-85100000D02*
X86300000Y-77589950D01*
X62500000Y-85100000D02*
X78789950Y-85100000D01*
X61800000Y-87300000D02*
X61800000Y-85800000D01*
%TO.N,PB9*%
X83100000Y-61847191D02*
X83100000Y-52480000D01*
X83050500Y-61896691D02*
X83100000Y-61847191D01*
X83100000Y-52480000D02*
X82620000Y-52000000D01*
%TO.N,PB8*%
X84125535Y-56774465D02*
X85100000Y-55800000D01*
X84125535Y-57499500D02*
X84125535Y-56774465D01*
%TO.N,PB7*%
X85600000Y-57499500D02*
X85600000Y-56900000D01*
X85600000Y-56900000D02*
X86600000Y-55900000D01*
%TO.N,PB6*%
X86305378Y-57694622D02*
X88000000Y-56000000D01*
X86305378Y-58605378D02*
X86305378Y-57694622D01*
%TO.N,PB5*%
X87600000Y-58100000D02*
X87600000Y-58000000D01*
X87600000Y-58000000D02*
X89500000Y-56100000D01*
%TO.N,PB4*%
X88955378Y-57744622D02*
X91000000Y-55700000D01*
X88955378Y-57755378D02*
X88955378Y-57744622D01*
%TO.N,PB2*%
X61000000Y-85300000D02*
X61000000Y-86200000D01*
X78300000Y-84600000D02*
X61700000Y-84600000D01*
X100400000Y-46349500D02*
X100400000Y-52000000D01*
X79100000Y-83800000D02*
X78300000Y-84600000D01*
X61700000Y-84600000D02*
X61000000Y-85300000D01*
X85400000Y-77500000D02*
X79100000Y-83800000D01*
%TO.N,PB1*%
X70700000Y-84100000D02*
X61400000Y-84100000D01*
X71700000Y-83100000D02*
X70700000Y-84100000D01*
X60500000Y-84100000D02*
X59900000Y-84700000D01*
X84300000Y-76600000D02*
X77800000Y-83100000D01*
X102940000Y-48360000D02*
X107840000Y-48360000D01*
X77800000Y-83100000D02*
X71700000Y-83100000D01*
X102940000Y-48360000D02*
X102940000Y-52000000D01*
X107840000Y-48360000D02*
X107900000Y-48300000D01*
X118500000Y-59000000D02*
X121500000Y-59000000D01*
X61400000Y-84100000D02*
X60500000Y-84100000D01*
%TO.N,PB0*%
X61100000Y-83600000D02*
X58700000Y-83600000D01*
X69900000Y-83600000D02*
X61100000Y-83600000D01*
X71300000Y-82200000D02*
X69900000Y-83600000D01*
X77489244Y-82200000D02*
X71300000Y-82200000D01*
X58700000Y-83600000D02*
X58000000Y-84300000D01*
X83194622Y-76494622D02*
X77489244Y-82200000D01*
X123000000Y-62000000D02*
X118000000Y-62000000D01*
%TO.N,PA1*%
X69550000Y-82650000D02*
X82200000Y-70000000D01*
X69200000Y-83000000D02*
X69550000Y-82650000D01*
X68760000Y-89540000D02*
X68300000Y-90000000D01*
X56900000Y-83000000D02*
X69200000Y-83000000D01*
X57300000Y-90000000D02*
X55400000Y-88100000D01*
X68760000Y-87000000D02*
X68760000Y-89540000D01*
X55400000Y-84500000D02*
X56900000Y-83000000D01*
X68300000Y-90000000D02*
X57300000Y-90000000D01*
X55400000Y-88100000D02*
X55400000Y-84500000D01*
%TO.N,PA9*%
X87400000Y-68024500D02*
X87400000Y-70102944D01*
X90397056Y-73100000D02*
X90400000Y-73100000D01*
X87400000Y-70102944D02*
X90397056Y-73100000D01*
X90400000Y-73100000D02*
X90400000Y-77900000D01*
%TO.N,PA10*%
X91900000Y-67500000D02*
X91900000Y-78400000D01*
X91900000Y-78400000D02*
X91600000Y-78700000D01*
%TO.N,Net-(J3-Pin_10)*%
X105100000Y-64100000D02*
X89000000Y-64100000D01*
X89000000Y-64100000D02*
X86900000Y-66200000D01*
X86900000Y-66200000D02*
X85000000Y-66200000D01*
%TO.N,Net-(U1-BOOT0)*%
X85020100Y-67210050D02*
X91200000Y-67210050D01*
X92189950Y-66800000D02*
X93794975Y-68405025D01*
X91200000Y-67210050D02*
X91610050Y-66800000D01*
X84050500Y-58844396D02*
X84200000Y-58993896D01*
X84200000Y-58993896D02*
X84200000Y-62400000D01*
X84300000Y-62500000D02*
X84300000Y-66489950D01*
X91610050Y-66800000D02*
X92189950Y-66800000D01*
X84300000Y-66489950D02*
X85020100Y-67210050D01*
X84200000Y-62400000D02*
X84300000Y-62500000D01*
D21*
%TO.N,Net-(D2-K)*%
X66500000Y-80300000D02*
X64000000Y-80300000D01*
%TD*%
M02*
