%TF.GenerationSoftware,KiCad,Pcbnew,7.0.7-7.0.7~ubuntu22.04.1*%
%TF.CreationDate,2023-09-19T14:51:16+02:00*%
%TF.ProjectId,kicad103,6b696361-6431-4303-932e-6b696361645f,rev?*%
%TF.SameCoordinates,Original*%
%TF.FileFunction,Copper,L3,Inr*%
%TF.FilePolarity,Positive*%
%FSLAX46Y46*%
G04 Gerber Fmt 4.6, Leading zero omitted, Abs format (unit mm)*
G04 Created by KiCad (PCBNEW 7.0.7-7.0.7~ubuntu22.04.1) date 2023-09-19 14:51:16*
%MOMM*%
%LPD*%
G01*
G04 APERTURE LIST*
%TA.AperFunction,ComponentPad*%
%ADD10R,1.700000X1.700000*%
%TD*%
%TA.AperFunction,ComponentPad*%
%ADD11O,1.700000X1.700000*%
%TD*%
%TA.AperFunction,ComponentPad*%
%ADD12C,0.900000*%
%TD*%
%TA.AperFunction,ComponentPad*%
%ADD13C,8.600000*%
%TD*%
%TA.AperFunction,ComponentPad*%
%ADD14C,1.875000*%
%TD*%
%TA.AperFunction,ComponentPad*%
%ADD15C,3.894000*%
%TD*%
%TA.AperFunction,ViaPad*%
%ADD16C,0.700000*%
%TD*%
%TA.AperFunction,ViaPad*%
%ADD17C,0.800000*%
%TD*%
G04 APERTURE END LIST*
D10*
%TO.N,PB15*%
%TO.C,J5*%
X67380000Y-52000000D03*
D11*
%TO.N,PB14*%
X69920000Y-52000000D03*
%TO.N,PB13*%
X72460000Y-52000000D03*
%TO.N,PB12*%
X75000000Y-52000000D03*
%TO.N,PB11*%
X77540000Y-52000000D03*
%TO.N,PB10*%
X80080000Y-52000000D03*
%TO.N,PB9*%
X82620000Y-52000000D03*
%TO.N,PB8*%
X85160000Y-52000000D03*
%TO.N,PB7*%
X87700000Y-52000000D03*
%TO.N,PB6*%
X90240000Y-52000000D03*
%TO.N,PB5*%
X92780000Y-52000000D03*
%TO.N,PB4*%
X95320000Y-52000000D03*
%TO.N,PB3*%
X97860000Y-52000000D03*
%TO.N,PB2*%
X100400000Y-52000000D03*
%TO.N,PB1*%
X102940000Y-52000000D03*
%TO.N,PB0*%
X105480000Y-52000000D03*
%TD*%
D10*
%TO.N,Net-(D1-A)*%
%TO.C,J2*%
X57460000Y-78000000D03*
D11*
%TO.N,GND*%
X60000000Y-78000000D03*
%TD*%
D12*
%TO.N,GND*%
%TO.C,H3*%
X54794581Y-50600000D03*
X55739162Y-48319581D03*
X55739162Y-52880419D03*
X58019581Y-47375000D03*
D13*
X58019581Y-50600000D03*
D12*
X58019581Y-53825000D03*
X60300000Y-48319581D03*
X60300000Y-52880419D03*
X61244581Y-50600000D03*
%TD*%
D10*
%TO.N,+3.3V*%
%TO.C,J7*%
X114000000Y-71080000D03*
D11*
%TO.N,PB14*%
X114000000Y-73620000D03*
%TO.N,PB13*%
X114000000Y-76160000D03*
%TO.N,GND*%
X114000000Y-78700000D03*
%TD*%
D12*
%TO.N,GND*%
%TO.C,H2*%
X117994581Y-88180419D03*
X118939162Y-85900000D03*
X118939162Y-90460838D03*
X121219581Y-84955419D03*
D13*
X121219581Y-88180419D03*
D12*
X121219581Y-91405419D03*
X123500000Y-85900000D03*
X123500000Y-90460838D03*
X124444581Y-88180419D03*
%TD*%
D10*
%TO.N,PB3*%
%TO.C,J8*%
X108600000Y-58720000D03*
D11*
%TO.N,+3.3V*%
X108600000Y-61260000D03*
%TO.N,PA13*%
X108600000Y-63800000D03*
%TO.N,PA14*%
X108600000Y-66340000D03*
%TO.N,GND*%
X108600000Y-68880000D03*
%TD*%
D10*
%TO.N,PA0*%
%TO.C,J9*%
X66220000Y-87000000D03*
D11*
%TO.N,PA1*%
X68760000Y-87000000D03*
%TO.N,PA2*%
X71300000Y-87000000D03*
%TO.N,PA3*%
X73840000Y-87000000D03*
%TO.N,PA4*%
X76380000Y-87000000D03*
%TO.N,PA5*%
X78920000Y-87000000D03*
%TO.N,PA6*%
X81460000Y-87000000D03*
%TO.N,PA7*%
X84000000Y-87000000D03*
%TO.N,PA8*%
X86540000Y-87000000D03*
%TO.N,PA9*%
X89080000Y-87000000D03*
%TO.N,PA10*%
X91620000Y-87000000D03*
%TO.N,PA13*%
X94160000Y-87000000D03*
%TO.N,PA14*%
X96700000Y-87000000D03*
%TO.N,PA15*%
X99240000Y-87000000D03*
%TO.N,PC13*%
X101780000Y-87000000D03*
%TO.N,PC14*%
X104320000Y-87000000D03*
%TO.N,PC15*%
X106860000Y-87000000D03*
%TD*%
D14*
%TO.N,unconnected-(J1-Pad5)*%
%TO.C,J1*%
X48975000Y-66750000D03*
%TO.N,unconnected-(J1-Pad6)*%
X48975000Y-71250000D03*
D15*
%TO.N,unconnected-(J1-Pad7)*%
X48975000Y-63150000D03*
%TO.N,unconnected-(J1-Pad8)*%
X48975000Y-74850000D03*
%TD*%
D12*
%TO.N,GND*%
%TO.C,H1*%
X117975000Y-49600000D03*
X118919581Y-47319581D03*
X118919581Y-51880419D03*
X121200000Y-46375000D03*
D13*
X121200000Y-49600000D03*
D12*
X121200000Y-52825000D03*
X123480419Y-47319581D03*
X123480419Y-51880419D03*
X124425000Y-49600000D03*
%TD*%
D16*
%TO.N,+3.3V*%
X92400000Y-62200000D03*
X88900000Y-76600000D03*
X110900000Y-61300000D03*
X65000000Y-67700000D03*
X79000000Y-70000000D03*
X65000000Y-59600000D03*
X100400000Y-59000000D03*
X72000000Y-65300000D03*
X64000000Y-75900000D03*
X79200000Y-63800000D03*
X68800000Y-63800000D03*
X111300000Y-71600000D03*
X80100000Y-61800000D03*
%TO.N,/USB_D-*%
X70157513Y-69650000D03*
X83549513Y-69650000D03*
%TO.N,GND*%
X111500000Y-78700000D03*
X87300000Y-76600000D03*
X82400000Y-59200000D03*
X78000000Y-61400000D03*
X74200000Y-64100000D03*
X82800000Y-67700000D03*
X106300000Y-71200000D03*
X100400000Y-60300000D03*
X78000000Y-72800000D03*
D17*
X63900000Y-70800000D03*
D16*
X74200000Y-71800000D03*
X69500000Y-65700000D03*
X100400000Y-61500000D03*
X92400000Y-66000000D03*
X76000000Y-60600000D03*
D17*
X61000000Y-80500000D03*
X54100000Y-65500000D03*
D16*
X96100000Y-69000000D03*
D17*
X58700000Y-67800000D03*
D16*
X68000000Y-75900000D03*
%TO.N,/USB_D+*%
X70157513Y-68350000D03*
X83549513Y-68350000D03*
%TO.N,PA13*%
X92900000Y-80500000D03*
X105200000Y-59000000D03*
X92900000Y-69100000D03*
%TO.N,PA14*%
X104300000Y-60300000D03*
X106100000Y-67700000D03*
%TO.N,PB3*%
X106400000Y-56100500D03*
X106400000Y-57600000D03*
%TO.N,PA15*%
X100400000Y-74800000D03*
X99600000Y-66800000D03*
X99200000Y-78200000D03*
X98100000Y-72600000D03*
%TO.N,PC14*%
X97700000Y-81600000D03*
X95800000Y-81600000D03*
X82236654Y-65900000D03*
%TO.N,PC15*%
X79398360Y-66700000D03*
%TO.N,PB15*%
X97800000Y-80600000D03*
X95300000Y-75763000D03*
X91100000Y-71700000D03*
X95800000Y-80600000D03*
X91000000Y-68800000D03*
%TO.N,PB14*%
X76200000Y-49000000D03*
X81400000Y-49000000D03*
%TO.N,PB13*%
X82000000Y-55000000D03*
X109000000Y-75000000D03*
X83900000Y-55000000D03*
%TO.N,PB12*%
X109000000Y-77000000D03*
%TO.N,PB11*%
X84000000Y-71000000D03*
X68200000Y-74400000D03*
X72100000Y-81500000D03*
X71600000Y-76300000D03*
X66500000Y-68100000D03*
X73200000Y-77800000D03*
%TO.N,PB10*%
X61200000Y-87900000D03*
X86300000Y-78400000D03*
%TO.N,PB9*%
X83050500Y-61896691D03*
%TO.N,PB8*%
X85100000Y-55800000D03*
X84125535Y-57499500D03*
%TO.N,PB7*%
X86600000Y-55900000D03*
X85600000Y-57499500D03*
%TO.N,PB6*%
X86305378Y-58605378D03*
X88000000Y-56000000D03*
%TO.N,PB5*%
X89500000Y-56100000D03*
X87600000Y-58100000D03*
%TO.N,PB4*%
X91000000Y-55700000D03*
X88955378Y-57755378D03*
%TO.N,PB2*%
X85400000Y-77500000D03*
X100400000Y-46349500D03*
X61000000Y-86200000D03*
%TO.N,PB1*%
X59900000Y-84700000D03*
D17*
X107900000Y-48300000D03*
D16*
X84300000Y-76600000D03*
X118500000Y-59000000D03*
X121500000Y-59000000D03*
%TO.N,PB0*%
X118000000Y-62000000D03*
X123000000Y-62000000D03*
X83194622Y-76494622D03*
X58000000Y-84300000D03*
%TO.N,PA1*%
X82200000Y-70000000D03*
%TO.N,PA9*%
X87400000Y-68024500D03*
X90400000Y-77900000D03*
%TO.N,Net-(D3-K)*%
X72700000Y-58800000D03*
%TO.N,PA10*%
X91600000Y-78700000D03*
X91900000Y-67500000D03*
%TO.N,Net-(J3-Pin_10)*%
X105100000Y-64100000D03*
X85000000Y-66200000D03*
%TO.N,Net-(U1-BOOT0)*%
X84050500Y-58844396D03*
D17*
%TO.N,Net-(D1-A)*%
X54600000Y-72500000D03*
D16*
%TO.N,Net-(D2-K)*%
X64000000Y-80300000D03*
%TD*%
%TA.AperFunction,Conductor*%
%TO.N,+3.3V*%
G36*
X124001620Y-44000584D02*
G01*
X124146713Y-44008189D01*
X124310288Y-44016762D01*
X124316746Y-44017440D01*
X124620419Y-44065537D01*
X124626765Y-44066886D01*
X124923759Y-44146466D01*
X124929925Y-44148468D01*
X125182163Y-44245293D01*
X125216967Y-44258653D01*
X125222898Y-44261293D01*
X125496862Y-44400885D01*
X125502467Y-44404121D01*
X125760337Y-44571584D01*
X125765585Y-44575397D01*
X126004533Y-44768893D01*
X126009359Y-44773239D01*
X126226760Y-44990640D01*
X126231106Y-44995466D01*
X126424602Y-45234414D01*
X126428417Y-45239666D01*
X126595874Y-45497526D01*
X126599117Y-45503143D01*
X126738705Y-45777099D01*
X126741346Y-45783032D01*
X126851527Y-46070064D01*
X126853533Y-46076240D01*
X126933113Y-46373234D01*
X126934463Y-46379586D01*
X126982558Y-46683252D01*
X126983237Y-46689711D01*
X126999414Y-46998377D01*
X126999499Y-47001623D01*
X126999500Y-90907290D01*
X126999500Y-90998376D01*
X126999415Y-91001622D01*
X126983237Y-91310289D01*
X126982558Y-91316747D01*
X126934463Y-91620413D01*
X126933113Y-91626765D01*
X126853533Y-91923759D01*
X126851527Y-91929935D01*
X126741346Y-92216967D01*
X126738705Y-92222900D01*
X126599117Y-92496856D01*
X126595870Y-92502480D01*
X126428419Y-92760331D01*
X126424602Y-92765585D01*
X126231106Y-93004533D01*
X126226760Y-93009359D01*
X126009359Y-93226760D01*
X126004533Y-93231106D01*
X125765585Y-93424602D01*
X125760331Y-93428419D01*
X125502480Y-93595870D01*
X125496856Y-93599117D01*
X125222900Y-93738705D01*
X125216967Y-93741346D01*
X124929935Y-93851527D01*
X124923759Y-93853533D01*
X124626765Y-93933113D01*
X124620413Y-93934463D01*
X124316747Y-93982558D01*
X124310289Y-93983237D01*
X124018862Y-93998511D01*
X124001620Y-93999415D01*
X123998377Y-93999500D01*
X58000000Y-93999500D01*
X57502881Y-93981745D01*
X57498465Y-93981429D01*
X57006066Y-93928491D01*
X57001684Y-93927861D01*
X56514322Y-93839931D01*
X56510009Y-93838992D01*
X56030147Y-93716515D01*
X56025907Y-93715270D01*
X55556032Y-93558881D01*
X55551884Y-93557334D01*
X55094352Y-93367817D01*
X55090325Y-93365978D01*
X54647473Y-93144303D01*
X54643587Y-93142181D01*
X54217688Y-92889483D01*
X54213982Y-92887102D01*
X53925605Y-92686878D01*
X53807180Y-92604654D01*
X53803636Y-92602001D01*
X53555686Y-92402191D01*
X53418016Y-92291250D01*
X53414679Y-92288358D01*
X53052227Y-91950902D01*
X53049097Y-91947772D01*
X52711641Y-91585320D01*
X52708751Y-91581985D01*
X52515390Y-91342039D01*
X52397998Y-91196363D01*
X52395345Y-91192819D01*
X52261468Y-91000000D01*
X52112892Y-90786010D01*
X52110516Y-90782311D01*
X52029093Y-90645080D01*
X51857810Y-90356397D01*
X51855696Y-90352526D01*
X51812072Y-90265377D01*
X51634021Y-89909674D01*
X51632182Y-89905647D01*
X51442665Y-89448115D01*
X51441118Y-89443967D01*
X51284724Y-88974076D01*
X51283488Y-88969870D01*
X51161001Y-88489969D01*
X51160072Y-88485697D01*
X51072135Y-87998296D01*
X51071508Y-87993933D01*
X51067958Y-87960917D01*
X51018570Y-87501534D01*
X51018255Y-87497136D01*
X51000500Y-87000000D01*
X51000500Y-86907290D01*
X51000500Y-86907289D01*
X51000500Y-84299999D01*
X57144815Y-84299999D01*
X57163503Y-84477805D01*
X57163504Y-84477807D01*
X57218747Y-84647829D01*
X57218750Y-84647835D01*
X57308141Y-84802665D01*
X57349812Y-84848946D01*
X57427764Y-84935521D01*
X57427767Y-84935523D01*
X57427770Y-84935526D01*
X57572407Y-85040612D01*
X57735733Y-85113329D01*
X57910609Y-85150500D01*
X57910610Y-85150500D01*
X58089389Y-85150500D01*
X58089391Y-85150500D01*
X58264267Y-85113329D01*
X58427593Y-85040612D01*
X58572230Y-84935526D01*
X58691859Y-84802665D01*
X58781250Y-84647835D01*
X58814370Y-84545901D01*
X58834369Y-84516654D01*
X59034640Y-84516654D01*
X59038488Y-84520186D01*
X59056250Y-84587761D01*
X59055622Y-84597174D01*
X59050298Y-84647835D01*
X59044815Y-84699999D01*
X59063503Y-84877805D01*
X59063504Y-84877807D01*
X59118747Y-85047829D01*
X59118750Y-85047835D01*
X59208141Y-85202665D01*
X59224352Y-85220669D01*
X59327764Y-85335521D01*
X59327767Y-85335523D01*
X59327770Y-85335526D01*
X59472407Y-85440612D01*
X59635733Y-85513329D01*
X59810609Y-85550500D01*
X59810610Y-85550500D01*
X59989389Y-85550500D01*
X59989391Y-85550500D01*
X60118703Y-85523013D01*
X60164263Y-85513330D01*
X60164264Y-85513329D01*
X60164267Y-85513329D01*
X60164269Y-85513327D01*
X60164897Y-85513124D01*
X60165284Y-85513112D01*
X60170624Y-85511978D01*
X60170831Y-85512953D01*
X60234738Y-85511122D01*
X60294574Y-85547197D01*
X60325408Y-85609895D01*
X60317450Y-85679310D01*
X60310614Y-85693050D01*
X60218749Y-85852167D01*
X60218747Y-85852170D01*
X60163504Y-86022192D01*
X60163503Y-86022194D01*
X60144815Y-86199999D01*
X60163503Y-86377805D01*
X60163504Y-86377807D01*
X60218747Y-86547829D01*
X60218750Y-86547835D01*
X60308141Y-86702665D01*
X60349812Y-86748946D01*
X60427764Y-86835521D01*
X60427767Y-86835523D01*
X60427770Y-86835526D01*
X60572407Y-86940612D01*
X60686915Y-86991594D01*
X60740151Y-87036843D01*
X60760473Y-87103692D01*
X60741428Y-87170916D01*
X60709365Y-87205190D01*
X60627772Y-87264471D01*
X60627770Y-87264473D01*
X60508140Y-87397336D01*
X60418750Y-87552164D01*
X60418747Y-87552170D01*
X60363504Y-87722192D01*
X60363503Y-87722194D01*
X60345038Y-87897876D01*
X60344815Y-87900000D01*
X60350857Y-87957483D01*
X60363503Y-88077805D01*
X60363504Y-88077807D01*
X60418747Y-88247829D01*
X60418750Y-88247835D01*
X60508141Y-88402665D01*
X60513560Y-88408683D01*
X60627764Y-88535521D01*
X60627767Y-88535523D01*
X60627770Y-88535526D01*
X60772407Y-88640612D01*
X60935733Y-88713329D01*
X61110609Y-88750500D01*
X61110610Y-88750500D01*
X61289389Y-88750500D01*
X61289391Y-88750500D01*
X61464267Y-88713329D01*
X61627593Y-88640612D01*
X61772230Y-88535526D01*
X61891859Y-88402665D01*
X61981250Y-88247835D01*
X62036497Y-88077803D01*
X62055185Y-87900000D01*
X62054961Y-87897870D01*
X64869500Y-87897870D01*
X64869501Y-87897876D01*
X64875908Y-87957483D01*
X64926202Y-88092328D01*
X64926206Y-88092335D01*
X65012452Y-88207544D01*
X65012455Y-88207547D01*
X65127664Y-88293793D01*
X65127671Y-88293797D01*
X65262517Y-88344091D01*
X65262516Y-88344091D01*
X65269444Y-88344835D01*
X65322127Y-88350500D01*
X67117872Y-88350499D01*
X67177483Y-88344091D01*
X67312331Y-88293796D01*
X67427546Y-88207546D01*
X67513796Y-88092331D01*
X67562810Y-87960916D01*
X67604681Y-87904984D01*
X67670145Y-87880566D01*
X67738418Y-87895417D01*
X67766673Y-87916569D01*
X67888599Y-88038495D01*
X67985384Y-88106265D01*
X68082165Y-88174032D01*
X68082167Y-88174033D01*
X68082170Y-88174035D01*
X68296337Y-88273903D01*
X68524592Y-88335063D01*
X68701034Y-88350500D01*
X68759999Y-88355659D01*
X68760000Y-88355659D01*
X68760001Y-88355659D01*
X68818966Y-88350500D01*
X68995408Y-88335063D01*
X69223663Y-88273903D01*
X69437830Y-88174035D01*
X69631401Y-88038495D01*
X69798495Y-87871401D01*
X69928426Y-87685841D01*
X69983002Y-87642217D01*
X70052500Y-87635023D01*
X70114855Y-87666546D01*
X70131575Y-87685842D01*
X70261500Y-87871395D01*
X70261505Y-87871401D01*
X70428599Y-88038495D01*
X70525384Y-88106265D01*
X70622165Y-88174032D01*
X70622167Y-88174033D01*
X70622170Y-88174035D01*
X70836337Y-88273903D01*
X71064592Y-88335063D01*
X71241034Y-88350500D01*
X71299999Y-88355659D01*
X71300000Y-88355659D01*
X71300001Y-88355659D01*
X71358966Y-88350500D01*
X71535408Y-88335063D01*
X71763663Y-88273903D01*
X71977830Y-88174035D01*
X72171401Y-88038495D01*
X72338495Y-87871401D01*
X72468426Y-87685841D01*
X72523002Y-87642217D01*
X72592500Y-87635023D01*
X72654855Y-87666546D01*
X72671575Y-87685842D01*
X72801500Y-87871395D01*
X72801505Y-87871401D01*
X72968599Y-88038495D01*
X73065384Y-88106265D01*
X73162165Y-88174032D01*
X73162167Y-88174033D01*
X73162170Y-88174035D01*
X73376337Y-88273903D01*
X73604592Y-88335063D01*
X73781034Y-88350500D01*
X73839999Y-88355659D01*
X73840000Y-88355659D01*
X73840001Y-88355659D01*
X73898966Y-88350500D01*
X74075408Y-88335063D01*
X74303663Y-88273903D01*
X74517830Y-88174035D01*
X74711401Y-88038495D01*
X74878495Y-87871401D01*
X75008426Y-87685841D01*
X75063002Y-87642217D01*
X75132500Y-87635023D01*
X75194855Y-87666546D01*
X75211575Y-87685842D01*
X75341500Y-87871395D01*
X75341505Y-87871401D01*
X75508599Y-88038495D01*
X75605384Y-88106265D01*
X75702165Y-88174032D01*
X75702167Y-88174033D01*
X75702170Y-88174035D01*
X75916337Y-88273903D01*
X76144592Y-88335063D01*
X76321034Y-88350500D01*
X76379999Y-88355659D01*
X76380000Y-88355659D01*
X76380001Y-88355659D01*
X76438966Y-88350500D01*
X76615408Y-88335063D01*
X76843663Y-88273903D01*
X77057830Y-88174035D01*
X77251401Y-88038495D01*
X77418495Y-87871401D01*
X77548426Y-87685841D01*
X77603002Y-87642217D01*
X77672500Y-87635023D01*
X77734855Y-87666546D01*
X77751575Y-87685842D01*
X77881500Y-87871395D01*
X77881505Y-87871401D01*
X78048599Y-88038495D01*
X78145384Y-88106265D01*
X78242165Y-88174032D01*
X78242167Y-88174033D01*
X78242170Y-88174035D01*
X78456337Y-88273903D01*
X78684592Y-88335063D01*
X78861034Y-88350500D01*
X78919999Y-88355659D01*
X78920000Y-88355659D01*
X78920001Y-88355659D01*
X78978966Y-88350500D01*
X79155408Y-88335063D01*
X79383663Y-88273903D01*
X79597830Y-88174035D01*
X79791401Y-88038495D01*
X79958495Y-87871401D01*
X80088426Y-87685841D01*
X80143002Y-87642217D01*
X80212500Y-87635023D01*
X80274855Y-87666546D01*
X80291575Y-87685842D01*
X80421500Y-87871395D01*
X80421505Y-87871401D01*
X80588599Y-88038495D01*
X80685384Y-88106265D01*
X80782165Y-88174032D01*
X80782167Y-88174033D01*
X80782170Y-88174035D01*
X80996337Y-88273903D01*
X81224592Y-88335063D01*
X81401034Y-88350500D01*
X81459999Y-88355659D01*
X81460000Y-88355659D01*
X81460001Y-88355659D01*
X81518966Y-88350500D01*
X81695408Y-88335063D01*
X81923663Y-88273903D01*
X82137830Y-88174035D01*
X82331401Y-88038495D01*
X82498495Y-87871401D01*
X82628426Y-87685840D01*
X82683001Y-87642217D01*
X82752499Y-87635023D01*
X82814854Y-87666546D01*
X82831574Y-87685841D01*
X82857029Y-87722194D01*
X82961505Y-87871401D01*
X83128599Y-88038495D01*
X83225384Y-88106265D01*
X83322165Y-88174032D01*
X83322167Y-88174033D01*
X83322170Y-88174035D01*
X83536337Y-88273903D01*
X83764592Y-88335063D01*
X83941034Y-88350500D01*
X83999999Y-88355659D01*
X84000000Y-88355659D01*
X84000001Y-88355659D01*
X84058966Y-88350500D01*
X84235408Y-88335063D01*
X84463663Y-88273903D01*
X84677830Y-88174035D01*
X84871401Y-88038495D01*
X85038495Y-87871401D01*
X85168426Y-87685840D01*
X85223001Y-87642217D01*
X85292499Y-87635023D01*
X85354854Y-87666546D01*
X85371574Y-87685841D01*
X85397029Y-87722194D01*
X85501505Y-87871401D01*
X85668599Y-88038495D01*
X85765384Y-88106265D01*
X85862165Y-88174032D01*
X85862167Y-88174033D01*
X85862170Y-88174035D01*
X86076337Y-88273903D01*
X86304592Y-88335063D01*
X86481034Y-88350500D01*
X86539999Y-88355659D01*
X86540000Y-88355659D01*
X86540001Y-88355659D01*
X86598966Y-88350500D01*
X86775408Y-88335063D01*
X87003663Y-88273903D01*
X87217830Y-88174035D01*
X87411401Y-88038495D01*
X87578495Y-87871401D01*
X87708426Y-87685840D01*
X87763001Y-87642217D01*
X87832499Y-87635023D01*
X87894854Y-87666546D01*
X87911574Y-87685841D01*
X87937029Y-87722194D01*
X88041505Y-87871401D01*
X88208599Y-88038495D01*
X88305384Y-88106265D01*
X88402165Y-88174032D01*
X88402167Y-88174033D01*
X88402170Y-88174035D01*
X88616337Y-88273903D01*
X88844592Y-88335063D01*
X89021034Y-88350500D01*
X89079999Y-88355659D01*
X89080000Y-88355659D01*
X89080001Y-88355659D01*
X89138966Y-88350500D01*
X89315408Y-88335063D01*
X89543663Y-88273903D01*
X89757830Y-88174035D01*
X89951401Y-88038495D01*
X90118495Y-87871401D01*
X90248426Y-87685840D01*
X90303001Y-87642217D01*
X90372499Y-87635023D01*
X90434854Y-87666546D01*
X90451574Y-87685841D01*
X90477029Y-87722194D01*
X90581505Y-87871401D01*
X90748599Y-88038495D01*
X90845384Y-88106265D01*
X90942165Y-88174032D01*
X90942167Y-88174033D01*
X90942170Y-88174035D01*
X91156337Y-88273903D01*
X91384592Y-88335063D01*
X91561034Y-88350500D01*
X91619999Y-88355659D01*
X91620000Y-88355659D01*
X91620001Y-88355659D01*
X91678966Y-88350500D01*
X91855408Y-88335063D01*
X92083663Y-88273903D01*
X92297830Y-88174035D01*
X92491401Y-88038495D01*
X92658495Y-87871401D01*
X92788426Y-87685840D01*
X92843001Y-87642217D01*
X92912499Y-87635023D01*
X92974854Y-87666546D01*
X92991574Y-87685841D01*
X93017029Y-87722194D01*
X93121505Y-87871401D01*
X93288599Y-88038495D01*
X93385384Y-88106265D01*
X93482165Y-88174032D01*
X93482167Y-88174033D01*
X93482170Y-88174035D01*
X93696337Y-88273903D01*
X93924592Y-88335063D01*
X94101034Y-88350500D01*
X94159999Y-88355659D01*
X94160000Y-88355659D01*
X94160001Y-88355659D01*
X94218966Y-88350500D01*
X94395408Y-88335063D01*
X94623663Y-88273903D01*
X94837830Y-88174035D01*
X95031401Y-88038495D01*
X95198495Y-87871401D01*
X95328426Y-87685840D01*
X95383001Y-87642217D01*
X95452499Y-87635023D01*
X95514854Y-87666546D01*
X95531574Y-87685841D01*
X95557029Y-87722194D01*
X95661505Y-87871401D01*
X95828599Y-88038495D01*
X95925384Y-88106264D01*
X96022165Y-88174032D01*
X96022167Y-88174033D01*
X96022170Y-88174035D01*
X96236337Y-88273903D01*
X96464592Y-88335063D01*
X96641034Y-88350500D01*
X96699999Y-88355659D01*
X96700000Y-88355659D01*
X96700001Y-88355659D01*
X96758966Y-88350500D01*
X96935408Y-88335063D01*
X97163663Y-88273903D01*
X97377830Y-88174035D01*
X97571401Y-88038495D01*
X97738495Y-87871401D01*
X97868426Y-87685840D01*
X97923001Y-87642217D01*
X97992499Y-87635023D01*
X98054854Y-87666546D01*
X98071574Y-87685841D01*
X98097029Y-87722194D01*
X98201505Y-87871401D01*
X98368599Y-88038495D01*
X98465384Y-88106264D01*
X98562165Y-88174032D01*
X98562167Y-88174033D01*
X98562170Y-88174035D01*
X98776337Y-88273903D01*
X99004592Y-88335063D01*
X99181034Y-88350500D01*
X99239999Y-88355659D01*
X99240000Y-88355659D01*
X99240001Y-88355659D01*
X99298966Y-88350500D01*
X99475408Y-88335063D01*
X99703663Y-88273903D01*
X99917830Y-88174035D01*
X100111401Y-88038495D01*
X100278495Y-87871401D01*
X100408426Y-87685841D01*
X100463002Y-87642217D01*
X100532500Y-87635023D01*
X100594855Y-87666546D01*
X100611575Y-87685842D01*
X100741500Y-87871395D01*
X100741505Y-87871401D01*
X100908599Y-88038495D01*
X101005384Y-88106264D01*
X101102165Y-88174032D01*
X101102167Y-88174033D01*
X101102170Y-88174035D01*
X101316337Y-88273903D01*
X101544592Y-88335063D01*
X101721034Y-88350500D01*
X101779999Y-88355659D01*
X101780000Y-88355659D01*
X101780001Y-88355659D01*
X101838966Y-88350500D01*
X102015408Y-88335063D01*
X102243663Y-88273903D01*
X102457830Y-88174035D01*
X102651401Y-88038495D01*
X102818495Y-87871401D01*
X102948426Y-87685840D01*
X103003001Y-87642217D01*
X103072499Y-87635023D01*
X103134854Y-87666546D01*
X103151574Y-87685841D01*
X103177029Y-87722194D01*
X103281505Y-87871401D01*
X103448599Y-88038495D01*
X103545384Y-88106264D01*
X103642165Y-88174032D01*
X103642167Y-88174033D01*
X103642170Y-88174035D01*
X103856337Y-88273903D01*
X104084592Y-88335063D01*
X104261034Y-88350500D01*
X104319999Y-88355659D01*
X104320000Y-88355659D01*
X104320001Y-88355659D01*
X104378966Y-88350500D01*
X104555408Y-88335063D01*
X104783663Y-88273903D01*
X104997830Y-88174035D01*
X105191401Y-88038495D01*
X105358495Y-87871401D01*
X105488426Y-87685841D01*
X105543002Y-87642217D01*
X105612500Y-87635023D01*
X105674855Y-87666546D01*
X105691575Y-87685842D01*
X105821500Y-87871395D01*
X105821505Y-87871401D01*
X105988599Y-88038495D01*
X106085384Y-88106264D01*
X106182165Y-88174032D01*
X106182167Y-88174033D01*
X106182170Y-88174035D01*
X106396337Y-88273903D01*
X106624592Y-88335063D01*
X106801034Y-88350500D01*
X106859999Y-88355659D01*
X106860000Y-88355659D01*
X106860001Y-88355659D01*
X106918966Y-88350500D01*
X107095408Y-88335063D01*
X107323663Y-88273903D01*
X107524133Y-88180422D01*
X116414242Y-88180422D01*
X116433586Y-88611156D01*
X116433586Y-88611164D01*
X116433587Y-88611166D01*
X116437576Y-88640612D01*
X116491466Y-89038446D01*
X116587411Y-89458810D01*
X116720654Y-89868891D01*
X116720657Y-89868899D01*
X116890114Y-90265366D01*
X116890118Y-90265374D01*
X116890120Y-90265377D01*
X117094444Y-90645074D01*
X117094448Y-90645080D01*
X117094448Y-90645081D01*
X117331975Y-91004920D01*
X117331985Y-91004933D01*
X117600806Y-91342026D01*
X117600818Y-91342039D01*
X117870048Y-91623631D01*
X117898791Y-91653693D01*
X118160216Y-91882094D01*
X118211496Y-91926896D01*
X118223501Y-91937384D01*
X118572334Y-92190826D01*
X118942481Y-92411979D01*
X118942484Y-92411980D01*
X118942485Y-92411981D01*
X118942487Y-92411982D01*
X119330953Y-92599058D01*
X119330967Y-92599064D01*
X119734636Y-92750563D01*
X119734640Y-92750564D01*
X119734650Y-92750568D01*
X120150292Y-92865278D01*
X120574545Y-92942269D01*
X121003990Y-92980919D01*
X121003997Y-92980919D01*
X121435165Y-92980919D01*
X121435172Y-92980919D01*
X121864617Y-92942269D01*
X122288870Y-92865278D01*
X122704512Y-92750568D01*
X123108200Y-92599062D01*
X123496681Y-92411979D01*
X123866828Y-92190826D01*
X124215661Y-91937384D01*
X124540371Y-91653693D01*
X124838345Y-91342038D01*
X125107182Y-91004926D01*
X125344718Y-90645074D01*
X125549042Y-90265377D01*
X125718507Y-89868894D01*
X125851749Y-89458816D01*
X125947696Y-89038445D01*
X126005575Y-88611166D01*
X126024920Y-88180419D01*
X126020311Y-88077803D01*
X126012231Y-87897872D01*
X126005575Y-87749672D01*
X125947696Y-87322393D01*
X125851749Y-86902022D01*
X125718507Y-86491944D01*
X125642518Y-86314158D01*
X125549047Y-86095471D01*
X125549043Y-86095463D01*
X125535372Y-86070058D01*
X125344718Y-85715764D01*
X125311168Y-85664938D01*
X125107186Y-85355917D01*
X125107176Y-85355904D01*
X124838355Y-85018811D01*
X124838343Y-85018798D01*
X124540375Y-84707149D01*
X124540374Y-84707148D01*
X124540371Y-84707145D01*
X124215661Y-84423454D01*
X124215649Y-84423445D01*
X123866837Y-84170018D01*
X123866832Y-84170015D01*
X123866828Y-84170012D01*
X123496681Y-83948859D01*
X123496676Y-83948856D01*
X123496674Y-83948855D01*
X123108208Y-83761779D01*
X123108194Y-83761773D01*
X122704525Y-83610274D01*
X122704500Y-83610266D01*
X122288876Y-83495561D01*
X121864624Y-83418570D01*
X121864621Y-83418569D01*
X121864617Y-83418569D01*
X121435172Y-83379919D01*
X121003990Y-83379919D01*
X120574545Y-83418569D01*
X120574541Y-83418569D01*
X120574537Y-83418570D01*
X120150285Y-83495561D01*
X119734661Y-83610266D01*
X119734636Y-83610274D01*
X119330967Y-83761773D01*
X119330953Y-83761779D01*
X118942487Y-83948855D01*
X118942485Y-83948856D01*
X118572324Y-84170018D01*
X118223512Y-84423445D01*
X118223495Y-84423458D01*
X117898791Y-84707145D01*
X117898786Y-84707149D01*
X117600818Y-85018798D01*
X117600806Y-85018811D01*
X117331985Y-85355904D01*
X117331975Y-85355917D01*
X117094448Y-85715756D01*
X117094448Y-85715757D01*
X116890118Y-86095463D01*
X116890114Y-86095471D01*
X116720657Y-86491938D01*
X116720654Y-86491946D01*
X116587411Y-86902027D01*
X116491466Y-87322391D01*
X116433587Y-87749672D01*
X116433586Y-87749681D01*
X116414242Y-88180415D01*
X116414242Y-88180422D01*
X107524133Y-88180422D01*
X107537830Y-88174035D01*
X107731401Y-88038495D01*
X107898495Y-87871401D01*
X108034035Y-87677830D01*
X108133903Y-87463663D01*
X108195063Y-87235408D01*
X108215659Y-87000000D01*
X108214923Y-86991593D01*
X108201269Y-86835523D01*
X108195063Y-86764592D01*
X108133903Y-86536337D01*
X108034035Y-86322171D01*
X108028425Y-86314158D01*
X107898494Y-86128597D01*
X107731402Y-85961506D01*
X107731395Y-85961501D01*
X107537834Y-85825967D01*
X107537830Y-85825965D01*
X107537830Y-85825964D01*
X107323663Y-85726097D01*
X107323659Y-85726096D01*
X107323655Y-85726094D01*
X107095413Y-85664938D01*
X107095403Y-85664936D01*
X106860001Y-85644341D01*
X106859999Y-85644341D01*
X106624596Y-85664936D01*
X106624586Y-85664938D01*
X106396344Y-85726094D01*
X106396335Y-85726098D01*
X106182171Y-85825964D01*
X106182169Y-85825965D01*
X105988597Y-85961505D01*
X105821505Y-86128597D01*
X105691575Y-86314158D01*
X105636998Y-86357783D01*
X105567500Y-86364977D01*
X105505145Y-86333454D01*
X105488425Y-86314158D01*
X105358494Y-86128597D01*
X105191402Y-85961506D01*
X105191395Y-85961501D01*
X104997834Y-85825967D01*
X104997830Y-85825965D01*
X104997829Y-85825964D01*
X104783663Y-85726097D01*
X104783659Y-85726096D01*
X104783655Y-85726094D01*
X104555413Y-85664938D01*
X104555403Y-85664936D01*
X104320001Y-85644341D01*
X104319999Y-85644341D01*
X104084596Y-85664936D01*
X104084586Y-85664938D01*
X103856344Y-85726094D01*
X103856335Y-85726098D01*
X103642171Y-85825964D01*
X103642169Y-85825965D01*
X103448597Y-85961505D01*
X103281505Y-86128597D01*
X103151575Y-86314158D01*
X103096998Y-86357783D01*
X103027500Y-86364977D01*
X102965145Y-86333454D01*
X102948425Y-86314158D01*
X102818494Y-86128597D01*
X102651402Y-85961506D01*
X102651395Y-85961501D01*
X102457834Y-85825967D01*
X102457830Y-85825965D01*
X102457830Y-85825964D01*
X102243663Y-85726097D01*
X102243659Y-85726096D01*
X102243655Y-85726094D01*
X102015413Y-85664938D01*
X102015403Y-85664936D01*
X101780001Y-85644341D01*
X101779999Y-85644341D01*
X101544596Y-85664936D01*
X101544586Y-85664938D01*
X101316344Y-85726094D01*
X101316335Y-85726098D01*
X101102171Y-85825964D01*
X101102169Y-85825965D01*
X100908597Y-85961505D01*
X100741505Y-86128597D01*
X100611575Y-86314158D01*
X100556998Y-86357783D01*
X100487500Y-86364977D01*
X100425145Y-86333454D01*
X100408425Y-86314158D01*
X100278494Y-86128597D01*
X100111402Y-85961506D01*
X100111395Y-85961501D01*
X99917834Y-85825967D01*
X99917830Y-85825965D01*
X99917830Y-85825964D01*
X99703663Y-85726097D01*
X99703659Y-85726096D01*
X99703655Y-85726094D01*
X99475413Y-85664938D01*
X99475403Y-85664936D01*
X99240001Y-85644341D01*
X99239999Y-85644341D01*
X99004596Y-85664936D01*
X99004586Y-85664938D01*
X98776344Y-85726094D01*
X98776335Y-85726098D01*
X98562171Y-85825964D01*
X98562169Y-85825965D01*
X98368597Y-85961505D01*
X98201505Y-86128597D01*
X98071575Y-86314158D01*
X98016998Y-86357783D01*
X97947500Y-86364977D01*
X97885145Y-86333454D01*
X97868425Y-86314158D01*
X97738494Y-86128597D01*
X97571402Y-85961506D01*
X97571395Y-85961501D01*
X97377834Y-85825967D01*
X97377830Y-85825965D01*
X97377829Y-85825964D01*
X97163663Y-85726097D01*
X97163659Y-85726096D01*
X97163655Y-85726094D01*
X96935413Y-85664938D01*
X96935403Y-85664936D01*
X96700001Y-85644341D01*
X96699999Y-85644341D01*
X96464596Y-85664936D01*
X96464586Y-85664938D01*
X96236344Y-85726094D01*
X96236335Y-85726098D01*
X96022171Y-85825964D01*
X96022169Y-85825965D01*
X95828597Y-85961505D01*
X95661505Y-86128597D01*
X95531575Y-86314158D01*
X95476998Y-86357783D01*
X95407500Y-86364977D01*
X95345145Y-86333454D01*
X95328425Y-86314158D01*
X95198494Y-86128597D01*
X95031402Y-85961506D01*
X95031395Y-85961501D01*
X94837834Y-85825967D01*
X94837830Y-85825965D01*
X94837830Y-85825964D01*
X94623663Y-85726097D01*
X94623659Y-85726096D01*
X94623655Y-85726094D01*
X94395413Y-85664938D01*
X94395403Y-85664936D01*
X94160001Y-85644341D01*
X94159999Y-85644341D01*
X93924596Y-85664936D01*
X93924586Y-85664938D01*
X93696344Y-85726094D01*
X93696335Y-85726098D01*
X93482171Y-85825964D01*
X93482169Y-85825965D01*
X93288597Y-85961505D01*
X93121505Y-86128597D01*
X92991575Y-86314158D01*
X92936998Y-86357783D01*
X92867500Y-86364977D01*
X92805145Y-86333454D01*
X92788425Y-86314158D01*
X92658494Y-86128597D01*
X92491402Y-85961506D01*
X92491395Y-85961501D01*
X92297834Y-85825967D01*
X92297830Y-85825965D01*
X92297829Y-85825964D01*
X92083663Y-85726097D01*
X92083659Y-85726096D01*
X92083655Y-85726094D01*
X91855413Y-85664938D01*
X91855403Y-85664936D01*
X91620001Y-85644341D01*
X91619999Y-85644341D01*
X91384596Y-85664936D01*
X91384586Y-85664938D01*
X91156344Y-85726094D01*
X91156335Y-85726098D01*
X90942171Y-85825964D01*
X90942169Y-85825965D01*
X90748597Y-85961505D01*
X90581505Y-86128597D01*
X90451575Y-86314158D01*
X90396998Y-86357783D01*
X90327500Y-86364977D01*
X90265145Y-86333454D01*
X90248425Y-86314158D01*
X90118494Y-86128597D01*
X89951402Y-85961506D01*
X89951395Y-85961501D01*
X89757834Y-85825967D01*
X89757830Y-85825965D01*
X89757829Y-85825964D01*
X89543663Y-85726097D01*
X89543659Y-85726096D01*
X89543655Y-85726094D01*
X89315413Y-85664938D01*
X89315403Y-85664936D01*
X89080001Y-85644341D01*
X89079999Y-85644341D01*
X88844596Y-85664936D01*
X88844586Y-85664938D01*
X88616344Y-85726094D01*
X88616335Y-85726098D01*
X88402171Y-85825964D01*
X88402169Y-85825965D01*
X88208597Y-85961505D01*
X88041508Y-86128594D01*
X87911574Y-86314159D01*
X87856997Y-86357784D01*
X87787498Y-86364976D01*
X87725144Y-86333454D01*
X87708424Y-86314158D01*
X87578494Y-86128597D01*
X87411402Y-85961506D01*
X87411395Y-85961501D01*
X87217834Y-85825967D01*
X87217830Y-85825965D01*
X87217830Y-85825964D01*
X87003663Y-85726097D01*
X87003659Y-85726096D01*
X87003655Y-85726094D01*
X86775413Y-85664938D01*
X86775403Y-85664936D01*
X86540001Y-85644341D01*
X86539999Y-85644341D01*
X86304596Y-85664936D01*
X86304586Y-85664938D01*
X86076344Y-85726094D01*
X86076335Y-85726098D01*
X85862171Y-85825964D01*
X85862169Y-85825965D01*
X85668597Y-85961505D01*
X85501505Y-86128597D01*
X85371575Y-86314158D01*
X85316998Y-86357783D01*
X85247500Y-86364977D01*
X85185145Y-86333454D01*
X85168425Y-86314158D01*
X85038494Y-86128597D01*
X84871402Y-85961506D01*
X84871395Y-85961501D01*
X84677834Y-85825967D01*
X84677830Y-85825965D01*
X84677829Y-85825964D01*
X84463663Y-85726097D01*
X84463659Y-85726096D01*
X84463655Y-85726094D01*
X84235413Y-85664938D01*
X84235403Y-85664936D01*
X84000001Y-85644341D01*
X83999999Y-85644341D01*
X83764596Y-85664936D01*
X83764586Y-85664938D01*
X83536344Y-85726094D01*
X83536335Y-85726098D01*
X83322171Y-85825964D01*
X83322169Y-85825965D01*
X83128597Y-85961505D01*
X82961505Y-86128597D01*
X82831575Y-86314158D01*
X82776998Y-86357783D01*
X82707500Y-86364977D01*
X82645145Y-86333454D01*
X82628425Y-86314158D01*
X82498494Y-86128597D01*
X82331402Y-85961506D01*
X82331395Y-85961501D01*
X82137834Y-85825967D01*
X82137830Y-85825965D01*
X82137830Y-85825964D01*
X81923663Y-85726097D01*
X81923659Y-85726096D01*
X81923655Y-85726094D01*
X81695413Y-85664938D01*
X81695403Y-85664936D01*
X81460001Y-85644341D01*
X81459999Y-85644341D01*
X81224596Y-85664936D01*
X81224586Y-85664938D01*
X80996344Y-85726094D01*
X80996335Y-85726098D01*
X80782171Y-85825964D01*
X80782169Y-85825965D01*
X80588597Y-85961505D01*
X80421505Y-86128597D01*
X80291575Y-86314158D01*
X80236998Y-86357783D01*
X80167500Y-86364977D01*
X80105145Y-86333454D01*
X80088425Y-86314158D01*
X79958494Y-86128597D01*
X79791402Y-85961506D01*
X79791395Y-85961501D01*
X79597834Y-85825967D01*
X79597830Y-85825965D01*
X79597830Y-85825964D01*
X79383663Y-85726097D01*
X79383659Y-85726096D01*
X79383655Y-85726094D01*
X79155413Y-85664938D01*
X79155403Y-85664936D01*
X78920001Y-85644341D01*
X78919999Y-85644341D01*
X78684596Y-85664936D01*
X78684586Y-85664938D01*
X78456344Y-85726094D01*
X78456335Y-85726098D01*
X78242171Y-85825964D01*
X78242169Y-85825965D01*
X78048597Y-85961505D01*
X77881505Y-86128597D01*
X77751575Y-86314158D01*
X77696998Y-86357783D01*
X77627500Y-86364977D01*
X77565145Y-86333454D01*
X77548425Y-86314158D01*
X77418494Y-86128597D01*
X77251402Y-85961506D01*
X77251395Y-85961501D01*
X77057834Y-85825967D01*
X77057830Y-85825965D01*
X77057829Y-85825964D01*
X76843663Y-85726097D01*
X76843659Y-85726096D01*
X76843655Y-85726094D01*
X76615413Y-85664938D01*
X76615403Y-85664936D01*
X76380001Y-85644341D01*
X76379999Y-85644341D01*
X76144596Y-85664936D01*
X76144586Y-85664938D01*
X75916344Y-85726094D01*
X75916335Y-85726098D01*
X75702171Y-85825964D01*
X75702169Y-85825965D01*
X75508597Y-85961505D01*
X75341505Y-86128597D01*
X75211575Y-86314158D01*
X75156998Y-86357783D01*
X75087500Y-86364977D01*
X75025145Y-86333454D01*
X75008425Y-86314158D01*
X74878494Y-86128597D01*
X74711402Y-85961506D01*
X74711395Y-85961501D01*
X74517834Y-85825967D01*
X74517830Y-85825965D01*
X74517829Y-85825964D01*
X74303663Y-85726097D01*
X74303659Y-85726096D01*
X74303655Y-85726094D01*
X74075413Y-85664938D01*
X74075403Y-85664936D01*
X73840001Y-85644341D01*
X73839999Y-85644341D01*
X73604596Y-85664936D01*
X73604586Y-85664938D01*
X73376344Y-85726094D01*
X73376335Y-85726098D01*
X73162171Y-85825964D01*
X73162169Y-85825965D01*
X72968597Y-85961505D01*
X72801505Y-86128597D01*
X72671575Y-86314158D01*
X72616998Y-86357783D01*
X72547500Y-86364977D01*
X72485145Y-86333454D01*
X72468425Y-86314158D01*
X72338494Y-86128597D01*
X72171402Y-85961506D01*
X72171395Y-85961501D01*
X71977834Y-85825967D01*
X71977830Y-85825965D01*
X71977829Y-85825964D01*
X71763663Y-85726097D01*
X71763659Y-85726096D01*
X71763655Y-85726094D01*
X71535413Y-85664938D01*
X71535403Y-85664936D01*
X71300001Y-85644341D01*
X71299999Y-85644341D01*
X71064596Y-85664936D01*
X71064586Y-85664938D01*
X70836344Y-85726094D01*
X70836335Y-85726098D01*
X70622171Y-85825964D01*
X70622169Y-85825965D01*
X70428597Y-85961505D01*
X70261505Y-86128597D01*
X70131575Y-86314158D01*
X70076998Y-86357783D01*
X70007500Y-86364977D01*
X69945145Y-86333454D01*
X69928425Y-86314158D01*
X69798494Y-86128597D01*
X69631402Y-85961506D01*
X69631395Y-85961501D01*
X69437834Y-85825967D01*
X69437830Y-85825965D01*
X69437830Y-85825964D01*
X69223663Y-85726097D01*
X69223659Y-85726096D01*
X69223655Y-85726094D01*
X68995413Y-85664938D01*
X68995403Y-85664936D01*
X68760001Y-85644341D01*
X68759999Y-85644341D01*
X68524596Y-85664936D01*
X68524586Y-85664938D01*
X68296344Y-85726094D01*
X68296335Y-85726098D01*
X68082171Y-85825964D01*
X68082169Y-85825965D01*
X67888600Y-85961503D01*
X67766673Y-86083430D01*
X67705350Y-86116914D01*
X67635658Y-86111930D01*
X67579725Y-86070058D01*
X67562810Y-86039081D01*
X67513797Y-85907671D01*
X67513793Y-85907664D01*
X67427547Y-85792455D01*
X67427544Y-85792452D01*
X67312335Y-85706206D01*
X67312328Y-85706202D01*
X67177482Y-85655908D01*
X67177483Y-85655908D01*
X67117883Y-85649501D01*
X67117881Y-85649500D01*
X67117873Y-85649500D01*
X67117864Y-85649500D01*
X65322129Y-85649500D01*
X65322123Y-85649501D01*
X65262516Y-85655908D01*
X65127671Y-85706202D01*
X65127664Y-85706206D01*
X65012455Y-85792452D01*
X65012452Y-85792455D01*
X64926206Y-85907664D01*
X64926202Y-85907671D01*
X64875908Y-86042517D01*
X64869501Y-86102116D01*
X64869500Y-86102135D01*
X64869500Y-87897870D01*
X62054961Y-87897870D01*
X62036497Y-87722197D01*
X61981250Y-87552165D01*
X61891859Y-87397335D01*
X61824379Y-87322391D01*
X61772235Y-87264478D01*
X61772232Y-87264476D01*
X61772231Y-87264475D01*
X61772230Y-87264474D01*
X61627593Y-87159388D01*
X61627592Y-87159387D01*
X61513084Y-87108405D01*
X61459847Y-87063155D01*
X61439526Y-86996306D01*
X61458571Y-86929082D01*
X61490632Y-86894810D01*
X61572230Y-86835526D01*
X61691859Y-86702665D01*
X61781250Y-86547835D01*
X61836497Y-86377803D01*
X61855185Y-86200000D01*
X61836497Y-86022197D01*
X61799285Y-85907671D01*
X61781252Y-85852170D01*
X61781250Y-85852167D01*
X61781250Y-85852165D01*
X61691859Y-85697335D01*
X61644143Y-85644341D01*
X61572235Y-85564478D01*
X61572232Y-85564476D01*
X61572231Y-85564475D01*
X61572230Y-85564474D01*
X61427593Y-85459388D01*
X61264267Y-85386671D01*
X61264265Y-85386670D01*
X61136594Y-85359533D01*
X61089391Y-85349500D01*
X60910609Y-85349500D01*
X60866890Y-85358792D01*
X60735730Y-85386671D01*
X60735082Y-85386882D01*
X60734686Y-85386893D01*
X60729376Y-85388022D01*
X60729169Y-85387050D01*
X60665240Y-85388872D01*
X60605410Y-85352786D01*
X60574587Y-85290083D01*
X60582558Y-85220669D01*
X60589386Y-85206948D01*
X60621976Y-85150500D01*
X60681250Y-85047835D01*
X60736497Y-84877803D01*
X60755185Y-84700000D01*
X60736497Y-84522197D01*
X60681250Y-84352165D01*
X60591859Y-84197335D01*
X60545003Y-84145296D01*
X60472235Y-84064478D01*
X60472232Y-84064476D01*
X60472231Y-84064475D01*
X60472230Y-84064474D01*
X60327593Y-83959388D01*
X60164267Y-83886671D01*
X60164265Y-83886670D01*
X60036594Y-83859533D01*
X59989391Y-83849500D01*
X59810609Y-83849500D01*
X59779954Y-83856015D01*
X59635733Y-83886670D01*
X59635728Y-83886672D01*
X59472408Y-83959387D01*
X59327768Y-84064475D01*
X59208140Y-84197336D01*
X59118750Y-84352164D01*
X59118748Y-84352168D01*
X59085629Y-84454098D01*
X59046191Y-84511773D01*
X59034640Y-84516654D01*
X58834369Y-84516654D01*
X58853807Y-84488227D01*
X58865359Y-84483344D01*
X58861510Y-84479811D01*
X58843749Y-84412237D01*
X58844374Y-84402855D01*
X58855185Y-84300000D01*
X58836497Y-84122197D01*
X58808873Y-84037180D01*
X58781252Y-83952170D01*
X58781249Y-83952164D01*
X58779341Y-83948859D01*
X58691859Y-83797335D01*
X58645003Y-83745296D01*
X58572235Y-83664478D01*
X58572232Y-83664476D01*
X58572231Y-83664475D01*
X58572230Y-83664474D01*
X58427593Y-83559388D01*
X58264267Y-83486671D01*
X58264265Y-83486670D01*
X58136594Y-83459533D01*
X58089391Y-83449500D01*
X57910609Y-83449500D01*
X57879954Y-83456015D01*
X57735733Y-83486670D01*
X57735728Y-83486672D01*
X57572408Y-83559387D01*
X57427768Y-83664475D01*
X57308140Y-83797336D01*
X57218750Y-83952164D01*
X57218747Y-83952170D01*
X57163504Y-84122192D01*
X57163503Y-84122194D01*
X57144815Y-84299999D01*
X51000500Y-84299999D01*
X51000500Y-81949258D01*
X51000500Y-81949257D01*
X51000500Y-81842750D01*
X50967626Y-81529974D01*
X50961255Y-81499999D01*
X71244815Y-81499999D01*
X71263503Y-81677805D01*
X71263504Y-81677807D01*
X71318747Y-81847829D01*
X71318750Y-81847835D01*
X71408141Y-82002665D01*
X71449812Y-82048946D01*
X71527764Y-82135521D01*
X71527767Y-82135523D01*
X71527770Y-82135526D01*
X71672407Y-82240612D01*
X71835733Y-82313329D01*
X72010609Y-82350500D01*
X72010610Y-82350500D01*
X72189389Y-82350500D01*
X72189391Y-82350500D01*
X72364267Y-82313329D01*
X72527593Y-82240612D01*
X72672230Y-82135526D01*
X72791859Y-82002665D01*
X72881250Y-81847835D01*
X72936497Y-81677803D01*
X72944674Y-81600000D01*
X94944815Y-81600000D01*
X94963503Y-81777805D01*
X94963504Y-81777807D01*
X95018747Y-81947829D01*
X95018750Y-81947835D01*
X95108141Y-82102665D01*
X95149812Y-82148946D01*
X95227764Y-82235521D01*
X95227767Y-82235523D01*
X95227770Y-82235526D01*
X95372407Y-82340612D01*
X95535733Y-82413329D01*
X95710609Y-82450500D01*
X95710610Y-82450500D01*
X95889389Y-82450500D01*
X95889391Y-82450500D01*
X96064267Y-82413329D01*
X96227593Y-82340612D01*
X96372230Y-82235526D01*
X96491859Y-82102665D01*
X96581250Y-81947835D01*
X96632069Y-81791429D01*
X96671506Y-81733755D01*
X96735865Y-81706556D01*
X96804711Y-81718470D01*
X96856187Y-81765714D01*
X96867931Y-81791430D01*
X96918747Y-81947829D01*
X96918750Y-81947835D01*
X97008141Y-82102665D01*
X97049812Y-82148946D01*
X97127764Y-82235521D01*
X97127767Y-82235523D01*
X97127770Y-82235526D01*
X97272407Y-82340612D01*
X97435733Y-82413329D01*
X97610609Y-82450500D01*
X97610610Y-82450500D01*
X97789389Y-82450500D01*
X97789391Y-82450500D01*
X97964267Y-82413329D01*
X98127593Y-82340612D01*
X98272230Y-82235526D01*
X98391859Y-82102665D01*
X98481250Y-81947835D01*
X98536497Y-81777803D01*
X98555185Y-81600000D01*
X98536497Y-81422197D01*
X98504003Y-81322192D01*
X98481252Y-81252170D01*
X98481249Y-81252164D01*
X98481248Y-81252163D01*
X98477846Y-81246270D01*
X98461377Y-81178370D01*
X98484231Y-81112344D01*
X98490555Y-81104459D01*
X98491855Y-81102669D01*
X98491859Y-81102665D01*
X98581250Y-80947835D01*
X98636497Y-80777803D01*
X98655185Y-80600000D01*
X98636497Y-80422197D01*
X98604003Y-80322192D01*
X98581252Y-80252170D01*
X98581249Y-80252164D01*
X98491859Y-80097335D01*
X98435787Y-80035061D01*
X98372235Y-79964478D01*
X98372232Y-79964476D01*
X98372231Y-79964475D01*
X98372230Y-79964474D01*
X98227593Y-79859388D01*
X98064267Y-79786671D01*
X98064265Y-79786670D01*
X97935906Y-79759387D01*
X97889391Y-79749500D01*
X97710609Y-79749500D01*
X97679954Y-79756015D01*
X97535733Y-79786670D01*
X97535728Y-79786672D01*
X97372408Y-79859387D01*
X97227768Y-79964475D01*
X97108140Y-80097336D01*
X97018750Y-80252164D01*
X97018747Y-80252170D01*
X96963504Y-80422192D01*
X96963503Y-80422194D01*
X96944815Y-80599999D01*
X96963503Y-80777805D01*
X96963504Y-80777807D01*
X97018750Y-80947836D01*
X97022152Y-80953729D01*
X97038622Y-81021630D01*
X97015768Y-81087656D01*
X97009437Y-81095551D01*
X97008138Y-81097338D01*
X96918750Y-81252164D01*
X96918747Y-81252170D01*
X96867931Y-81408569D01*
X96828494Y-81466245D01*
X96764135Y-81493443D01*
X96695289Y-81481528D01*
X96643813Y-81434284D01*
X96632069Y-81408569D01*
X96581252Y-81252170D01*
X96581251Y-81252169D01*
X96581250Y-81252165D01*
X96529190Y-81161996D01*
X96512719Y-81094101D01*
X96529190Y-81038004D01*
X96581250Y-80947835D01*
X96636497Y-80777803D01*
X96655185Y-80600000D01*
X96636497Y-80422197D01*
X96604003Y-80322192D01*
X96581252Y-80252170D01*
X96581249Y-80252164D01*
X96491859Y-80097335D01*
X96435787Y-80035061D01*
X96372235Y-79964478D01*
X96372232Y-79964476D01*
X96372231Y-79964475D01*
X96372230Y-79964474D01*
X96227593Y-79859388D01*
X96064267Y-79786671D01*
X96064265Y-79786670D01*
X95935906Y-79759387D01*
X95889391Y-79749500D01*
X95710609Y-79749500D01*
X95679954Y-79756015D01*
X95535733Y-79786670D01*
X95535728Y-79786672D01*
X95372408Y-79859387D01*
X95227768Y-79964475D01*
X95108140Y-80097336D01*
X95018750Y-80252164D01*
X95018747Y-80252170D01*
X94963504Y-80422192D01*
X94963503Y-80422194D01*
X94944815Y-80600000D01*
X94963503Y-80777805D01*
X94963504Y-80777807D01*
X95018750Y-80947836D01*
X95070806Y-81038000D01*
X95087279Y-81105900D01*
X95070806Y-81162000D01*
X95018750Y-81252163D01*
X94963504Y-81422192D01*
X94963503Y-81422194D01*
X94944815Y-81600000D01*
X72944674Y-81600000D01*
X72955185Y-81500000D01*
X72936497Y-81322197D01*
X72889765Y-81178370D01*
X72881252Y-81152170D01*
X72881249Y-81152164D01*
X72791859Y-80997335D01*
X72725151Y-80923248D01*
X72672235Y-80864478D01*
X72672232Y-80864476D01*
X72672231Y-80864475D01*
X72672230Y-80864474D01*
X72527593Y-80759388D01*
X72364267Y-80686671D01*
X72364265Y-80686670D01*
X72236594Y-80659533D01*
X72189391Y-80649500D01*
X72010609Y-80649500D01*
X71979954Y-80656015D01*
X71835733Y-80686670D01*
X71835728Y-80686672D01*
X71672408Y-80759387D01*
X71527768Y-80864475D01*
X71408140Y-80997336D01*
X71318750Y-81152164D01*
X71318747Y-81152170D01*
X71263504Y-81322192D01*
X71263503Y-81322194D01*
X71244815Y-81499999D01*
X50961255Y-81499999D01*
X50902238Y-81222348D01*
X50805053Y-80923241D01*
X50677134Y-80635932D01*
X50677131Y-80635928D01*
X50677130Y-80635924D01*
X50598654Y-80500000D01*
X60094540Y-80500000D01*
X60114326Y-80688256D01*
X60114327Y-80688259D01*
X60172818Y-80868277D01*
X60172821Y-80868284D01*
X60267467Y-81032216D01*
X60360488Y-81135526D01*
X60394129Y-81172888D01*
X60547265Y-81284148D01*
X60547270Y-81284151D01*
X60720192Y-81361142D01*
X60720197Y-81361144D01*
X60905354Y-81400500D01*
X60905355Y-81400500D01*
X61094644Y-81400500D01*
X61094646Y-81400500D01*
X61279803Y-81361144D01*
X61452730Y-81284151D01*
X61605871Y-81172888D01*
X61732533Y-81032216D01*
X61827179Y-80868284D01*
X61885674Y-80688256D01*
X61905460Y-80500000D01*
X61885674Y-80311744D01*
X61881858Y-80300000D01*
X63144815Y-80300000D01*
X63163503Y-80477805D01*
X63163504Y-80477807D01*
X63218747Y-80647829D01*
X63218750Y-80647835D01*
X63308141Y-80802665D01*
X63348807Y-80847829D01*
X63427764Y-80935521D01*
X63427767Y-80935523D01*
X63427770Y-80935526D01*
X63572407Y-81040612D01*
X63735733Y-81113329D01*
X63910609Y-81150500D01*
X63910610Y-81150500D01*
X64089389Y-81150500D01*
X64089391Y-81150500D01*
X64264267Y-81113329D01*
X64427593Y-81040612D01*
X64572230Y-80935526D01*
X64691859Y-80802665D01*
X64781250Y-80647835D01*
X64829285Y-80499999D01*
X92044815Y-80499999D01*
X92063503Y-80677805D01*
X92063504Y-80677807D01*
X92118747Y-80847829D01*
X92118750Y-80847835D01*
X92208141Y-81002665D01*
X92234327Y-81031747D01*
X92327764Y-81135521D01*
X92327767Y-81135523D01*
X92327770Y-81135526D01*
X92472407Y-81240612D01*
X92635733Y-81313329D01*
X92810609Y-81350500D01*
X92810610Y-81350500D01*
X92989389Y-81350500D01*
X92989391Y-81350500D01*
X93164267Y-81313329D01*
X93327593Y-81240612D01*
X93472230Y-81135526D01*
X93591859Y-81002665D01*
X93681250Y-80847835D01*
X93736497Y-80677803D01*
X93755185Y-80500000D01*
X93736497Y-80322197D01*
X93681250Y-80152165D01*
X93591859Y-79997335D01*
X93545003Y-79945296D01*
X93472235Y-79864478D01*
X93472232Y-79864476D01*
X93472231Y-79864475D01*
X93472230Y-79864474D01*
X93327593Y-79759388D01*
X93164267Y-79686671D01*
X93164265Y-79686670D01*
X93036594Y-79659533D01*
X92989391Y-79649500D01*
X92810609Y-79649500D01*
X92779954Y-79656015D01*
X92635733Y-79686670D01*
X92635728Y-79686672D01*
X92472408Y-79759387D01*
X92327768Y-79864475D01*
X92208140Y-79997336D01*
X92118750Y-80152164D01*
X92118747Y-80152170D01*
X92063504Y-80322192D01*
X92063503Y-80322194D01*
X92044815Y-80499999D01*
X64829285Y-80499999D01*
X64836497Y-80477803D01*
X64855185Y-80300000D01*
X64836497Y-80122197D01*
X64788313Y-79973903D01*
X64781252Y-79952170D01*
X64781249Y-79952164D01*
X64691859Y-79797335D01*
X64638877Y-79738493D01*
X64572235Y-79664478D01*
X64572232Y-79664476D01*
X64572231Y-79664475D01*
X64572230Y-79664474D01*
X64427593Y-79559388D01*
X64264267Y-79486671D01*
X64264265Y-79486670D01*
X64136594Y-79459533D01*
X64089391Y-79449500D01*
X63910609Y-79449500D01*
X63879954Y-79456015D01*
X63735733Y-79486670D01*
X63735728Y-79486672D01*
X63572408Y-79559387D01*
X63427768Y-79664475D01*
X63308140Y-79797336D01*
X63218750Y-79952164D01*
X63218747Y-79952170D01*
X63163504Y-80122192D01*
X63163503Y-80122194D01*
X63144815Y-80300000D01*
X61881858Y-80300000D01*
X61827179Y-80131716D01*
X61732533Y-79967784D01*
X61605871Y-79827112D01*
X61564888Y-79797336D01*
X61452734Y-79715851D01*
X61452729Y-79715848D01*
X61279807Y-79638857D01*
X61279802Y-79638855D01*
X61134001Y-79607865D01*
X61094646Y-79599500D01*
X60905354Y-79599500D01*
X60872897Y-79606398D01*
X60720197Y-79638855D01*
X60720192Y-79638857D01*
X60547270Y-79715848D01*
X60547265Y-79715851D01*
X60394129Y-79827111D01*
X60267466Y-79967785D01*
X60172821Y-80131715D01*
X60172818Y-80131722D01*
X60118142Y-80299999D01*
X60114326Y-80311744D01*
X60108879Y-80363571D01*
X60096873Y-80477807D01*
X60094540Y-80500000D01*
X50598654Y-80500000D01*
X50519887Y-80363571D01*
X50519884Y-80363566D01*
X50335032Y-80109139D01*
X50335025Y-80109130D01*
X50213267Y-79973905D01*
X50124586Y-79875414D01*
X49972522Y-79738495D01*
X49890869Y-79664974D01*
X49890860Y-79664967D01*
X49636433Y-79480115D01*
X49636428Y-79480112D01*
X49364075Y-79322869D01*
X49364068Y-79322866D01*
X49254100Y-79273905D01*
X49076759Y-79194947D01*
X49076754Y-79194945D01*
X49076751Y-79194944D01*
X48777649Y-79097761D01*
X48777647Y-79097760D01*
X48498823Y-79038495D01*
X48470026Y-79032374D01*
X48157250Y-78999500D01*
X48157245Y-78999500D01*
X48002707Y-78999500D01*
X47997304Y-78999264D01*
X47963442Y-78996301D01*
X47837246Y-78985260D01*
X47815961Y-78981507D01*
X47668630Y-78942030D01*
X47648318Y-78934637D01*
X47569471Y-78897870D01*
X56109500Y-78897870D01*
X56109501Y-78897876D01*
X56115908Y-78957483D01*
X56166202Y-79092328D01*
X56166206Y-79092335D01*
X56252452Y-79207544D01*
X56252455Y-79207547D01*
X56367664Y-79293793D01*
X56367671Y-79293797D01*
X56502517Y-79344091D01*
X56502516Y-79344091D01*
X56509444Y-79344835D01*
X56562127Y-79350500D01*
X58357872Y-79350499D01*
X58417483Y-79344091D01*
X58552331Y-79293796D01*
X58667546Y-79207546D01*
X58753796Y-79092331D01*
X58802810Y-78960916D01*
X58844681Y-78904984D01*
X58910145Y-78880566D01*
X58978418Y-78895417D01*
X59006673Y-78916569D01*
X59128599Y-79038495D01*
X59213238Y-79097760D01*
X59322165Y-79174032D01*
X59322167Y-79174033D01*
X59322170Y-79174035D01*
X59536337Y-79273903D01*
X59764592Y-79335063D01*
X59941034Y-79350500D01*
X59999999Y-79355659D01*
X60000000Y-79355659D01*
X60000001Y-79355659D01*
X60058966Y-79350500D01*
X60235408Y-79335063D01*
X60463663Y-79273903D01*
X60677830Y-79174035D01*
X60871401Y-79038495D01*
X61038495Y-78871401D01*
X61174035Y-78677830D01*
X61273903Y-78463663D01*
X61335063Y-78235408D01*
X61355659Y-78000000D01*
X61338161Y-77800000D01*
X72344815Y-77800000D01*
X72363503Y-77977805D01*
X72363504Y-77977807D01*
X72418747Y-78147829D01*
X72418750Y-78147835D01*
X72508141Y-78302665D01*
X72543423Y-78341849D01*
X72627764Y-78435521D01*
X72627767Y-78435523D01*
X72627770Y-78435526D01*
X72772407Y-78540612D01*
X72935733Y-78613329D01*
X73110609Y-78650500D01*
X73110610Y-78650500D01*
X73289389Y-78650500D01*
X73289391Y-78650500D01*
X73464267Y-78613329D01*
X73627593Y-78540612D01*
X73772230Y-78435526D01*
X73783519Y-78422989D01*
X73804218Y-78400000D01*
X73891859Y-78302665D01*
X73981250Y-78147835D01*
X74036497Y-77977803D01*
X74055185Y-77800000D01*
X74036497Y-77622197D01*
X73989319Y-77476998D01*
X73981252Y-77452170D01*
X73981249Y-77452164D01*
X73891859Y-77297335D01*
X73827664Y-77226039D01*
X73772235Y-77164478D01*
X73772232Y-77164476D01*
X73772231Y-77164475D01*
X73772230Y-77164474D01*
X73627593Y-77059388D01*
X73464267Y-76986671D01*
X73464265Y-76986670D01*
X73336594Y-76959533D01*
X73289391Y-76949500D01*
X73110609Y-76949500D01*
X73079954Y-76956015D01*
X72935733Y-76986670D01*
X72935728Y-76986672D01*
X72772408Y-77059387D01*
X72627768Y-77164475D01*
X72508140Y-77297336D01*
X72418750Y-77452164D01*
X72418747Y-77452170D01*
X72363504Y-77622192D01*
X72363503Y-77622194D01*
X72344815Y-77800000D01*
X61338161Y-77800000D01*
X61335063Y-77764592D01*
X61281443Y-77564476D01*
X61273905Y-77536344D01*
X61273904Y-77536343D01*
X61273903Y-77536337D01*
X61174035Y-77322171D01*
X61164078Y-77307950D01*
X61038494Y-77128597D01*
X60871402Y-76961506D01*
X60871395Y-76961501D01*
X60677834Y-76825967D01*
X60677830Y-76825965D01*
X60677828Y-76825964D01*
X60463663Y-76726097D01*
X60463659Y-76726096D01*
X60463655Y-76726094D01*
X60235413Y-76664938D01*
X60235403Y-76664936D01*
X60000001Y-76644341D01*
X59999999Y-76644341D01*
X59764596Y-76664936D01*
X59764586Y-76664938D01*
X59536344Y-76726094D01*
X59536335Y-76726098D01*
X59322171Y-76825964D01*
X59322169Y-76825965D01*
X59128600Y-76961503D01*
X59006673Y-77083430D01*
X58945350Y-77116914D01*
X58875658Y-77111930D01*
X58819725Y-77070058D01*
X58802810Y-77039081D01*
X58753797Y-76907671D01*
X58753793Y-76907664D01*
X58667547Y-76792455D01*
X58667544Y-76792452D01*
X58552335Y-76706206D01*
X58552328Y-76706202D01*
X58417482Y-76655908D01*
X58417483Y-76655908D01*
X58357883Y-76649501D01*
X58357881Y-76649500D01*
X58357873Y-76649500D01*
X58357864Y-76649500D01*
X56562129Y-76649500D01*
X56562123Y-76649501D01*
X56502516Y-76655908D01*
X56367671Y-76706202D01*
X56367664Y-76706206D01*
X56252455Y-76792452D01*
X56252452Y-76792455D01*
X56166206Y-76907664D01*
X56166202Y-76907671D01*
X56115908Y-77042517D01*
X56109501Y-77102116D01*
X56109500Y-77102135D01*
X56109500Y-78897870D01*
X47569471Y-78897870D01*
X47510084Y-78870177D01*
X47491366Y-78859370D01*
X47366417Y-78771880D01*
X47349859Y-78757986D01*
X47242013Y-78650140D01*
X47228119Y-78633582D01*
X47140629Y-78508633D01*
X47129822Y-78489915D01*
X47065362Y-78351681D01*
X47057969Y-78331369D01*
X47032507Y-78236344D01*
X47018491Y-78184035D01*
X47014739Y-78162752D01*
X47013433Y-78147829D01*
X47000735Y-78002696D01*
X47000500Y-77997292D01*
X47000500Y-76639851D01*
X47020185Y-76572812D01*
X47072989Y-76527057D01*
X47142147Y-76517113D01*
X47205703Y-76546138D01*
X47209366Y-76549443D01*
X47411818Y-76739558D01*
X47411828Y-76739566D01*
X47660959Y-76920570D01*
X47660964Y-76920572D01*
X47660971Y-76920578D01*
X47930845Y-77068943D01*
X47930850Y-77068945D01*
X47930852Y-77068946D01*
X47930853Y-77068947D01*
X48217182Y-77182312D01*
X48217185Y-77182313D01*
X48316616Y-77207842D01*
X48515477Y-77258901D01*
X48665090Y-77277801D01*
X48821006Y-77297499D01*
X48821012Y-77297499D01*
X48821016Y-77297500D01*
X48821018Y-77297500D01*
X49128982Y-77297500D01*
X49128984Y-77297500D01*
X49128989Y-77297499D01*
X49128993Y-77297499D01*
X49210103Y-77287252D01*
X49434523Y-77258901D01*
X49732814Y-77182313D01*
X49744200Y-77177805D01*
X50019146Y-77068947D01*
X50019147Y-77068946D01*
X50019145Y-77068946D01*
X50019155Y-77068943D01*
X50289029Y-76920578D01*
X50538180Y-76739560D01*
X50762678Y-76528742D01*
X50958984Y-76291449D01*
X51124001Y-76031423D01*
X51185844Y-75899999D01*
X67144815Y-75899999D01*
X67163503Y-76077805D01*
X67163504Y-76077807D01*
X67218747Y-76247829D01*
X67218750Y-76247835D01*
X67308141Y-76402665D01*
X67325726Y-76422195D01*
X67427764Y-76535521D01*
X67427767Y-76535523D01*
X67427770Y-76535526D01*
X67572407Y-76640612D01*
X67735733Y-76713329D01*
X67910609Y-76750500D01*
X67910610Y-76750500D01*
X68089389Y-76750500D01*
X68089391Y-76750500D01*
X68264267Y-76713329D01*
X68427593Y-76640612D01*
X68572230Y-76535526D01*
X68578338Y-76528743D01*
X68600967Y-76503610D01*
X68691859Y-76402665D01*
X68751133Y-76300000D01*
X70744815Y-76300000D01*
X70746583Y-76316819D01*
X70763503Y-76477805D01*
X70763504Y-76477807D01*
X70818747Y-76647829D01*
X70818750Y-76647835D01*
X70908141Y-76802665D01*
X70943965Y-76842451D01*
X71027764Y-76935521D01*
X71027767Y-76935523D01*
X71027770Y-76935526D01*
X71172407Y-77040612D01*
X71335733Y-77113329D01*
X71510609Y-77150500D01*
X71510610Y-77150500D01*
X71689389Y-77150500D01*
X71689391Y-77150500D01*
X71864267Y-77113329D01*
X72027593Y-77040612D01*
X72172230Y-76935526D01*
X72185690Y-76920578D01*
X72198148Y-76906741D01*
X72291859Y-76802665D01*
X72381250Y-76647835D01*
X72431032Y-76494621D01*
X82339437Y-76494621D01*
X82358125Y-76672427D01*
X82358126Y-76672429D01*
X82413369Y-76842451D01*
X82413372Y-76842457D01*
X82502763Y-76997287D01*
X82540395Y-77039081D01*
X82622386Y-77130143D01*
X82622389Y-77130145D01*
X82622392Y-77130148D01*
X82767029Y-77235234D01*
X82930355Y-77307951D01*
X83105231Y-77345122D01*
X83105232Y-77345122D01*
X83284011Y-77345122D01*
X83284013Y-77345122D01*
X83458889Y-77307951D01*
X83622014Y-77235323D01*
X83691260Y-77226039D01*
X83745329Y-77248284D01*
X83872407Y-77340612D01*
X84035733Y-77413329D01*
X84210609Y-77450500D01*
X84210610Y-77450500D01*
X84389388Y-77450500D01*
X84389391Y-77450500D01*
X84401621Y-77447900D01*
X84471284Y-77453213D01*
X84527020Y-77495347D01*
X84550724Y-77556226D01*
X84553925Y-77586671D01*
X84563503Y-77677804D01*
X84563504Y-77677807D01*
X84618747Y-77847829D01*
X84618750Y-77847835D01*
X84708141Y-78002665D01*
X84725728Y-78022197D01*
X84827764Y-78135521D01*
X84827767Y-78135523D01*
X84827770Y-78135526D01*
X84972407Y-78240612D01*
X85135733Y-78313329D01*
X85310609Y-78350500D01*
X85327962Y-78350500D01*
X85395001Y-78370185D01*
X85440756Y-78422989D01*
X85451282Y-78461537D01*
X85451506Y-78463663D01*
X85463503Y-78577804D01*
X85463504Y-78577807D01*
X85518747Y-78747829D01*
X85518750Y-78747835D01*
X85608141Y-78902665D01*
X85636929Y-78934637D01*
X85727764Y-79035521D01*
X85727767Y-79035523D01*
X85727770Y-79035526D01*
X85872407Y-79140612D01*
X86035733Y-79213329D01*
X86210609Y-79250500D01*
X86210610Y-79250500D01*
X86389389Y-79250500D01*
X86389391Y-79250500D01*
X86564267Y-79213329D01*
X86727593Y-79140612D01*
X86872230Y-79035526D01*
X86875068Y-79032375D01*
X86904668Y-78999500D01*
X86991859Y-78902665D01*
X87081250Y-78747835D01*
X87136497Y-78577803D01*
X87155185Y-78400000D01*
X87136497Y-78222197D01*
X87089581Y-78077805D01*
X87081252Y-78052170D01*
X87081249Y-78052164D01*
X87063933Y-78022171D01*
X86993397Y-77899999D01*
X89544815Y-77899999D01*
X89563503Y-78077805D01*
X89563504Y-78077807D01*
X89618747Y-78247829D01*
X89618750Y-78247835D01*
X89708141Y-78402665D01*
X89749812Y-78448946D01*
X89827764Y-78535521D01*
X89827767Y-78535523D01*
X89827770Y-78535526D01*
X89972407Y-78640612D01*
X90135733Y-78713329D01*
X90310609Y-78750500D01*
X90310610Y-78750500D01*
X90489389Y-78750500D01*
X90489391Y-78750500D01*
X90609720Y-78724923D01*
X90679385Y-78730239D01*
X90735118Y-78772376D01*
X90758819Y-78833249D01*
X90763502Y-78877796D01*
X90763504Y-78877807D01*
X90818747Y-79047829D01*
X90818750Y-79047835D01*
X90908141Y-79202665D01*
X90949812Y-79248946D01*
X91027764Y-79335521D01*
X91027767Y-79335523D01*
X91027770Y-79335526D01*
X91172407Y-79440612D01*
X91335733Y-79513329D01*
X91510609Y-79550500D01*
X91510610Y-79550500D01*
X91689389Y-79550500D01*
X91689391Y-79550500D01*
X91864267Y-79513329D01*
X92027593Y-79440612D01*
X92172230Y-79335526D01*
X92183627Y-79322869D01*
X92209804Y-79293796D01*
X92291859Y-79202665D01*
X92381250Y-79047835D01*
X92436497Y-78877803D01*
X92455185Y-78700000D01*
X92436497Y-78522197D01*
X92389581Y-78377805D01*
X92381252Y-78352170D01*
X92381249Y-78352164D01*
X92293398Y-78200000D01*
X98344815Y-78200000D01*
X98347148Y-78222194D01*
X98363503Y-78377805D01*
X98363504Y-78377807D01*
X98418747Y-78547829D01*
X98418750Y-78547835D01*
X98508141Y-78702665D01*
X98532969Y-78730239D01*
X98627764Y-78835521D01*
X98627767Y-78835523D01*
X98627770Y-78835526D01*
X98772407Y-78940612D01*
X98935733Y-79013329D01*
X99110609Y-79050500D01*
X99110610Y-79050500D01*
X99289389Y-79050500D01*
X99289391Y-79050500D01*
X99464267Y-79013329D01*
X99627593Y-78940612D01*
X99772230Y-78835526D01*
X99774281Y-78833249D01*
X99824340Y-78777652D01*
X99891859Y-78702665D01*
X99893398Y-78699999D01*
X110644815Y-78699999D01*
X110663503Y-78877805D01*
X110663504Y-78877807D01*
X110718747Y-79047829D01*
X110718750Y-79047835D01*
X110808141Y-79202665D01*
X110849812Y-79248946D01*
X110927764Y-79335521D01*
X110927767Y-79335523D01*
X110927770Y-79335526D01*
X111072407Y-79440612D01*
X111235733Y-79513329D01*
X111410609Y-79550500D01*
X111410610Y-79550500D01*
X111589389Y-79550500D01*
X111589391Y-79550500D01*
X111764267Y-79513329D01*
X111927593Y-79440612D01*
X112072230Y-79335526D01*
X112083627Y-79322869D01*
X112109804Y-79293796D01*
X112191859Y-79202665D01*
X112281250Y-79047835D01*
X112336497Y-78877803D01*
X112355185Y-78700000D01*
X112644341Y-78700000D01*
X112664936Y-78935403D01*
X112664938Y-78935413D01*
X112726094Y-79163655D01*
X112726096Y-79163659D01*
X112726097Y-79163663D01*
X112819548Y-79364068D01*
X112825965Y-79377830D01*
X112825967Y-79377834D01*
X112934281Y-79532521D01*
X112961505Y-79571401D01*
X113128599Y-79738495D01*
X113197403Y-79786672D01*
X113322165Y-79874032D01*
X113322167Y-79874033D01*
X113322170Y-79874035D01*
X113536337Y-79973903D01*
X113764592Y-80035063D01*
X113952918Y-80051539D01*
X113999999Y-80055659D01*
X114000000Y-80055659D01*
X114000001Y-80055659D01*
X114039234Y-80052226D01*
X114235408Y-80035063D01*
X114463663Y-79973903D01*
X114677830Y-79874035D01*
X114871401Y-79738495D01*
X115038495Y-79571401D01*
X115174035Y-79377830D01*
X115273903Y-79163663D01*
X115335063Y-78935408D01*
X115355659Y-78700000D01*
X115335063Y-78464592D01*
X115276982Y-78247829D01*
X115273905Y-78236344D01*
X115273904Y-78236343D01*
X115273903Y-78236337D01*
X115174035Y-78022171D01*
X115160376Y-78002663D01*
X115038494Y-77828597D01*
X114871402Y-77661506D01*
X114871396Y-77661501D01*
X114685842Y-77531575D01*
X114642217Y-77476998D01*
X114635023Y-77407500D01*
X114666546Y-77345145D01*
X114685842Y-77328425D01*
X114730009Y-77297499D01*
X114871401Y-77198495D01*
X115038495Y-77031401D01*
X115174035Y-76837830D01*
X115273903Y-76623663D01*
X115335063Y-76395408D01*
X115355659Y-76160000D01*
X115335063Y-75924592D01*
X115273903Y-75696337D01*
X115174035Y-75482171D01*
X115158422Y-75459872D01*
X115038494Y-75288597D01*
X114871402Y-75121506D01*
X114871396Y-75121501D01*
X114685842Y-74991575D01*
X114642217Y-74936998D01*
X114635023Y-74867500D01*
X114666546Y-74805145D01*
X114685842Y-74788425D01*
X114743819Y-74747829D01*
X114871401Y-74658495D01*
X115038495Y-74491401D01*
X115174035Y-74297830D01*
X115273903Y-74083663D01*
X115335063Y-73855408D01*
X115355659Y-73620000D01*
X115335063Y-73384592D01*
X115277901Y-73171258D01*
X115273905Y-73156344D01*
X115273904Y-73156343D01*
X115273903Y-73156337D01*
X115174035Y-72942171D01*
X115074486Y-72800000D01*
X115038496Y-72748600D01*
X114978152Y-72688256D01*
X114916179Y-72626283D01*
X114882696Y-72564963D01*
X114887680Y-72495271D01*
X114929551Y-72439337D01*
X114960529Y-72422422D01*
X115092086Y-72373354D01*
X115092093Y-72373350D01*
X115207187Y-72287190D01*
X115207190Y-72287187D01*
X115293350Y-72172093D01*
X115293354Y-72172086D01*
X115343596Y-72037379D01*
X115343598Y-72037372D01*
X115349999Y-71977844D01*
X115350000Y-71977827D01*
X115350000Y-71330000D01*
X114613347Y-71330000D01*
X114546308Y-71310315D01*
X114500553Y-71257511D01*
X114490609Y-71188353D01*
X114494369Y-71171067D01*
X114500000Y-71151888D01*
X114500000Y-71008111D01*
X114494369Y-70988933D01*
X114494370Y-70919064D01*
X114532145Y-70860286D01*
X114595701Y-70831262D01*
X114613347Y-70830000D01*
X115349999Y-70830000D01*
X115350000Y-70182172D01*
X115349999Y-70182155D01*
X115343598Y-70122627D01*
X115343596Y-70122620D01*
X115293354Y-69987913D01*
X115293350Y-69987906D01*
X115207190Y-69872812D01*
X115207187Y-69872809D01*
X115092093Y-69786649D01*
X115092086Y-69786645D01*
X114957379Y-69736403D01*
X114957372Y-69736401D01*
X114897844Y-69730000D01*
X114250000Y-69730000D01*
X114250000Y-70467698D01*
X114230315Y-70534737D01*
X114177511Y-70580492D01*
X114108355Y-70590436D01*
X114035766Y-70580000D01*
X114035763Y-70580000D01*
X113964237Y-70580000D01*
X113964233Y-70580000D01*
X113891645Y-70590436D01*
X113822487Y-70580492D01*
X113769684Y-70534736D01*
X113750000Y-70467698D01*
X113750000Y-69730000D01*
X113102155Y-69730000D01*
X113042627Y-69736401D01*
X113042620Y-69736403D01*
X112907913Y-69786645D01*
X112907906Y-69786649D01*
X112792812Y-69872809D01*
X112792809Y-69872812D01*
X112706649Y-69987906D01*
X112706645Y-69987913D01*
X112656403Y-70122620D01*
X112656401Y-70122627D01*
X112650000Y-70182155D01*
X112650000Y-70830000D01*
X113386653Y-70830000D01*
X113453692Y-70849685D01*
X113499447Y-70902489D01*
X113509391Y-70971647D01*
X113505631Y-70988933D01*
X113500000Y-71008111D01*
X113500000Y-71151888D01*
X113505631Y-71171067D01*
X113505630Y-71240936D01*
X113467855Y-71299714D01*
X113404299Y-71328738D01*
X113386653Y-71330000D01*
X112650000Y-71330000D01*
X112650000Y-71977844D01*
X112656401Y-72037372D01*
X112656403Y-72037379D01*
X112706645Y-72172086D01*
X112706649Y-72172093D01*
X112792809Y-72287187D01*
X112792812Y-72287190D01*
X112907906Y-72373350D01*
X112907913Y-72373354D01*
X113039470Y-72422421D01*
X113095403Y-72464292D01*
X113119821Y-72529756D01*
X113104970Y-72598029D01*
X113083819Y-72626284D01*
X112961503Y-72748600D01*
X112825965Y-72942169D01*
X112825964Y-72942171D01*
X112726098Y-73156335D01*
X112726094Y-73156344D01*
X112664938Y-73384586D01*
X112664936Y-73384596D01*
X112644341Y-73619999D01*
X112644341Y-73620000D01*
X112664936Y-73855403D01*
X112664938Y-73855413D01*
X112726094Y-74083655D01*
X112726096Y-74083659D01*
X112726097Y-74083663D01*
X112790695Y-74222194D01*
X112825965Y-74297830D01*
X112825967Y-74297834D01*
X112961501Y-74491395D01*
X112961506Y-74491402D01*
X113128597Y-74658493D01*
X113128603Y-74658498D01*
X113314158Y-74788425D01*
X113357783Y-74843002D01*
X113364977Y-74912500D01*
X113333454Y-74974855D01*
X113314158Y-74991575D01*
X113128597Y-75121505D01*
X112961505Y-75288597D01*
X112825965Y-75482169D01*
X112825964Y-75482171D01*
X112726098Y-75696335D01*
X112726094Y-75696344D01*
X112664938Y-75924586D01*
X112664936Y-75924596D01*
X112644341Y-76159999D01*
X112644341Y-76160000D01*
X112664936Y-76395403D01*
X112664938Y-76395413D01*
X112726094Y-76623655D01*
X112726096Y-76623659D01*
X112726097Y-76623663D01*
X112780140Y-76739558D01*
X112825965Y-76837830D01*
X112825967Y-76837834D01*
X112961501Y-77031395D01*
X112961506Y-77031402D01*
X113128597Y-77198493D01*
X113128603Y-77198498D01*
X113314158Y-77328425D01*
X113357783Y-77383002D01*
X113364977Y-77452500D01*
X113333454Y-77514855D01*
X113314158Y-77531575D01*
X113128597Y-77661505D01*
X112961505Y-77828597D01*
X112825965Y-78022169D01*
X112825964Y-78022171D01*
X112726098Y-78236335D01*
X112726094Y-78236344D01*
X112664938Y-78464586D01*
X112664936Y-78464596D01*
X112644341Y-78699999D01*
X112644341Y-78700000D01*
X112355185Y-78700000D01*
X112336497Y-78522197D01*
X112289581Y-78377805D01*
X112281252Y-78352170D01*
X112281249Y-78352164D01*
X112191859Y-78197335D01*
X112136201Y-78135521D01*
X112072235Y-78064478D01*
X112072232Y-78064476D01*
X112072231Y-78064475D01*
X112072230Y-78064474D01*
X111927593Y-77959388D01*
X111764267Y-77886671D01*
X111764265Y-77886670D01*
X111601952Y-77852170D01*
X111589391Y-77849500D01*
X111410609Y-77849500D01*
X111398048Y-77852170D01*
X111235733Y-77886670D01*
X111235728Y-77886672D01*
X111072408Y-77959387D01*
X110927768Y-78064475D01*
X110808140Y-78197336D01*
X110718750Y-78352164D01*
X110718747Y-78352170D01*
X110663504Y-78522192D01*
X110663503Y-78522194D01*
X110644815Y-78699999D01*
X99893398Y-78699999D01*
X99981250Y-78547835D01*
X100036497Y-78377803D01*
X100055185Y-78200000D01*
X100036497Y-78022197D01*
X99992462Y-77886671D01*
X99981252Y-77852170D01*
X99981249Y-77852164D01*
X99891859Y-77697335D01*
X99836201Y-77635521D01*
X99772235Y-77564478D01*
X99772232Y-77564476D01*
X99772231Y-77564475D01*
X99772230Y-77564474D01*
X99627593Y-77459388D01*
X99464267Y-77386671D01*
X99464265Y-77386670D01*
X99316852Y-77355337D01*
X99289391Y-77349500D01*
X99110609Y-77349500D01*
X99083148Y-77355337D01*
X98935733Y-77386670D01*
X98935728Y-77386672D01*
X98772408Y-77459387D01*
X98627768Y-77564475D01*
X98508140Y-77697336D01*
X98418750Y-77852164D01*
X98418747Y-77852170D01*
X98363504Y-78022192D01*
X98363503Y-78022194D01*
X98350298Y-78147829D01*
X98344815Y-78200000D01*
X92293398Y-78200000D01*
X92291859Y-78197335D01*
X92236201Y-78135521D01*
X92172235Y-78064478D01*
X92172232Y-78064476D01*
X92172231Y-78064475D01*
X92172230Y-78064474D01*
X92027593Y-77959388D01*
X91864267Y-77886671D01*
X91864265Y-77886670D01*
X91701952Y-77852170D01*
X91689391Y-77849500D01*
X91510609Y-77849500D01*
X91510607Y-77849500D01*
X91390279Y-77875076D01*
X91320612Y-77869760D01*
X91264879Y-77827622D01*
X91241179Y-77766750D01*
X91236497Y-77722197D01*
X91192462Y-77586671D01*
X91181252Y-77552170D01*
X91181249Y-77552164D01*
X91179711Y-77549500D01*
X91091859Y-77397335D01*
X91029812Y-77328425D01*
X90972235Y-77264478D01*
X90972232Y-77264476D01*
X90972231Y-77264475D01*
X90972230Y-77264474D01*
X90827593Y-77159388D01*
X90664267Y-77086671D01*
X90664265Y-77086670D01*
X90535906Y-77059387D01*
X90489391Y-77049500D01*
X90310609Y-77049500D01*
X90279954Y-77056015D01*
X90135733Y-77086670D01*
X90135728Y-77086672D01*
X89972408Y-77159387D01*
X89827768Y-77264475D01*
X89708140Y-77397336D01*
X89618750Y-77552164D01*
X89618747Y-77552170D01*
X89563504Y-77722192D01*
X89563503Y-77722194D01*
X89544815Y-77899999D01*
X86993397Y-77899999D01*
X86991859Y-77897335D01*
X86929089Y-77827622D01*
X86872235Y-77764478D01*
X86872232Y-77764476D01*
X86872231Y-77764475D01*
X86872230Y-77764474D01*
X86727593Y-77659388D01*
X86564267Y-77586671D01*
X86564265Y-77586670D01*
X86401952Y-77552170D01*
X86389391Y-77549500D01*
X86389390Y-77549500D01*
X86372038Y-77549500D01*
X86304999Y-77529815D01*
X86259244Y-77477011D01*
X86248717Y-77438462D01*
X86244394Y-77397335D01*
X86236497Y-77322197D01*
X86191046Y-77182313D01*
X86181252Y-77152170D01*
X86181249Y-77152164D01*
X86091859Y-76997335D01*
X86036201Y-76935521D01*
X85972235Y-76864478D01*
X85972232Y-76864476D01*
X85972231Y-76864475D01*
X85972230Y-76864474D01*
X85827593Y-76759388D01*
X85664267Y-76686671D01*
X85664265Y-76686670D01*
X85501952Y-76652170D01*
X85489391Y-76649500D01*
X85310609Y-76649500D01*
X85298372Y-76652100D01*
X85228706Y-76646783D01*
X85172974Y-76604645D01*
X85171166Y-76600000D01*
X86444815Y-76600000D01*
X86463503Y-76777805D01*
X86463504Y-76777807D01*
X86518747Y-76947829D01*
X86518750Y-76947835D01*
X86608141Y-77102665D01*
X86632887Y-77130148D01*
X86727764Y-77235521D01*
X86727767Y-77235523D01*
X86727770Y-77235526D01*
X86872407Y-77340612D01*
X87035733Y-77413329D01*
X87210609Y-77450500D01*
X87210610Y-77450500D01*
X87389389Y-77450500D01*
X87389391Y-77450500D01*
X87564267Y-77413329D01*
X87727593Y-77340612D01*
X87872230Y-77235526D01*
X87991859Y-77102665D01*
X88051133Y-77000000D01*
X108144815Y-77000000D01*
X108163503Y-77177805D01*
X108163504Y-77177807D01*
X108218747Y-77347829D01*
X108218750Y-77347835D01*
X108308141Y-77502665D01*
X108332587Y-77529815D01*
X108427764Y-77635521D01*
X108427767Y-77635523D01*
X108427770Y-77635526D01*
X108572407Y-77740612D01*
X108735733Y-77813329D01*
X108910609Y-77850500D01*
X108910610Y-77850500D01*
X109089389Y-77850500D01*
X109089391Y-77850500D01*
X109264267Y-77813329D01*
X109427593Y-77740612D01*
X109572230Y-77635526D01*
X109691859Y-77502665D01*
X109781250Y-77347835D01*
X109836497Y-77177803D01*
X109855185Y-77000000D01*
X109836497Y-76822197D01*
X109805271Y-76726094D01*
X109781252Y-76652170D01*
X109781249Y-76652164D01*
X109778750Y-76647835D01*
X109691859Y-76497335D01*
X109645003Y-76445296D01*
X109572235Y-76364478D01*
X109572232Y-76364476D01*
X109572231Y-76364475D01*
X109572230Y-76364474D01*
X109427593Y-76259388D01*
X109264267Y-76186671D01*
X109264265Y-76186670D01*
X109136594Y-76159533D01*
X109089391Y-76149500D01*
X108910609Y-76149500D01*
X108879954Y-76156015D01*
X108735733Y-76186670D01*
X108735728Y-76186672D01*
X108572408Y-76259387D01*
X108427768Y-76364475D01*
X108308140Y-76497336D01*
X108218750Y-76652164D01*
X108218747Y-76652170D01*
X108163504Y-76822192D01*
X108163503Y-76822194D01*
X108144815Y-77000000D01*
X88051133Y-77000000D01*
X88081250Y-76947835D01*
X88136497Y-76777803D01*
X88155185Y-76600000D01*
X88136497Y-76422197D01*
X88108873Y-76337180D01*
X88081252Y-76252170D01*
X88081249Y-76252164D01*
X88078750Y-76247835D01*
X87991859Y-76097335D01*
X87932513Y-76031425D01*
X87872235Y-75964478D01*
X87872232Y-75964476D01*
X87872231Y-75964475D01*
X87872230Y-75964474D01*
X87727593Y-75859388D01*
X87564267Y-75786671D01*
X87564265Y-75786670D01*
X87452900Y-75762999D01*
X94444815Y-75762999D01*
X94463503Y-75940805D01*
X94463504Y-75940807D01*
X94518747Y-76110829D01*
X94518750Y-76110835D01*
X94608141Y-76265665D01*
X94649812Y-76311946D01*
X94727764Y-76398521D01*
X94727767Y-76398523D01*
X94727770Y-76398526D01*
X94872407Y-76503612D01*
X95035733Y-76576329D01*
X95210609Y-76613500D01*
X95210610Y-76613500D01*
X95389389Y-76613500D01*
X95389391Y-76613500D01*
X95564267Y-76576329D01*
X95727593Y-76503612D01*
X95872230Y-76398526D01*
X95875038Y-76395408D01*
X95902891Y-76364474D01*
X95991859Y-76265665D01*
X96081250Y-76110835D01*
X96136497Y-75940803D01*
X96155185Y-75763000D01*
X96136497Y-75585197D01*
X96104484Y-75486671D01*
X96081252Y-75415170D01*
X96081249Y-75415164D01*
X96070956Y-75397336D01*
X95991859Y-75260335D01*
X95945003Y-75208296D01*
X95872235Y-75127478D01*
X95872232Y-75127476D01*
X95872231Y-75127475D01*
X95872230Y-75127474D01*
X95727593Y-75022388D01*
X95564267Y-74949671D01*
X95564265Y-74949670D01*
X95436594Y-74922533D01*
X95389391Y-74912500D01*
X95210609Y-74912500D01*
X95179954Y-74919015D01*
X95035733Y-74949670D01*
X95035728Y-74949672D01*
X94872408Y-75022387D01*
X94727768Y-75127475D01*
X94608140Y-75260336D01*
X94518750Y-75415164D01*
X94518747Y-75415170D01*
X94463504Y-75585192D01*
X94463503Y-75585194D01*
X94444815Y-75762999D01*
X87452900Y-75762999D01*
X87436594Y-75759533D01*
X87389391Y-75749500D01*
X87210609Y-75749500D01*
X87179954Y-75756015D01*
X87035733Y-75786670D01*
X87035728Y-75786672D01*
X86872408Y-75859387D01*
X86727768Y-75964475D01*
X86608140Y-76097336D01*
X86518750Y-76252164D01*
X86518747Y-76252170D01*
X86463504Y-76422192D01*
X86463503Y-76422194D01*
X86444815Y-76600000D01*
X85171166Y-76600000D01*
X85149275Y-76543774D01*
X85136497Y-76422197D01*
X85108873Y-76337180D01*
X85081252Y-76252170D01*
X85081249Y-76252164D01*
X85078750Y-76247835D01*
X84991859Y-76097335D01*
X84932513Y-76031425D01*
X84872235Y-75964478D01*
X84872232Y-75964476D01*
X84872231Y-75964475D01*
X84872230Y-75964474D01*
X84727593Y-75859388D01*
X84564267Y-75786671D01*
X84564265Y-75786670D01*
X84436594Y-75759533D01*
X84389391Y-75749500D01*
X84210609Y-75749500D01*
X84179954Y-75756015D01*
X84035733Y-75786670D01*
X84035732Y-75786670D01*
X83872609Y-75859297D01*
X83803358Y-75868581D01*
X83749288Y-75846335D01*
X83703860Y-75813329D01*
X83622215Y-75754010D01*
X83458889Y-75681293D01*
X83458887Y-75681292D01*
X83314019Y-75650500D01*
X83284013Y-75644122D01*
X83105231Y-75644122D01*
X83075225Y-75650500D01*
X82930355Y-75681292D01*
X82930350Y-75681294D01*
X82767030Y-75754009D01*
X82622390Y-75859097D01*
X82502762Y-75991958D01*
X82413372Y-76146786D01*
X82413369Y-76146792D01*
X82358126Y-76316814D01*
X82358125Y-76316816D01*
X82339437Y-76494621D01*
X72431032Y-76494621D01*
X72436497Y-76477803D01*
X72455185Y-76300000D01*
X72436497Y-76122197D01*
X72385250Y-75964475D01*
X72381252Y-75952170D01*
X72381249Y-75952164D01*
X72365333Y-75924596D01*
X72291859Y-75797335D01*
X72240783Y-75740610D01*
X72172235Y-75664478D01*
X72172232Y-75664476D01*
X72172231Y-75664475D01*
X72172230Y-75664474D01*
X72027593Y-75559388D01*
X71864267Y-75486671D01*
X71864265Y-75486670D01*
X71736594Y-75459533D01*
X71689391Y-75449500D01*
X71510609Y-75449500D01*
X71479954Y-75456015D01*
X71335733Y-75486670D01*
X71335728Y-75486672D01*
X71172408Y-75559387D01*
X71027768Y-75664475D01*
X70908140Y-75797336D01*
X70818750Y-75952164D01*
X70818747Y-75952170D01*
X70763504Y-76122192D01*
X70763503Y-76122194D01*
X70749083Y-76259389D01*
X70744815Y-76300000D01*
X68751133Y-76300000D01*
X68781250Y-76247835D01*
X68836497Y-76077803D01*
X68855185Y-75900000D01*
X68836497Y-75722197D01*
X68808334Y-75635521D01*
X68781252Y-75552170D01*
X68781249Y-75552164D01*
X68691859Y-75397335D01*
X68618852Y-75316253D01*
X68588623Y-75253263D01*
X68597248Y-75183928D01*
X68638115Y-75132966D01*
X68772230Y-75035526D01*
X68784061Y-75022387D01*
X68818854Y-74983745D01*
X68891859Y-74902665D01*
X68951133Y-74800000D01*
X99544815Y-74800000D01*
X99547148Y-74822194D01*
X99563503Y-74977805D01*
X99563504Y-74977807D01*
X99618747Y-75147829D01*
X99618750Y-75147835D01*
X99708141Y-75302665D01*
X99720377Y-75316254D01*
X99827764Y-75435521D01*
X99827767Y-75435523D01*
X99827770Y-75435526D01*
X99972407Y-75540612D01*
X100135733Y-75613329D01*
X100310609Y-75650500D01*
X100310610Y-75650500D01*
X100489389Y-75650500D01*
X100489391Y-75650500D01*
X100664267Y-75613329D01*
X100827593Y-75540612D01*
X100972230Y-75435526D01*
X101091859Y-75302665D01*
X101181250Y-75147835D01*
X101229285Y-74999999D01*
X108144815Y-74999999D01*
X108163503Y-75177805D01*
X108163504Y-75177807D01*
X108218747Y-75347829D01*
X108218750Y-75347835D01*
X108308141Y-75502665D01*
X108342307Y-75540610D01*
X108427764Y-75635521D01*
X108427767Y-75635523D01*
X108427770Y-75635526D01*
X108572407Y-75740612D01*
X108735733Y-75813329D01*
X108910609Y-75850500D01*
X108910610Y-75850500D01*
X109089389Y-75850500D01*
X109089391Y-75850500D01*
X109264267Y-75813329D01*
X109427593Y-75740612D01*
X109572230Y-75635526D01*
X109691859Y-75502665D01*
X109781250Y-75347835D01*
X109836497Y-75177803D01*
X109855185Y-75000000D01*
X109836497Y-74822197D01*
X109781250Y-74652165D01*
X109691859Y-74497335D01*
X109645003Y-74445296D01*
X109572235Y-74364478D01*
X109572232Y-74364476D01*
X109572231Y-74364475D01*
X109572230Y-74364474D01*
X109427593Y-74259388D01*
X109264267Y-74186671D01*
X109264265Y-74186670D01*
X109136594Y-74159533D01*
X109089391Y-74149500D01*
X108910609Y-74149500D01*
X108879954Y-74156015D01*
X108735733Y-74186670D01*
X108735728Y-74186672D01*
X108572408Y-74259387D01*
X108427768Y-74364475D01*
X108308140Y-74497336D01*
X108218750Y-74652164D01*
X108218747Y-74652170D01*
X108163504Y-74822192D01*
X108163503Y-74822194D01*
X108144815Y-74999999D01*
X101229285Y-74999999D01*
X101236497Y-74977803D01*
X101255185Y-74800000D01*
X101236497Y-74622197D01*
X101181250Y-74452165D01*
X101091859Y-74297335D01*
X101040344Y-74240122D01*
X100972235Y-74164478D01*
X100972232Y-74164476D01*
X100972231Y-74164475D01*
X100972230Y-74164474D01*
X100827593Y-74059388D01*
X100664267Y-73986671D01*
X100664265Y-73986670D01*
X100536594Y-73959533D01*
X100489391Y-73949500D01*
X100310609Y-73949500D01*
X100279954Y-73956015D01*
X100135733Y-73986670D01*
X100135728Y-73986672D01*
X99972408Y-74059387D01*
X99827768Y-74164475D01*
X99708140Y-74297336D01*
X99618750Y-74452164D01*
X99618747Y-74452170D01*
X99563504Y-74622192D01*
X99563503Y-74622194D01*
X99545442Y-74794035D01*
X99544815Y-74800000D01*
X68951133Y-74800000D01*
X68981250Y-74747835D01*
X69036497Y-74577803D01*
X69055185Y-74400000D01*
X69036497Y-74222197D01*
X68991485Y-74083664D01*
X68981252Y-74052170D01*
X68981249Y-74052164D01*
X68891859Y-73897335D01*
X68845003Y-73845296D01*
X68772235Y-73764478D01*
X68772232Y-73764476D01*
X68772231Y-73764475D01*
X68772230Y-73764474D01*
X68627593Y-73659388D01*
X68464267Y-73586671D01*
X68464265Y-73586670D01*
X68336594Y-73559533D01*
X68289391Y-73549500D01*
X68110609Y-73549500D01*
X68079954Y-73556015D01*
X67935733Y-73586670D01*
X67935728Y-73586672D01*
X67772408Y-73659387D01*
X67627768Y-73764475D01*
X67508140Y-73897336D01*
X67418750Y-74052164D01*
X67418747Y-74052170D01*
X67363504Y-74222192D01*
X67363503Y-74222194D01*
X67344815Y-74400000D01*
X67363503Y-74577805D01*
X67363504Y-74577807D01*
X67418747Y-74747829D01*
X67418750Y-74747835D01*
X67508141Y-74902665D01*
X67573141Y-74974855D01*
X67581146Y-74983745D01*
X67611376Y-75046736D01*
X67602751Y-75116072D01*
X67561882Y-75167035D01*
X67427768Y-75264475D01*
X67308140Y-75397336D01*
X67218750Y-75552164D01*
X67218747Y-75552170D01*
X67163504Y-75722192D01*
X67163503Y-75722194D01*
X67144815Y-75899999D01*
X51185844Y-75899999D01*
X51255127Y-75752766D01*
X51350294Y-75459872D01*
X51408002Y-75157360D01*
X51408602Y-75147835D01*
X51427339Y-74850005D01*
X51427339Y-74849994D01*
X51408003Y-74542647D01*
X51408002Y-74542640D01*
X51350294Y-74240128D01*
X51255127Y-73947234D01*
X51124001Y-73668577D01*
X50976100Y-73435521D01*
X50958987Y-73408555D01*
X50958984Y-73408551D01*
X50762678Y-73171258D01*
X50538180Y-72960440D01*
X50538177Y-72960438D01*
X50538171Y-72960433D01*
X50289040Y-72779429D01*
X50289033Y-72779424D01*
X50289029Y-72779422D01*
X50019155Y-72631057D01*
X50019152Y-72631055D01*
X50019147Y-72631053D01*
X50019146Y-72631052D01*
X49904510Y-72585665D01*
X49849424Y-72542684D01*
X49834469Y-72500000D01*
X53694540Y-72500000D01*
X53714326Y-72688256D01*
X53714327Y-72688259D01*
X53772818Y-72868277D01*
X53772821Y-72868284D01*
X53867467Y-73032216D01*
X53897079Y-73065103D01*
X53994129Y-73172888D01*
X54147265Y-73284148D01*
X54147270Y-73284151D01*
X54320192Y-73361142D01*
X54320197Y-73361144D01*
X54505354Y-73400500D01*
X54505355Y-73400500D01*
X54694644Y-73400500D01*
X54694646Y-73400500D01*
X54879803Y-73361144D01*
X55052730Y-73284151D01*
X55205871Y-73172888D01*
X55332533Y-73032216D01*
X55427179Y-72868284D01*
X55449366Y-72800000D01*
X77144815Y-72800000D01*
X77163503Y-72977805D01*
X77163504Y-72977807D01*
X77218747Y-73147829D01*
X77218750Y-73147835D01*
X77308141Y-73302665D01*
X77342307Y-73340610D01*
X77427764Y-73435521D01*
X77427767Y-73435523D01*
X77427770Y-73435526D01*
X77572407Y-73540612D01*
X77735733Y-73613329D01*
X77910609Y-73650500D01*
X77910610Y-73650500D01*
X78089389Y-73650500D01*
X78089391Y-73650500D01*
X78264267Y-73613329D01*
X78427593Y-73540612D01*
X78572230Y-73435526D01*
X78596519Y-73408551D01*
X78603768Y-73400500D01*
X78691859Y-73302665D01*
X78781250Y-73147835D01*
X78836497Y-72977803D01*
X78855185Y-72800000D01*
X78836497Y-72622197D01*
X78829285Y-72600000D01*
X97244815Y-72600000D01*
X97247148Y-72622194D01*
X97263503Y-72777805D01*
X97263504Y-72777807D01*
X97318747Y-72947829D01*
X97318750Y-72947835D01*
X97408141Y-73102665D01*
X97433926Y-73131302D01*
X97527764Y-73235521D01*
X97527767Y-73235523D01*
X97527770Y-73235526D01*
X97672407Y-73340612D01*
X97835733Y-73413329D01*
X98010609Y-73450500D01*
X98010610Y-73450500D01*
X98189389Y-73450500D01*
X98189391Y-73450500D01*
X98364267Y-73413329D01*
X98527593Y-73340612D01*
X98672230Y-73235526D01*
X98791859Y-73102665D01*
X98881250Y-72947835D01*
X98936497Y-72777803D01*
X98955185Y-72600000D01*
X98936497Y-72422197D01*
X98908334Y-72335521D01*
X98881252Y-72252170D01*
X98881249Y-72252164D01*
X98835016Y-72172086D01*
X98791859Y-72097335D01*
X98737868Y-72037372D01*
X98672235Y-71964478D01*
X98672232Y-71964476D01*
X98672231Y-71964475D01*
X98672230Y-71964474D01*
X98527593Y-71859388D01*
X98364267Y-71786671D01*
X98364265Y-71786670D01*
X98236594Y-71759533D01*
X98189391Y-71749500D01*
X98010609Y-71749500D01*
X97979954Y-71756015D01*
X97835733Y-71786670D01*
X97835728Y-71786672D01*
X97672408Y-71859387D01*
X97527768Y-71964475D01*
X97408140Y-72097336D01*
X97318750Y-72252164D01*
X97318747Y-72252170D01*
X97263504Y-72422192D01*
X97263503Y-72422194D01*
X97246759Y-72581505D01*
X97244815Y-72600000D01*
X78829285Y-72600000D01*
X78806461Y-72529756D01*
X78781252Y-72452170D01*
X78781249Y-72452164D01*
X78777670Y-72445965D01*
X78691859Y-72297335D01*
X78645003Y-72245296D01*
X78572235Y-72164478D01*
X78572232Y-72164476D01*
X78572231Y-72164475D01*
X78572230Y-72164474D01*
X78427593Y-72059388D01*
X78264267Y-71986671D01*
X78264265Y-71986670D01*
X78136594Y-71959533D01*
X78089391Y-71949500D01*
X77910609Y-71949500D01*
X77879954Y-71956015D01*
X77735733Y-71986670D01*
X77735728Y-71986672D01*
X77572408Y-72059387D01*
X77427768Y-72164475D01*
X77308140Y-72297336D01*
X77218750Y-72452164D01*
X77218747Y-72452170D01*
X77163504Y-72622192D01*
X77163503Y-72622194D01*
X77144815Y-72800000D01*
X55449366Y-72800000D01*
X55485674Y-72688256D01*
X55505460Y-72500000D01*
X55485674Y-72311744D01*
X55427179Y-72131716D01*
X55332533Y-71967784D01*
X55205871Y-71827112D01*
X55205870Y-71827111D01*
X55168555Y-71800000D01*
X73344815Y-71800000D01*
X73363503Y-71977805D01*
X73363504Y-71977807D01*
X73418747Y-72147829D01*
X73418750Y-72147835D01*
X73508141Y-72302665D01*
X73549812Y-72348946D01*
X73627764Y-72435521D01*
X73627767Y-72435523D01*
X73627770Y-72435526D01*
X73772407Y-72540612D01*
X73935733Y-72613329D01*
X74110609Y-72650500D01*
X74110610Y-72650500D01*
X74289389Y-72650500D01*
X74289391Y-72650500D01*
X74464267Y-72613329D01*
X74627593Y-72540612D01*
X74772230Y-72435526D01*
X74796311Y-72408782D01*
X74828210Y-72373354D01*
X74891859Y-72302665D01*
X74981250Y-72147835D01*
X75036497Y-71977803D01*
X75055185Y-71800000D01*
X75036497Y-71622197D01*
X74997658Y-71502663D01*
X74981252Y-71452170D01*
X74981249Y-71452164D01*
X74891859Y-71297335D01*
X74841077Y-71240936D01*
X74772235Y-71164478D01*
X74772232Y-71164476D01*
X74772231Y-71164475D01*
X74772230Y-71164474D01*
X74627593Y-71059388D01*
X74464267Y-70986671D01*
X74464265Y-70986670D01*
X74335906Y-70959387D01*
X74289391Y-70949500D01*
X74110609Y-70949500D01*
X74079954Y-70956015D01*
X73935733Y-70986670D01*
X73935728Y-70986672D01*
X73772408Y-71059387D01*
X73627768Y-71164475D01*
X73508140Y-71297336D01*
X73418750Y-71452164D01*
X73418747Y-71452170D01*
X73363504Y-71622192D01*
X73363503Y-71622194D01*
X73344815Y-71800000D01*
X55168555Y-71800000D01*
X55052734Y-71715851D01*
X55052729Y-71715848D01*
X54879807Y-71638857D01*
X54879802Y-71638855D01*
X54734001Y-71607865D01*
X54694646Y-71599500D01*
X54505354Y-71599500D01*
X54472897Y-71606398D01*
X54320197Y-71638855D01*
X54320192Y-71638857D01*
X54147270Y-71715848D01*
X54147265Y-71715851D01*
X53994129Y-71827111D01*
X53867466Y-71967785D01*
X53772821Y-72131715D01*
X53772818Y-72131722D01*
X53714373Y-72311599D01*
X53714326Y-72311744D01*
X53694540Y-72500000D01*
X49834469Y-72500000D01*
X49826321Y-72476745D01*
X49842535Y-72408782D01*
X49873992Y-72372521D01*
X49952269Y-72311597D01*
X50113673Y-72136265D01*
X50244017Y-71936758D01*
X50339746Y-71718518D01*
X50398248Y-71487498D01*
X50411115Y-71332216D01*
X50417928Y-71250005D01*
X50417928Y-71249994D01*
X50398248Y-71012505D01*
X50398248Y-71012502D01*
X50344435Y-70800000D01*
X62994540Y-70800000D01*
X63014326Y-70988256D01*
X63014327Y-70988259D01*
X63072818Y-71168277D01*
X63072821Y-71168284D01*
X63167467Y-71332216D01*
X63238223Y-71410798D01*
X63294129Y-71472888D01*
X63447265Y-71584148D01*
X63447270Y-71584151D01*
X63620192Y-71661142D01*
X63620197Y-71661144D01*
X63805354Y-71700500D01*
X63805355Y-71700500D01*
X63994644Y-71700500D01*
X63994646Y-71700500D01*
X64179803Y-71661144D01*
X64352730Y-71584151D01*
X64505871Y-71472888D01*
X64632533Y-71332216D01*
X64727179Y-71168284D01*
X64785674Y-70988256D01*
X64805460Y-70800000D01*
X64785674Y-70611744D01*
X64727179Y-70431716D01*
X64632533Y-70267784D01*
X64505871Y-70127112D01*
X64499698Y-70122627D01*
X64352734Y-70015851D01*
X64352729Y-70015848D01*
X64179807Y-69938857D01*
X64179802Y-69938855D01*
X64034001Y-69907865D01*
X63994646Y-69899500D01*
X63805354Y-69899500D01*
X63772897Y-69906398D01*
X63620197Y-69938855D01*
X63620192Y-69938857D01*
X63447270Y-70015848D01*
X63447265Y-70015851D01*
X63294129Y-70127111D01*
X63167466Y-70267785D01*
X63072821Y-70431715D01*
X63072818Y-70431722D01*
X63018903Y-70597656D01*
X63014326Y-70611744D01*
X62994540Y-70800000D01*
X50344435Y-70800000D01*
X50339746Y-70781482D01*
X50244017Y-70563242D01*
X50184978Y-70472876D01*
X50113677Y-70363740D01*
X50113674Y-70363737D01*
X50113673Y-70363735D01*
X49952269Y-70188403D01*
X49952264Y-70188399D01*
X49952262Y-70188397D01*
X49764215Y-70042034D01*
X49764209Y-70042030D01*
X49554619Y-69928605D01*
X49554610Y-69928602D01*
X49329220Y-69851225D01*
X49155233Y-69822192D01*
X49094156Y-69812000D01*
X48855844Y-69812000D01*
X48797078Y-69821806D01*
X48620779Y-69851225D01*
X48395389Y-69928602D01*
X48395380Y-69928605D01*
X48185790Y-70042030D01*
X48185784Y-70042034D01*
X47997737Y-70188397D01*
X47997734Y-70188400D01*
X47836322Y-70363740D01*
X47705982Y-70563242D01*
X47610254Y-70781481D01*
X47551751Y-71012505D01*
X47532072Y-71249994D01*
X47532072Y-71250005D01*
X47551751Y-71487494D01*
X47610254Y-71718518D01*
X47705982Y-71936757D01*
X47836322Y-72136259D01*
X47836325Y-72136263D01*
X47836327Y-72136265D01*
X47997731Y-72311597D01*
X47997734Y-72311599D01*
X47997737Y-72311602D01*
X48076004Y-72372520D01*
X48116817Y-72429230D01*
X48120492Y-72499003D01*
X48085860Y-72559686D01*
X48045490Y-72585665D01*
X47930850Y-72631054D01*
X47660971Y-72779422D01*
X47660959Y-72779429D01*
X47411828Y-72960433D01*
X47411818Y-72960441D01*
X47209384Y-73150539D01*
X47147039Y-73182081D01*
X47077538Y-73174910D01*
X47022948Y-73131302D01*
X47000599Y-73065103D01*
X47000500Y-73060147D01*
X47000500Y-69650000D01*
X69302328Y-69650000D01*
X69302556Y-69652165D01*
X69321016Y-69827805D01*
X69321017Y-69827807D01*
X69376260Y-69997829D01*
X69376263Y-69997835D01*
X69465654Y-70152665D01*
X69497830Y-70188400D01*
X69585277Y-70285521D01*
X69585280Y-70285523D01*
X69585283Y-70285526D01*
X69729920Y-70390612D01*
X69893246Y-70463329D01*
X70068122Y-70500500D01*
X70068123Y-70500500D01*
X70246902Y-70500500D01*
X70246904Y-70500500D01*
X70421780Y-70463329D01*
X70585106Y-70390612D01*
X70729743Y-70285526D01*
X70849372Y-70152665D01*
X70937514Y-69999999D01*
X81344815Y-69999999D01*
X81363503Y-70177805D01*
X81363504Y-70177807D01*
X81418747Y-70347829D01*
X81418750Y-70347835D01*
X81508141Y-70502665D01*
X81536784Y-70534476D01*
X81627764Y-70635521D01*
X81627767Y-70635523D01*
X81627770Y-70635526D01*
X81772407Y-70740612D01*
X81935733Y-70813329D01*
X82110609Y-70850500D01*
X82110610Y-70850500D01*
X82289389Y-70850500D01*
X82289391Y-70850500D01*
X82464267Y-70813329D01*
X82627593Y-70740612D01*
X82772230Y-70635526D01*
X82793644Y-70611744D01*
X82863216Y-70534476D01*
X82891859Y-70502665D01*
X82914570Y-70463329D01*
X82936563Y-70425236D01*
X82987129Y-70377020D01*
X83055736Y-70363796D01*
X83116838Y-70386920D01*
X83121920Y-70390612D01*
X83193270Y-70422379D01*
X83246505Y-70467627D01*
X83266827Y-70534476D01*
X83250221Y-70597655D01*
X83228358Y-70635523D01*
X83218749Y-70652167D01*
X83218747Y-70652170D01*
X83163504Y-70822192D01*
X83163503Y-70822194D01*
X83149083Y-70959389D01*
X83144815Y-71000000D01*
X83147148Y-71022194D01*
X83163503Y-71177805D01*
X83163504Y-71177807D01*
X83218747Y-71347829D01*
X83218750Y-71347835D01*
X83308141Y-71502665D01*
X83325728Y-71522197D01*
X83427764Y-71635521D01*
X83427767Y-71635523D01*
X83427770Y-71635526D01*
X83572407Y-71740612D01*
X83735733Y-71813329D01*
X83910609Y-71850500D01*
X83910610Y-71850500D01*
X84089389Y-71850500D01*
X84089391Y-71850500D01*
X84264267Y-71813329D01*
X84427593Y-71740612D01*
X84483490Y-71700000D01*
X90244815Y-71700000D01*
X90263503Y-71877805D01*
X90263504Y-71877807D01*
X90318747Y-72047829D01*
X90318750Y-72047835D01*
X90408141Y-72202665D01*
X90449812Y-72248946D01*
X90527764Y-72335521D01*
X90527767Y-72335523D01*
X90527770Y-72335526D01*
X90672407Y-72440612D01*
X90835733Y-72513329D01*
X91010609Y-72550500D01*
X91010610Y-72550500D01*
X91189389Y-72550500D01*
X91189391Y-72550500D01*
X91364267Y-72513329D01*
X91527593Y-72440612D01*
X91672230Y-72335526D01*
X91693644Y-72311744D01*
X91701820Y-72302663D01*
X91791859Y-72202665D01*
X91881250Y-72047835D01*
X91936497Y-71877803D01*
X91955185Y-71700000D01*
X91936497Y-71522197D01*
X91889581Y-71377805D01*
X91881252Y-71352170D01*
X91881249Y-71352164D01*
X91878750Y-71347835D01*
X91793398Y-71200000D01*
X105444815Y-71200000D01*
X105463503Y-71377805D01*
X105463504Y-71377807D01*
X105518747Y-71547829D01*
X105518750Y-71547835D01*
X105608141Y-71702665D01*
X105642307Y-71740610D01*
X105727764Y-71835521D01*
X105727767Y-71835523D01*
X105727770Y-71835526D01*
X105872407Y-71940612D01*
X106035733Y-72013329D01*
X106210609Y-72050500D01*
X106210610Y-72050500D01*
X106389389Y-72050500D01*
X106389391Y-72050500D01*
X106564267Y-72013329D01*
X106727593Y-71940612D01*
X106872230Y-71835526D01*
X106991859Y-71702665D01*
X107081250Y-71547835D01*
X107136497Y-71377803D01*
X107155185Y-71200000D01*
X107136497Y-71022197D01*
X107092462Y-70886671D01*
X107081252Y-70852170D01*
X107081249Y-70852164D01*
X106991859Y-70697335D01*
X106936201Y-70635521D01*
X106872235Y-70564478D01*
X106872232Y-70564476D01*
X106872231Y-70564475D01*
X106872230Y-70564474D01*
X106727593Y-70459388D01*
X106564267Y-70386671D01*
X106564265Y-70386670D01*
X106436594Y-70359533D01*
X106389391Y-70349500D01*
X106210609Y-70349500D01*
X106179954Y-70356015D01*
X106035733Y-70386670D01*
X106035728Y-70386672D01*
X105872408Y-70459387D01*
X105727768Y-70564475D01*
X105608140Y-70697336D01*
X105518750Y-70852164D01*
X105518747Y-70852170D01*
X105463504Y-71022192D01*
X105463503Y-71022194D01*
X105444815Y-71200000D01*
X91793398Y-71200000D01*
X91791859Y-71197335D01*
X91745003Y-71145296D01*
X91672235Y-71064478D01*
X91672232Y-71064476D01*
X91672231Y-71064475D01*
X91672230Y-71064474D01*
X91527593Y-70959388D01*
X91364267Y-70886671D01*
X91364265Y-70886670D01*
X91201952Y-70852170D01*
X91189391Y-70849500D01*
X91010609Y-70849500D01*
X90998048Y-70852170D01*
X90835733Y-70886670D01*
X90835728Y-70886672D01*
X90672408Y-70959387D01*
X90527768Y-71064475D01*
X90408140Y-71197336D01*
X90318750Y-71352164D01*
X90318747Y-71352170D01*
X90263504Y-71522192D01*
X90263503Y-71522194D01*
X90244815Y-71700000D01*
X84483490Y-71700000D01*
X84572230Y-71635526D01*
X84691859Y-71502665D01*
X84781250Y-71347835D01*
X84836497Y-71177803D01*
X84855185Y-71000000D01*
X84836497Y-70822197D01*
X84781250Y-70652165D01*
X84691859Y-70497335D01*
X84632775Y-70431716D01*
X84572235Y-70364478D01*
X84572232Y-70364476D01*
X84572231Y-70364475D01*
X84572230Y-70364474D01*
X84463562Y-70285521D01*
X84427592Y-70259387D01*
X84356244Y-70227621D01*
X84303007Y-70182371D01*
X84282686Y-70115522D01*
X84299293Y-70052342D01*
X84330763Y-69997835D01*
X84386010Y-69827803D01*
X84404698Y-69650000D01*
X84386010Y-69472197D01*
X84344244Y-69343655D01*
X84330765Y-69302170D01*
X84330762Y-69302164D01*
X84321547Y-69286203D01*
X84241372Y-69147335D01*
X84183418Y-69082971D01*
X84153189Y-69019981D01*
X84161814Y-68950646D01*
X84183419Y-68917028D01*
X84203343Y-68894900D01*
X84241372Y-68852665D01*
X84330763Y-68697835D01*
X84386010Y-68527803D01*
X84404698Y-68350000D01*
X84386010Y-68172197D01*
X84338020Y-68024500D01*
X86544815Y-68024500D01*
X86563503Y-68202305D01*
X86563504Y-68202307D01*
X86618747Y-68372329D01*
X86618750Y-68372335D01*
X86708141Y-68527165D01*
X86729152Y-68550500D01*
X86827764Y-68660021D01*
X86827767Y-68660023D01*
X86827770Y-68660026D01*
X86972407Y-68765112D01*
X87135733Y-68837829D01*
X87310609Y-68875000D01*
X87310610Y-68875000D01*
X87489389Y-68875000D01*
X87489391Y-68875000D01*
X87664267Y-68837829D01*
X87749233Y-68800000D01*
X90144815Y-68800000D01*
X90163503Y-68977805D01*
X90163504Y-68977807D01*
X90218747Y-69147829D01*
X90218750Y-69147835D01*
X90308141Y-69302665D01*
X90345049Y-69343655D01*
X90427764Y-69435521D01*
X90427767Y-69435523D01*
X90427770Y-69435526D01*
X90572407Y-69540612D01*
X90735733Y-69613329D01*
X90910609Y-69650500D01*
X90910610Y-69650500D01*
X91089389Y-69650500D01*
X91089391Y-69650500D01*
X91264267Y-69613329D01*
X91427593Y-69540612D01*
X91572230Y-69435526D01*
X91691859Y-69302665D01*
X91781250Y-69147835D01*
X91781413Y-69147335D01*
X91803922Y-69078058D01*
X91843359Y-69020383D01*
X91907718Y-68993184D01*
X91976564Y-69005098D01*
X92028040Y-69052342D01*
X92045173Y-69103413D01*
X92046435Y-69115413D01*
X92063503Y-69277805D01*
X92063504Y-69277807D01*
X92118747Y-69447829D01*
X92118750Y-69447835D01*
X92208141Y-69602665D01*
X92249812Y-69648946D01*
X92327764Y-69735521D01*
X92327767Y-69735523D01*
X92327770Y-69735526D01*
X92472407Y-69840612D01*
X92635733Y-69913329D01*
X92810609Y-69950500D01*
X92810610Y-69950500D01*
X92989389Y-69950500D01*
X92989391Y-69950500D01*
X93164267Y-69913329D01*
X93327593Y-69840612D01*
X93472230Y-69735526D01*
X93591859Y-69602665D01*
X93681250Y-69447835D01*
X93736497Y-69277803D01*
X93755185Y-69100000D01*
X93744674Y-69000000D01*
X95244815Y-69000000D01*
X95263503Y-69177805D01*
X95263504Y-69177807D01*
X95318747Y-69347829D01*
X95318750Y-69347835D01*
X95408141Y-69502665D01*
X95442307Y-69540610D01*
X95527764Y-69635521D01*
X95527767Y-69635523D01*
X95527770Y-69635526D01*
X95672407Y-69740612D01*
X95835733Y-69813329D01*
X96010609Y-69850500D01*
X96010610Y-69850500D01*
X96189389Y-69850500D01*
X96189391Y-69850500D01*
X96364267Y-69813329D01*
X96527593Y-69740612D01*
X96672230Y-69635526D01*
X96791859Y-69502665D01*
X96881250Y-69347835D01*
X96936497Y-69177803D01*
X96955185Y-69000000D01*
X96936497Y-68822197D01*
X96896087Y-68697829D01*
X96881252Y-68652170D01*
X96881249Y-68652164D01*
X96876880Y-68644596D01*
X96791859Y-68497335D01*
X96728487Y-68426953D01*
X96672235Y-68364478D01*
X96672232Y-68364476D01*
X96672231Y-68364475D01*
X96672230Y-68364474D01*
X96527593Y-68259388D01*
X96364267Y-68186671D01*
X96364265Y-68186670D01*
X96236594Y-68159533D01*
X96189391Y-68149500D01*
X96010609Y-68149500D01*
X95979954Y-68156015D01*
X95835733Y-68186670D01*
X95835728Y-68186672D01*
X95672408Y-68259387D01*
X95527768Y-68364475D01*
X95408140Y-68497336D01*
X95318750Y-68652164D01*
X95318747Y-68652170D01*
X95263504Y-68822192D01*
X95263503Y-68822194D01*
X95244815Y-69000000D01*
X93744674Y-69000000D01*
X93736497Y-68922197D01*
X93681250Y-68752165D01*
X93591859Y-68597335D01*
X93545003Y-68545296D01*
X93472235Y-68464478D01*
X93472232Y-68464476D01*
X93472231Y-68464475D01*
X93472230Y-68464474D01*
X93327593Y-68359388D01*
X93164267Y-68286671D01*
X93164265Y-68286670D01*
X93035906Y-68259387D01*
X92989391Y-68249500D01*
X92810609Y-68249500D01*
X92684975Y-68276204D01*
X92638521Y-68286078D01*
X92568854Y-68280761D01*
X92513121Y-68238623D01*
X92489016Y-68173043D01*
X92504193Y-68104842D01*
X92520589Y-68081817D01*
X92591859Y-68002665D01*
X92681250Y-67847835D01*
X92681413Y-67847335D01*
X92693024Y-67811597D01*
X92729285Y-67700000D01*
X105244815Y-67700000D01*
X105263503Y-67877805D01*
X105263504Y-67877807D01*
X105318747Y-68047829D01*
X105318750Y-68047835D01*
X105408141Y-68202665D01*
X105440518Y-68238623D01*
X105527764Y-68335521D01*
X105527767Y-68335523D01*
X105527770Y-68335526D01*
X105672407Y-68440612D01*
X105835733Y-68513329D01*
X106010609Y-68550500D01*
X106010610Y-68550500D01*
X106189389Y-68550500D01*
X106189391Y-68550500D01*
X106364267Y-68513329D01*
X106527593Y-68440612D01*
X106672230Y-68335526D01*
X106675211Y-68332216D01*
X106698148Y-68306741D01*
X106791859Y-68202665D01*
X106881250Y-68047835D01*
X106936497Y-67877803D01*
X106955185Y-67700000D01*
X106936497Y-67522197D01*
X106907098Y-67431716D01*
X106881252Y-67352170D01*
X106881249Y-67352164D01*
X106871643Y-67335526D01*
X106791859Y-67197335D01*
X106728629Y-67127111D01*
X106672235Y-67064478D01*
X106672232Y-67064476D01*
X106672231Y-67064475D01*
X106672230Y-67064474D01*
X106527593Y-66959388D01*
X106364267Y-66886671D01*
X106364265Y-66886670D01*
X106236594Y-66859533D01*
X106189391Y-66849500D01*
X106010609Y-66849500D01*
X105979954Y-66856015D01*
X105835733Y-66886670D01*
X105835728Y-66886672D01*
X105672408Y-66959387D01*
X105527768Y-67064475D01*
X105408140Y-67197336D01*
X105318750Y-67352164D01*
X105318747Y-67352170D01*
X105263504Y-67522192D01*
X105263503Y-67522194D01*
X105244815Y-67700000D01*
X92729285Y-67700000D01*
X92736497Y-67677803D01*
X92755185Y-67500000D01*
X92736497Y-67322197D01*
X92708873Y-67237181D01*
X92681252Y-67152170D01*
X92681249Y-67152164D01*
X92678746Y-67147829D01*
X92591859Y-66997335D01*
X92591858Y-66997334D01*
X92590405Y-66994817D01*
X92573932Y-66926917D01*
X92596785Y-66860890D01*
X92651706Y-66817699D01*
X92659477Y-66814885D01*
X92664264Y-66813329D01*
X92664267Y-66813329D01*
X92694205Y-66800000D01*
X98744815Y-66800000D01*
X98763503Y-66977805D01*
X98763504Y-66977807D01*
X98818747Y-67147829D01*
X98818750Y-67147835D01*
X98908141Y-67302665D01*
X98949812Y-67348946D01*
X99027764Y-67435521D01*
X99027767Y-67435523D01*
X99027770Y-67435526D01*
X99172407Y-67540612D01*
X99335733Y-67613329D01*
X99510609Y-67650500D01*
X99510610Y-67650500D01*
X99689389Y-67650500D01*
X99689391Y-67650500D01*
X99864267Y-67613329D01*
X100027593Y-67540612D01*
X100172230Y-67435526D01*
X100175656Y-67431722D01*
X100214145Y-67388975D01*
X100291859Y-67302665D01*
X100381250Y-67147835D01*
X100436497Y-66977803D01*
X100455185Y-66800000D01*
X100436497Y-66622197D01*
X100404003Y-66522192D01*
X100381252Y-66452170D01*
X100381249Y-66452164D01*
X100291859Y-66297335D01*
X100245003Y-66245296D01*
X100172235Y-66164478D01*
X100172232Y-66164476D01*
X100172231Y-66164475D01*
X100172230Y-66164474D01*
X100027593Y-66059388D01*
X99864267Y-65986671D01*
X99864265Y-65986670D01*
X99735906Y-65959387D01*
X99689391Y-65949500D01*
X99510609Y-65949500D01*
X99479954Y-65956015D01*
X99335733Y-65986670D01*
X99335728Y-65986672D01*
X99172408Y-66059387D01*
X99027768Y-66164475D01*
X98908140Y-66297336D01*
X98818750Y-66452164D01*
X98818747Y-66452170D01*
X98763504Y-66622192D01*
X98763503Y-66622194D01*
X98744815Y-66800000D01*
X92694205Y-66800000D01*
X92827593Y-66740612D01*
X92972230Y-66635526D01*
X93091859Y-66502665D01*
X93181250Y-66347835D01*
X93236497Y-66177803D01*
X93255185Y-66000000D01*
X93236497Y-65822197D01*
X93195927Y-65697335D01*
X93181252Y-65652170D01*
X93181249Y-65652164D01*
X93091859Y-65497335D01*
X93040516Y-65440313D01*
X92972235Y-65364478D01*
X92972232Y-65364476D01*
X92972231Y-65364475D01*
X92972230Y-65364474D01*
X92827593Y-65259388D01*
X92664267Y-65186671D01*
X92664265Y-65186670D01*
X92514584Y-65154855D01*
X92489391Y-65149500D01*
X92310609Y-65149500D01*
X92285416Y-65154855D01*
X92135733Y-65186670D01*
X92135728Y-65186672D01*
X91972408Y-65259387D01*
X91827768Y-65364475D01*
X91708140Y-65497336D01*
X91618750Y-65652164D01*
X91618747Y-65652170D01*
X91563504Y-65822192D01*
X91563503Y-65822194D01*
X91544815Y-66000000D01*
X91563503Y-66177805D01*
X91563504Y-66177807D01*
X91618747Y-66347829D01*
X91618750Y-66347835D01*
X91709594Y-66505182D01*
X91726067Y-66573083D01*
X91703214Y-66639109D01*
X91648293Y-66682300D01*
X91640531Y-66685111D01*
X91635733Y-66686669D01*
X91472408Y-66759387D01*
X91327768Y-66864475D01*
X91208140Y-66997336D01*
X91118750Y-67152164D01*
X91118747Y-67152170D01*
X91063504Y-67322192D01*
X91063503Y-67322194D01*
X91044815Y-67499999D01*
X91044815Y-67500000D01*
X91047148Y-67522194D01*
X91063503Y-67677805D01*
X91063504Y-67677807D01*
X91099042Y-67787182D01*
X91101037Y-67857023D01*
X91064956Y-67916856D01*
X91002255Y-67947684D01*
X90981111Y-67949500D01*
X90910609Y-67949500D01*
X90879954Y-67956015D01*
X90735733Y-67986670D01*
X90735728Y-67986672D01*
X90572408Y-68059387D01*
X90427768Y-68164475D01*
X90308140Y-68297336D01*
X90218750Y-68452164D01*
X90218747Y-68452170D01*
X90163504Y-68622192D01*
X90163503Y-68622194D01*
X90144815Y-68800000D01*
X87749233Y-68800000D01*
X87827593Y-68765112D01*
X87972230Y-68660026D01*
X87986124Y-68644596D01*
X87998148Y-68631241D01*
X88091859Y-68527165D01*
X88181250Y-68372335D01*
X88236497Y-68202303D01*
X88255185Y-68024500D01*
X88236497Y-67846697D01*
X88188832Y-67700000D01*
X88181252Y-67676670D01*
X88181249Y-67676664D01*
X88169895Y-67656998D01*
X88091859Y-67521835D01*
X88040211Y-67464474D01*
X87972235Y-67388978D01*
X87972232Y-67388976D01*
X87972231Y-67388975D01*
X87972230Y-67388974D01*
X87827593Y-67283888D01*
X87664267Y-67211171D01*
X87664265Y-67211170D01*
X87536594Y-67184033D01*
X87489391Y-67174000D01*
X87310609Y-67174000D01*
X87279954Y-67180515D01*
X87135733Y-67211170D01*
X87135728Y-67211172D01*
X86972408Y-67283887D01*
X86827768Y-67388975D01*
X86708140Y-67521836D01*
X86618750Y-67676664D01*
X86618747Y-67676670D01*
X86563504Y-67846692D01*
X86563503Y-67846694D01*
X86544815Y-68024500D01*
X84338020Y-68024500D01*
X84332853Y-68008597D01*
X84330765Y-68002170D01*
X84330762Y-68002164D01*
X84322734Y-67988259D01*
X84241372Y-67847335D01*
X84155685Y-67752170D01*
X84121748Y-67714478D01*
X84121745Y-67714476D01*
X84121744Y-67714475D01*
X84121743Y-67714474D01*
X83977106Y-67609388D01*
X83813780Y-67536671D01*
X83813778Y-67536670D01*
X83698423Y-67512151D01*
X83636941Y-67478959D01*
X83606273Y-67429178D01*
X83581253Y-67352173D01*
X83581251Y-67352169D01*
X83581250Y-67352165D01*
X83491859Y-67197335D01*
X83428629Y-67127111D01*
X83372235Y-67064478D01*
X83372232Y-67064476D01*
X83372231Y-67064475D01*
X83372230Y-67064474D01*
X83227593Y-66959388D01*
X83064267Y-66886671D01*
X83064265Y-66886670D01*
X82936594Y-66859533D01*
X82889391Y-66849500D01*
X82758370Y-66849500D01*
X82691331Y-66829815D01*
X82645576Y-66777011D01*
X82635632Y-66707853D01*
X82664657Y-66644297D01*
X82685484Y-66625182D01*
X82808884Y-66535526D01*
X82928513Y-66402665D01*
X83017904Y-66247835D01*
X83033447Y-66199999D01*
X84144815Y-66199999D01*
X84163503Y-66377805D01*
X84163504Y-66377807D01*
X84218747Y-66547829D01*
X84218750Y-66547835D01*
X84308141Y-66702665D01*
X84342307Y-66740610D01*
X84427764Y-66835521D01*
X84427767Y-66835523D01*
X84427770Y-66835526D01*
X84572407Y-66940612D01*
X84735733Y-67013329D01*
X84910609Y-67050500D01*
X84910610Y-67050500D01*
X85089389Y-67050500D01*
X85089391Y-67050500D01*
X85264267Y-67013329D01*
X85427593Y-66940612D01*
X85572230Y-66835526D01*
X85577373Y-66829815D01*
X85624917Y-66777011D01*
X85691859Y-66702665D01*
X85781250Y-66547835D01*
X85836497Y-66377803D01*
X85855185Y-66200000D01*
X85836497Y-66022197D01*
X85792462Y-65886671D01*
X85781252Y-65852170D01*
X85781249Y-65852164D01*
X85706210Y-65722192D01*
X85691859Y-65697335D01*
X85628960Y-65627479D01*
X85572235Y-65564478D01*
X85572232Y-65564476D01*
X85572231Y-65564475D01*
X85572230Y-65564474D01*
X85427593Y-65459388D01*
X85264267Y-65386671D01*
X85264265Y-65386670D01*
X85101952Y-65352170D01*
X85089391Y-65349500D01*
X84910609Y-65349500D01*
X84898048Y-65352170D01*
X84735733Y-65386670D01*
X84735728Y-65386672D01*
X84572408Y-65459387D01*
X84427768Y-65564475D01*
X84308140Y-65697336D01*
X84218750Y-65852164D01*
X84218747Y-65852170D01*
X84163504Y-66022192D01*
X84163503Y-66022194D01*
X84144815Y-66199999D01*
X83033447Y-66199999D01*
X83073151Y-66077803D01*
X83091839Y-65900000D01*
X83073151Y-65722197D01*
X83042375Y-65627479D01*
X83017906Y-65552170D01*
X83017903Y-65552164D01*
X83000599Y-65522192D01*
X82928513Y-65397335D01*
X82881657Y-65345296D01*
X82808889Y-65264478D01*
X82808886Y-65264476D01*
X82808885Y-65264475D01*
X82808884Y-65264474D01*
X82664247Y-65159388D01*
X82500921Y-65086671D01*
X82500919Y-65086670D01*
X82373248Y-65059533D01*
X82326045Y-65049500D01*
X82147263Y-65049500D01*
X82116608Y-65056015D01*
X81972387Y-65086670D01*
X81972382Y-65086672D01*
X81809062Y-65159387D01*
X81664422Y-65264475D01*
X81544794Y-65397336D01*
X81455404Y-65552164D01*
X81455401Y-65552170D01*
X81400158Y-65722192D01*
X81400157Y-65722194D01*
X81381469Y-65899999D01*
X81400157Y-66077805D01*
X81400158Y-66077807D01*
X81455401Y-66247829D01*
X81455404Y-66247835D01*
X81544795Y-66402665D01*
X81578961Y-66440610D01*
X81664418Y-66535521D01*
X81664421Y-66535523D01*
X81664424Y-66535526D01*
X81809061Y-66640612D01*
X81972387Y-66713329D01*
X82147263Y-66750500D01*
X82147264Y-66750500D01*
X82278285Y-66750500D01*
X82345324Y-66770185D01*
X82391079Y-66822989D01*
X82401023Y-66892147D01*
X82371998Y-66955703D01*
X82351172Y-66974816D01*
X82320179Y-66997335D01*
X82227768Y-67064475D01*
X82108140Y-67197336D01*
X82018750Y-67352164D01*
X82018747Y-67352170D01*
X81963504Y-67522192D01*
X81963503Y-67522194D01*
X81944815Y-67700000D01*
X81963503Y-67877805D01*
X81963504Y-67877807D01*
X82018747Y-68047829D01*
X82018750Y-68047835D01*
X82108141Y-68202665D01*
X82140518Y-68238623D01*
X82227764Y-68335521D01*
X82227767Y-68335523D01*
X82227770Y-68335526D01*
X82372407Y-68440612D01*
X82535733Y-68513329D01*
X82535735Y-68513329D01*
X82535736Y-68513330D01*
X82588159Y-68524472D01*
X82651089Y-68537848D01*
X82712570Y-68571040D01*
X82743239Y-68620820D01*
X82768260Y-68697829D01*
X82768263Y-68697835D01*
X82857653Y-68852664D01*
X82915606Y-68917028D01*
X82945836Y-68980020D01*
X82937210Y-69049355D01*
X82915606Y-69082972D01*
X82857653Y-69147336D01*
X82812950Y-69224764D01*
X82762383Y-69272980D01*
X82693776Y-69286203D01*
X82632677Y-69263082D01*
X82627594Y-69259389D01*
X82627593Y-69259388D01*
X82464267Y-69186671D01*
X82464265Y-69186670D01*
X82336594Y-69159533D01*
X82289391Y-69149500D01*
X82110609Y-69149500D01*
X82079954Y-69156015D01*
X81935733Y-69186670D01*
X81935728Y-69186672D01*
X81772408Y-69259387D01*
X81627768Y-69364475D01*
X81508140Y-69497336D01*
X81418750Y-69652164D01*
X81418747Y-69652170D01*
X81363504Y-69822192D01*
X81363503Y-69822194D01*
X81344815Y-69999999D01*
X70937514Y-69999999D01*
X70938763Y-69997835D01*
X70994010Y-69827803D01*
X71012698Y-69650000D01*
X70994010Y-69472197D01*
X70952244Y-69343655D01*
X70938765Y-69302170D01*
X70938762Y-69302164D01*
X70929547Y-69286203D01*
X70849372Y-69147335D01*
X70791418Y-69082971D01*
X70761189Y-69019981D01*
X70769814Y-68950646D01*
X70791419Y-68917028D01*
X70811343Y-68894900D01*
X70849372Y-68852665D01*
X70938763Y-68697835D01*
X70994010Y-68527803D01*
X71012698Y-68350000D01*
X70994010Y-68172197D01*
X70940853Y-68008597D01*
X70938765Y-68002170D01*
X70938762Y-68002164D01*
X70930734Y-67988259D01*
X70849372Y-67847335D01*
X70763685Y-67752170D01*
X70729748Y-67714478D01*
X70729745Y-67714476D01*
X70729744Y-67714475D01*
X70729743Y-67714474D01*
X70585106Y-67609388D01*
X70421780Y-67536671D01*
X70421778Y-67536670D01*
X70288893Y-67508425D01*
X70246904Y-67499500D01*
X70068122Y-67499500D01*
X70037467Y-67506015D01*
X69893246Y-67536670D01*
X69893241Y-67536672D01*
X69729921Y-67609387D01*
X69585281Y-67714475D01*
X69465653Y-67847336D01*
X69376263Y-68002164D01*
X69376260Y-68002170D01*
X69321017Y-68172192D01*
X69321016Y-68172194D01*
X69302328Y-68350000D01*
X69321016Y-68527805D01*
X69321017Y-68527807D01*
X69376260Y-68697829D01*
X69376263Y-68697835D01*
X69465653Y-68852664D01*
X69523606Y-68917028D01*
X69553836Y-68980020D01*
X69545210Y-69049355D01*
X69523606Y-69082972D01*
X69465653Y-69147335D01*
X69376263Y-69302164D01*
X69376260Y-69302170D01*
X69321017Y-69472192D01*
X69321016Y-69472194D01*
X69303849Y-69635526D01*
X69302328Y-69650000D01*
X47000500Y-69650000D01*
X47000500Y-64939851D01*
X47020185Y-64872812D01*
X47072989Y-64827057D01*
X47142147Y-64817113D01*
X47205703Y-64846138D01*
X47209366Y-64849443D01*
X47335388Y-64967785D01*
X47411818Y-65039558D01*
X47411828Y-65039566D01*
X47660959Y-65220570D01*
X47660964Y-65220572D01*
X47660971Y-65220578D01*
X47930845Y-65368943D01*
X47930850Y-65368945D01*
X47930852Y-65368946D01*
X47930853Y-65368947D01*
X48045489Y-65414334D01*
X48100574Y-65457314D01*
X48123678Y-65523254D01*
X48107465Y-65591216D01*
X48076005Y-65627479D01*
X47997733Y-65688401D01*
X47836322Y-65863740D01*
X47705982Y-66063242D01*
X47610254Y-66281481D01*
X47551751Y-66512505D01*
X47532072Y-66749994D01*
X47532072Y-66750005D01*
X47551751Y-66987494D01*
X47610254Y-67218518D01*
X47705982Y-67436757D01*
X47836322Y-67636259D01*
X47836325Y-67636263D01*
X47836327Y-67636265D01*
X47997731Y-67811597D01*
X47997734Y-67811599D01*
X47997737Y-67811602D01*
X48185784Y-67957965D01*
X48185790Y-67957969D01*
X48185793Y-67957971D01*
X48395382Y-68071395D01*
X48620782Y-68148775D01*
X48855844Y-68188000D01*
X48855845Y-68188000D01*
X49094155Y-68188000D01*
X49094156Y-68188000D01*
X49329218Y-68148775D01*
X49554618Y-68071395D01*
X49764207Y-67957971D01*
X49810174Y-67922194D01*
X49867202Y-67877807D01*
X49952269Y-67811597D01*
X49962945Y-67800000D01*
X57794540Y-67800000D01*
X57814326Y-67988256D01*
X57814327Y-67988259D01*
X57872818Y-68168277D01*
X57872821Y-68168284D01*
X57967467Y-68332216D01*
X58067197Y-68442977D01*
X58094129Y-68472888D01*
X58247265Y-68584148D01*
X58247270Y-68584151D01*
X58420192Y-68661142D01*
X58420197Y-68661144D01*
X58605354Y-68700500D01*
X58605355Y-68700500D01*
X58794644Y-68700500D01*
X58794646Y-68700500D01*
X58979803Y-68661144D01*
X59152730Y-68584151D01*
X59305871Y-68472888D01*
X59432533Y-68332216D01*
X59527179Y-68168284D01*
X59549366Y-68100000D01*
X65644815Y-68100000D01*
X65663503Y-68277805D01*
X65663504Y-68277807D01*
X65718747Y-68447829D01*
X65718750Y-68447835D01*
X65808141Y-68602665D01*
X65825726Y-68622195D01*
X65927764Y-68735521D01*
X65927767Y-68735523D01*
X65927770Y-68735526D01*
X66072407Y-68840612D01*
X66235733Y-68913329D01*
X66410609Y-68950500D01*
X66410610Y-68950500D01*
X66589389Y-68950500D01*
X66589391Y-68950500D01*
X66764267Y-68913329D01*
X66927593Y-68840612D01*
X67072230Y-68735526D01*
X67191859Y-68602665D01*
X67281250Y-68447835D01*
X67336497Y-68277803D01*
X67355185Y-68100000D01*
X67336497Y-67922197D01*
X67281250Y-67752165D01*
X67191859Y-67597335D01*
X67126859Y-67525145D01*
X67072235Y-67464478D01*
X67072232Y-67464476D01*
X67072231Y-67464475D01*
X67072230Y-67464474D01*
X66927593Y-67359388D01*
X66764267Y-67286671D01*
X66764265Y-67286670D01*
X66636594Y-67259533D01*
X66589391Y-67249500D01*
X66410609Y-67249500D01*
X66379954Y-67256015D01*
X66235733Y-67286670D01*
X66235728Y-67286672D01*
X66072408Y-67359387D01*
X65927768Y-67464475D01*
X65808140Y-67597336D01*
X65718750Y-67752164D01*
X65718747Y-67752170D01*
X65663504Y-67922192D01*
X65663503Y-67922194D01*
X65644815Y-68100000D01*
X59549366Y-68100000D01*
X59585674Y-67988256D01*
X59605460Y-67800000D01*
X59585674Y-67611744D01*
X59527179Y-67431716D01*
X59432533Y-67267784D01*
X59305871Y-67127112D01*
X59305870Y-67127111D01*
X59152734Y-67015851D01*
X59152729Y-67015848D01*
X58979807Y-66938857D01*
X58979802Y-66938855D01*
X58834000Y-66907865D01*
X58794646Y-66899500D01*
X58605354Y-66899500D01*
X58572897Y-66906398D01*
X58420197Y-66938855D01*
X58420192Y-66938857D01*
X58247270Y-67015848D01*
X58247265Y-67015851D01*
X58094129Y-67127111D01*
X57967466Y-67267785D01*
X57872821Y-67431715D01*
X57872818Y-67431722D01*
X57814327Y-67611740D01*
X57814326Y-67611744D01*
X57794540Y-67800000D01*
X49962945Y-67800000D01*
X50113673Y-67636265D01*
X50244017Y-67436758D01*
X50339746Y-67218518D01*
X50398248Y-66987498D01*
X50410841Y-66835523D01*
X50417928Y-66750005D01*
X50417928Y-66749994D01*
X50413785Y-66699999D01*
X78543175Y-66699999D01*
X78561863Y-66877805D01*
X78561864Y-66877807D01*
X78617107Y-67047829D01*
X78617110Y-67047835D01*
X78706501Y-67202665D01*
X78748172Y-67248946D01*
X78826124Y-67335521D01*
X78826127Y-67335523D01*
X78826130Y-67335526D01*
X78970767Y-67440612D01*
X79134093Y-67513329D01*
X79308969Y-67550500D01*
X79308970Y-67550500D01*
X79487749Y-67550500D01*
X79487751Y-67550500D01*
X79662627Y-67513329D01*
X79825953Y-67440612D01*
X79970590Y-67335526D01*
X80090219Y-67202665D01*
X80179610Y-67047835D01*
X80234857Y-66877803D01*
X80253545Y-66700000D01*
X80234857Y-66522197D01*
X80187941Y-66377805D01*
X80179612Y-66352170D01*
X80179609Y-66352164D01*
X80177110Y-66347835D01*
X80090219Y-66197335D01*
X80043363Y-66145296D01*
X79970595Y-66064478D01*
X79970592Y-66064476D01*
X79970591Y-66064475D01*
X79970590Y-66064474D01*
X79825953Y-65959388D01*
X79662627Y-65886671D01*
X79662625Y-65886670D01*
X79500312Y-65852170D01*
X79487751Y-65849500D01*
X79308969Y-65849500D01*
X79296408Y-65852170D01*
X79134093Y-65886670D01*
X79134088Y-65886672D01*
X78970768Y-65959387D01*
X78826128Y-66064475D01*
X78706500Y-66197336D01*
X78617110Y-66352164D01*
X78617107Y-66352170D01*
X78561864Y-66522192D01*
X78561863Y-66522194D01*
X78543175Y-66699999D01*
X50413785Y-66699999D01*
X50400156Y-66535526D01*
X50398248Y-66512502D01*
X50339746Y-66281482D01*
X50244017Y-66063242D01*
X50223747Y-66032216D01*
X50113677Y-65863740D01*
X50113674Y-65863737D01*
X50113673Y-65863735D01*
X49952269Y-65688403D01*
X49873994Y-65627479D01*
X49833182Y-65570769D01*
X49829507Y-65500996D01*
X49830075Y-65500000D01*
X53194540Y-65500000D01*
X53214326Y-65688256D01*
X53214327Y-65688259D01*
X53272818Y-65868277D01*
X53272821Y-65868284D01*
X53367467Y-66032216D01*
X53486553Y-66164474D01*
X53494129Y-66172888D01*
X53647265Y-66284148D01*
X53647270Y-66284151D01*
X53820192Y-66361142D01*
X53820197Y-66361144D01*
X54005354Y-66400500D01*
X54005355Y-66400500D01*
X54194644Y-66400500D01*
X54194646Y-66400500D01*
X54379803Y-66361144D01*
X54552730Y-66284151D01*
X54705871Y-66172888D01*
X54832533Y-66032216D01*
X54927179Y-65868284D01*
X54981858Y-65700000D01*
X68644815Y-65700000D01*
X68663503Y-65877805D01*
X68663504Y-65877807D01*
X68718747Y-66047829D01*
X68718750Y-66047835D01*
X68808141Y-66202665D01*
X68848807Y-66247829D01*
X68927764Y-66335521D01*
X68927767Y-66335523D01*
X68927770Y-66335526D01*
X69072407Y-66440612D01*
X69235733Y-66513329D01*
X69410609Y-66550500D01*
X69410610Y-66550500D01*
X69589389Y-66550500D01*
X69589391Y-66550500D01*
X69764267Y-66513329D01*
X69927593Y-66440612D01*
X70072230Y-66335526D01*
X70191859Y-66202665D01*
X70281250Y-66047835D01*
X70336497Y-65877803D01*
X70355185Y-65700000D01*
X70336497Y-65522197D01*
X70292462Y-65386671D01*
X70281252Y-65352170D01*
X70281249Y-65352164D01*
X70279711Y-65349500D01*
X70191859Y-65197335D01*
X70132775Y-65131716D01*
X70072235Y-65064478D01*
X70072232Y-65064476D01*
X70072231Y-65064475D01*
X70072230Y-65064474D01*
X69927593Y-64959388D01*
X69764267Y-64886671D01*
X69764265Y-64886670D01*
X69636594Y-64859533D01*
X69589391Y-64849500D01*
X69410609Y-64849500D01*
X69379954Y-64856015D01*
X69235733Y-64886670D01*
X69235728Y-64886672D01*
X69072408Y-64959387D01*
X68927768Y-65064475D01*
X68808140Y-65197336D01*
X68718750Y-65352164D01*
X68718747Y-65352170D01*
X68663504Y-65522192D01*
X68663503Y-65522194D01*
X68644815Y-65700000D01*
X54981858Y-65700000D01*
X54985674Y-65688256D01*
X55005460Y-65500000D01*
X54985674Y-65311744D01*
X54927179Y-65131716D01*
X54832533Y-64967784D01*
X54705871Y-64827112D01*
X54705870Y-64827111D01*
X54552734Y-64715851D01*
X54552729Y-64715848D01*
X54379807Y-64638857D01*
X54379802Y-64638855D01*
X54234000Y-64607865D01*
X54194646Y-64599500D01*
X54005354Y-64599500D01*
X53990464Y-64602665D01*
X53820197Y-64638855D01*
X53820192Y-64638857D01*
X53647270Y-64715848D01*
X53647265Y-64715851D01*
X53494129Y-64827111D01*
X53367466Y-64967785D01*
X53272821Y-65131715D01*
X53272818Y-65131722D01*
X53214327Y-65311740D01*
X53214326Y-65311744D01*
X53194540Y-65500000D01*
X49830075Y-65500000D01*
X49864139Y-65440313D01*
X49904505Y-65414335D01*
X50019155Y-65368943D01*
X50289029Y-65220578D01*
X50538180Y-65039560D01*
X50762678Y-64828742D01*
X50958984Y-64591449D01*
X51124001Y-64331423D01*
X51232901Y-64099999D01*
X73344815Y-64099999D01*
X73363503Y-64277805D01*
X73363504Y-64277807D01*
X73418747Y-64447829D01*
X73418750Y-64447835D01*
X73508141Y-64602665D01*
X73540727Y-64638855D01*
X73627764Y-64735521D01*
X73627767Y-64735523D01*
X73627770Y-64735526D01*
X73772407Y-64840612D01*
X73935733Y-64913329D01*
X74110609Y-64950500D01*
X74110610Y-64950500D01*
X74289389Y-64950500D01*
X74289391Y-64950500D01*
X74464267Y-64913329D01*
X74627593Y-64840612D01*
X74772230Y-64735526D01*
X74891859Y-64602665D01*
X74981250Y-64447835D01*
X75036497Y-64277803D01*
X75055185Y-64100000D01*
X104244815Y-64100000D01*
X104263503Y-64277805D01*
X104263504Y-64277807D01*
X104318747Y-64447829D01*
X104318750Y-64447835D01*
X104408141Y-64602665D01*
X104440727Y-64638855D01*
X104527764Y-64735521D01*
X104527767Y-64735523D01*
X104527770Y-64735526D01*
X104672407Y-64840612D01*
X104835733Y-64913329D01*
X105010609Y-64950500D01*
X105010610Y-64950500D01*
X105189389Y-64950500D01*
X105189391Y-64950500D01*
X105364267Y-64913329D01*
X105527593Y-64840612D01*
X105672230Y-64735526D01*
X105791859Y-64602665D01*
X105881250Y-64447835D01*
X105936497Y-64277803D01*
X105955185Y-64100000D01*
X105936497Y-63922197D01*
X105883756Y-63759877D01*
X105881252Y-63752170D01*
X105881249Y-63752164D01*
X105791859Y-63597335D01*
X105745003Y-63545296D01*
X105672235Y-63464478D01*
X105672232Y-63464476D01*
X105672231Y-63464475D01*
X105672230Y-63464474D01*
X105527593Y-63359388D01*
X105364267Y-63286671D01*
X105364265Y-63286670D01*
X105236594Y-63259533D01*
X105189391Y-63249500D01*
X105010609Y-63249500D01*
X104979954Y-63256015D01*
X104835733Y-63286670D01*
X104835728Y-63286672D01*
X104672408Y-63359387D01*
X104527768Y-63464475D01*
X104408140Y-63597336D01*
X104318750Y-63752164D01*
X104318747Y-63752170D01*
X104263504Y-63922192D01*
X104263503Y-63922194D01*
X104244815Y-64100000D01*
X75055185Y-64100000D01*
X75036497Y-63922197D01*
X74983756Y-63759877D01*
X74981252Y-63752170D01*
X74981249Y-63752164D01*
X74891859Y-63597335D01*
X74845003Y-63545296D01*
X74772235Y-63464478D01*
X74772232Y-63464476D01*
X74772231Y-63464475D01*
X74772230Y-63464474D01*
X74627593Y-63359388D01*
X74464267Y-63286671D01*
X74464265Y-63286670D01*
X74336594Y-63259533D01*
X74289391Y-63249500D01*
X74110609Y-63249500D01*
X74079954Y-63256015D01*
X73935733Y-63286670D01*
X73935728Y-63286672D01*
X73772408Y-63359387D01*
X73627768Y-63464475D01*
X73508140Y-63597336D01*
X73418750Y-63752164D01*
X73418747Y-63752170D01*
X73363504Y-63922192D01*
X73363503Y-63922194D01*
X73344815Y-64099999D01*
X51232901Y-64099999D01*
X51255127Y-64052766D01*
X51350294Y-63759872D01*
X51408002Y-63457360D01*
X51421080Y-63249500D01*
X51427339Y-63150005D01*
X51427339Y-63149994D01*
X51408003Y-62842647D01*
X51408002Y-62842640D01*
X51350294Y-62540128D01*
X51255127Y-62247234D01*
X51124001Y-61968577D01*
X51031103Y-61822192D01*
X50958987Y-61708555D01*
X50933550Y-61677807D01*
X50762678Y-61471258D01*
X50680435Y-61394027D01*
X50538181Y-61260441D01*
X50538171Y-61260433D01*
X50289040Y-61079429D01*
X50289033Y-61079424D01*
X50289029Y-61079422D01*
X50019155Y-60931057D01*
X50019152Y-60931055D01*
X50019147Y-60931053D01*
X50019146Y-60931052D01*
X49732817Y-60817687D01*
X49732814Y-60817686D01*
X49434520Y-60741098D01*
X49128993Y-60702500D01*
X49128984Y-60702500D01*
X48821016Y-60702500D01*
X48821006Y-60702500D01*
X48515479Y-60741098D01*
X48217185Y-60817686D01*
X48217182Y-60817687D01*
X47930853Y-60931052D01*
X47930852Y-60931053D01*
X47660971Y-61079422D01*
X47660959Y-61079429D01*
X47411828Y-61260433D01*
X47411818Y-61260441D01*
X47209384Y-61450539D01*
X47147039Y-61482081D01*
X47077538Y-61474910D01*
X47022948Y-61431302D01*
X47000599Y-61365103D01*
X47000500Y-61360147D01*
X47000500Y-60599999D01*
X75144815Y-60599999D01*
X75163503Y-60777805D01*
X75163504Y-60777807D01*
X75218747Y-60947829D01*
X75218750Y-60947835D01*
X75308141Y-61102665D01*
X75349812Y-61148946D01*
X75427764Y-61235521D01*
X75427767Y-61235523D01*
X75427770Y-61235526D01*
X75572407Y-61340612D01*
X75735733Y-61413329D01*
X75910609Y-61450500D01*
X75910610Y-61450500D01*
X76089389Y-61450500D01*
X76089391Y-61450500D01*
X76264267Y-61413329D01*
X76294205Y-61400000D01*
X77144815Y-61400000D01*
X77148105Y-61431302D01*
X77163503Y-61577805D01*
X77163504Y-61577807D01*
X77218747Y-61747829D01*
X77218750Y-61747835D01*
X77308141Y-61902665D01*
X77339577Y-61937578D01*
X77427764Y-62035521D01*
X77427767Y-62035523D01*
X77427770Y-62035526D01*
X77572407Y-62140612D01*
X77735733Y-62213329D01*
X77910609Y-62250500D01*
X77910610Y-62250500D01*
X78089389Y-62250500D01*
X78089391Y-62250500D01*
X78264267Y-62213329D01*
X78427593Y-62140612D01*
X78572230Y-62035526D01*
X78691859Y-61902665D01*
X78695308Y-61896691D01*
X82195315Y-61896691D01*
X82214003Y-62074496D01*
X82214004Y-62074498D01*
X82269247Y-62244520D01*
X82269250Y-62244526D01*
X82358641Y-62399356D01*
X82399146Y-62444341D01*
X82478264Y-62532212D01*
X82478267Y-62532214D01*
X82478270Y-62532217D01*
X82622907Y-62637303D01*
X82786233Y-62710020D01*
X82961109Y-62747191D01*
X82961110Y-62747191D01*
X83139889Y-62747191D01*
X83139891Y-62747191D01*
X83314767Y-62710020D01*
X83478093Y-62637303D01*
X83622730Y-62532217D01*
X83628241Y-62526097D01*
X83683309Y-62464937D01*
X83742359Y-62399356D01*
X83831750Y-62244526D01*
X83886997Y-62074494D01*
X83905685Y-61896691D01*
X83886997Y-61718888D01*
X83841156Y-61577805D01*
X83831752Y-61548861D01*
X83831749Y-61548855D01*
X83803542Y-61499999D01*
X99544815Y-61499999D01*
X99563503Y-61677805D01*
X99563504Y-61677807D01*
X99618747Y-61847829D01*
X99618750Y-61847835D01*
X99708141Y-62002665D01*
X99749812Y-62048946D01*
X99827764Y-62135521D01*
X99827767Y-62135523D01*
X99827770Y-62135526D01*
X99972407Y-62240612D01*
X100135733Y-62313329D01*
X100310609Y-62350500D01*
X100310610Y-62350500D01*
X100489389Y-62350500D01*
X100489391Y-62350500D01*
X100664267Y-62313329D01*
X100827593Y-62240612D01*
X100972230Y-62135526D01*
X100976232Y-62131082D01*
X100998148Y-62106741D01*
X101091859Y-62002665D01*
X101181250Y-61847835D01*
X101236497Y-61677803D01*
X101255185Y-61500000D01*
X101236497Y-61322197D01*
X101192462Y-61186671D01*
X101181252Y-61152170D01*
X101181249Y-61152164D01*
X101180951Y-61151647D01*
X101091859Y-60997335D01*
X101078926Y-60982972D01*
X101048697Y-60919982D01*
X101057321Y-60850647D01*
X101078927Y-60817027D01*
X101091859Y-60802665D01*
X101181250Y-60647835D01*
X101236497Y-60477803D01*
X101255185Y-60300000D01*
X101255185Y-60299999D01*
X103444815Y-60299999D01*
X103463503Y-60477805D01*
X103463504Y-60477807D01*
X103518747Y-60647829D01*
X103518750Y-60647835D01*
X103608141Y-60802665D01*
X103621667Y-60817687D01*
X103727764Y-60935521D01*
X103727767Y-60935523D01*
X103727770Y-60935526D01*
X103872407Y-61040612D01*
X104035733Y-61113329D01*
X104210609Y-61150500D01*
X104210610Y-61150500D01*
X104389389Y-61150500D01*
X104389391Y-61150500D01*
X104564267Y-61113329D01*
X104727593Y-61040612D01*
X104872230Y-60935526D01*
X104876259Y-60931052D01*
X104904218Y-60900000D01*
X104991859Y-60802665D01*
X105081250Y-60647835D01*
X105136497Y-60477803D01*
X105155185Y-60300000D01*
X105136497Y-60122197D01*
X105101276Y-60013797D01*
X105100958Y-60012818D01*
X105098963Y-59942977D01*
X105135044Y-59883144D01*
X105197745Y-59852316D01*
X105218889Y-59850500D01*
X105289389Y-59850500D01*
X105289391Y-59850500D01*
X105464267Y-59813329D01*
X105627593Y-59740612D01*
X105772230Y-59635526D01*
X105891859Y-59502665D01*
X105981250Y-59347835D01*
X105981502Y-59347061D01*
X106000957Y-59287182D01*
X106036497Y-59177803D01*
X106055185Y-59000000D01*
X106036497Y-58822197D01*
X105985937Y-58666590D01*
X105981252Y-58652170D01*
X105981247Y-58652159D01*
X105933015Y-58568618D01*
X105916542Y-58500718D01*
X105939395Y-58434691D01*
X105994316Y-58391501D01*
X106063870Y-58384860D01*
X106090831Y-58393337D01*
X106135733Y-58413329D01*
X106310609Y-58450500D01*
X106310610Y-58450500D01*
X106489389Y-58450500D01*
X106489391Y-58450500D01*
X106664267Y-58413329D01*
X106827593Y-58340612D01*
X106972230Y-58235526D01*
X106972426Y-58235309D01*
X107016221Y-58186669D01*
X107033350Y-58167645D01*
X107092836Y-58130997D01*
X107162693Y-58132326D01*
X107220741Y-58171212D01*
X107248551Y-58235309D01*
X107249500Y-58250617D01*
X107249500Y-59617870D01*
X107249501Y-59617876D01*
X107255908Y-59677483D01*
X107306202Y-59812328D01*
X107306206Y-59812335D01*
X107392452Y-59927544D01*
X107392455Y-59927547D01*
X107507664Y-60013793D01*
X107507671Y-60013797D01*
X107507674Y-60013798D01*
X107639598Y-60063002D01*
X107695531Y-60104873D01*
X107719949Y-60170337D01*
X107705098Y-60238610D01*
X107683947Y-60266865D01*
X107561886Y-60388926D01*
X107426400Y-60582420D01*
X107426399Y-60582422D01*
X107326570Y-60796507D01*
X107326567Y-60796513D01*
X107269364Y-61009999D01*
X107269364Y-61010000D01*
X107986653Y-61010000D01*
X108053692Y-61029685D01*
X108099447Y-61082489D01*
X108109391Y-61151647D01*
X108105631Y-61168933D01*
X108100000Y-61188111D01*
X108100000Y-61331888D01*
X108105631Y-61351067D01*
X108105630Y-61420936D01*
X108067855Y-61479714D01*
X108004299Y-61508738D01*
X107986653Y-61510000D01*
X107269364Y-61510000D01*
X107326567Y-61723486D01*
X107326570Y-61723492D01*
X107426399Y-61937578D01*
X107561894Y-62131082D01*
X107728917Y-62298105D01*
X107914595Y-62428119D01*
X107958219Y-62482696D01*
X107965412Y-62552195D01*
X107933890Y-62614549D01*
X107914595Y-62631269D01*
X107728594Y-62761508D01*
X107561505Y-62928597D01*
X107425965Y-63122169D01*
X107425964Y-63122171D01*
X107326098Y-63336335D01*
X107326094Y-63336344D01*
X107264938Y-63564586D01*
X107264936Y-63564596D01*
X107244341Y-63799999D01*
X107244341Y-63800000D01*
X107264936Y-64035403D01*
X107264938Y-64035413D01*
X107326094Y-64263655D01*
X107326096Y-64263659D01*
X107326097Y-64263663D01*
X107357694Y-64331423D01*
X107425965Y-64477830D01*
X107425967Y-64477834D01*
X107561501Y-64671395D01*
X107561506Y-64671402D01*
X107728597Y-64838493D01*
X107728603Y-64838498D01*
X107914158Y-64968425D01*
X107957783Y-65023002D01*
X107964977Y-65092500D01*
X107933454Y-65154855D01*
X107914158Y-65171575D01*
X107728597Y-65301505D01*
X107561505Y-65468597D01*
X107425965Y-65662169D01*
X107425964Y-65662171D01*
X107326098Y-65876335D01*
X107326094Y-65876344D01*
X107264938Y-66104586D01*
X107264936Y-66104596D01*
X107244341Y-66339999D01*
X107244341Y-66340000D01*
X107264936Y-66575403D01*
X107264938Y-66575413D01*
X107326094Y-66803655D01*
X107326096Y-66803659D01*
X107326097Y-66803663D01*
X107423866Y-67013329D01*
X107425965Y-67017830D01*
X107425967Y-67017834D01*
X107561501Y-67211395D01*
X107561506Y-67211402D01*
X107728597Y-67378493D01*
X107728603Y-67378498D01*
X107914158Y-67508425D01*
X107957783Y-67563002D01*
X107964977Y-67632500D01*
X107933454Y-67694855D01*
X107914158Y-67711575D01*
X107728597Y-67841505D01*
X107561505Y-68008597D01*
X107425965Y-68202169D01*
X107425964Y-68202171D01*
X107326098Y-68416335D01*
X107326094Y-68416344D01*
X107264938Y-68644586D01*
X107264936Y-68644596D01*
X107244341Y-68879999D01*
X107244341Y-68880000D01*
X107264936Y-69115403D01*
X107264938Y-69115413D01*
X107326094Y-69343655D01*
X107326096Y-69343659D01*
X107326097Y-69343663D01*
X107386031Y-69472192D01*
X107425965Y-69557830D01*
X107425967Y-69557834D01*
X107534281Y-69712521D01*
X107561505Y-69751401D01*
X107728599Y-69918495D01*
X107757679Y-69938857D01*
X107922165Y-70054032D01*
X107922167Y-70054033D01*
X107922170Y-70054035D01*
X108136337Y-70153903D01*
X108364592Y-70215063D01*
X108552918Y-70231539D01*
X108599999Y-70235659D01*
X108600000Y-70235659D01*
X108600001Y-70235659D01*
X108639234Y-70232226D01*
X108835408Y-70215063D01*
X109063663Y-70153903D01*
X109277830Y-70054035D01*
X109471401Y-69918495D01*
X109638495Y-69751401D01*
X109774035Y-69557830D01*
X109873903Y-69343663D01*
X109935063Y-69115408D01*
X109955659Y-68880000D01*
X109935063Y-68644592D01*
X109873903Y-68416337D01*
X109774035Y-68202171D01*
X109764113Y-68188000D01*
X109638494Y-68008597D01*
X109471402Y-67841506D01*
X109471396Y-67841501D01*
X109285842Y-67711575D01*
X109242217Y-67656998D01*
X109235023Y-67587500D01*
X109266546Y-67525145D01*
X109285842Y-67508425D01*
X109327924Y-67478959D01*
X109471401Y-67378495D01*
X109638495Y-67211401D01*
X109774035Y-67017830D01*
X109873903Y-66803663D01*
X109935063Y-66575408D01*
X109955659Y-66340000D01*
X109935063Y-66104592D01*
X109873903Y-65876337D01*
X109774035Y-65662171D01*
X109767033Y-65652170D01*
X109638494Y-65468597D01*
X109471402Y-65301506D01*
X109471396Y-65301501D01*
X109285842Y-65171575D01*
X109242217Y-65116998D01*
X109235023Y-65047500D01*
X109266546Y-64985145D01*
X109285842Y-64968425D01*
X109402597Y-64886672D01*
X109471401Y-64838495D01*
X109638495Y-64671401D01*
X109774035Y-64477830D01*
X109873903Y-64263663D01*
X109935063Y-64035408D01*
X109955659Y-63800000D01*
X109935063Y-63564592D01*
X109873903Y-63336337D01*
X109774035Y-63122171D01*
X109638495Y-62928599D01*
X109638494Y-62928597D01*
X109471402Y-62761506D01*
X109471401Y-62761505D01*
X109294022Y-62637303D01*
X109285405Y-62631269D01*
X109241781Y-62576692D01*
X109234588Y-62507193D01*
X109266110Y-62444839D01*
X109285405Y-62428119D01*
X109471082Y-62298105D01*
X109638105Y-62131082D01*
X109729892Y-61999999D01*
X117144815Y-61999999D01*
X117163503Y-62177805D01*
X117163504Y-62177807D01*
X117218747Y-62347829D01*
X117218750Y-62347835D01*
X117308141Y-62502665D01*
X117334747Y-62532214D01*
X117427764Y-62635521D01*
X117427767Y-62635523D01*
X117427770Y-62635526D01*
X117572407Y-62740612D01*
X117735733Y-62813329D01*
X117910609Y-62850500D01*
X117910610Y-62850500D01*
X118089389Y-62850500D01*
X118089391Y-62850500D01*
X118264267Y-62813329D01*
X118427593Y-62740612D01*
X118572230Y-62635526D01*
X118691859Y-62502665D01*
X118781250Y-62347835D01*
X118836497Y-62177803D01*
X118855185Y-62000000D01*
X118855185Y-61999999D01*
X122144815Y-61999999D01*
X122163503Y-62177805D01*
X122163504Y-62177807D01*
X122218747Y-62347829D01*
X122218750Y-62347835D01*
X122308141Y-62502665D01*
X122334747Y-62532214D01*
X122427764Y-62635521D01*
X122427767Y-62635523D01*
X122427770Y-62635526D01*
X122572407Y-62740612D01*
X122735733Y-62813329D01*
X122910609Y-62850500D01*
X122910610Y-62850500D01*
X123089389Y-62850500D01*
X123089391Y-62850500D01*
X123264267Y-62813329D01*
X123427593Y-62740612D01*
X123572230Y-62635526D01*
X123691859Y-62502665D01*
X123781250Y-62347835D01*
X123836497Y-62177803D01*
X123855185Y-62000000D01*
X123836497Y-61822197D01*
X123789581Y-61677805D01*
X123781252Y-61652170D01*
X123781249Y-61652164D01*
X123691859Y-61497335D01*
X123637993Y-61437511D01*
X123572235Y-61364478D01*
X123572232Y-61364476D01*
X123572231Y-61364475D01*
X123572230Y-61364474D01*
X123427593Y-61259388D01*
X123264267Y-61186671D01*
X123264265Y-61186670D01*
X123136594Y-61159533D01*
X123089391Y-61149500D01*
X122910609Y-61149500D01*
X122898048Y-61152170D01*
X122735733Y-61186670D01*
X122735728Y-61186672D01*
X122572408Y-61259387D01*
X122427768Y-61364475D01*
X122308140Y-61497336D01*
X122218750Y-61652164D01*
X122218747Y-61652170D01*
X122163504Y-61822192D01*
X122163503Y-61822194D01*
X122144815Y-61999999D01*
X118855185Y-61999999D01*
X118836497Y-61822197D01*
X118789581Y-61677805D01*
X118781252Y-61652170D01*
X118781249Y-61652164D01*
X118691859Y-61497335D01*
X118637993Y-61437511D01*
X118572235Y-61364478D01*
X118572232Y-61364476D01*
X118572231Y-61364475D01*
X118572230Y-61364474D01*
X118427593Y-61259388D01*
X118264267Y-61186671D01*
X118264265Y-61186670D01*
X118136594Y-61159533D01*
X118089391Y-61149500D01*
X117910609Y-61149500D01*
X117898048Y-61152170D01*
X117735733Y-61186670D01*
X117735728Y-61186672D01*
X117572408Y-61259387D01*
X117427768Y-61364475D01*
X117308140Y-61497336D01*
X117218750Y-61652164D01*
X117218747Y-61652170D01*
X117163504Y-61822192D01*
X117163503Y-61822194D01*
X117144815Y-61999999D01*
X109729892Y-61999999D01*
X109773600Y-61937578D01*
X109873429Y-61723492D01*
X109873432Y-61723486D01*
X109930636Y-61510000D01*
X109213347Y-61510000D01*
X109146308Y-61490315D01*
X109100553Y-61437511D01*
X109090609Y-61368353D01*
X109094369Y-61351067D01*
X109100000Y-61331888D01*
X109100000Y-61188111D01*
X109094369Y-61168933D01*
X109094370Y-61099064D01*
X109132145Y-61040286D01*
X109195701Y-61011262D01*
X109213347Y-61010000D01*
X109930636Y-61010000D01*
X109930635Y-61009999D01*
X109873432Y-60796513D01*
X109873429Y-60796507D01*
X109773600Y-60582422D01*
X109773599Y-60582420D01*
X109638113Y-60388926D01*
X109638108Y-60388920D01*
X109516053Y-60266865D01*
X109482568Y-60205542D01*
X109487552Y-60135850D01*
X109529424Y-60079917D01*
X109560400Y-60063002D01*
X109692331Y-60013796D01*
X109807546Y-59927546D01*
X109893796Y-59812331D01*
X109944091Y-59677483D01*
X109950500Y-59617873D01*
X109950500Y-59000000D01*
X117644815Y-59000000D01*
X117647149Y-59022203D01*
X117663503Y-59177805D01*
X117663504Y-59177807D01*
X117718747Y-59347829D01*
X117718750Y-59347835D01*
X117808141Y-59502665D01*
X117842307Y-59540610D01*
X117927764Y-59635521D01*
X117927767Y-59635523D01*
X117927770Y-59635526D01*
X118072407Y-59740612D01*
X118235733Y-59813329D01*
X118410609Y-59850500D01*
X118410610Y-59850500D01*
X118589389Y-59850500D01*
X118589391Y-59850500D01*
X118764267Y-59813329D01*
X118927593Y-59740612D01*
X119072230Y-59635526D01*
X119191859Y-59502665D01*
X119281250Y-59347835D01*
X119281502Y-59347061D01*
X119300957Y-59287182D01*
X119336497Y-59177803D01*
X119355185Y-59000000D01*
X120644815Y-59000000D01*
X120647149Y-59022203D01*
X120663503Y-59177805D01*
X120663504Y-59177807D01*
X120718747Y-59347829D01*
X120718750Y-59347835D01*
X120808141Y-59502665D01*
X120842307Y-59540610D01*
X120927764Y-59635521D01*
X120927767Y-59635523D01*
X120927770Y-59635526D01*
X121072407Y-59740612D01*
X121235733Y-59813329D01*
X121410609Y-59850500D01*
X121410610Y-59850500D01*
X121589389Y-59850500D01*
X121589391Y-59850500D01*
X121764267Y-59813329D01*
X121927593Y-59740612D01*
X122072230Y-59635526D01*
X122191859Y-59502665D01*
X122281250Y-59347835D01*
X122281502Y-59347061D01*
X122300957Y-59287182D01*
X122336497Y-59177803D01*
X122355185Y-59000000D01*
X122336497Y-58822197D01*
X122285937Y-58666590D01*
X122281252Y-58652170D01*
X122281249Y-58652164D01*
X122191859Y-58497335D01*
X122116965Y-58414157D01*
X122072235Y-58364478D01*
X122072232Y-58364476D01*
X122072231Y-58364475D01*
X122072230Y-58364474D01*
X121927593Y-58259388D01*
X121764267Y-58186671D01*
X121764265Y-58186670D01*
X121636594Y-58159533D01*
X121589391Y-58149500D01*
X121410609Y-58149500D01*
X121379954Y-58156015D01*
X121235733Y-58186670D01*
X121235728Y-58186672D01*
X121072408Y-58259387D01*
X120927768Y-58364475D01*
X120808140Y-58497336D01*
X120718750Y-58652164D01*
X120718747Y-58652170D01*
X120663504Y-58822192D01*
X120663503Y-58822194D01*
X120644815Y-58999999D01*
X120644815Y-59000000D01*
X119355185Y-59000000D01*
X119336497Y-58822197D01*
X119285937Y-58666590D01*
X119281252Y-58652170D01*
X119281249Y-58652164D01*
X119191859Y-58497335D01*
X119116965Y-58414157D01*
X119072235Y-58364478D01*
X119072232Y-58364476D01*
X119072231Y-58364475D01*
X119072230Y-58364474D01*
X118927593Y-58259388D01*
X118764267Y-58186671D01*
X118764265Y-58186670D01*
X118636594Y-58159533D01*
X118589391Y-58149500D01*
X118410609Y-58149500D01*
X118379954Y-58156015D01*
X118235733Y-58186670D01*
X118235728Y-58186672D01*
X118072408Y-58259387D01*
X117927768Y-58364475D01*
X117808140Y-58497336D01*
X117718750Y-58652164D01*
X117718747Y-58652170D01*
X117663504Y-58822192D01*
X117663503Y-58822194D01*
X117644815Y-58999999D01*
X117644815Y-59000000D01*
X109950500Y-59000000D01*
X109950499Y-57822128D01*
X109944091Y-57762517D01*
X109941428Y-57755378D01*
X109893797Y-57627671D01*
X109893793Y-57627664D01*
X109807547Y-57512455D01*
X109807544Y-57512452D01*
X109692335Y-57426206D01*
X109692328Y-57426202D01*
X109557482Y-57375908D01*
X109557483Y-57375908D01*
X109497883Y-57369501D01*
X109497881Y-57369500D01*
X109497873Y-57369500D01*
X109497864Y-57369500D01*
X107702129Y-57369500D01*
X107702123Y-57369501D01*
X107642516Y-57375908D01*
X107507671Y-57426202D01*
X107507665Y-57426206D01*
X107429298Y-57484871D01*
X107363834Y-57509288D01*
X107295561Y-57494436D01*
X107246156Y-57445031D01*
X107237057Y-57423922D01*
X107231735Y-57407543D01*
X107192462Y-57286671D01*
X107181252Y-57252170D01*
X107181249Y-57252164D01*
X107123226Y-57151665D01*
X107091859Y-57097335D01*
X106972230Y-56964474D01*
X106953086Y-56950565D01*
X106910423Y-56895235D01*
X106904445Y-56825621D01*
X106937053Y-56763827D01*
X106953085Y-56749935D01*
X106972230Y-56736026D01*
X106972681Y-56735526D01*
X106998327Y-56707042D01*
X107091859Y-56603165D01*
X107181250Y-56448335D01*
X107181413Y-56447835D01*
X107199160Y-56393213D01*
X107236497Y-56278303D01*
X107255185Y-56100500D01*
X107236497Y-55922697D01*
X107181250Y-55752665D01*
X107091859Y-55597835D01*
X107023754Y-55522197D01*
X106972235Y-55464978D01*
X106972232Y-55464976D01*
X106972231Y-55464975D01*
X106972230Y-55464974D01*
X106827593Y-55359888D01*
X106664267Y-55287171D01*
X106664265Y-55287170D01*
X106533553Y-55259387D01*
X106489391Y-55250000D01*
X106310609Y-55250000D01*
X106279954Y-55256515D01*
X106135733Y-55287170D01*
X106135728Y-55287172D01*
X105972408Y-55359887D01*
X105827768Y-55464975D01*
X105708140Y-55597836D01*
X105618750Y-55752664D01*
X105618747Y-55752670D01*
X105563504Y-55922692D01*
X105563503Y-55922694D01*
X105544815Y-56100500D01*
X105563503Y-56278305D01*
X105563504Y-56278307D01*
X105618747Y-56448329D01*
X105618750Y-56448335D01*
X105708141Y-56603165D01*
X105737279Y-56635526D01*
X105827764Y-56736021D01*
X105827769Y-56736025D01*
X105827770Y-56736026D01*
X105834079Y-56740610D01*
X105846911Y-56749933D01*
X105889576Y-56805264D01*
X105895554Y-56874877D01*
X105862947Y-56936672D01*
X105846911Y-56950567D01*
X105827769Y-56964474D01*
X105708140Y-57097336D01*
X105618750Y-57252164D01*
X105618747Y-57252170D01*
X105563504Y-57422192D01*
X105563503Y-57422194D01*
X105544815Y-57600000D01*
X105563503Y-57777805D01*
X105563504Y-57777807D01*
X105618747Y-57947829D01*
X105618749Y-57947832D01*
X105618750Y-57947835D01*
X105641172Y-57986671D01*
X105666985Y-58031381D01*
X105683456Y-58099281D01*
X105660604Y-58165308D01*
X105605682Y-58208498D01*
X105536129Y-58215139D01*
X105509168Y-58206662D01*
X105464267Y-58186671D01*
X105464266Y-58186670D01*
X105464262Y-58186669D01*
X105321718Y-58156371D01*
X105289391Y-58149500D01*
X105110609Y-58149500D01*
X105079954Y-58156015D01*
X104935733Y-58186670D01*
X104935728Y-58186672D01*
X104772408Y-58259387D01*
X104627768Y-58364475D01*
X104508140Y-58497336D01*
X104418750Y-58652164D01*
X104418747Y-58652170D01*
X104363504Y-58822192D01*
X104363503Y-58822194D01*
X104344815Y-59000000D01*
X104363503Y-59177805D01*
X104363504Y-59177807D01*
X104399042Y-59287182D01*
X104401037Y-59357023D01*
X104364956Y-59416856D01*
X104302255Y-59447684D01*
X104281111Y-59449500D01*
X104210609Y-59449500D01*
X104180603Y-59455878D01*
X104035733Y-59486670D01*
X104035728Y-59486672D01*
X103872408Y-59559387D01*
X103727768Y-59664475D01*
X103608140Y-59797336D01*
X103518750Y-59952164D01*
X103518747Y-59952170D01*
X103463504Y-60122192D01*
X103463503Y-60122194D01*
X103444815Y-60299999D01*
X101255185Y-60299999D01*
X101236497Y-60122197D01*
X101201274Y-60013793D01*
X101181252Y-59952170D01*
X101181249Y-59952164D01*
X101175945Y-59942977D01*
X101091859Y-59797335D01*
X101040783Y-59740610D01*
X100972235Y-59664478D01*
X100972232Y-59664476D01*
X100972231Y-59664475D01*
X100972230Y-59664474D01*
X100827593Y-59559388D01*
X100664267Y-59486671D01*
X100664265Y-59486670D01*
X100519397Y-59455878D01*
X100489391Y-59449500D01*
X100310609Y-59449500D01*
X100280603Y-59455878D01*
X100135733Y-59486670D01*
X100135728Y-59486672D01*
X99972408Y-59559387D01*
X99827768Y-59664475D01*
X99708140Y-59797336D01*
X99618750Y-59952164D01*
X99618747Y-59952170D01*
X99563504Y-60122192D01*
X99563503Y-60122194D01*
X99544815Y-60299999D01*
X99563503Y-60477805D01*
X99563504Y-60477807D01*
X99618747Y-60647829D01*
X99618750Y-60647835D01*
X99708140Y-60802664D01*
X99721074Y-60817029D01*
X99751303Y-60880021D01*
X99742677Y-60949356D01*
X99721074Y-60982971D01*
X99708140Y-60997335D01*
X99618750Y-61152164D01*
X99618747Y-61152170D01*
X99563504Y-61322192D01*
X99563503Y-61322194D01*
X99544815Y-61499999D01*
X83803542Y-61499999D01*
X83742359Y-61394026D01*
X83694263Y-61340610D01*
X83622735Y-61261169D01*
X83622732Y-61261167D01*
X83622731Y-61261166D01*
X83622730Y-61261165D01*
X83478093Y-61156079D01*
X83314767Y-61083362D01*
X83314765Y-61083361D01*
X83167996Y-61052165D01*
X83139891Y-61046191D01*
X82961109Y-61046191D01*
X82933008Y-61052164D01*
X82786233Y-61083361D01*
X82786228Y-61083363D01*
X82622908Y-61156078D01*
X82478268Y-61261166D01*
X82358640Y-61394027D01*
X82269250Y-61548855D01*
X82269247Y-61548861D01*
X82214004Y-61718883D01*
X82214003Y-61718885D01*
X82195315Y-61896691D01*
X78695308Y-61896691D01*
X78781250Y-61747835D01*
X78836497Y-61577803D01*
X78855185Y-61400000D01*
X78836497Y-61222197D01*
X78808873Y-61137180D01*
X78781252Y-61052170D01*
X78781249Y-61052164D01*
X78780090Y-61050156D01*
X78691859Y-60897335D01*
X78645003Y-60845296D01*
X78572235Y-60764478D01*
X78572232Y-60764476D01*
X78572231Y-60764475D01*
X78572230Y-60764474D01*
X78427593Y-60659388D01*
X78264267Y-60586671D01*
X78264265Y-60586670D01*
X78136594Y-60559533D01*
X78089391Y-60549500D01*
X77910609Y-60549500D01*
X77879954Y-60556015D01*
X77735733Y-60586670D01*
X77735728Y-60586672D01*
X77572408Y-60659387D01*
X77427768Y-60764475D01*
X77308140Y-60897336D01*
X77218750Y-61052164D01*
X77218747Y-61052170D01*
X77163504Y-61222192D01*
X77163503Y-61222194D01*
X77148483Y-61365103D01*
X77144815Y-61400000D01*
X76294205Y-61400000D01*
X76427593Y-61340612D01*
X76572230Y-61235526D01*
X76691859Y-61102665D01*
X76781250Y-60947835D01*
X76836497Y-60777803D01*
X76855185Y-60600000D01*
X76836497Y-60422197D01*
X76796792Y-60299999D01*
X76781252Y-60252170D01*
X76781249Y-60252164D01*
X76754332Y-60205542D01*
X76691859Y-60097335D01*
X76616640Y-60013796D01*
X76572235Y-59964478D01*
X76572232Y-59964476D01*
X76572231Y-59964475D01*
X76572230Y-59964474D01*
X76427593Y-59859388D01*
X76264267Y-59786671D01*
X76264265Y-59786670D01*
X76136594Y-59759533D01*
X76089391Y-59749500D01*
X75910609Y-59749500D01*
X75879954Y-59756015D01*
X75735733Y-59786670D01*
X75735728Y-59786672D01*
X75572408Y-59859387D01*
X75427768Y-59964475D01*
X75308140Y-60097336D01*
X75218750Y-60252164D01*
X75218747Y-60252170D01*
X75163504Y-60422192D01*
X75163503Y-60422194D01*
X75144815Y-60599999D01*
X47000500Y-60599999D01*
X47000500Y-60002706D01*
X47000736Y-59997300D01*
X47003608Y-59964474D01*
X47014739Y-59837242D01*
X47018490Y-59815966D01*
X47057969Y-59668627D01*
X47065362Y-59648318D01*
X47071327Y-59635526D01*
X47129823Y-59510081D01*
X47140629Y-59491366D01*
X47228119Y-59366417D01*
X47242007Y-59349865D01*
X47349865Y-59242007D01*
X47366417Y-59228119D01*
X47491366Y-59140629D01*
X47510081Y-59129823D01*
X47648320Y-59065361D01*
X47668627Y-59057969D01*
X47815966Y-59018490D01*
X47837242Y-59014739D01*
X47997304Y-59000735D01*
X48002707Y-59000500D01*
X48157245Y-59000500D01*
X48157250Y-59000500D01*
X48470026Y-58967626D01*
X48777652Y-58902238D01*
X49076759Y-58805053D01*
X49088108Y-58800000D01*
X71844815Y-58800000D01*
X71863503Y-58977805D01*
X71863504Y-58977807D01*
X71918747Y-59147829D01*
X71918750Y-59147835D01*
X72008141Y-59302665D01*
X72048807Y-59347829D01*
X72127764Y-59435521D01*
X72127767Y-59435523D01*
X72127770Y-59435526D01*
X72272407Y-59540612D01*
X72435733Y-59613329D01*
X72610609Y-59650500D01*
X72610610Y-59650500D01*
X72789389Y-59650500D01*
X72789391Y-59650500D01*
X72964267Y-59613329D01*
X73127593Y-59540612D01*
X73272230Y-59435526D01*
X73391859Y-59302665D01*
X73481250Y-59147835D01*
X73536497Y-58977803D01*
X73555185Y-58800000D01*
X73536497Y-58622197D01*
X73485285Y-58464583D01*
X73481252Y-58452170D01*
X73481249Y-58452164D01*
X73391859Y-58297335D01*
X73336202Y-58235522D01*
X73272235Y-58164478D01*
X73272232Y-58164476D01*
X73272231Y-58164475D01*
X73272230Y-58164474D01*
X73127593Y-58059388D01*
X72964267Y-57986671D01*
X72964265Y-57986670D01*
X72836594Y-57959533D01*
X72789391Y-57949500D01*
X72610609Y-57949500D01*
X72579954Y-57956015D01*
X72435733Y-57986670D01*
X72435728Y-57986672D01*
X72272408Y-58059387D01*
X72127768Y-58164475D01*
X72008140Y-58297336D01*
X71918750Y-58452164D01*
X71918747Y-58452170D01*
X71863504Y-58622192D01*
X71863503Y-58622194D01*
X71844815Y-58800000D01*
X49088108Y-58800000D01*
X49364068Y-58677134D01*
X49636432Y-58519885D01*
X49890867Y-58335027D01*
X50124586Y-58124586D01*
X50335027Y-57890867D01*
X50519885Y-57636432D01*
X50677134Y-57364068D01*
X50805053Y-57076759D01*
X50902238Y-56777652D01*
X50967626Y-56470026D01*
X51000500Y-56157250D01*
X51000500Y-56000000D01*
X51000500Y-55907290D01*
X51000500Y-55907289D01*
X51000499Y-50999999D01*
X51014785Y-50600003D01*
X53214242Y-50600003D01*
X53233586Y-51030737D01*
X53233586Y-51030745D01*
X53233587Y-51030747D01*
X53243255Y-51102116D01*
X53291466Y-51458027D01*
X53387411Y-51878391D01*
X53520654Y-52288472D01*
X53520657Y-52288480D01*
X53690114Y-52684947D01*
X53690118Y-52684955D01*
X53758228Y-52811523D01*
X53894444Y-53064655D01*
X53894448Y-53064661D01*
X53894448Y-53064662D01*
X54131975Y-53424501D01*
X54131985Y-53424514D01*
X54400806Y-53761607D01*
X54400816Y-53761618D01*
X54400817Y-53761619D01*
X54698791Y-54073274D01*
X55023501Y-54356965D01*
X55372334Y-54610407D01*
X55742481Y-54831560D01*
X55742484Y-54831561D01*
X55742485Y-54831562D01*
X55742487Y-54831563D01*
X56130953Y-55018639D01*
X56130967Y-55018645D01*
X56534636Y-55170144D01*
X56534640Y-55170145D01*
X56534650Y-55170149D01*
X56950292Y-55284859D01*
X57374545Y-55361850D01*
X57803990Y-55400500D01*
X57803997Y-55400500D01*
X58235165Y-55400500D01*
X58235172Y-55400500D01*
X58664617Y-55361850D01*
X59088870Y-55284859D01*
X59504512Y-55170149D01*
X59908200Y-55018643D01*
X59946913Y-55000000D01*
X81144815Y-55000000D01*
X81163503Y-55177805D01*
X81163504Y-55177807D01*
X81218747Y-55347829D01*
X81218750Y-55347835D01*
X81308141Y-55502665D01*
X81325728Y-55522197D01*
X81427764Y-55635521D01*
X81427767Y-55635523D01*
X81427770Y-55635526D01*
X81572407Y-55740612D01*
X81735733Y-55813329D01*
X81910609Y-55850500D01*
X81910610Y-55850500D01*
X82089389Y-55850500D01*
X82089391Y-55850500D01*
X82264267Y-55813329D01*
X82427593Y-55740612D01*
X82572230Y-55635526D01*
X82691859Y-55502665D01*
X82781250Y-55347835D01*
X82781953Y-55345673D01*
X82796706Y-55300267D01*
X82832069Y-55191429D01*
X82871506Y-55133755D01*
X82935865Y-55106556D01*
X83004711Y-55118470D01*
X83056187Y-55165714D01*
X83067929Y-55191427D01*
X83069850Y-55197336D01*
X83118747Y-55347829D01*
X83118750Y-55347835D01*
X83208141Y-55502665D01*
X83225728Y-55522197D01*
X83327764Y-55635521D01*
X83327767Y-55635523D01*
X83327770Y-55635526D01*
X83472407Y-55740612D01*
X83635733Y-55813329D01*
X83810609Y-55850500D01*
X83810610Y-55850500D01*
X83989389Y-55850500D01*
X83989391Y-55850500D01*
X84109720Y-55824923D01*
X84179385Y-55830239D01*
X84235118Y-55872376D01*
X84258819Y-55933249D01*
X84263502Y-55977796D01*
X84263504Y-55977807D01*
X84318747Y-56147829D01*
X84318750Y-56147835D01*
X84408141Y-56302665D01*
X84443423Y-56341849D01*
X84527764Y-56435521D01*
X84527767Y-56435523D01*
X84527770Y-56435526D01*
X84672407Y-56540612D01*
X84835733Y-56613329D01*
X84835735Y-56613329D01*
X84835736Y-56613330D01*
X84892876Y-56625475D01*
X84978781Y-56643734D01*
X85040262Y-56676926D01*
X85074039Y-56738089D01*
X85069387Y-56807803D01*
X85031709Y-56858638D01*
X85032599Y-56859626D01*
X85027769Y-56863974D01*
X84954916Y-56944885D01*
X84895429Y-56981533D01*
X84825572Y-56980202D01*
X84770617Y-56944884D01*
X84697770Y-56863978D01*
X84697767Y-56863976D01*
X84697766Y-56863975D01*
X84697765Y-56863974D01*
X84553128Y-56758888D01*
X84389802Y-56686171D01*
X84389800Y-56686170D01*
X84246753Y-56655765D01*
X84214926Y-56649000D01*
X84036144Y-56649000D01*
X84005489Y-56655515D01*
X83861268Y-56686170D01*
X83861263Y-56686172D01*
X83697943Y-56758887D01*
X83553303Y-56863975D01*
X83433675Y-56996836D01*
X83344285Y-57151664D01*
X83344282Y-57151670D01*
X83289039Y-57321692D01*
X83289038Y-57321694D01*
X83270350Y-57499500D01*
X83289038Y-57677305D01*
X83289039Y-57677307D01*
X83344282Y-57847329D01*
X83344285Y-57847335D01*
X83433676Y-58002165D01*
X83470552Y-58043119D01*
X83474323Y-58047308D01*
X83504553Y-58110299D01*
X83495928Y-58179635D01*
X83474323Y-58213252D01*
X83358640Y-58341731D01*
X83269250Y-58496560D01*
X83269248Y-58496564D01*
X83240642Y-58584604D01*
X83201204Y-58642279D01*
X83136845Y-58669477D01*
X83067998Y-58657562D01*
X83030563Y-58629259D01*
X82972230Y-58564474D01*
X82827593Y-58459388D01*
X82664267Y-58386671D01*
X82664265Y-58386670D01*
X82536594Y-58359533D01*
X82489391Y-58349500D01*
X82310609Y-58349500D01*
X82279954Y-58356015D01*
X82135733Y-58386670D01*
X82135728Y-58386672D01*
X81972408Y-58459387D01*
X81827768Y-58564475D01*
X81708140Y-58697336D01*
X81618750Y-58852164D01*
X81618747Y-58852170D01*
X81563504Y-59022192D01*
X81563503Y-59022194D01*
X81544815Y-59200000D01*
X81563503Y-59377805D01*
X81563504Y-59377807D01*
X81618747Y-59547829D01*
X81618750Y-59547835D01*
X81708141Y-59702665D01*
X81742307Y-59740610D01*
X81827764Y-59835521D01*
X81827767Y-59835523D01*
X81827770Y-59835526D01*
X81972407Y-59940612D01*
X82135733Y-60013329D01*
X82310609Y-60050500D01*
X82310610Y-60050500D01*
X82489389Y-60050500D01*
X82489391Y-60050500D01*
X82664267Y-60013329D01*
X82827593Y-59940612D01*
X82972230Y-59835526D01*
X82977958Y-59829165D01*
X82998148Y-59806741D01*
X83091859Y-59702665D01*
X83181250Y-59547835D01*
X83209857Y-59459791D01*
X83249294Y-59402117D01*
X83313653Y-59374918D01*
X83382499Y-59386832D01*
X83419938Y-59415138D01*
X83460144Y-59459792D01*
X83478270Y-59479922D01*
X83622907Y-59585008D01*
X83786233Y-59657725D01*
X83961109Y-59694896D01*
X83961110Y-59694896D01*
X84139889Y-59694896D01*
X84139891Y-59694896D01*
X84314767Y-59657725D01*
X84478093Y-59585008D01*
X84622730Y-59479922D01*
X84742359Y-59347061D01*
X84831750Y-59192231D01*
X84886997Y-59022199D01*
X84905685Y-58844396D01*
X84886997Y-58666593D01*
X84839329Y-58519887D01*
X84831752Y-58496566D01*
X84831749Y-58496560D01*
X84820922Y-58477807D01*
X84742359Y-58341731D01*
X84701710Y-58296586D01*
X84671481Y-58233596D01*
X84680106Y-58164260D01*
X84701711Y-58130643D01*
X84721079Y-58109133D01*
X84770618Y-58054113D01*
X84830104Y-58017466D01*
X84899961Y-58018797D01*
X84954917Y-58054115D01*
X85027764Y-58135021D01*
X85027767Y-58135023D01*
X85027770Y-58135026D01*
X85172407Y-58240112D01*
X85335733Y-58312829D01*
X85368559Y-58319806D01*
X85430037Y-58352995D01*
X85463816Y-58414157D01*
X85466097Y-58454054D01*
X85450193Y-58605378D01*
X85455110Y-58652159D01*
X85468881Y-58783183D01*
X85468882Y-58783185D01*
X85524125Y-58953207D01*
X85524128Y-58953213D01*
X85613519Y-59108043D01*
X85642860Y-59140629D01*
X85733142Y-59240899D01*
X85733145Y-59240901D01*
X85733148Y-59240904D01*
X85877785Y-59345990D01*
X86041111Y-59418707D01*
X86215987Y-59455878D01*
X86215988Y-59455878D01*
X86394767Y-59455878D01*
X86394769Y-59455878D01*
X86569645Y-59418707D01*
X86732971Y-59345990D01*
X86877608Y-59240904D01*
X86883520Y-59234339D01*
X86914438Y-59200000D01*
X86997237Y-59108043D01*
X87086628Y-58953213D01*
X87086871Y-58952463D01*
X87087130Y-58952083D01*
X87089273Y-58947273D01*
X87090152Y-58947664D01*
X87126300Y-58894787D01*
X87190655Y-58867581D01*
X87255238Y-58877490D01*
X87335733Y-58913329D01*
X87510609Y-58950500D01*
X87510610Y-58950500D01*
X87689389Y-58950500D01*
X87689391Y-58950500D01*
X87864267Y-58913329D01*
X88027593Y-58840612D01*
X88172230Y-58735526D01*
X88206618Y-58697335D01*
X88212000Y-58691356D01*
X88291859Y-58602665D01*
X88336109Y-58526020D01*
X88386674Y-58477807D01*
X88455281Y-58464583D01*
X88516381Y-58487704D01*
X88527785Y-58495990D01*
X88691111Y-58568707D01*
X88865987Y-58605878D01*
X88865988Y-58605878D01*
X89044767Y-58605878D01*
X89044769Y-58605878D01*
X89219645Y-58568707D01*
X89382971Y-58495990D01*
X89527608Y-58390904D01*
X89531420Y-58386671D01*
X89553526Y-58362119D01*
X89647237Y-58258043D01*
X89736628Y-58103213D01*
X89791875Y-57933181D01*
X89810563Y-57755378D01*
X89791875Y-57577575D01*
X89760208Y-57480115D01*
X89736630Y-57407548D01*
X89736627Y-57407542D01*
X89726957Y-57390793D01*
X89647237Y-57252713D01*
X89594425Y-57194060D01*
X89553255Y-57148335D01*
X89523025Y-57085343D01*
X89531650Y-57016008D01*
X89576392Y-56962343D01*
X89619622Y-56944074D01*
X89740871Y-56918302D01*
X89764263Y-56913330D01*
X89764263Y-56913329D01*
X89764267Y-56913329D01*
X89927593Y-56840612D01*
X90072230Y-56735526D01*
X90093997Y-56711352D01*
X90114890Y-56688147D01*
X90191859Y-56602665D01*
X90281250Y-56447835D01*
X90286013Y-56433173D01*
X90325447Y-56375499D01*
X90389805Y-56348298D01*
X90458652Y-56360209D01*
X90476828Y-56371169D01*
X90572407Y-56440612D01*
X90735733Y-56513329D01*
X90910609Y-56550500D01*
X90910610Y-56550500D01*
X91089389Y-56550500D01*
X91089391Y-56550500D01*
X91264267Y-56513329D01*
X91427593Y-56440612D01*
X91572230Y-56335526D01*
X91691859Y-56202665D01*
X91781250Y-56047835D01*
X91836497Y-55877803D01*
X91855185Y-55700000D01*
X91836497Y-55522197D01*
X91786491Y-55368294D01*
X91781252Y-55352170D01*
X91781249Y-55352164D01*
X91778750Y-55347835D01*
X91691859Y-55197335D01*
X91634611Y-55133755D01*
X91572235Y-55064478D01*
X91572232Y-55064476D01*
X91572231Y-55064475D01*
X91572230Y-55064474D01*
X91427593Y-54959388D01*
X91264267Y-54886671D01*
X91264265Y-54886670D01*
X91136594Y-54859533D01*
X91089391Y-54849500D01*
X90910609Y-54849500D01*
X90879954Y-54856015D01*
X90735733Y-54886670D01*
X90735728Y-54886672D01*
X90572408Y-54959387D01*
X90427768Y-55064475D01*
X90308140Y-55197336D01*
X90218750Y-55352164D01*
X90218746Y-55352174D01*
X90213984Y-55366830D01*
X90174546Y-55424505D01*
X90110187Y-55451702D01*
X90041341Y-55439787D01*
X90023168Y-55428828D01*
X89937836Y-55366830D01*
X89927593Y-55359388D01*
X89764267Y-55286671D01*
X89764265Y-55286670D01*
X89635906Y-55259387D01*
X89589391Y-55249500D01*
X89410609Y-55249500D01*
X89379954Y-55256015D01*
X89235733Y-55286670D01*
X89235728Y-55286672D01*
X89072408Y-55359387D01*
X88927768Y-55464475D01*
X88886457Y-55510356D01*
X88826971Y-55547004D01*
X88757114Y-55545673D01*
X88699066Y-55506786D01*
X88693989Y-55500267D01*
X88691858Y-55497334D01*
X88572235Y-55364478D01*
X88572232Y-55364476D01*
X88572231Y-55364475D01*
X88572230Y-55364474D01*
X88427593Y-55259388D01*
X88264267Y-55186671D01*
X88264265Y-55186670D01*
X88135906Y-55159387D01*
X88089391Y-55149500D01*
X87910609Y-55149500D01*
X87879954Y-55156015D01*
X87735733Y-55186670D01*
X87735728Y-55186672D01*
X87572408Y-55259387D01*
X87475919Y-55329491D01*
X87427770Y-55364474D01*
X87427768Y-55364475D01*
X87422513Y-55368294D01*
X87421645Y-55367099D01*
X87365516Y-55394030D01*
X87296182Y-55385398D01*
X87253398Y-55354620D01*
X87172235Y-55264478D01*
X87172232Y-55264476D01*
X87172231Y-55264475D01*
X87172230Y-55264474D01*
X87027593Y-55159388D01*
X86864267Y-55086671D01*
X86864265Y-55086670D01*
X86735910Y-55059388D01*
X86689391Y-55049500D01*
X86510609Y-55049500D01*
X86479954Y-55056015D01*
X86335733Y-55086670D01*
X86335728Y-55086672D01*
X86172408Y-55159387D01*
X86027768Y-55264475D01*
X85986457Y-55310356D01*
X85926971Y-55347004D01*
X85857114Y-55345673D01*
X85799066Y-55306786D01*
X85793989Y-55300267D01*
X85791858Y-55297334D01*
X85672235Y-55164478D01*
X85672232Y-55164476D01*
X85672231Y-55164475D01*
X85672230Y-55164474D01*
X85527593Y-55059388D01*
X85364267Y-54986671D01*
X85364265Y-54986670D01*
X85235906Y-54959387D01*
X85189391Y-54949500D01*
X85010609Y-54949500D01*
X85010607Y-54949500D01*
X84890279Y-54975076D01*
X84820612Y-54969760D01*
X84764879Y-54927622D01*
X84741179Y-54866750D01*
X84736497Y-54822197D01*
X84681250Y-54652165D01*
X84591859Y-54497335D01*
X84545003Y-54445296D01*
X84472235Y-54364478D01*
X84472232Y-54364476D01*
X84472231Y-54364475D01*
X84472230Y-54364474D01*
X84327593Y-54259388D01*
X84164267Y-54186671D01*
X84164265Y-54186670D01*
X84036594Y-54159533D01*
X83989391Y-54149500D01*
X83810609Y-54149500D01*
X83779954Y-54156015D01*
X83635733Y-54186670D01*
X83635728Y-54186672D01*
X83472408Y-54259387D01*
X83327768Y-54364475D01*
X83208140Y-54497336D01*
X83118750Y-54652164D01*
X83118747Y-54652170D01*
X83067931Y-54808569D01*
X83028494Y-54866245D01*
X82964135Y-54893443D01*
X82895289Y-54881528D01*
X82843813Y-54834284D01*
X82832069Y-54808569D01*
X82781252Y-54652170D01*
X82781249Y-54652164D01*
X82757137Y-54610400D01*
X82691859Y-54497335D01*
X82645003Y-54445296D01*
X82572235Y-54364478D01*
X82572232Y-54364476D01*
X82572231Y-54364475D01*
X82572230Y-54364474D01*
X82427593Y-54259388D01*
X82264267Y-54186671D01*
X82264265Y-54186670D01*
X82136594Y-54159533D01*
X82089391Y-54149500D01*
X81910609Y-54149500D01*
X81879954Y-54156015D01*
X81735733Y-54186670D01*
X81735728Y-54186672D01*
X81572408Y-54259387D01*
X81427768Y-54364475D01*
X81308140Y-54497336D01*
X81218750Y-54652164D01*
X81218747Y-54652170D01*
X81163504Y-54822192D01*
X81163503Y-54822194D01*
X81144815Y-55000000D01*
X59946913Y-55000000D01*
X60296681Y-54831560D01*
X60666828Y-54610407D01*
X61015661Y-54356965D01*
X61340371Y-54073274D01*
X61638345Y-53761619D01*
X61907182Y-53424507D01*
X62144718Y-53064655D01*
X62234469Y-52897870D01*
X66029500Y-52897870D01*
X66029501Y-52897876D01*
X66035908Y-52957483D01*
X66086202Y-53092328D01*
X66086206Y-53092335D01*
X66172452Y-53207544D01*
X66172455Y-53207547D01*
X66287664Y-53293793D01*
X66287671Y-53293797D01*
X66422517Y-53344091D01*
X66422516Y-53344091D01*
X66429444Y-53344835D01*
X66482127Y-53350500D01*
X68277872Y-53350499D01*
X68337483Y-53344091D01*
X68472331Y-53293796D01*
X68587546Y-53207546D01*
X68673796Y-53092331D01*
X68722810Y-52960916D01*
X68764681Y-52904984D01*
X68830145Y-52880566D01*
X68898418Y-52895417D01*
X68926673Y-52916569D01*
X69048599Y-53038495D01*
X69145384Y-53106265D01*
X69242165Y-53174032D01*
X69242167Y-53174033D01*
X69242170Y-53174035D01*
X69456337Y-53273903D01*
X69684592Y-53335063D01*
X69861034Y-53350500D01*
X69919999Y-53355659D01*
X69920000Y-53355659D01*
X69920001Y-53355659D01*
X69978966Y-53350500D01*
X70155408Y-53335063D01*
X70383663Y-53273903D01*
X70597830Y-53174035D01*
X70791401Y-53038495D01*
X70958495Y-52871401D01*
X71088426Y-52685841D01*
X71143002Y-52642217D01*
X71212500Y-52635023D01*
X71274855Y-52666546D01*
X71291575Y-52685842D01*
X71421500Y-52871395D01*
X71421505Y-52871401D01*
X71588599Y-53038495D01*
X71685384Y-53106265D01*
X71782165Y-53174032D01*
X71782167Y-53174033D01*
X71782170Y-53174035D01*
X71996337Y-53273903D01*
X72224592Y-53335063D01*
X72401034Y-53350500D01*
X72459999Y-53355659D01*
X72460000Y-53355659D01*
X72460001Y-53355659D01*
X72518966Y-53350500D01*
X72695408Y-53335063D01*
X72923663Y-53273903D01*
X73137830Y-53174035D01*
X73331401Y-53038495D01*
X73498495Y-52871401D01*
X73628426Y-52685841D01*
X73683002Y-52642217D01*
X73752500Y-52635023D01*
X73814855Y-52666546D01*
X73831575Y-52685842D01*
X73961500Y-52871395D01*
X73961505Y-52871401D01*
X74128599Y-53038495D01*
X74225384Y-53106265D01*
X74322165Y-53174032D01*
X74322167Y-53174033D01*
X74322170Y-53174035D01*
X74536337Y-53273903D01*
X74764592Y-53335063D01*
X74941034Y-53350500D01*
X74999999Y-53355659D01*
X75000000Y-53355659D01*
X75000001Y-53355659D01*
X75058966Y-53350500D01*
X75235408Y-53335063D01*
X75463663Y-53273903D01*
X75677830Y-53174035D01*
X75871401Y-53038495D01*
X76038495Y-52871401D01*
X76168426Y-52685841D01*
X76223002Y-52642217D01*
X76292500Y-52635023D01*
X76354855Y-52666546D01*
X76371575Y-52685842D01*
X76501500Y-52871395D01*
X76501505Y-52871401D01*
X76668599Y-53038495D01*
X76765384Y-53106265D01*
X76862165Y-53174032D01*
X76862167Y-53174033D01*
X76862170Y-53174035D01*
X77076337Y-53273903D01*
X77304592Y-53335063D01*
X77481034Y-53350500D01*
X77539999Y-53355659D01*
X77540000Y-53355659D01*
X77540001Y-53355659D01*
X77598966Y-53350500D01*
X77775408Y-53335063D01*
X78003663Y-53273903D01*
X78217830Y-53174035D01*
X78411401Y-53038495D01*
X78578495Y-52871401D01*
X78708426Y-52685841D01*
X78763002Y-52642217D01*
X78832500Y-52635023D01*
X78894855Y-52666546D01*
X78911575Y-52685842D01*
X79041500Y-52871395D01*
X79041505Y-52871401D01*
X79208599Y-53038495D01*
X79305384Y-53106265D01*
X79402165Y-53174032D01*
X79402167Y-53174033D01*
X79402170Y-53174035D01*
X79616337Y-53273903D01*
X79844592Y-53335063D01*
X80021034Y-53350500D01*
X80079999Y-53355659D01*
X80080000Y-53355659D01*
X80080001Y-53355659D01*
X80138966Y-53350500D01*
X80315408Y-53335063D01*
X80543663Y-53273903D01*
X80757830Y-53174035D01*
X80951401Y-53038495D01*
X81118495Y-52871401D01*
X81248426Y-52685840D01*
X81303001Y-52642217D01*
X81372499Y-52635023D01*
X81434854Y-52666546D01*
X81451574Y-52685841D01*
X81581505Y-52871401D01*
X81748599Y-53038495D01*
X81845384Y-53106265D01*
X81942165Y-53174032D01*
X81942167Y-53174033D01*
X81942170Y-53174035D01*
X82156337Y-53273903D01*
X82384592Y-53335063D01*
X82561034Y-53350500D01*
X82619999Y-53355659D01*
X82620000Y-53355659D01*
X82620001Y-53355659D01*
X82678966Y-53350500D01*
X82855408Y-53335063D01*
X83083663Y-53273903D01*
X83297830Y-53174035D01*
X83491401Y-53038495D01*
X83658495Y-52871401D01*
X83788426Y-52685841D01*
X83843002Y-52642217D01*
X83912500Y-52635023D01*
X83974855Y-52666546D01*
X83991575Y-52685842D01*
X84121500Y-52871395D01*
X84121505Y-52871401D01*
X84288599Y-53038495D01*
X84385384Y-53106264D01*
X84482165Y-53174032D01*
X84482167Y-53174033D01*
X84482170Y-53174035D01*
X84696337Y-53273903D01*
X84924592Y-53335063D01*
X85101034Y-53350500D01*
X85159999Y-53355659D01*
X85160000Y-53355659D01*
X85160001Y-53355659D01*
X85218966Y-53350500D01*
X85395408Y-53335063D01*
X85623663Y-53273903D01*
X85837830Y-53174035D01*
X86031401Y-53038495D01*
X86198495Y-52871401D01*
X86328426Y-52685840D01*
X86383001Y-52642217D01*
X86452499Y-52635023D01*
X86514854Y-52666546D01*
X86531574Y-52685841D01*
X86661505Y-52871401D01*
X86828599Y-53038495D01*
X86925384Y-53106264D01*
X87022165Y-53174032D01*
X87022167Y-53174033D01*
X87022170Y-53174035D01*
X87236337Y-53273903D01*
X87464592Y-53335063D01*
X87641034Y-53350500D01*
X87699999Y-53355659D01*
X87700000Y-53355659D01*
X87700001Y-53355659D01*
X87758966Y-53350500D01*
X87935408Y-53335063D01*
X88163663Y-53273903D01*
X88377830Y-53174035D01*
X88571401Y-53038495D01*
X88738495Y-52871401D01*
X88868426Y-52685841D01*
X88923002Y-52642217D01*
X88992500Y-52635023D01*
X89054855Y-52666546D01*
X89071575Y-52685842D01*
X89201500Y-52871395D01*
X89201505Y-52871401D01*
X89368599Y-53038495D01*
X89465384Y-53106264D01*
X89562165Y-53174032D01*
X89562167Y-53174033D01*
X89562170Y-53174035D01*
X89776337Y-53273903D01*
X90004592Y-53335063D01*
X90181034Y-53350500D01*
X90239999Y-53355659D01*
X90240000Y-53355659D01*
X90240001Y-53355659D01*
X90298966Y-53350500D01*
X90475408Y-53335063D01*
X90703663Y-53273903D01*
X90917830Y-53174035D01*
X91111401Y-53038495D01*
X91278495Y-52871401D01*
X91408426Y-52685840D01*
X91463001Y-52642217D01*
X91532499Y-52635023D01*
X91594854Y-52666546D01*
X91611574Y-52685841D01*
X91741505Y-52871401D01*
X91908599Y-53038495D01*
X92005384Y-53106264D01*
X92102165Y-53174032D01*
X92102167Y-53174033D01*
X92102170Y-53174035D01*
X92316337Y-53273903D01*
X92544592Y-53335063D01*
X92721034Y-53350500D01*
X92779999Y-53355659D01*
X92780000Y-53355659D01*
X92780001Y-53355659D01*
X92838966Y-53350500D01*
X93015408Y-53335063D01*
X93243663Y-53273903D01*
X93457830Y-53174035D01*
X93651401Y-53038495D01*
X93818495Y-52871401D01*
X93948426Y-52685841D01*
X94003002Y-52642217D01*
X94072500Y-52635023D01*
X94134855Y-52666546D01*
X94151575Y-52685842D01*
X94281500Y-52871395D01*
X94281505Y-52871401D01*
X94448599Y-53038495D01*
X94545384Y-53106264D01*
X94642165Y-53174032D01*
X94642167Y-53174033D01*
X94642170Y-53174035D01*
X94856337Y-53273903D01*
X95084592Y-53335063D01*
X95261034Y-53350500D01*
X95319999Y-53355659D01*
X95320000Y-53355659D01*
X95320001Y-53355659D01*
X95378966Y-53350500D01*
X95555408Y-53335063D01*
X95783663Y-53273903D01*
X95997830Y-53174035D01*
X96191401Y-53038495D01*
X96358495Y-52871401D01*
X96488426Y-52685840D01*
X96543001Y-52642217D01*
X96612499Y-52635023D01*
X96674854Y-52666546D01*
X96691574Y-52685841D01*
X96821505Y-52871401D01*
X96988599Y-53038495D01*
X97085384Y-53106264D01*
X97182165Y-53174032D01*
X97182167Y-53174033D01*
X97182170Y-53174035D01*
X97396337Y-53273903D01*
X97624592Y-53335063D01*
X97801034Y-53350500D01*
X97859999Y-53355659D01*
X97860000Y-53355659D01*
X97860001Y-53355659D01*
X97918966Y-53350500D01*
X98095408Y-53335063D01*
X98323663Y-53273903D01*
X98537830Y-53174035D01*
X98731401Y-53038495D01*
X98898495Y-52871401D01*
X99028426Y-52685841D01*
X99083002Y-52642217D01*
X99152500Y-52635023D01*
X99214855Y-52666546D01*
X99231575Y-52685842D01*
X99361500Y-52871395D01*
X99361505Y-52871401D01*
X99528599Y-53038495D01*
X99625384Y-53106264D01*
X99722165Y-53174032D01*
X99722167Y-53174033D01*
X99722170Y-53174035D01*
X99936337Y-53273903D01*
X100164592Y-53335063D01*
X100341034Y-53350500D01*
X100399999Y-53355659D01*
X100400000Y-53355659D01*
X100400001Y-53355659D01*
X100458966Y-53350500D01*
X100635408Y-53335063D01*
X100863663Y-53273903D01*
X101077830Y-53174035D01*
X101271401Y-53038495D01*
X101438495Y-52871401D01*
X101568426Y-52685840D01*
X101623001Y-52642217D01*
X101692499Y-52635023D01*
X101754854Y-52666546D01*
X101771574Y-52685841D01*
X101901505Y-52871401D01*
X102068599Y-53038495D01*
X102165384Y-53106264D01*
X102262165Y-53174032D01*
X102262167Y-53174033D01*
X102262170Y-53174035D01*
X102476337Y-53273903D01*
X102704592Y-53335063D01*
X102881034Y-53350500D01*
X102939999Y-53355659D01*
X102940000Y-53355659D01*
X102940001Y-53355659D01*
X102998966Y-53350500D01*
X103175408Y-53335063D01*
X103403663Y-53273903D01*
X103617830Y-53174035D01*
X103811401Y-53038495D01*
X103978495Y-52871401D01*
X104108426Y-52685841D01*
X104163002Y-52642217D01*
X104232500Y-52635023D01*
X104294855Y-52666546D01*
X104311575Y-52685842D01*
X104441500Y-52871395D01*
X104441505Y-52871401D01*
X104608599Y-53038495D01*
X104705384Y-53106264D01*
X104802165Y-53174032D01*
X104802167Y-53174033D01*
X104802170Y-53174035D01*
X105016337Y-53273903D01*
X105244592Y-53335063D01*
X105421034Y-53350500D01*
X105479999Y-53355659D01*
X105480000Y-53355659D01*
X105480001Y-53355659D01*
X105538966Y-53350500D01*
X105715408Y-53335063D01*
X105943663Y-53273903D01*
X106157830Y-53174035D01*
X106351401Y-53038495D01*
X106518495Y-52871401D01*
X106654035Y-52677830D01*
X106753903Y-52463663D01*
X106815063Y-52235408D01*
X106835659Y-52000000D01*
X106815063Y-51764592D01*
X106753903Y-51536337D01*
X106654035Y-51322171D01*
X106648425Y-51314158D01*
X106518494Y-51128597D01*
X106351402Y-50961506D01*
X106351395Y-50961501D01*
X106157834Y-50825967D01*
X106157830Y-50825965D01*
X106157828Y-50825964D01*
X105943663Y-50726097D01*
X105943659Y-50726096D01*
X105943655Y-50726094D01*
X105715413Y-50664938D01*
X105715403Y-50664936D01*
X105480001Y-50644341D01*
X105479999Y-50644341D01*
X105244596Y-50664936D01*
X105244586Y-50664938D01*
X105016344Y-50726094D01*
X105016335Y-50726098D01*
X104802171Y-50825964D01*
X104802169Y-50825965D01*
X104608597Y-50961505D01*
X104441505Y-51128597D01*
X104311575Y-51314158D01*
X104256998Y-51357783D01*
X104187500Y-51364977D01*
X104125145Y-51333454D01*
X104108425Y-51314158D01*
X103978494Y-51128597D01*
X103811402Y-50961506D01*
X103811395Y-50961501D01*
X103617834Y-50825967D01*
X103617830Y-50825965D01*
X103617828Y-50825964D01*
X103403663Y-50726097D01*
X103403659Y-50726096D01*
X103403655Y-50726094D01*
X103175413Y-50664938D01*
X103175403Y-50664936D01*
X102940001Y-50644341D01*
X102939999Y-50644341D01*
X102704596Y-50664936D01*
X102704586Y-50664938D01*
X102476344Y-50726094D01*
X102476335Y-50726098D01*
X102262171Y-50825964D01*
X102262169Y-50825965D01*
X102068597Y-50961505D01*
X101901505Y-51128597D01*
X101771575Y-51314158D01*
X101716998Y-51357783D01*
X101647500Y-51364977D01*
X101585145Y-51333454D01*
X101568425Y-51314158D01*
X101438494Y-51128597D01*
X101271402Y-50961506D01*
X101271395Y-50961501D01*
X101077834Y-50825967D01*
X101077830Y-50825965D01*
X101077828Y-50825964D01*
X100863663Y-50726097D01*
X100863659Y-50726096D01*
X100863655Y-50726094D01*
X100635413Y-50664938D01*
X100635403Y-50664936D01*
X100400001Y-50644341D01*
X100399999Y-50644341D01*
X100164596Y-50664936D01*
X100164586Y-50664938D01*
X99936344Y-50726094D01*
X99936335Y-50726098D01*
X99722171Y-50825964D01*
X99722169Y-50825965D01*
X99528597Y-50961505D01*
X99361505Y-51128597D01*
X99231575Y-51314158D01*
X99176998Y-51357783D01*
X99107500Y-51364977D01*
X99045145Y-51333454D01*
X99028425Y-51314158D01*
X98898494Y-51128597D01*
X98731402Y-50961506D01*
X98731395Y-50961501D01*
X98537834Y-50825967D01*
X98537830Y-50825965D01*
X98537828Y-50825964D01*
X98323663Y-50726097D01*
X98323659Y-50726096D01*
X98323655Y-50726094D01*
X98095413Y-50664938D01*
X98095403Y-50664936D01*
X97860001Y-50644341D01*
X97859999Y-50644341D01*
X97624596Y-50664936D01*
X97624586Y-50664938D01*
X97396344Y-50726094D01*
X97396335Y-50726098D01*
X97182171Y-50825964D01*
X97182169Y-50825965D01*
X96988597Y-50961505D01*
X96821505Y-51128597D01*
X96691575Y-51314158D01*
X96636998Y-51357783D01*
X96567500Y-51364977D01*
X96505145Y-51333454D01*
X96488425Y-51314158D01*
X96358494Y-51128597D01*
X96191402Y-50961506D01*
X96191395Y-50961501D01*
X95997834Y-50825967D01*
X95997830Y-50825965D01*
X95997828Y-50825964D01*
X95783663Y-50726097D01*
X95783659Y-50726096D01*
X95783655Y-50726094D01*
X95555413Y-50664938D01*
X95555403Y-50664936D01*
X95320001Y-50644341D01*
X95319999Y-50644341D01*
X95084596Y-50664936D01*
X95084586Y-50664938D01*
X94856344Y-50726094D01*
X94856335Y-50726098D01*
X94642171Y-50825964D01*
X94642169Y-50825965D01*
X94448597Y-50961505D01*
X94281508Y-51128594D01*
X94151574Y-51314159D01*
X94096997Y-51357784D01*
X94027498Y-51364976D01*
X93965144Y-51333454D01*
X93948424Y-51314158D01*
X93818494Y-51128597D01*
X93651402Y-50961506D01*
X93651395Y-50961501D01*
X93457834Y-50825967D01*
X93457830Y-50825965D01*
X93457829Y-50825964D01*
X93243663Y-50726097D01*
X93243659Y-50726096D01*
X93243655Y-50726094D01*
X93015413Y-50664938D01*
X93015403Y-50664936D01*
X92780001Y-50644341D01*
X92779999Y-50644341D01*
X92544596Y-50664936D01*
X92544586Y-50664938D01*
X92316344Y-50726094D01*
X92316335Y-50726098D01*
X92102171Y-50825964D01*
X92102169Y-50825965D01*
X91908597Y-50961505D01*
X91741505Y-51128597D01*
X91611575Y-51314158D01*
X91556998Y-51357783D01*
X91487500Y-51364977D01*
X91425145Y-51333454D01*
X91408425Y-51314158D01*
X91278494Y-51128597D01*
X91111402Y-50961506D01*
X91111395Y-50961501D01*
X90917834Y-50825967D01*
X90917830Y-50825965D01*
X90917830Y-50825964D01*
X90703663Y-50726097D01*
X90703659Y-50726096D01*
X90703655Y-50726094D01*
X90475413Y-50664938D01*
X90475403Y-50664936D01*
X90240001Y-50644341D01*
X90239999Y-50644341D01*
X90004596Y-50664936D01*
X90004586Y-50664938D01*
X89776344Y-50726094D01*
X89776335Y-50726098D01*
X89562171Y-50825964D01*
X89562169Y-50825965D01*
X89368597Y-50961505D01*
X89201505Y-51128597D01*
X89071575Y-51314158D01*
X89016998Y-51357783D01*
X88947500Y-51364977D01*
X88885145Y-51333454D01*
X88868425Y-51314158D01*
X88738494Y-51128597D01*
X88571402Y-50961506D01*
X88571395Y-50961501D01*
X88377834Y-50825967D01*
X88377830Y-50825965D01*
X88377829Y-50825964D01*
X88163663Y-50726097D01*
X88163659Y-50726096D01*
X88163655Y-50726094D01*
X87935413Y-50664938D01*
X87935403Y-50664936D01*
X87700001Y-50644341D01*
X87699999Y-50644341D01*
X87464596Y-50664936D01*
X87464586Y-50664938D01*
X87236344Y-50726094D01*
X87236335Y-50726098D01*
X87022171Y-50825964D01*
X87022169Y-50825965D01*
X86828597Y-50961505D01*
X86661508Y-51128594D01*
X86531574Y-51314159D01*
X86476997Y-51357784D01*
X86407498Y-51364976D01*
X86345144Y-51333454D01*
X86328424Y-51314158D01*
X86198494Y-51128597D01*
X86031402Y-50961506D01*
X86031395Y-50961501D01*
X85837834Y-50825967D01*
X85837830Y-50825965D01*
X85837830Y-50825964D01*
X85623663Y-50726097D01*
X85623659Y-50726096D01*
X85623655Y-50726094D01*
X85395413Y-50664938D01*
X85395403Y-50664936D01*
X85160001Y-50644341D01*
X85159999Y-50644341D01*
X84924596Y-50664936D01*
X84924586Y-50664938D01*
X84696344Y-50726094D01*
X84696335Y-50726098D01*
X84482171Y-50825964D01*
X84482169Y-50825965D01*
X84288597Y-50961505D01*
X84121505Y-51128597D01*
X83991575Y-51314158D01*
X83936998Y-51357783D01*
X83867500Y-51364977D01*
X83805145Y-51333454D01*
X83788425Y-51314158D01*
X83658494Y-51128597D01*
X83491402Y-50961506D01*
X83491395Y-50961501D01*
X83297834Y-50825967D01*
X83297830Y-50825965D01*
X83297829Y-50825964D01*
X83083663Y-50726097D01*
X83083659Y-50726096D01*
X83083655Y-50726094D01*
X82855413Y-50664938D01*
X82855403Y-50664936D01*
X82620001Y-50644341D01*
X82619999Y-50644341D01*
X82384596Y-50664936D01*
X82384586Y-50664938D01*
X82156344Y-50726094D01*
X82156335Y-50726098D01*
X81942171Y-50825964D01*
X81942169Y-50825965D01*
X81748597Y-50961505D01*
X81581505Y-51128597D01*
X81451575Y-51314158D01*
X81396998Y-51357783D01*
X81327500Y-51364977D01*
X81265145Y-51333454D01*
X81248425Y-51314158D01*
X81118494Y-51128597D01*
X80951402Y-50961506D01*
X80951395Y-50961501D01*
X80757834Y-50825967D01*
X80757830Y-50825965D01*
X80757829Y-50825964D01*
X80543663Y-50726097D01*
X80543659Y-50726096D01*
X80543655Y-50726094D01*
X80315413Y-50664938D01*
X80315403Y-50664936D01*
X80080001Y-50644341D01*
X80079999Y-50644341D01*
X79844596Y-50664936D01*
X79844586Y-50664938D01*
X79616344Y-50726094D01*
X79616335Y-50726098D01*
X79402171Y-50825964D01*
X79402169Y-50825965D01*
X79208597Y-50961505D01*
X79041505Y-51128597D01*
X78911575Y-51314158D01*
X78856998Y-51357783D01*
X78787500Y-51364977D01*
X78725145Y-51333454D01*
X78708425Y-51314158D01*
X78578494Y-51128597D01*
X78411402Y-50961506D01*
X78411395Y-50961501D01*
X78217834Y-50825967D01*
X78217830Y-50825965D01*
X78217829Y-50825964D01*
X78003663Y-50726097D01*
X78003659Y-50726096D01*
X78003655Y-50726094D01*
X77775413Y-50664938D01*
X77775403Y-50664936D01*
X77540001Y-50644341D01*
X77539999Y-50644341D01*
X77304596Y-50664936D01*
X77304586Y-50664938D01*
X77076344Y-50726094D01*
X77076335Y-50726098D01*
X76862171Y-50825964D01*
X76862169Y-50825965D01*
X76668597Y-50961505D01*
X76501505Y-51128597D01*
X76371575Y-51314158D01*
X76316998Y-51357783D01*
X76247500Y-51364977D01*
X76185145Y-51333454D01*
X76168425Y-51314158D01*
X76038494Y-51128597D01*
X75871402Y-50961506D01*
X75871395Y-50961501D01*
X75677834Y-50825967D01*
X75677830Y-50825965D01*
X75677830Y-50825964D01*
X75463663Y-50726097D01*
X75463659Y-50726096D01*
X75463655Y-50726094D01*
X75235413Y-50664938D01*
X75235403Y-50664936D01*
X75000001Y-50644341D01*
X74999999Y-50644341D01*
X74764596Y-50664936D01*
X74764586Y-50664938D01*
X74536344Y-50726094D01*
X74536335Y-50726098D01*
X74322171Y-50825964D01*
X74322169Y-50825965D01*
X74128597Y-50961505D01*
X73961508Y-51128594D01*
X73831574Y-51314159D01*
X73776997Y-51357784D01*
X73707498Y-51364976D01*
X73645144Y-51333454D01*
X73628424Y-51314158D01*
X73498494Y-51128597D01*
X73331402Y-50961506D01*
X73331395Y-50961501D01*
X73137834Y-50825967D01*
X73137830Y-50825965D01*
X73137830Y-50825964D01*
X72923663Y-50726097D01*
X72923659Y-50726096D01*
X72923655Y-50726094D01*
X72695413Y-50664938D01*
X72695403Y-50664936D01*
X72460001Y-50644341D01*
X72459999Y-50644341D01*
X72224596Y-50664936D01*
X72224586Y-50664938D01*
X71996344Y-50726094D01*
X71996335Y-50726098D01*
X71782171Y-50825964D01*
X71782169Y-50825965D01*
X71588597Y-50961505D01*
X71421505Y-51128597D01*
X71291575Y-51314158D01*
X71236998Y-51357783D01*
X71167500Y-51364977D01*
X71105145Y-51333454D01*
X71088425Y-51314158D01*
X70958494Y-51128597D01*
X70791402Y-50961506D01*
X70791395Y-50961501D01*
X70597834Y-50825967D01*
X70597830Y-50825965D01*
X70597829Y-50825964D01*
X70383663Y-50726097D01*
X70383659Y-50726096D01*
X70383655Y-50726094D01*
X70155413Y-50664938D01*
X70155403Y-50664936D01*
X69920001Y-50644341D01*
X69919999Y-50644341D01*
X69684596Y-50664936D01*
X69684586Y-50664938D01*
X69456344Y-50726094D01*
X69456335Y-50726098D01*
X69242171Y-50825964D01*
X69242169Y-50825965D01*
X69048600Y-50961503D01*
X68926673Y-51083430D01*
X68865350Y-51116914D01*
X68795658Y-51111930D01*
X68739725Y-51070058D01*
X68722810Y-51039081D01*
X68673797Y-50907671D01*
X68673793Y-50907664D01*
X68587547Y-50792455D01*
X68587544Y-50792452D01*
X68472335Y-50706206D01*
X68472328Y-50706202D01*
X68337482Y-50655908D01*
X68337483Y-50655908D01*
X68277883Y-50649501D01*
X68277881Y-50649500D01*
X68277873Y-50649500D01*
X68277864Y-50649500D01*
X66482129Y-50649500D01*
X66482123Y-50649501D01*
X66422516Y-50655908D01*
X66287671Y-50706202D01*
X66287664Y-50706206D01*
X66172455Y-50792452D01*
X66172452Y-50792455D01*
X66086206Y-50907664D01*
X66086202Y-50907671D01*
X66035908Y-51042517D01*
X66029501Y-51102116D01*
X66029500Y-51102135D01*
X66029500Y-52897870D01*
X62234469Y-52897870D01*
X62349042Y-52684958D01*
X62366265Y-52644664D01*
X62440051Y-52472032D01*
X62518507Y-52288475D01*
X62651749Y-51878397D01*
X62747696Y-51458026D01*
X62805575Y-51030747D01*
X62824920Y-50600000D01*
X62805575Y-50169253D01*
X62747696Y-49741974D01*
X62651749Y-49321603D01*
X62547254Y-49000000D01*
X75344815Y-49000000D01*
X75363503Y-49177805D01*
X75363504Y-49177807D01*
X75418747Y-49347829D01*
X75418750Y-49347835D01*
X75508141Y-49502665D01*
X75549812Y-49548946D01*
X75627764Y-49635521D01*
X75627767Y-49635523D01*
X75627770Y-49635526D01*
X75772407Y-49740612D01*
X75935733Y-49813329D01*
X76110609Y-49850500D01*
X76110610Y-49850500D01*
X76289389Y-49850500D01*
X76289391Y-49850500D01*
X76464267Y-49813329D01*
X76627593Y-49740612D01*
X76772230Y-49635526D01*
X76891859Y-49502665D01*
X76981250Y-49347835D01*
X77036497Y-49177803D01*
X77055185Y-49000000D01*
X77055185Y-48999999D01*
X80544815Y-48999999D01*
X80563503Y-49177805D01*
X80563504Y-49177807D01*
X80618747Y-49347829D01*
X80618750Y-49347835D01*
X80708141Y-49502665D01*
X80749812Y-49548946D01*
X80827764Y-49635521D01*
X80827767Y-49635523D01*
X80827770Y-49635526D01*
X80972407Y-49740612D01*
X81135733Y-49813329D01*
X81310609Y-49850500D01*
X81310610Y-49850500D01*
X81489389Y-49850500D01*
X81489391Y-49850500D01*
X81664267Y-49813329D01*
X81827593Y-49740612D01*
X81972230Y-49635526D01*
X82004215Y-49600003D01*
X116394661Y-49600003D01*
X116414005Y-50030737D01*
X116414006Y-50030746D01*
X116471885Y-50458027D01*
X116567830Y-50878391D01*
X116701073Y-51288472D01*
X116701076Y-51288480D01*
X116870533Y-51684947D01*
X116870537Y-51684955D01*
X116870539Y-51684958D01*
X117074863Y-52064655D01*
X117074867Y-52064661D01*
X117074867Y-52064662D01*
X117312394Y-52424501D01*
X117312404Y-52424514D01*
X117581225Y-52761607D01*
X117581237Y-52761620D01*
X117845960Y-53038498D01*
X117879210Y-53073274D01*
X118032898Y-53207547D01*
X118189184Y-53344091D01*
X118203920Y-53356965D01*
X118203930Y-53356972D01*
X118203931Y-53356973D01*
X118296883Y-53424507D01*
X118552753Y-53610407D01*
X118922900Y-53831560D01*
X118922903Y-53831561D01*
X118922904Y-53831562D01*
X118922906Y-53831563D01*
X119311372Y-54018639D01*
X119311386Y-54018645D01*
X119715055Y-54170144D01*
X119715059Y-54170145D01*
X119715069Y-54170149D01*
X120130711Y-54284859D01*
X120554964Y-54361850D01*
X120984409Y-54400500D01*
X120984416Y-54400500D01*
X121415584Y-54400500D01*
X121415591Y-54400500D01*
X121845036Y-54361850D01*
X122269289Y-54284859D01*
X122684931Y-54170149D01*
X123088619Y-54018643D01*
X123477100Y-53831560D01*
X123847247Y-53610407D01*
X124196080Y-53356965D01*
X124520790Y-53073274D01*
X124818764Y-52761619D01*
X124879902Y-52684955D01*
X125056375Y-52463663D01*
X125087601Y-52424507D01*
X125325137Y-52064655D01*
X125529461Y-51684958D01*
X125698926Y-51288475D01*
X125832168Y-50878397D01*
X125928115Y-50458026D01*
X125985994Y-50030747D01*
X126005339Y-49600000D01*
X125985994Y-49169253D01*
X125928115Y-48741974D01*
X125832168Y-48321603D01*
X125698926Y-47911525D01*
X125577362Y-47627111D01*
X125529466Y-47515052D01*
X125529462Y-47515044D01*
X125488463Y-47438855D01*
X125325137Y-47135345D01*
X125325132Y-47135337D01*
X125087605Y-46775498D01*
X125087595Y-46775485D01*
X124818774Y-46438392D01*
X124818762Y-46438379D01*
X124520794Y-46126730D01*
X124520793Y-46126729D01*
X124520790Y-46126726D01*
X124200431Y-45846836D01*
X124196085Y-45843039D01*
X124196068Y-45843026D01*
X123847256Y-45589599D01*
X123847251Y-45589596D01*
X123847247Y-45589593D01*
X123477100Y-45368440D01*
X123477095Y-45368437D01*
X123477093Y-45368436D01*
X123088627Y-45181360D01*
X123088613Y-45181354D01*
X122684944Y-45029855D01*
X122684919Y-45029847D01*
X122269295Y-44915142D01*
X121845043Y-44838151D01*
X121845040Y-44838150D01*
X121845036Y-44838150D01*
X121415591Y-44799500D01*
X120984409Y-44799500D01*
X120554964Y-44838150D01*
X120554960Y-44838150D01*
X120554956Y-44838151D01*
X120130704Y-44915142D01*
X119715080Y-45029847D01*
X119715055Y-45029855D01*
X119311386Y-45181354D01*
X119311372Y-45181360D01*
X118922906Y-45368436D01*
X118922904Y-45368437D01*
X118552743Y-45589599D01*
X118203931Y-45843026D01*
X118203914Y-45843039D01*
X117879210Y-46126726D01*
X117879205Y-46126730D01*
X117581237Y-46438379D01*
X117581225Y-46438392D01*
X117312404Y-46775485D01*
X117312394Y-46775498D01*
X117074867Y-47135337D01*
X117074867Y-47135338D01*
X116870537Y-47515044D01*
X116870533Y-47515052D01*
X116701076Y-47911519D01*
X116701073Y-47911527D01*
X116567830Y-48321608D01*
X116471885Y-48741972D01*
X116414006Y-49169253D01*
X116414005Y-49169262D01*
X116394661Y-49599996D01*
X116394661Y-49600003D01*
X82004215Y-49600003D01*
X82091859Y-49502665D01*
X82181250Y-49347835D01*
X82236497Y-49177803D01*
X82255185Y-49000000D01*
X82236497Y-48822197D01*
X82208873Y-48737180D01*
X82181252Y-48652170D01*
X82181249Y-48652164D01*
X82091859Y-48497335D01*
X82045003Y-48445296D01*
X81972235Y-48364478D01*
X81972232Y-48364476D01*
X81972231Y-48364475D01*
X81972230Y-48364474D01*
X81883490Y-48300000D01*
X106994540Y-48300000D01*
X107014326Y-48488256D01*
X107014327Y-48488259D01*
X107072818Y-48668277D01*
X107072821Y-48668284D01*
X107167467Y-48832216D01*
X107238879Y-48911527D01*
X107294129Y-48972888D01*
X107447265Y-49084148D01*
X107447270Y-49084151D01*
X107620192Y-49161142D01*
X107620197Y-49161144D01*
X107805354Y-49200500D01*
X107805355Y-49200500D01*
X107994644Y-49200500D01*
X107994646Y-49200500D01*
X108179803Y-49161144D01*
X108352730Y-49084151D01*
X108505871Y-48972888D01*
X108632533Y-48832216D01*
X108727179Y-48668284D01*
X108785674Y-48488256D01*
X108805460Y-48300000D01*
X108785674Y-48111744D01*
X108727179Y-47931716D01*
X108632533Y-47767784D01*
X108505871Y-47627112D01*
X108505870Y-47627111D01*
X108352734Y-47515851D01*
X108352729Y-47515848D01*
X108179807Y-47438857D01*
X108179802Y-47438855D01*
X108034001Y-47407865D01*
X107994646Y-47399500D01*
X107805354Y-47399500D01*
X107772897Y-47406398D01*
X107620197Y-47438855D01*
X107620192Y-47438857D01*
X107447270Y-47515848D01*
X107447265Y-47515851D01*
X107294129Y-47627111D01*
X107167466Y-47767785D01*
X107072821Y-47931715D01*
X107072818Y-47931722D01*
X107019977Y-48094352D01*
X107014326Y-48111744D01*
X106994540Y-48300000D01*
X81883490Y-48300000D01*
X81827593Y-48259388D01*
X81664267Y-48186671D01*
X81664265Y-48186670D01*
X81536594Y-48159533D01*
X81489391Y-48149500D01*
X81310609Y-48149500D01*
X81279954Y-48156015D01*
X81135733Y-48186670D01*
X81135728Y-48186672D01*
X80972408Y-48259387D01*
X80827768Y-48364475D01*
X80708140Y-48497336D01*
X80618750Y-48652164D01*
X80618747Y-48652170D01*
X80563504Y-48822192D01*
X80563503Y-48822194D01*
X80544815Y-48999999D01*
X77055185Y-48999999D01*
X77036497Y-48822197D01*
X77008873Y-48737180D01*
X76981252Y-48652170D01*
X76981249Y-48652164D01*
X76891859Y-48497335D01*
X76845003Y-48445296D01*
X76772235Y-48364478D01*
X76772232Y-48364476D01*
X76772231Y-48364475D01*
X76772230Y-48364474D01*
X76627593Y-48259388D01*
X76464267Y-48186671D01*
X76464265Y-48186670D01*
X76336594Y-48159533D01*
X76289391Y-48149500D01*
X76110609Y-48149500D01*
X76079954Y-48156015D01*
X75935733Y-48186670D01*
X75935728Y-48186672D01*
X75772408Y-48259387D01*
X75627768Y-48364475D01*
X75508140Y-48497336D01*
X75418750Y-48652164D01*
X75418747Y-48652170D01*
X75363504Y-48822192D01*
X75363503Y-48822194D01*
X75344815Y-49000000D01*
X62547254Y-49000000D01*
X62518507Y-48911525D01*
X62414538Y-48668277D01*
X62349047Y-48515052D01*
X62349043Y-48515044D01*
X62334329Y-48487701D01*
X62144718Y-48135345D01*
X62129139Y-48111744D01*
X61907186Y-47775498D01*
X61907176Y-47775485D01*
X61638355Y-47438392D01*
X61638343Y-47438379D01*
X61340375Y-47126730D01*
X61340374Y-47126729D01*
X61340371Y-47126726D01*
X61015661Y-46843035D01*
X60966311Y-46807180D01*
X60666837Y-46589599D01*
X60666832Y-46589596D01*
X60666828Y-46589593D01*
X60296681Y-46368440D01*
X60296676Y-46368437D01*
X60296674Y-46368436D01*
X60257351Y-46349499D01*
X99544815Y-46349499D01*
X99563503Y-46527305D01*
X99563504Y-46527307D01*
X99618747Y-46697329D01*
X99618750Y-46697335D01*
X99708141Y-46852165D01*
X99749812Y-46898446D01*
X99827764Y-46985021D01*
X99827767Y-46985023D01*
X99827770Y-46985026D01*
X99972407Y-47090112D01*
X100135733Y-47162829D01*
X100310609Y-47200000D01*
X100310610Y-47200000D01*
X100489389Y-47200000D01*
X100489391Y-47200000D01*
X100664267Y-47162829D01*
X100827593Y-47090112D01*
X100972230Y-46985026D01*
X101091859Y-46852165D01*
X101181250Y-46697335D01*
X101236497Y-46527303D01*
X101255185Y-46349500D01*
X101236497Y-46171697D01*
X101181250Y-46001665D01*
X101091859Y-45846835D01*
X101045003Y-45794796D01*
X100972235Y-45713978D01*
X100972232Y-45713976D01*
X100972231Y-45713975D01*
X100972230Y-45713974D01*
X100827593Y-45608888D01*
X100664267Y-45536171D01*
X100664265Y-45536170D01*
X100508882Y-45503143D01*
X100489391Y-45499000D01*
X100310609Y-45499000D01*
X100291118Y-45503143D01*
X100135733Y-45536170D01*
X100135728Y-45536172D01*
X99972408Y-45608887D01*
X99827768Y-45713975D01*
X99708140Y-45846836D01*
X99618750Y-46001664D01*
X99618747Y-46001670D01*
X99563504Y-46171692D01*
X99563503Y-46171694D01*
X99544815Y-46349499D01*
X60257351Y-46349499D01*
X59908208Y-46181360D01*
X59908194Y-46181354D01*
X59504525Y-46029855D01*
X59504500Y-46029847D01*
X59088876Y-45915142D01*
X58664624Y-45838151D01*
X58664621Y-45838150D01*
X58664617Y-45838150D01*
X58235172Y-45799500D01*
X57803990Y-45799500D01*
X57374545Y-45838150D01*
X57374541Y-45838150D01*
X57374537Y-45838151D01*
X56950285Y-45915142D01*
X56534661Y-46029847D01*
X56534636Y-46029855D01*
X56130967Y-46181354D01*
X56130953Y-46181360D01*
X55742487Y-46368436D01*
X55742485Y-46368437D01*
X55372324Y-46589599D01*
X55023512Y-46843026D01*
X55023495Y-46843039D01*
X54698791Y-47126726D01*
X54698786Y-47126730D01*
X54400818Y-47438379D01*
X54400806Y-47438392D01*
X54131985Y-47775485D01*
X54131975Y-47775498D01*
X53894448Y-48135337D01*
X53894448Y-48135338D01*
X53690118Y-48515044D01*
X53690114Y-48515052D01*
X53520657Y-48911519D01*
X53520654Y-48911527D01*
X53387411Y-49321608D01*
X53291466Y-49741972D01*
X53233587Y-50169253D01*
X53233586Y-50169262D01*
X53214242Y-50599996D01*
X53214242Y-50600003D01*
X51014785Y-50600003D01*
X51018255Y-50502861D01*
X51018570Y-50498465D01*
X51053964Y-50169253D01*
X51071510Y-50006049D01*
X51072134Y-50001707D01*
X51160073Y-49514296D01*
X51161000Y-49510036D01*
X51283490Y-49030121D01*
X51284721Y-49025931D01*
X51441124Y-48556013D01*
X51442665Y-48551884D01*
X51457922Y-48515052D01*
X51632184Y-48094345D01*
X51634021Y-48090325D01*
X51713415Y-47931716D01*
X51855706Y-47647453D01*
X51857803Y-47643613D01*
X52110527Y-47217669D01*
X52112883Y-47214002D01*
X52395352Y-46807169D01*
X52397998Y-46803636D01*
X52420677Y-46775493D01*
X52708762Y-46418000D01*
X52711626Y-46414695D01*
X53049097Y-46052227D01*
X53052227Y-46049097D01*
X53134022Y-45972943D01*
X53414695Y-45711626D01*
X53418000Y-45708762D01*
X53803637Y-45397997D01*
X53807169Y-45395352D01*
X54214002Y-45112883D01*
X54217669Y-45110527D01*
X54643613Y-44857803D01*
X54647453Y-44855706D01*
X55090327Y-44634019D01*
X55094345Y-44632184D01*
X55551894Y-44442661D01*
X55556013Y-44441124D01*
X56025931Y-44284721D01*
X56030121Y-44283490D01*
X56510036Y-44161000D01*
X56514296Y-44160073D01*
X57001707Y-44072134D01*
X57006049Y-44071510D01*
X57498467Y-44018569D01*
X57502861Y-44018255D01*
X58000000Y-44000500D01*
X58092710Y-44000500D01*
X123907290Y-44000500D01*
X123998377Y-44000500D01*
X124001620Y-44000584D01*
G37*
%TD.AperFunction*%
%TD*%
M02*
