%TF.GenerationSoftware,KiCad,Pcbnew,7.0.7-7.0.7~ubuntu22.04.1*%
%TF.CreationDate,2023-09-19T11:06:22+02:00*%
%TF.ProjectId,kicad103,6b696361-6431-4303-932e-6b696361645f,rev?*%
%TF.SameCoordinates,Original*%
%TF.FileFunction,Legend,Top*%
%TF.FilePolarity,Positive*%
%FSLAX46Y46*%
G04 Gerber Fmt 4.6, Leading zero omitted, Abs format (unit mm)*
G04 Created by KiCad (PCBNEW 7.0.7-7.0.7~ubuntu22.04.1) date 2023-09-19 11:06:22*
%MOMM*%
%LPD*%
G01*
G04 APERTURE LIST*
%ADD10C,0.200000*%
%ADD11C,0.120000*%
%ADD12C,0.100000*%
G04 APERTURE END LIST*
D10*
X95993482Y-59367219D02*
X95422054Y-59367219D01*
X95707768Y-59367219D02*
X95707768Y-58367219D01*
X95707768Y-58367219D02*
X95612530Y-58510076D01*
X95612530Y-58510076D02*
X95517292Y-58605314D01*
X95517292Y-58605314D02*
X95422054Y-58652933D01*
X116374435Y-70567219D02*
X116993482Y-70567219D01*
X116993482Y-70567219D02*
X116660149Y-70948171D01*
X116660149Y-70948171D02*
X116803006Y-70948171D01*
X116803006Y-70948171D02*
X116898244Y-70995790D01*
X116898244Y-70995790D02*
X116945863Y-71043409D01*
X116945863Y-71043409D02*
X116993482Y-71138647D01*
X116993482Y-71138647D02*
X116993482Y-71376742D01*
X116993482Y-71376742D02*
X116945863Y-71471980D01*
X116945863Y-71471980D02*
X116898244Y-71519600D01*
X116898244Y-71519600D02*
X116803006Y-71567219D01*
X116803006Y-71567219D02*
X116517292Y-71567219D01*
X116517292Y-71567219D02*
X116422054Y-71519600D01*
X116422054Y-71519600D02*
X116374435Y-71471980D01*
X117422054Y-71471980D02*
X117469673Y-71519600D01*
X117469673Y-71519600D02*
X117422054Y-71567219D01*
X117422054Y-71567219D02*
X117374435Y-71519600D01*
X117374435Y-71519600D02*
X117422054Y-71471980D01*
X117422054Y-71471980D02*
X117422054Y-71567219D01*
X117803006Y-70567219D02*
X118422053Y-70567219D01*
X118422053Y-70567219D02*
X118088720Y-70948171D01*
X118088720Y-70948171D02*
X118231577Y-70948171D01*
X118231577Y-70948171D02*
X118326815Y-70995790D01*
X118326815Y-70995790D02*
X118374434Y-71043409D01*
X118374434Y-71043409D02*
X118422053Y-71138647D01*
X118422053Y-71138647D02*
X118422053Y-71376742D01*
X118422053Y-71376742D02*
X118374434Y-71471980D01*
X118374434Y-71471980D02*
X118326815Y-71519600D01*
X118326815Y-71519600D02*
X118231577Y-71567219D01*
X118231577Y-71567219D02*
X117945863Y-71567219D01*
X117945863Y-71567219D02*
X117850625Y-71519600D01*
X117850625Y-71519600D02*
X117803006Y-71471980D01*
X118707768Y-70567219D02*
X119041101Y-71567219D01*
X119041101Y-71567219D02*
X119374434Y-70567219D01*
X99355387Y-56467219D02*
X99355387Y-57181504D01*
X99355387Y-57181504D02*
X99307768Y-57324361D01*
X99307768Y-57324361D02*
X99212530Y-57419600D01*
X99212530Y-57419600D02*
X99069673Y-57467219D01*
X99069673Y-57467219D02*
X98974435Y-57467219D01*
X99688721Y-56467219D02*
X100260149Y-56467219D01*
X99974435Y-57467219D02*
X99974435Y-56467219D01*
X100545864Y-57181504D02*
X101022054Y-57181504D01*
X100450626Y-57467219D02*
X100783959Y-56467219D01*
X100783959Y-56467219D02*
X101117292Y-57467219D01*
X101974435Y-56514838D02*
X101879197Y-56467219D01*
X101879197Y-56467219D02*
X101736340Y-56467219D01*
X101736340Y-56467219D02*
X101593483Y-56514838D01*
X101593483Y-56514838D02*
X101498245Y-56610076D01*
X101498245Y-56610076D02*
X101450626Y-56705314D01*
X101450626Y-56705314D02*
X101403007Y-56895790D01*
X101403007Y-56895790D02*
X101403007Y-57038647D01*
X101403007Y-57038647D02*
X101450626Y-57229123D01*
X101450626Y-57229123D02*
X101498245Y-57324361D01*
X101498245Y-57324361D02*
X101593483Y-57419600D01*
X101593483Y-57419600D02*
X101736340Y-57467219D01*
X101736340Y-57467219D02*
X101831578Y-57467219D01*
X101831578Y-57467219D02*
X101974435Y-57419600D01*
X101974435Y-57419600D02*
X102022054Y-57371980D01*
X102022054Y-57371980D02*
X102022054Y-57038647D01*
X102022054Y-57038647D02*
X101831578Y-57038647D01*
X111822054Y-59519600D02*
X111964911Y-59567219D01*
X111964911Y-59567219D02*
X112203006Y-59567219D01*
X112203006Y-59567219D02*
X112298244Y-59519600D01*
X112298244Y-59519600D02*
X112345863Y-59471980D01*
X112345863Y-59471980D02*
X112393482Y-59376742D01*
X112393482Y-59376742D02*
X112393482Y-59281504D01*
X112393482Y-59281504D02*
X112345863Y-59186266D01*
X112345863Y-59186266D02*
X112298244Y-59138647D01*
X112298244Y-59138647D02*
X112203006Y-59091028D01*
X112203006Y-59091028D02*
X112012530Y-59043409D01*
X112012530Y-59043409D02*
X111917292Y-58995790D01*
X111917292Y-58995790D02*
X111869673Y-58948171D01*
X111869673Y-58948171D02*
X111822054Y-58852933D01*
X111822054Y-58852933D02*
X111822054Y-58757695D01*
X111822054Y-58757695D02*
X111869673Y-58662457D01*
X111869673Y-58662457D02*
X111917292Y-58614838D01*
X111917292Y-58614838D02*
X112012530Y-58567219D01*
X112012530Y-58567219D02*
X112250625Y-58567219D01*
X112250625Y-58567219D02*
X112393482Y-58614838D01*
X112726816Y-58567219D02*
X112964911Y-59567219D01*
X112964911Y-59567219D02*
X113155387Y-58852933D01*
X113155387Y-58852933D02*
X113345863Y-59567219D01*
X113345863Y-59567219D02*
X113583959Y-58567219D01*
X114155387Y-58567219D02*
X114345863Y-58567219D01*
X114345863Y-58567219D02*
X114441101Y-58614838D01*
X114441101Y-58614838D02*
X114536339Y-58710076D01*
X114536339Y-58710076D02*
X114583958Y-58900552D01*
X114583958Y-58900552D02*
X114583958Y-59233885D01*
X114583958Y-59233885D02*
X114536339Y-59424361D01*
X114536339Y-59424361D02*
X114441101Y-59519600D01*
X114441101Y-59519600D02*
X114345863Y-59567219D01*
X114345863Y-59567219D02*
X114155387Y-59567219D01*
X114155387Y-59567219D02*
X114060149Y-59519600D01*
X114060149Y-59519600D02*
X113964911Y-59424361D01*
X113964911Y-59424361D02*
X113917292Y-59233885D01*
X113917292Y-59233885D02*
X113917292Y-58900552D01*
X113917292Y-58900552D02*
X113964911Y-58710076D01*
X113964911Y-58710076D02*
X114060149Y-58614838D01*
X114060149Y-58614838D02*
X114155387Y-58567219D01*
X110822054Y-64119600D02*
X110964911Y-64167219D01*
X110964911Y-64167219D02*
X111203006Y-64167219D01*
X111203006Y-64167219D02*
X111298244Y-64119600D01*
X111298244Y-64119600D02*
X111345863Y-64071980D01*
X111345863Y-64071980D02*
X111393482Y-63976742D01*
X111393482Y-63976742D02*
X111393482Y-63881504D01*
X111393482Y-63881504D02*
X111345863Y-63786266D01*
X111345863Y-63786266D02*
X111298244Y-63738647D01*
X111298244Y-63738647D02*
X111203006Y-63691028D01*
X111203006Y-63691028D02*
X111012530Y-63643409D01*
X111012530Y-63643409D02*
X110917292Y-63595790D01*
X110917292Y-63595790D02*
X110869673Y-63548171D01*
X110869673Y-63548171D02*
X110822054Y-63452933D01*
X110822054Y-63452933D02*
X110822054Y-63357695D01*
X110822054Y-63357695D02*
X110869673Y-63262457D01*
X110869673Y-63262457D02*
X110917292Y-63214838D01*
X110917292Y-63214838D02*
X111012530Y-63167219D01*
X111012530Y-63167219D02*
X111250625Y-63167219D01*
X111250625Y-63167219D02*
X111393482Y-63214838D01*
X111726816Y-63167219D02*
X111964911Y-64167219D01*
X111964911Y-64167219D02*
X112155387Y-63452933D01*
X112155387Y-63452933D02*
X112345863Y-64167219D01*
X112345863Y-64167219D02*
X112583959Y-63167219D01*
X112964911Y-64167219D02*
X112964911Y-63167219D01*
X112964911Y-63167219D02*
X113203006Y-63167219D01*
X113203006Y-63167219D02*
X113345863Y-63214838D01*
X113345863Y-63214838D02*
X113441101Y-63310076D01*
X113441101Y-63310076D02*
X113488720Y-63405314D01*
X113488720Y-63405314D02*
X113536339Y-63595790D01*
X113536339Y-63595790D02*
X113536339Y-63738647D01*
X113536339Y-63738647D02*
X113488720Y-63929123D01*
X113488720Y-63929123D02*
X113441101Y-64024361D01*
X113441101Y-64024361D02*
X113345863Y-64119600D01*
X113345863Y-64119600D02*
X113203006Y-64167219D01*
X113203006Y-64167219D02*
X112964911Y-64167219D01*
X113964911Y-64167219D02*
X113964911Y-63167219D01*
X114631577Y-63167219D02*
X114822053Y-63167219D01*
X114822053Y-63167219D02*
X114917291Y-63214838D01*
X114917291Y-63214838D02*
X115012529Y-63310076D01*
X115012529Y-63310076D02*
X115060148Y-63500552D01*
X115060148Y-63500552D02*
X115060148Y-63833885D01*
X115060148Y-63833885D02*
X115012529Y-64024361D01*
X115012529Y-64024361D02*
X114917291Y-64119600D01*
X114917291Y-64119600D02*
X114822053Y-64167219D01*
X114822053Y-64167219D02*
X114631577Y-64167219D01*
X114631577Y-64167219D02*
X114536339Y-64119600D01*
X114536339Y-64119600D02*
X114441101Y-64024361D01*
X114441101Y-64024361D02*
X114393482Y-63833885D01*
X114393482Y-63833885D02*
X114393482Y-63500552D01*
X114393482Y-63500552D02*
X114441101Y-63310076D01*
X114441101Y-63310076D02*
X114536339Y-63214838D01*
X114536339Y-63214838D02*
X114631577Y-63167219D01*
X110922054Y-66119600D02*
X111064911Y-66167219D01*
X111064911Y-66167219D02*
X111303006Y-66167219D01*
X111303006Y-66167219D02*
X111398244Y-66119600D01*
X111398244Y-66119600D02*
X111445863Y-66071980D01*
X111445863Y-66071980D02*
X111493482Y-65976742D01*
X111493482Y-65976742D02*
X111493482Y-65881504D01*
X111493482Y-65881504D02*
X111445863Y-65786266D01*
X111445863Y-65786266D02*
X111398244Y-65738647D01*
X111398244Y-65738647D02*
X111303006Y-65691028D01*
X111303006Y-65691028D02*
X111112530Y-65643409D01*
X111112530Y-65643409D02*
X111017292Y-65595790D01*
X111017292Y-65595790D02*
X110969673Y-65548171D01*
X110969673Y-65548171D02*
X110922054Y-65452933D01*
X110922054Y-65452933D02*
X110922054Y-65357695D01*
X110922054Y-65357695D02*
X110969673Y-65262457D01*
X110969673Y-65262457D02*
X111017292Y-65214838D01*
X111017292Y-65214838D02*
X111112530Y-65167219D01*
X111112530Y-65167219D02*
X111350625Y-65167219D01*
X111350625Y-65167219D02*
X111493482Y-65214838D01*
X111826816Y-65167219D02*
X112064911Y-66167219D01*
X112064911Y-66167219D02*
X112255387Y-65452933D01*
X112255387Y-65452933D02*
X112445863Y-66167219D01*
X112445863Y-66167219D02*
X112683959Y-65167219D01*
X113636339Y-66071980D02*
X113588720Y-66119600D01*
X113588720Y-66119600D02*
X113445863Y-66167219D01*
X113445863Y-66167219D02*
X113350625Y-66167219D01*
X113350625Y-66167219D02*
X113207768Y-66119600D01*
X113207768Y-66119600D02*
X113112530Y-66024361D01*
X113112530Y-66024361D02*
X113064911Y-65929123D01*
X113064911Y-65929123D02*
X113017292Y-65738647D01*
X113017292Y-65738647D02*
X113017292Y-65595790D01*
X113017292Y-65595790D02*
X113064911Y-65405314D01*
X113064911Y-65405314D02*
X113112530Y-65310076D01*
X113112530Y-65310076D02*
X113207768Y-65214838D01*
X113207768Y-65214838D02*
X113350625Y-65167219D01*
X113350625Y-65167219D02*
X113445863Y-65167219D01*
X113445863Y-65167219D02*
X113588720Y-65214838D01*
X113588720Y-65214838D02*
X113636339Y-65262457D01*
X114541101Y-66167219D02*
X114064911Y-66167219D01*
X114064911Y-66167219D02*
X114064911Y-65167219D01*
X114874435Y-66167219D02*
X114874435Y-65167219D01*
X115445863Y-66167219D02*
X115017292Y-65595790D01*
X115445863Y-65167219D02*
X114874435Y-65738647D01*
X116893482Y-78414838D02*
X116798244Y-78367219D01*
X116798244Y-78367219D02*
X116655387Y-78367219D01*
X116655387Y-78367219D02*
X116512530Y-78414838D01*
X116512530Y-78414838D02*
X116417292Y-78510076D01*
X116417292Y-78510076D02*
X116369673Y-78605314D01*
X116369673Y-78605314D02*
X116322054Y-78795790D01*
X116322054Y-78795790D02*
X116322054Y-78938647D01*
X116322054Y-78938647D02*
X116369673Y-79129123D01*
X116369673Y-79129123D02*
X116417292Y-79224361D01*
X116417292Y-79224361D02*
X116512530Y-79319600D01*
X116512530Y-79319600D02*
X116655387Y-79367219D01*
X116655387Y-79367219D02*
X116750625Y-79367219D01*
X116750625Y-79367219D02*
X116893482Y-79319600D01*
X116893482Y-79319600D02*
X116941101Y-79271980D01*
X116941101Y-79271980D02*
X116941101Y-78938647D01*
X116941101Y-78938647D02*
X116750625Y-78938647D01*
X117369673Y-79367219D02*
X117369673Y-78367219D01*
X117369673Y-78367219D02*
X117941101Y-79367219D01*
X117941101Y-79367219D02*
X117941101Y-78367219D01*
X118417292Y-79367219D02*
X118417292Y-78367219D01*
X118417292Y-78367219D02*
X118655387Y-78367219D01*
X118655387Y-78367219D02*
X118798244Y-78414838D01*
X118798244Y-78414838D02*
X118893482Y-78510076D01*
X118893482Y-78510076D02*
X118941101Y-78605314D01*
X118941101Y-78605314D02*
X118988720Y-78795790D01*
X118988720Y-78795790D02*
X118988720Y-78938647D01*
X118988720Y-78938647D02*
X118941101Y-79129123D01*
X118941101Y-79129123D02*
X118893482Y-79224361D01*
X118893482Y-79224361D02*
X118798244Y-79319600D01*
X118798244Y-79319600D02*
X118655387Y-79367219D01*
X118655387Y-79367219D02*
X118417292Y-79367219D01*
X116422054Y-76819600D02*
X116564911Y-76867219D01*
X116564911Y-76867219D02*
X116803006Y-76867219D01*
X116803006Y-76867219D02*
X116898244Y-76819600D01*
X116898244Y-76819600D02*
X116945863Y-76771980D01*
X116945863Y-76771980D02*
X116993482Y-76676742D01*
X116993482Y-76676742D02*
X116993482Y-76581504D01*
X116993482Y-76581504D02*
X116945863Y-76486266D01*
X116945863Y-76486266D02*
X116898244Y-76438647D01*
X116898244Y-76438647D02*
X116803006Y-76391028D01*
X116803006Y-76391028D02*
X116612530Y-76343409D01*
X116612530Y-76343409D02*
X116517292Y-76295790D01*
X116517292Y-76295790D02*
X116469673Y-76248171D01*
X116469673Y-76248171D02*
X116422054Y-76152933D01*
X116422054Y-76152933D02*
X116422054Y-76057695D01*
X116422054Y-76057695D02*
X116469673Y-75962457D01*
X116469673Y-75962457D02*
X116517292Y-75914838D01*
X116517292Y-75914838D02*
X116612530Y-75867219D01*
X116612530Y-75867219D02*
X116850625Y-75867219D01*
X116850625Y-75867219D02*
X116993482Y-75914838D01*
X117326816Y-75867219D02*
X117564911Y-76867219D01*
X117564911Y-76867219D02*
X117755387Y-76152933D01*
X117755387Y-76152933D02*
X117945863Y-76867219D01*
X117945863Y-76867219D02*
X118183959Y-75867219D01*
X119136339Y-76771980D02*
X119088720Y-76819600D01*
X119088720Y-76819600D02*
X118945863Y-76867219D01*
X118945863Y-76867219D02*
X118850625Y-76867219D01*
X118850625Y-76867219D02*
X118707768Y-76819600D01*
X118707768Y-76819600D02*
X118612530Y-76724361D01*
X118612530Y-76724361D02*
X118564911Y-76629123D01*
X118564911Y-76629123D02*
X118517292Y-76438647D01*
X118517292Y-76438647D02*
X118517292Y-76295790D01*
X118517292Y-76295790D02*
X118564911Y-76105314D01*
X118564911Y-76105314D02*
X118612530Y-76010076D01*
X118612530Y-76010076D02*
X118707768Y-75914838D01*
X118707768Y-75914838D02*
X118850625Y-75867219D01*
X118850625Y-75867219D02*
X118945863Y-75867219D01*
X118945863Y-75867219D02*
X119088720Y-75914838D01*
X119088720Y-75914838D02*
X119136339Y-75962457D01*
X120041101Y-76867219D02*
X119564911Y-76867219D01*
X119564911Y-76867219D02*
X119564911Y-75867219D01*
X120374435Y-76867219D02*
X120374435Y-75867219D01*
X120945863Y-76867219D02*
X120517292Y-76295790D01*
X120945863Y-75867219D02*
X120374435Y-76438647D01*
X64569673Y-75586266D02*
X65331578Y-75586266D01*
X64950625Y-75967219D02*
X64950625Y-75205314D01*
X106219600Y-65077945D02*
X106267219Y-64935088D01*
X106267219Y-64935088D02*
X106267219Y-64696993D01*
X106267219Y-64696993D02*
X106219600Y-64601755D01*
X106219600Y-64601755D02*
X106171980Y-64554136D01*
X106171980Y-64554136D02*
X106076742Y-64506517D01*
X106076742Y-64506517D02*
X105981504Y-64506517D01*
X105981504Y-64506517D02*
X105886266Y-64554136D01*
X105886266Y-64554136D02*
X105838647Y-64601755D01*
X105838647Y-64601755D02*
X105791028Y-64696993D01*
X105791028Y-64696993D02*
X105743409Y-64887469D01*
X105743409Y-64887469D02*
X105695790Y-64982707D01*
X105695790Y-64982707D02*
X105648171Y-65030326D01*
X105648171Y-65030326D02*
X105552933Y-65077945D01*
X105552933Y-65077945D02*
X105457695Y-65077945D01*
X105457695Y-65077945D02*
X105362457Y-65030326D01*
X105362457Y-65030326D02*
X105314838Y-64982707D01*
X105314838Y-64982707D02*
X105267219Y-64887469D01*
X105267219Y-64887469D02*
X105267219Y-64649374D01*
X105267219Y-64649374D02*
X105314838Y-64506517D01*
X106267219Y-63935088D02*
X106219600Y-64030326D01*
X106219600Y-64030326D02*
X106124361Y-64077945D01*
X106124361Y-64077945D02*
X105267219Y-64077945D01*
X106267219Y-63125564D02*
X105743409Y-63125564D01*
X105743409Y-63125564D02*
X105648171Y-63173183D01*
X105648171Y-63173183D02*
X105600552Y-63268421D01*
X105600552Y-63268421D02*
X105600552Y-63458897D01*
X105600552Y-63458897D02*
X105648171Y-63554135D01*
X106219600Y-63125564D02*
X106267219Y-63220802D01*
X106267219Y-63220802D02*
X106267219Y-63458897D01*
X106267219Y-63458897D02*
X106219600Y-63554135D01*
X106219600Y-63554135D02*
X106124361Y-63601754D01*
X106124361Y-63601754D02*
X106029123Y-63601754D01*
X106029123Y-63601754D02*
X105933885Y-63554135D01*
X105933885Y-63554135D02*
X105886266Y-63458897D01*
X105886266Y-63458897D02*
X105886266Y-63220802D01*
X105886266Y-63220802D02*
X105838647Y-63125564D01*
X105600552Y-62744611D02*
X106267219Y-62506516D01*
X106267219Y-62506516D02*
X105600552Y-62268421D01*
X106219600Y-61506516D02*
X106267219Y-61601754D01*
X106267219Y-61601754D02*
X106267219Y-61792230D01*
X106267219Y-61792230D02*
X106219600Y-61887468D01*
X106219600Y-61887468D02*
X106124361Y-61935087D01*
X106124361Y-61935087D02*
X105743409Y-61935087D01*
X105743409Y-61935087D02*
X105648171Y-61887468D01*
X105648171Y-61887468D02*
X105600552Y-61792230D01*
X105600552Y-61792230D02*
X105600552Y-61601754D01*
X105600552Y-61601754D02*
X105648171Y-61506516D01*
X105648171Y-61506516D02*
X105743409Y-61458897D01*
X105743409Y-61458897D02*
X105838647Y-61458897D01*
X105838647Y-61458897D02*
X105933885Y-61935087D01*
X57269673Y-81067219D02*
X57269673Y-80067219D01*
X57269673Y-80067219D02*
X57650625Y-80067219D01*
X57650625Y-80067219D02*
X57745863Y-80114838D01*
X57745863Y-80114838D02*
X57793482Y-80162457D01*
X57793482Y-80162457D02*
X57841101Y-80257695D01*
X57841101Y-80257695D02*
X57841101Y-80400552D01*
X57841101Y-80400552D02*
X57793482Y-80495790D01*
X57793482Y-80495790D02*
X57745863Y-80543409D01*
X57745863Y-80543409D02*
X57650625Y-80591028D01*
X57650625Y-80591028D02*
X57269673Y-80591028D01*
X58174435Y-80067219D02*
X58412530Y-81067219D01*
X58412530Y-81067219D02*
X58603006Y-80352933D01*
X58603006Y-80352933D02*
X58793482Y-81067219D01*
X58793482Y-81067219D02*
X59031578Y-80067219D01*
X59983958Y-81067219D02*
X59650625Y-80591028D01*
X59412530Y-81067219D02*
X59412530Y-80067219D01*
X59412530Y-80067219D02*
X59793482Y-80067219D01*
X59793482Y-80067219D02*
X59888720Y-80114838D01*
X59888720Y-80114838D02*
X59936339Y-80162457D01*
X59936339Y-80162457D02*
X59983958Y-80257695D01*
X59983958Y-80257695D02*
X59983958Y-80400552D01*
X59983958Y-80400552D02*
X59936339Y-80495790D01*
X59936339Y-80495790D02*
X59888720Y-80543409D01*
X59888720Y-80543409D02*
X59793482Y-80591028D01*
X59793482Y-80591028D02*
X59412530Y-80591028D01*
X111467219Y-77430326D02*
X110467219Y-77430326D01*
X110467219Y-77430326D02*
X111181504Y-77096993D01*
X111181504Y-77096993D02*
X110467219Y-76763660D01*
X110467219Y-76763660D02*
X111467219Y-76763660D01*
X111467219Y-75858898D02*
X110943409Y-75858898D01*
X110943409Y-75858898D02*
X110848171Y-75906517D01*
X110848171Y-75906517D02*
X110800552Y-76001755D01*
X110800552Y-76001755D02*
X110800552Y-76192231D01*
X110800552Y-76192231D02*
X110848171Y-76287469D01*
X111419600Y-75858898D02*
X111467219Y-75954136D01*
X111467219Y-75954136D02*
X111467219Y-76192231D01*
X111467219Y-76192231D02*
X111419600Y-76287469D01*
X111419600Y-76287469D02*
X111324361Y-76335088D01*
X111324361Y-76335088D02*
X111229123Y-76335088D01*
X111229123Y-76335088D02*
X111133885Y-76287469D01*
X111133885Y-76287469D02*
X111086266Y-76192231D01*
X111086266Y-76192231D02*
X111086266Y-75954136D01*
X111086266Y-75954136D02*
X111038647Y-75858898D01*
X111419600Y-75430326D02*
X111467219Y-75335088D01*
X111467219Y-75335088D02*
X111467219Y-75144612D01*
X111467219Y-75144612D02*
X111419600Y-75049374D01*
X111419600Y-75049374D02*
X111324361Y-75001755D01*
X111324361Y-75001755D02*
X111276742Y-75001755D01*
X111276742Y-75001755D02*
X111181504Y-75049374D01*
X111181504Y-75049374D02*
X111133885Y-75144612D01*
X111133885Y-75144612D02*
X111133885Y-75287469D01*
X111133885Y-75287469D02*
X111086266Y-75382707D01*
X111086266Y-75382707D02*
X110991028Y-75430326D01*
X110991028Y-75430326D02*
X110943409Y-75430326D01*
X110943409Y-75430326D02*
X110848171Y-75382707D01*
X110848171Y-75382707D02*
X110800552Y-75287469D01*
X110800552Y-75287469D02*
X110800552Y-75144612D01*
X110800552Y-75144612D02*
X110848171Y-75049374D01*
X110800552Y-74716040D02*
X110800552Y-74335088D01*
X110467219Y-74573183D02*
X111324361Y-74573183D01*
X111324361Y-74573183D02*
X111419600Y-74525564D01*
X111419600Y-74525564D02*
X111467219Y-74430326D01*
X111467219Y-74430326D02*
X111467219Y-74335088D01*
X111419600Y-73620802D02*
X111467219Y-73716040D01*
X111467219Y-73716040D02*
X111467219Y-73906516D01*
X111467219Y-73906516D02*
X111419600Y-74001754D01*
X111419600Y-74001754D02*
X111324361Y-74049373D01*
X111324361Y-74049373D02*
X110943409Y-74049373D01*
X110943409Y-74049373D02*
X110848171Y-74001754D01*
X110848171Y-74001754D02*
X110800552Y-73906516D01*
X110800552Y-73906516D02*
X110800552Y-73716040D01*
X110800552Y-73716040D02*
X110848171Y-73620802D01*
X110848171Y-73620802D02*
X110943409Y-73573183D01*
X110943409Y-73573183D02*
X111038647Y-73573183D01*
X111038647Y-73573183D02*
X111133885Y-74049373D01*
X111467219Y-73144611D02*
X110800552Y-73144611D01*
X110991028Y-73144611D02*
X110895790Y-73096992D01*
X110895790Y-73096992D02*
X110848171Y-73049373D01*
X110848171Y-73049373D02*
X110800552Y-72954135D01*
X110800552Y-72954135D02*
X110800552Y-72858897D01*
X111774435Y-60767219D02*
X112393482Y-60767219D01*
X112393482Y-60767219D02*
X112060149Y-61148171D01*
X112060149Y-61148171D02*
X112203006Y-61148171D01*
X112203006Y-61148171D02*
X112298244Y-61195790D01*
X112298244Y-61195790D02*
X112345863Y-61243409D01*
X112345863Y-61243409D02*
X112393482Y-61338647D01*
X112393482Y-61338647D02*
X112393482Y-61576742D01*
X112393482Y-61576742D02*
X112345863Y-61671980D01*
X112345863Y-61671980D02*
X112298244Y-61719600D01*
X112298244Y-61719600D02*
X112203006Y-61767219D01*
X112203006Y-61767219D02*
X111917292Y-61767219D01*
X111917292Y-61767219D02*
X111822054Y-61719600D01*
X111822054Y-61719600D02*
X111774435Y-61671980D01*
X112822054Y-61671980D02*
X112869673Y-61719600D01*
X112869673Y-61719600D02*
X112822054Y-61767219D01*
X112822054Y-61767219D02*
X112774435Y-61719600D01*
X112774435Y-61719600D02*
X112822054Y-61671980D01*
X112822054Y-61671980D02*
X112822054Y-61767219D01*
X113203006Y-60767219D02*
X113822053Y-60767219D01*
X113822053Y-60767219D02*
X113488720Y-61148171D01*
X113488720Y-61148171D02*
X113631577Y-61148171D01*
X113631577Y-61148171D02*
X113726815Y-61195790D01*
X113726815Y-61195790D02*
X113774434Y-61243409D01*
X113774434Y-61243409D02*
X113822053Y-61338647D01*
X113822053Y-61338647D02*
X113822053Y-61576742D01*
X113822053Y-61576742D02*
X113774434Y-61671980D01*
X113774434Y-61671980D02*
X113726815Y-61719600D01*
X113726815Y-61719600D02*
X113631577Y-61767219D01*
X113631577Y-61767219D02*
X113345863Y-61767219D01*
X113345863Y-61767219D02*
X113250625Y-61719600D01*
X113250625Y-61719600D02*
X113203006Y-61671980D01*
X114107768Y-60767219D02*
X114441101Y-61767219D01*
X114441101Y-61767219D02*
X114774434Y-60767219D01*
X57069673Y-75486266D02*
X57831578Y-75486266D01*
X57450625Y-75867219D02*
X57450625Y-75105314D01*
X116322054Y-74019600D02*
X116464911Y-74067219D01*
X116464911Y-74067219D02*
X116703006Y-74067219D01*
X116703006Y-74067219D02*
X116798244Y-74019600D01*
X116798244Y-74019600D02*
X116845863Y-73971980D01*
X116845863Y-73971980D02*
X116893482Y-73876742D01*
X116893482Y-73876742D02*
X116893482Y-73781504D01*
X116893482Y-73781504D02*
X116845863Y-73686266D01*
X116845863Y-73686266D02*
X116798244Y-73638647D01*
X116798244Y-73638647D02*
X116703006Y-73591028D01*
X116703006Y-73591028D02*
X116512530Y-73543409D01*
X116512530Y-73543409D02*
X116417292Y-73495790D01*
X116417292Y-73495790D02*
X116369673Y-73448171D01*
X116369673Y-73448171D02*
X116322054Y-73352933D01*
X116322054Y-73352933D02*
X116322054Y-73257695D01*
X116322054Y-73257695D02*
X116369673Y-73162457D01*
X116369673Y-73162457D02*
X116417292Y-73114838D01*
X116417292Y-73114838D02*
X116512530Y-73067219D01*
X116512530Y-73067219D02*
X116750625Y-73067219D01*
X116750625Y-73067219D02*
X116893482Y-73114838D01*
X117226816Y-73067219D02*
X117464911Y-74067219D01*
X117464911Y-74067219D02*
X117655387Y-73352933D01*
X117655387Y-73352933D02*
X117845863Y-74067219D01*
X117845863Y-74067219D02*
X118083959Y-73067219D01*
X118464911Y-74067219D02*
X118464911Y-73067219D01*
X118464911Y-73067219D02*
X118703006Y-73067219D01*
X118703006Y-73067219D02*
X118845863Y-73114838D01*
X118845863Y-73114838D02*
X118941101Y-73210076D01*
X118941101Y-73210076D02*
X118988720Y-73305314D01*
X118988720Y-73305314D02*
X119036339Y-73495790D01*
X119036339Y-73495790D02*
X119036339Y-73638647D01*
X119036339Y-73638647D02*
X118988720Y-73829123D01*
X118988720Y-73829123D02*
X118941101Y-73924361D01*
X118941101Y-73924361D02*
X118845863Y-74019600D01*
X118845863Y-74019600D02*
X118703006Y-74067219D01*
X118703006Y-74067219D02*
X118464911Y-74067219D01*
X119464911Y-74067219D02*
X119464911Y-73067219D01*
X120131577Y-73067219D02*
X120322053Y-73067219D01*
X120322053Y-73067219D02*
X120417291Y-73114838D01*
X120417291Y-73114838D02*
X120512529Y-73210076D01*
X120512529Y-73210076D02*
X120560148Y-73400552D01*
X120560148Y-73400552D02*
X120560148Y-73733885D01*
X120560148Y-73733885D02*
X120512529Y-73924361D01*
X120512529Y-73924361D02*
X120417291Y-74019600D01*
X120417291Y-74019600D02*
X120322053Y-74067219D01*
X120322053Y-74067219D02*
X120131577Y-74067219D01*
X120131577Y-74067219D02*
X120036339Y-74019600D01*
X120036339Y-74019600D02*
X119941101Y-73924361D01*
X119941101Y-73924361D02*
X119893482Y-73733885D01*
X119893482Y-73733885D02*
X119893482Y-73400552D01*
X119893482Y-73400552D02*
X119941101Y-73210076D01*
X119941101Y-73210076D02*
X120036339Y-73114838D01*
X120036339Y-73114838D02*
X120131577Y-73067219D01*
X71769673Y-61586266D02*
X72531578Y-61586266D01*
X72150625Y-61967219D02*
X72150625Y-61205314D01*
X59769673Y-75486266D02*
X60531578Y-75486266D01*
X111293482Y-67014838D02*
X111198244Y-66967219D01*
X111198244Y-66967219D02*
X111055387Y-66967219D01*
X111055387Y-66967219D02*
X110912530Y-67014838D01*
X110912530Y-67014838D02*
X110817292Y-67110076D01*
X110817292Y-67110076D02*
X110769673Y-67205314D01*
X110769673Y-67205314D02*
X110722054Y-67395790D01*
X110722054Y-67395790D02*
X110722054Y-67538647D01*
X110722054Y-67538647D02*
X110769673Y-67729123D01*
X110769673Y-67729123D02*
X110817292Y-67824361D01*
X110817292Y-67824361D02*
X110912530Y-67919600D01*
X110912530Y-67919600D02*
X111055387Y-67967219D01*
X111055387Y-67967219D02*
X111150625Y-67967219D01*
X111150625Y-67967219D02*
X111293482Y-67919600D01*
X111293482Y-67919600D02*
X111341101Y-67871980D01*
X111341101Y-67871980D02*
X111341101Y-67538647D01*
X111341101Y-67538647D02*
X111150625Y-67538647D01*
X111769673Y-67967219D02*
X111769673Y-66967219D01*
X111769673Y-66967219D02*
X112341101Y-67967219D01*
X112341101Y-67967219D02*
X112341101Y-66967219D01*
X112817292Y-67967219D02*
X112817292Y-66967219D01*
X112817292Y-66967219D02*
X113055387Y-66967219D01*
X113055387Y-66967219D02*
X113198244Y-67014838D01*
X113198244Y-67014838D02*
X113293482Y-67110076D01*
X113293482Y-67110076D02*
X113341101Y-67205314D01*
X113341101Y-67205314D02*
X113388720Y-67395790D01*
X113388720Y-67395790D02*
X113388720Y-67538647D01*
X113388720Y-67538647D02*
X113341101Y-67729123D01*
X113341101Y-67729123D02*
X113293482Y-67824361D01*
X113293482Y-67824361D02*
X113198244Y-67919600D01*
X113198244Y-67919600D02*
X113055387Y-67967219D01*
X113055387Y-67967219D02*
X112817292Y-67967219D01*
D11*
%TO.C,C6*%
X81484420Y-59690000D02*
X81765580Y-59690000D01*
X81484420Y-60710000D02*
X81765580Y-60710000D01*
%TO.C,J5*%
X66050000Y-53330000D02*
X66050000Y-52000000D01*
X67380000Y-53330000D02*
X66050000Y-53330000D01*
X68650000Y-53330000D02*
X106810000Y-53330000D01*
X68650000Y-53330000D02*
X68650000Y-50670000D01*
X106810000Y-53330000D02*
X106810000Y-50670000D01*
X68650000Y-50670000D02*
X106810000Y-50670000D01*
%TO.C,D3*%
X71960000Y-58052500D02*
X70040000Y-58052500D01*
X70040000Y-58052500D02*
X70040000Y-60737500D01*
X71960000Y-60737500D02*
X71960000Y-58052500D01*
%TO.C,C5*%
X88215580Y-75960000D02*
X87934420Y-75960000D01*
X88215580Y-74940000D02*
X87934420Y-74940000D01*
%TO.C,J2*%
X58730000Y-79330000D02*
X61330000Y-79330000D01*
X58730000Y-79330000D02*
X58730000Y-76670000D01*
X61330000Y-79330000D02*
X61330000Y-76670000D01*
X56130000Y-78000000D02*
X56130000Y-76670000D01*
X56130000Y-76670000D02*
X57460000Y-76670000D01*
X58730000Y-76670000D02*
X61330000Y-76670000D01*
%TO.C,C3*%
X92910000Y-64084420D02*
X92910000Y-64365580D01*
X91890000Y-64084420D02*
X91890000Y-64365580D01*
%TO.C,J3*%
X97360000Y-58390000D02*
X98685000Y-58390000D01*
X98685000Y-58325000D02*
X98685000Y-58390000D01*
X98685000Y-58325000D02*
X102215000Y-58325000D01*
X98685000Y-64730000D02*
X98685000Y-64795000D01*
X98685000Y-64795000D02*
X102215000Y-64795000D01*
X102215000Y-58325000D02*
X102215000Y-58390000D01*
X102215000Y-64730000D02*
X102215000Y-64795000D01*
%TO.C,C4*%
X78510000Y-70634420D02*
X78510000Y-70915580D01*
X77490000Y-70634420D02*
X77490000Y-70915580D01*
%TO.C,C9*%
X75587836Y-72160000D02*
X75372164Y-72160000D01*
X75587836Y-71440000D02*
X75372164Y-71440000D01*
%TO.C,J7*%
X112670000Y-72350000D02*
X112670000Y-80030000D01*
X112670000Y-72350000D02*
X115330000Y-72350000D01*
X112670000Y-80030000D02*
X115330000Y-80030000D01*
X114000000Y-69750000D02*
X115330000Y-69750000D01*
X115330000Y-69750000D02*
X115330000Y-71080000D01*
X115330000Y-72350000D02*
X115330000Y-80030000D01*
%TO.C,U1*%
X81390000Y-64540000D02*
X81390000Y-64990000D01*
X81390000Y-64990000D02*
X80100000Y-64990000D01*
X81390000Y-71760000D02*
X81390000Y-71310000D01*
X81840000Y-64540000D02*
X81390000Y-64540000D01*
X81840000Y-71760000D02*
X81390000Y-71760000D01*
X88160000Y-64540000D02*
X88610000Y-64540000D01*
X88160000Y-71760000D02*
X88610000Y-71760000D01*
X88610000Y-64540000D02*
X88610000Y-64990000D01*
X88610000Y-71760000D02*
X88610000Y-71310000D01*
%TO.C,Y1*%
X73200000Y-71050000D02*
X76800000Y-71050000D01*
X76800000Y-71050000D02*
X76800000Y-65300000D01*
X73200000Y-65300000D02*
X73200000Y-71050000D01*
%TO.C,J8*%
X107270000Y-59990000D02*
X107270000Y-70210000D01*
X107270000Y-59990000D02*
X109930000Y-59990000D01*
X107270000Y-70210000D02*
X109930000Y-70210000D01*
X108600000Y-57390000D02*
X109930000Y-57390000D01*
X109930000Y-57390000D02*
X109930000Y-58720000D01*
X109930000Y-59990000D02*
X109930000Y-70210000D01*
%TO.C,D2*%
X63040000Y-79747500D02*
X64960000Y-79747500D01*
X64960000Y-79747500D02*
X64960000Y-77062500D01*
X63040000Y-77062500D02*
X63040000Y-79747500D01*
%TO.C,C8*%
X75587836Y-64510000D02*
X75372164Y-64510000D01*
X75587836Y-63790000D02*
X75372164Y-63790000D01*
%TO.C,J9*%
X64890000Y-88330000D02*
X64890000Y-87000000D01*
X66220000Y-88330000D02*
X64890000Y-88330000D01*
X67490000Y-88330000D02*
X108190000Y-88330000D01*
X67490000Y-88330000D02*
X67490000Y-85670000D01*
X108190000Y-88330000D02*
X108190000Y-85670000D01*
X67490000Y-85670000D02*
X108190000Y-85670000D01*
%TO.C,C7*%
X77490000Y-63365580D02*
X77490000Y-63084420D01*
X78510000Y-63365580D02*
X78510000Y-63084420D01*
%TO.C,R3*%
X78156359Y-68320000D02*
X78463641Y-68320000D01*
X78156359Y-69080000D02*
X78463641Y-69080000D01*
%TO.C,R6*%
X106810000Y-74272936D02*
X106810000Y-75727064D01*
X104990000Y-74272936D02*
X104990000Y-75727064D01*
D12*
%TO.C,J1*%
X49975000Y-68000000D02*
X49975000Y-70000000D01*
%TD*%
M02*
