%TF.GenerationSoftware,KiCad,Pcbnew,7.0.7-7.0.7~ubuntu22.04.1*%
%TF.CreationDate,2023-09-22T21:22:15+02:00*%
%TF.ProjectId,kicad103,6b696361-6431-4303-932e-6b696361645f,rev?*%
%TF.SameCoordinates,Original*%
%TF.FileFunction,Copper,L1,Top*%
%TF.FilePolarity,Positive*%
%FSLAX46Y46*%
G04 Gerber Fmt 4.6, Leading zero omitted, Abs format (unit mm)*
G04 Created by KiCad (PCBNEW 7.0.7-7.0.7~ubuntu22.04.1) date 2023-09-22 21:22:15*
%MOMM*%
%LPD*%
G01*
G04 APERTURE LIST*
G04 Aperture macros list*
%AMRoundRect*
0 Rectangle with rounded corners*
0 $1 Rounding radius*
0 $2 $3 $4 $5 $6 $7 $8 $9 X,Y pos of 4 corners*
0 Add a 4 corners polygon primitive as box body*
4,1,4,$2,$3,$4,$5,$6,$7,$8,$9,$2,$3,0*
0 Add four circle primitives for the rounded corners*
1,1,$1+$1,$2,$3*
1,1,$1+$1,$4,$5*
1,1,$1+$1,$6,$7*
1,1,$1+$1,$8,$9*
0 Add four rect primitives between the rounded corners*
20,1,$1+$1,$2,$3,$4,$5,0*
20,1,$1+$1,$4,$5,$6,$7,0*
20,1,$1+$1,$6,$7,$8,$9,0*
20,1,$1+$1,$8,$9,$2,$3,0*%
G04 Aperture macros list end*
%TA.AperFunction,SMDPad,CuDef*%
%ADD10RoundRect,0.225000X-0.225000X-0.250000X0.225000X-0.250000X0.225000X0.250000X-0.225000X0.250000X0*%
%TD*%
%TA.AperFunction,ComponentPad*%
%ADD11R,1.700000X1.700000*%
%TD*%
%TA.AperFunction,ComponentPad*%
%ADD12O,1.700000X1.700000*%
%TD*%
%TA.AperFunction,SMDPad,CuDef*%
%ADD13RoundRect,0.243750X-0.456250X0.243750X-0.456250X-0.243750X0.456250X-0.243750X0.456250X0.243750X0*%
%TD*%
%TA.AperFunction,SMDPad,CuDef*%
%ADD14RoundRect,0.250000X0.450000X-0.262500X0.450000X0.262500X-0.450000X0.262500X-0.450000X-0.262500X0*%
%TD*%
%TA.AperFunction,SMDPad,CuDef*%
%ADD15RoundRect,0.225000X0.225000X0.250000X-0.225000X0.250000X-0.225000X-0.250000X0.225000X-0.250000X0*%
%TD*%
%TA.AperFunction,SMDPad,CuDef*%
%ADD16RoundRect,0.250000X-0.475000X0.250000X-0.475000X-0.250000X0.475000X-0.250000X0.475000X0.250000X0*%
%TD*%
%TA.AperFunction,SMDPad,CuDef*%
%ADD17RoundRect,0.225000X-0.250000X0.225000X-0.250000X-0.225000X0.250000X-0.225000X0.250000X0.225000X0*%
%TD*%
%TA.AperFunction,SMDPad,CuDef*%
%ADD18R,2.400000X0.740000*%
%TD*%
%TA.AperFunction,SMDPad,CuDef*%
%ADD19R,2.000000X1.200000*%
%TD*%
%TA.AperFunction,ComponentPad*%
%ADD20C,1.875000*%
%TD*%
%TA.AperFunction,ComponentPad*%
%ADD21C,3.894000*%
%TD*%
%TA.AperFunction,ComponentPad*%
%ADD22C,0.900000*%
%TD*%
%TA.AperFunction,ComponentPad*%
%ADD23C,8.600000*%
%TD*%
%TA.AperFunction,SMDPad,CuDef*%
%ADD24RoundRect,0.140000X0.140000X0.170000X-0.140000X0.170000X-0.140000X-0.170000X0.140000X-0.170000X0*%
%TD*%
%TA.AperFunction,SMDPad,CuDef*%
%ADD25RoundRect,0.075000X-0.662500X-0.075000X0.662500X-0.075000X0.662500X0.075000X-0.662500X0.075000X0*%
%TD*%
%TA.AperFunction,SMDPad,CuDef*%
%ADD26RoundRect,0.075000X-0.075000X-0.662500X0.075000X-0.662500X0.075000X0.662500X-0.075000X0.662500X0*%
%TD*%
%TA.AperFunction,SMDPad,CuDef*%
%ADD27R,2.400000X2.000000*%
%TD*%
%TA.AperFunction,SMDPad,CuDef*%
%ADD28RoundRect,0.250000X-0.450000X0.262500X-0.450000X-0.262500X0.450000X-0.262500X0.450000X0.262500X0*%
%TD*%
%TA.AperFunction,SMDPad,CuDef*%
%ADD29RoundRect,0.243750X0.456250X-0.243750X0.456250X0.243750X-0.456250X0.243750X-0.456250X-0.243750X0*%
%TD*%
%TA.AperFunction,SMDPad,CuDef*%
%ADD30RoundRect,0.150000X0.512500X0.150000X-0.512500X0.150000X-0.512500X-0.150000X0.512500X-0.150000X0*%
%TD*%
%TA.AperFunction,SMDPad,CuDef*%
%ADD31RoundRect,0.225000X0.250000X-0.225000X0.250000X0.225000X-0.250000X0.225000X-0.250000X-0.225000X0*%
%TD*%
%TA.AperFunction,SMDPad,CuDef*%
%ADD32RoundRect,0.135000X-0.135000X-0.185000X0.135000X-0.185000X0.135000X0.185000X-0.135000X0.185000X0*%
%TD*%
%TA.AperFunction,SMDPad,CuDef*%
%ADD33RoundRect,0.250000X-0.625000X0.312500X-0.625000X-0.312500X0.625000X-0.312500X0.625000X0.312500X0*%
%TD*%
%TA.AperFunction,ViaPad*%
%ADD34C,0.700000*%
%TD*%
%TA.AperFunction,ViaPad*%
%ADD35C,0.800000*%
%TD*%
%TA.AperFunction,Conductor*%
%ADD36C,1.000000*%
%TD*%
%TA.AperFunction,Conductor*%
%ADD37C,0.500000*%
%TD*%
%TA.AperFunction,Conductor*%
%ADD38C,0.300000*%
%TD*%
%TA.AperFunction,Conductor*%
%ADD39C,0.700000*%
%TD*%
%TA.AperFunction,Conductor*%
%ADD40C,0.200000*%
%TD*%
G04 APERTURE END LIST*
D10*
%TO.P,C6,1*%
%TO.N,+3.3V*%
X80850000Y-60200000D03*
%TO.P,C6,2*%
%TO.N,GND*%
X82400000Y-60200000D03*
%TD*%
D11*
%TO.P,J5,1,Pin_1*%
%TO.N,PB15*%
X67380000Y-52000000D03*
D12*
%TO.P,J5,2,Pin_2*%
%TO.N,PB14*%
X69920000Y-52000000D03*
%TO.P,J5,3,Pin_3*%
%TO.N,PB13*%
X72460000Y-52000000D03*
%TO.P,J5,4,Pin_4*%
%TO.N,PB12*%
X75000000Y-52000000D03*
%TO.P,J5,5,Pin_5*%
%TO.N,PB11*%
X77540000Y-52000000D03*
%TO.P,J5,6,Pin_6*%
%TO.N,PB10*%
X80080000Y-52000000D03*
%TO.P,J5,7,Pin_7*%
%TO.N,PB9*%
X82620000Y-52000000D03*
%TO.P,J5,8,Pin_8*%
%TO.N,PB8*%
X85160000Y-52000000D03*
%TO.P,J5,9,Pin_9*%
%TO.N,PB7*%
X87700000Y-52000000D03*
%TO.P,J5,10,Pin_10*%
%TO.N,PB6*%
X90240000Y-52000000D03*
%TO.P,J5,11,Pin_11*%
%TO.N,PB5*%
X92780000Y-52000000D03*
%TO.P,J5,12,Pin_12*%
%TO.N,PB4*%
X95320000Y-52000000D03*
%TO.P,J5,13,Pin_13*%
%TO.N,PB3*%
X97860000Y-52000000D03*
%TO.P,J5,14,Pin_14*%
%TO.N,PB2*%
X100400000Y-52000000D03*
%TO.P,J5,15,Pin_15*%
%TO.N,PB1*%
X102940000Y-52000000D03*
%TO.P,J5,16,Pin_16*%
%TO.N,PB0*%
X105480000Y-52000000D03*
%TD*%
D13*
%TO.P,D3,1,K*%
%TO.N,Net-(D3-K)*%
X71000000Y-58800000D03*
%TO.P,D3,2,A*%
%TO.N,PC13*%
X71000000Y-60675000D03*
%TD*%
D14*
%TO.P,R1,1*%
%TO.N,Net-(D2-K)*%
X66500000Y-79000000D03*
%TO.P,R1,2*%
%TO.N,GND*%
X66500000Y-77175000D03*
%TD*%
D15*
%TO.P,C5,1*%
%TO.N,+3.3V*%
X88850000Y-75450000D03*
%TO.P,C5,2*%
%TO.N,GND*%
X87300000Y-75450000D03*
%TD*%
D16*
%TO.P,C2,1*%
%TO.N,+3.3V*%
X62200000Y-71600000D03*
%TO.P,C2,2*%
%TO.N,GND*%
X62200000Y-73500000D03*
%TD*%
D11*
%TO.P,J2,1,Pin_1*%
%TO.N,Net-(J1-5.0V)*%
X57460000Y-78000000D03*
D12*
%TO.P,J2,2,Pin_2*%
%TO.N,GND*%
X60000000Y-78000000D03*
%TD*%
D17*
%TO.P,C3,1*%
%TO.N,+3.3V*%
X92400000Y-63450000D03*
%TO.P,C3,2*%
%TO.N,GND*%
X92400000Y-65000000D03*
%TD*%
D18*
%TO.P,J3,1,Pin_1*%
%TO.N,+3.3V*%
X98500000Y-59020000D03*
%TO.P,J3,2,Pin_2*%
%TO.N,PA13*%
X102400000Y-59020000D03*
%TO.P,J3,3,Pin_3*%
%TO.N,GND*%
X98500000Y-60290000D03*
%TO.P,J3,4,Pin_4*%
%TO.N,PA14*%
X102400000Y-60290000D03*
%TO.P,J3,5,Pin_5*%
%TO.N,GND*%
X98500000Y-61560000D03*
%TO.P,J3,6,Pin_6*%
%TO.N,PB3*%
X102400000Y-61560000D03*
%TO.P,J3,7,Pin_7*%
%TO.N,unconnected-(J3-Pin_7-Pad7)*%
X98500000Y-62830000D03*
%TO.P,J3,8,Pin_8*%
%TO.N,PA15*%
X102400000Y-62830000D03*
%TO.P,J3,9,Pin_9*%
%TO.N,unconnected-(J3-Pin_9-Pad9)*%
X98500000Y-64100000D03*
%TO.P,J3,10,Pin_10*%
%TO.N,NRST*%
X102400000Y-64100000D03*
%TD*%
D16*
%TO.P,C1,1*%
%TO.N,Net-(J1-5.0V)*%
X54900000Y-72700000D03*
%TO.P,C1,2*%
%TO.N,GND*%
X54900000Y-74600000D03*
%TD*%
D19*
%TO.P,J1,1,5.0V*%
%TO.N,Net-(J1-5.0V)*%
X51575000Y-72500000D03*
%TO.P,J1,2,USB_D-*%
%TO.N,/USB_D-*%
X51575000Y-70000000D03*
%TO.P,J1,3,USB_D+*%
%TO.N,/USB_D+*%
X51575000Y-68000000D03*
%TO.P,J1,4,GND*%
%TO.N,GND*%
X51575000Y-65500000D03*
D20*
%TO.P,J1,5,5*%
%TO.N,unconnected-(J1-Pad5)*%
X48975000Y-66750000D03*
%TO.P,J1,6,6*%
%TO.N,unconnected-(J1-Pad6)*%
X48975000Y-71250000D03*
D21*
%TO.P,J1,7,7*%
%TO.N,unconnected-(J1-Pad7)*%
X48975000Y-63150000D03*
%TO.P,J1,8,8*%
%TO.N,unconnected-(J1-Pad8)*%
X48975000Y-74850000D03*
%TD*%
D17*
%TO.P,C4,1*%
%TO.N,+3.3V*%
X78000000Y-70000000D03*
%TO.P,C4,2*%
%TO.N,GND*%
X78000000Y-71550000D03*
%TD*%
D22*
%TO.P,H3,1,1*%
%TO.N,GND*%
X54794581Y-50600000D03*
X55739162Y-48319581D03*
X55739162Y-52880419D03*
X58019581Y-47375000D03*
D23*
X58019581Y-50600000D03*
D22*
X58019581Y-53825000D03*
X60300000Y-48319581D03*
X60300000Y-52880419D03*
X61244581Y-50600000D03*
%TD*%
D24*
%TO.P,C9,1*%
%TO.N,Net-(C9-Pad1)*%
X75960000Y-71800000D03*
%TO.P,C9,2*%
%TO.N,GND*%
X75000000Y-71800000D03*
%TD*%
D11*
%TO.P,J7,1,Pin_1*%
%TO.N,+3.3V*%
X114000000Y-71080000D03*
D12*
%TO.P,J7,2,Pin_2*%
%TO.N,PB14*%
X114000000Y-73620000D03*
%TO.P,J7,3,Pin_3*%
%TO.N,PB13*%
X114000000Y-76160000D03*
%TO.P,J7,4,Pin_4*%
%TO.N,GND*%
X114000000Y-78700000D03*
%TD*%
D25*
%TO.P,U1,1,VBAT*%
%TO.N,+3.3V*%
X80837500Y-65400000D03*
%TO.P,U1,2,PC13*%
%TO.N,PC13*%
X80837500Y-65900000D03*
%TO.P,U1,3,PC14*%
%TO.N,PC14*%
X80837500Y-66400000D03*
%TO.P,U1,4,PC15*%
%TO.N,PC15*%
X80837500Y-66900000D03*
%TO.P,U1,5,PD0*%
%TO.N,Net-(U1-PD0)*%
X80837500Y-67400000D03*
%TO.P,U1,6,PD1*%
%TO.N,Net-(U1-PD1)*%
X80837500Y-67900000D03*
%TO.P,U1,7,NRST*%
%TO.N,NRST*%
X80837500Y-68400000D03*
%TO.P,U1,8,VSSA*%
%TO.N,GND*%
X80837500Y-68900000D03*
%TO.P,U1,9,VDDA*%
%TO.N,+3.3V*%
X80837500Y-69400000D03*
%TO.P,U1,10,PA0*%
%TO.N,PA0*%
X80837500Y-69900000D03*
%TO.P,U1,11,PA1*%
%TO.N,PA1*%
X80837500Y-70400000D03*
%TO.P,U1,12,PA2*%
%TO.N,PA2*%
X80837500Y-70900000D03*
D26*
%TO.P,U1,13,PA3*%
%TO.N,PA3*%
X82250000Y-72312500D03*
%TO.P,U1,14,PA4*%
%TO.N,PA4*%
X82750000Y-72312500D03*
%TO.P,U1,15,PA5*%
%TO.N,PA5*%
X83250000Y-72312500D03*
%TO.P,U1,16,PA6*%
%TO.N,PA6*%
X83750000Y-72312500D03*
%TO.P,U1,17,PA7*%
%TO.N,PA7*%
X84250000Y-72312500D03*
%TO.P,U1,18,PB0*%
%TO.N,PB0*%
X84750000Y-72312500D03*
%TO.P,U1,19,PB1*%
%TO.N,PB1*%
X85250000Y-72312500D03*
%TO.P,U1,20,PB2*%
%TO.N,PB2*%
X85750000Y-72312500D03*
%TO.P,U1,21,PB10*%
%TO.N,PB10*%
X86250000Y-72312500D03*
%TO.P,U1,22,PB11*%
%TO.N,PB11*%
X86750000Y-72312500D03*
%TO.P,U1,23,VSS*%
%TO.N,GND*%
X87250000Y-72312500D03*
%TO.P,U1,24,VDD*%
%TO.N,+3.3V*%
X87750000Y-72312500D03*
D25*
%TO.P,U1,25,PB12*%
%TO.N,PB12*%
X89162500Y-70900000D03*
%TO.P,U1,26,PB13*%
%TO.N,PB13*%
X89162500Y-70400000D03*
%TO.P,U1,27,PB14*%
%TO.N,PB14*%
X89162500Y-69900000D03*
%TO.P,U1,28,PB15*%
%TO.N,PB15*%
X89162500Y-69400000D03*
%TO.P,U1,29,PA8*%
%TO.N,PA8*%
X89162500Y-68900000D03*
%TO.P,U1,30,PA9*%
%TO.N,PA9*%
X89162500Y-68400000D03*
%TO.P,U1,31,PA10*%
%TO.N,PA10*%
X89162500Y-67900000D03*
%TO.P,U1,32,PA11*%
%TO.N,/USB_D-*%
X89162500Y-67400000D03*
%TO.P,U1,33,PA12*%
%TO.N,/USB_D+*%
X89162500Y-66900000D03*
%TO.P,U1,34,PA13*%
%TO.N,PA13*%
X89162500Y-66400000D03*
%TO.P,U1,35,VSS*%
%TO.N,GND*%
X89162500Y-65900000D03*
%TO.P,U1,36,VDD*%
%TO.N,+3.3V*%
X89162500Y-65400000D03*
D26*
%TO.P,U1,37,PA14*%
%TO.N,PA14*%
X87750000Y-63987500D03*
%TO.P,U1,38,PA15*%
%TO.N,PA15*%
X87250000Y-63987500D03*
%TO.P,U1,39,PB3*%
%TO.N,PB3*%
X86750000Y-63987500D03*
%TO.P,U1,40,PB4*%
%TO.N,PB4*%
X86250000Y-63987500D03*
%TO.P,U1,41,PB5*%
%TO.N,PB5*%
X85750000Y-63987500D03*
%TO.P,U1,42,PB6*%
%TO.N,PB6*%
X85250000Y-63987500D03*
%TO.P,U1,43,PB7*%
%TO.N,PB7*%
X84750000Y-63987500D03*
%TO.P,U1,44,BOOT0*%
%TO.N,BOOT0*%
X84250000Y-63987500D03*
%TO.P,U1,45,PB8*%
%TO.N,PB8*%
X83750000Y-63987500D03*
%TO.P,U1,46,PB9*%
%TO.N,PB9*%
X83250000Y-63987500D03*
%TO.P,U1,47,VSS*%
%TO.N,GND*%
X82750000Y-63987500D03*
%TO.P,U1,48,VDD*%
%TO.N,+3.3V*%
X82250000Y-63987500D03*
%TD*%
D27*
%TO.P,Y1,1,1*%
%TO.N,Net-(C9-Pad1)*%
X75000000Y-69850000D03*
%TO.P,Y1,2,2*%
%TO.N,Net-(U1-PD0)*%
X75000000Y-66150000D03*
%TD*%
D22*
%TO.P,H2,1,1*%
%TO.N,GND*%
X117994581Y-88180419D03*
X118939162Y-85900000D03*
X118939162Y-90460838D03*
X121219581Y-84955419D03*
D23*
X121219581Y-88180419D03*
D22*
X121219581Y-91405419D03*
X123500000Y-85900000D03*
X123500000Y-90460838D03*
X124444581Y-88180419D03*
%TD*%
D28*
%TO.P,R4,1*%
%TO.N,+3.3V*%
X60600000Y-66475000D03*
%TO.P,R4,2*%
%TO.N,/USB_D+*%
X60600000Y-68300000D03*
%TD*%
D11*
%TO.P,J8,1,Pin_1*%
%TO.N,PB3*%
X108600000Y-58720000D03*
D12*
%TO.P,J8,2,Pin_2*%
%TO.N,+3.3V*%
X108600000Y-61260000D03*
%TO.P,J8,3,Pin_3*%
%TO.N,PA13*%
X108600000Y-63800000D03*
%TO.P,J8,4,Pin_4*%
%TO.N,PA14*%
X108600000Y-66340000D03*
%TO.P,J8,5,Pin_5*%
%TO.N,GND*%
X108600000Y-68880000D03*
%TD*%
D29*
%TO.P,D2,1,K*%
%TO.N,Net-(D2-K)*%
X64000000Y-79000000D03*
%TO.P,D2,2,A*%
%TO.N,+3.3V*%
X64000000Y-77125000D03*
%TD*%
D14*
%TO.P,R5,1*%
%TO.N,BOOT0*%
X96300000Y-68425000D03*
%TO.P,R5,2*%
%TO.N,GND*%
X96300000Y-66600000D03*
%TD*%
D24*
%TO.P,C8,1*%
%TO.N,Net-(U1-PD0)*%
X75960000Y-64150000D03*
%TO.P,C8,2*%
%TO.N,GND*%
X75000000Y-64150000D03*
%TD*%
D11*
%TO.P,J9,1,Pin_1*%
%TO.N,PA0*%
X66220000Y-87000000D03*
D12*
%TO.P,J9,2,Pin_2*%
%TO.N,PA1*%
X68760000Y-87000000D03*
%TO.P,J9,3,Pin_3*%
%TO.N,PA2*%
X71300000Y-87000000D03*
%TO.P,J9,4,Pin_4*%
%TO.N,PA3*%
X73840000Y-87000000D03*
%TO.P,J9,5,Pin_5*%
%TO.N,PA4*%
X76380000Y-87000000D03*
%TO.P,J9,6,Pin_6*%
%TO.N,PA5*%
X78920000Y-87000000D03*
%TO.P,J9,7,Pin_7*%
%TO.N,PA6*%
X81460000Y-87000000D03*
%TO.P,J9,8,Pin_8*%
%TO.N,PA7*%
X84000000Y-87000000D03*
%TO.P,J9,9,Pin_9*%
%TO.N,PA8*%
X86540000Y-87000000D03*
%TO.P,J9,10,Pin_10*%
%TO.N,PA9*%
X89080000Y-87000000D03*
%TO.P,J9,11,Pin_11*%
%TO.N,PA10*%
X91620000Y-87000000D03*
%TO.P,J9,12,Pin_12*%
%TO.N,PA13*%
X94160000Y-87000000D03*
%TO.P,J9,13,Pin_13*%
%TO.N,PA14*%
X96700000Y-87000000D03*
%TO.P,J9,14,Pin_14*%
%TO.N,PA15*%
X99240000Y-87000000D03*
%TO.P,J9,15,Pin_15*%
%TO.N,PC13*%
X101780000Y-87000000D03*
%TO.P,J9,16,Pin_16*%
%TO.N,PC14*%
X104320000Y-87000000D03*
%TO.P,J9,17,Pin_17*%
%TO.N,PC15*%
X106860000Y-87000000D03*
%TD*%
D30*
%TO.P,U2,1,GND*%
%TO.N,GND*%
X59375000Y-73450000D03*
%TO.P,U2,2,VO*%
%TO.N,+3.3V*%
X59375000Y-71550000D03*
%TO.P,U2,3,VI*%
%TO.N,Net-(J1-5.0V)*%
X57100000Y-72500000D03*
%TD*%
D31*
%TO.P,C7,1*%
%TO.N,+3.3V*%
X78000000Y-64000000D03*
%TO.P,C7,2*%
%TO.N,GND*%
X78000000Y-62450000D03*
%TD*%
D32*
%TO.P,R3,1*%
%TO.N,Net-(C9-Pad1)*%
X77800000Y-68300000D03*
%TO.P,R3,2*%
%TO.N,Net-(U1-PD1)*%
X78820000Y-68300000D03*
%TD*%
D28*
%TO.P,R2,1*%
%TO.N,Net-(D3-K)*%
X74600000Y-57600000D03*
%TO.P,R2,2*%
%TO.N,GND*%
X74600000Y-59425000D03*
%TD*%
D33*
%TO.P,R6,1*%
%TO.N,PB14*%
X105900000Y-73537500D03*
%TO.P,R6,2*%
%TO.N,PB12*%
X105900000Y-76462500D03*
%TD*%
D22*
%TO.P,H1,1,1*%
%TO.N,GND*%
X117975000Y-49600000D03*
X118919581Y-47319581D03*
X118919581Y-51880419D03*
X121200000Y-46375000D03*
D23*
X121200000Y-49600000D03*
D22*
X121200000Y-52825000D03*
X123480419Y-47319581D03*
X123480419Y-51880419D03*
X124425000Y-49600000D03*
%TD*%
D34*
%TO.N,+3.3V*%
X92400000Y-62200000D03*
X88900000Y-76600000D03*
X62200000Y-70200000D03*
X60600000Y-64600000D03*
X110900000Y-61300000D03*
X79000000Y-70000000D03*
X63600000Y-71600000D03*
X100400000Y-59000000D03*
X64000000Y-75900000D03*
X79200000Y-63800000D03*
X59400000Y-70200000D03*
X111300000Y-71600000D03*
X80100000Y-61800000D03*
%TO.N,/USB_D-*%
X70157513Y-69650000D03*
X83549513Y-69650000D03*
%TO.N,GND*%
X111500000Y-78700000D03*
X87300000Y-76600000D03*
X82400000Y-59200000D03*
X55400000Y-64500000D03*
X78000000Y-61400000D03*
X74200000Y-64100000D03*
X82800000Y-67700000D03*
X106300000Y-71200000D03*
X100400000Y-60300000D03*
X78000000Y-72800000D03*
X76200000Y-59400000D03*
X74200000Y-71800000D03*
X59400000Y-74600000D03*
X100400000Y-61500000D03*
X63700000Y-73500000D03*
X62200000Y-74800000D03*
X92400000Y-66000000D03*
X54900000Y-75900000D03*
D35*
X61000000Y-80500000D03*
D34*
X55400000Y-66500000D03*
X94700000Y-66600000D03*
X66500000Y-75900000D03*
%TO.N,/USB_D+*%
X70157513Y-68350000D03*
X83549513Y-68350000D03*
%TO.N,PA13*%
X92900000Y-80500000D03*
X105200000Y-59000000D03*
X92900000Y-69100000D03*
%TO.N,PA14*%
X104300000Y-60300000D03*
X106100000Y-67700000D03*
%TO.N,PB3*%
X106400000Y-56100500D03*
X106400000Y-57600000D03*
%TO.N,PA15*%
X100400000Y-74800000D03*
X99600000Y-66800000D03*
X99200000Y-78200000D03*
X98100000Y-72600000D03*
%TO.N,PC14*%
X97700000Y-81600000D03*
X95800000Y-81600000D03*
X82236654Y-65900000D03*
%TO.N,PC15*%
X79398360Y-66700000D03*
%TO.N,PB15*%
X97800000Y-80600000D03*
X95300000Y-75763000D03*
X91100000Y-71700000D03*
X95800000Y-80600000D03*
X91000000Y-68800000D03*
%TO.N,PB14*%
X76200000Y-49000000D03*
X81400000Y-49000000D03*
%TO.N,PB13*%
X82000000Y-55000000D03*
X109000000Y-75000000D03*
X83900000Y-55000000D03*
%TO.N,PB12*%
X109000000Y-77000000D03*
%TO.N,PB11*%
X84000000Y-71000000D03*
X68200000Y-74400000D03*
X72100000Y-81500000D03*
X71600000Y-76300000D03*
X66500000Y-68100000D03*
X73200000Y-77800000D03*
%TO.N,PB10*%
X61200000Y-87900000D03*
X86300000Y-78400000D03*
%TO.N,PB9*%
X83050500Y-61896691D03*
%TO.N,PB8*%
X85100000Y-55800000D03*
X84125535Y-57499500D03*
%TO.N,PB7*%
X86600000Y-55900000D03*
X85600000Y-57499500D03*
%TO.N,PB6*%
X86305378Y-58605378D03*
X88000000Y-56000000D03*
%TO.N,PB5*%
X89500000Y-56100000D03*
X87600000Y-58100000D03*
%TO.N,PB4*%
X91000000Y-55700000D03*
X88955378Y-57755378D03*
%TO.N,PB2*%
X85400000Y-77500000D03*
X100400000Y-46349500D03*
X61000000Y-86200000D03*
%TO.N,PB1*%
X59900000Y-84700000D03*
D35*
X107900000Y-48300000D03*
D34*
X84300000Y-76600000D03*
X118500000Y-59000000D03*
X121500000Y-59000000D03*
%TO.N,PB0*%
X118000000Y-62000000D03*
X123000000Y-62000000D03*
X83194622Y-76494622D03*
X58000000Y-84300000D03*
%TO.N,PA1*%
X82200000Y-70000000D03*
%TO.N,PA9*%
X87400000Y-68024500D03*
X90400000Y-77900000D03*
%TO.N,PA10*%
X91600000Y-78700000D03*
X91900000Y-67500000D03*
%TO.N,NRST*%
X105100000Y-64100000D03*
X85000000Y-66200000D03*
%TO.N,BOOT0*%
X84050500Y-58844396D03*
X93794975Y-68405025D03*
%TD*%
D36*
%TO.N,+3.3V*%
X59375000Y-71550000D02*
X62150000Y-71550000D01*
X108600000Y-61260000D02*
X110860000Y-61260000D01*
D37*
X78200000Y-63800000D02*
X79200000Y-63800000D01*
D36*
X62150000Y-71550000D02*
X62200000Y-71600000D01*
D37*
X92400000Y-63450000D02*
X92400000Y-62200000D01*
D36*
X114000000Y-71080000D02*
X111820000Y-71080000D01*
D37*
X90550000Y-65300000D02*
X89162500Y-65300000D01*
X87850000Y-74450000D02*
X87850000Y-72312500D01*
D38*
X82250000Y-63987500D02*
X82250000Y-63850000D01*
X80850000Y-60200000D02*
X80850000Y-61800000D01*
D37*
X78000000Y-64000000D02*
X79300000Y-65300000D01*
D38*
X80800000Y-60250000D02*
X80850000Y-60200000D01*
X80850000Y-61800000D02*
X80850000Y-62587500D01*
X80850000Y-62587500D02*
X82250000Y-63987500D01*
D37*
X88850000Y-76550000D02*
X88900000Y-76600000D01*
D38*
X80850000Y-61800000D02*
X80100000Y-61800000D01*
D36*
X59375000Y-71550000D02*
X59375000Y-70225000D01*
D38*
X80837500Y-69400000D02*
X79600000Y-69400000D01*
D37*
X78000000Y-64000000D02*
X78200000Y-63800000D01*
X88850000Y-75450000D02*
X87850000Y-74450000D01*
X79300000Y-65300000D02*
X80837500Y-65300000D01*
D39*
X60600000Y-66475000D02*
X60600000Y-64600000D01*
D36*
X59375000Y-70225000D02*
X59400000Y-70200000D01*
X111820000Y-71080000D02*
X111300000Y-71600000D01*
D37*
X64000000Y-77125000D02*
X64000000Y-75900000D01*
X92400000Y-63450000D02*
X90550000Y-65300000D01*
D36*
X62200000Y-71600000D02*
X62200000Y-70200000D01*
D38*
X98500000Y-59020000D02*
X100380000Y-59020000D01*
D36*
X62200000Y-71600000D02*
X63600000Y-71600000D01*
D37*
X78000000Y-70000000D02*
X79000000Y-70000000D01*
X88850000Y-75450000D02*
X88850000Y-76550000D01*
D38*
X79600000Y-69400000D02*
X79000000Y-70000000D01*
X100380000Y-59020000D02*
X100400000Y-59000000D01*
D40*
%TO.N,/USB_D-*%
X85824513Y-67375000D02*
X88031249Y-67375000D01*
X83549513Y-69650000D02*
X85824513Y-67375000D01*
X88031249Y-67375000D02*
X88056249Y-67400000D01*
X88056249Y-67400000D02*
X89162500Y-67400000D01*
X53075001Y-70000000D02*
X53850001Y-69225000D01*
X53850001Y-69225000D02*
X69732514Y-69225001D01*
X69732514Y-69225001D02*
X70157513Y-69650000D01*
X51575000Y-70000000D02*
X53075001Y-70000000D01*
D37*
%TO.N,GND*%
X66500000Y-77175000D02*
X66500000Y-75900000D01*
D36*
X108600000Y-68900000D02*
X106300000Y-71200000D01*
D37*
X75000000Y-71800000D02*
X74200000Y-71800000D01*
D36*
X54900000Y-74600000D02*
X54900000Y-75900000D01*
X63700000Y-73500000D02*
X62200000Y-73500000D01*
X59375000Y-74575000D02*
X59400000Y-74600000D01*
D38*
X82350500Y-60249500D02*
X82400000Y-60200000D01*
D36*
X114000000Y-78700000D02*
X111500000Y-78700000D01*
D38*
X76175000Y-59425000D02*
X76200000Y-59400000D01*
X74600000Y-59425000D02*
X76175000Y-59425000D01*
X96300000Y-66600000D02*
X94700000Y-66600000D01*
X98500000Y-61560000D02*
X100340000Y-61560000D01*
X82750000Y-63987500D02*
X82750000Y-63148959D01*
D36*
X62200000Y-73500000D02*
X59425000Y-73500000D01*
X59375000Y-73450000D02*
X59375000Y-74575000D01*
X54400000Y-65500000D02*
X55400000Y-64500000D01*
D38*
X100280000Y-60290000D02*
X100400000Y-60300000D01*
X87250000Y-72312500D02*
X87250000Y-75400000D01*
D36*
X54400000Y-65500000D02*
X55400000Y-66500000D01*
D38*
X82700000Y-68900000D02*
X82800000Y-68800000D01*
X82750000Y-63148959D02*
X82350500Y-62749459D01*
X100400000Y-60300000D02*
X98510000Y-60300000D01*
X82350500Y-62749459D02*
X82350500Y-60249500D01*
X100340000Y-61560000D02*
X100400000Y-61500000D01*
X92300000Y-65900000D02*
X92400000Y-66000000D01*
D37*
X92400000Y-65000000D02*
X92400000Y-66000000D01*
D38*
X100300000Y-60290000D02*
X100290000Y-60290000D01*
D36*
X59425000Y-73500000D02*
X59375000Y-73450000D01*
D37*
X78000000Y-62450000D02*
X78000000Y-61400000D01*
X74250000Y-64150000D02*
X74200000Y-64100000D01*
D36*
X108600000Y-68880000D02*
X108600000Y-68900000D01*
D38*
X80837500Y-68900000D02*
X82700000Y-68900000D01*
D36*
X51575000Y-65500000D02*
X54400000Y-65500000D01*
D37*
X87300000Y-75450000D02*
X87300000Y-76600000D01*
X78000000Y-71550000D02*
X78000000Y-72800000D01*
X75000000Y-64150000D02*
X74250000Y-64150000D01*
D38*
X89162500Y-65900000D02*
X92300000Y-65900000D01*
X100400000Y-60300000D02*
X100300000Y-60290000D01*
D37*
X82400000Y-60200000D02*
X82400000Y-59200000D01*
D36*
X62200000Y-73500000D02*
X62200000Y-74800000D01*
D38*
X82800000Y-68800000D02*
X82800000Y-67700000D01*
X98510000Y-60300000D02*
X98500000Y-60290000D01*
D36*
X62150000Y-73450000D02*
X62200000Y-73500000D01*
D38*
X87250000Y-75400000D02*
X87300000Y-75450000D01*
D40*
%TO.N,/USB_D+*%
X83549513Y-68350000D02*
X84213116Y-68350000D01*
X88031249Y-66925000D02*
X88056249Y-66900000D01*
X53075001Y-68000000D02*
X53850001Y-68775000D01*
X69732514Y-68774999D02*
X70157513Y-68350000D01*
X51575000Y-68000000D02*
X53075001Y-68000000D01*
X84213116Y-68350000D02*
X85638116Y-66925000D01*
X85638116Y-66925000D02*
X88031249Y-66925000D01*
X88056249Y-66900000D02*
X89162500Y-66900000D01*
X53850001Y-68775000D02*
X69732514Y-68774999D01*
D38*
%TO.N,PC13*%
X63700000Y-89400000D02*
X101400000Y-89400000D01*
X71000000Y-69797463D02*
X67148731Y-73648731D01*
X68300000Y-79674999D02*
X63700000Y-84274999D01*
X73487965Y-60675000D02*
X76600000Y-63787035D01*
X101400000Y-89400000D02*
X101780000Y-89020000D01*
X76600000Y-63888173D02*
X78611827Y-65900000D01*
X71000000Y-60675000D02*
X71000000Y-69797463D01*
X76600000Y-63787035D02*
X76600000Y-63888173D01*
X78611827Y-65900000D02*
X80837500Y-65900000D01*
X101780000Y-89020000D02*
X101780000Y-87000000D01*
X63700000Y-84274999D02*
X63700000Y-89400000D01*
X71000000Y-60675000D02*
X73487965Y-60675000D01*
X67148731Y-73648731D02*
X67148731Y-74338681D01*
X67550000Y-74739950D02*
X67550000Y-74750000D01*
X67550000Y-74750000D02*
X68300000Y-75500000D01*
X67148731Y-74338681D02*
X67550000Y-74739950D01*
X68300000Y-75500000D02*
X68300000Y-79674999D01*
%TO.N,PA13*%
X90301041Y-66700000D02*
X90001041Y-66400000D01*
X102400000Y-59020000D02*
X105180000Y-59020000D01*
X102400000Y-59020000D02*
X101680000Y-58300000D01*
X94160000Y-87000000D02*
X94160000Y-81760000D01*
X101680000Y-58300000D02*
X96950000Y-58300000D01*
X94160000Y-81760000D02*
X92900000Y-80500000D01*
X92689950Y-66700000D02*
X90301041Y-66700000D01*
X92894975Y-66494975D02*
X92689950Y-66700000D01*
X96950000Y-62439950D02*
X92894975Y-66494975D01*
X96950000Y-58300000D02*
X96950000Y-62439950D01*
X92900000Y-66910050D02*
X92894975Y-66905025D01*
X90001041Y-66400000D02*
X89162500Y-66400000D01*
X92900000Y-66910050D02*
X92689950Y-66700000D01*
X105180000Y-59020000D02*
X105200000Y-59000000D01*
X92900000Y-69100000D02*
X92900000Y-66910050D01*
X92894975Y-66905025D02*
X92894975Y-66494975D01*
%TO.N,Net-(U1-PD0)*%
X76250000Y-67400000D02*
X75000000Y-66150000D01*
X75960000Y-65190000D02*
X75000000Y-66150000D01*
X75960000Y-64150000D02*
X75960000Y-65190000D01*
X80837500Y-67400000D02*
X76250000Y-67400000D01*
%TO.N,Net-(C9-Pad1)*%
X76200000Y-68300000D02*
X77800000Y-68300000D01*
X75960000Y-71800000D02*
X75960000Y-70810000D01*
X75000000Y-69850000D02*
X75000000Y-69500000D01*
X75960000Y-70810000D02*
X75000000Y-69850000D01*
X75000000Y-69500000D02*
X76200000Y-68300000D01*
%TO.N,PA14*%
X93937500Y-57800000D02*
X87750000Y-63987500D01*
X104899950Y-60290000D02*
X105900000Y-59289950D01*
X105900000Y-58710050D02*
X104989950Y-57800000D01*
X102400000Y-60290000D02*
X104290000Y-60290000D01*
X104290000Y-60290000D02*
X104300000Y-60300000D01*
X108600000Y-66340000D02*
X106360000Y-66340000D01*
X105900000Y-59289950D02*
X105900000Y-58710050D01*
X106100000Y-66600000D02*
X106100000Y-67700000D01*
X104989950Y-57800000D02*
X93937500Y-57800000D01*
X106360000Y-66340000D02*
X106100000Y-66600000D01*
X102400000Y-60290000D02*
X104899950Y-60290000D01*
%TO.N,PB3*%
X104337056Y-61560000D02*
X102400000Y-61560000D01*
X97860000Y-54660000D02*
X97860000Y-52000000D01*
X106400000Y-58700000D02*
X106400000Y-57600000D01*
X106400000Y-58700000D02*
X106400000Y-59497056D01*
X105197056Y-57300000D02*
X106400000Y-58502944D01*
X106400000Y-56100500D02*
X99300500Y-56100500D01*
X99300500Y-56100500D02*
X97860000Y-54660000D01*
X108600000Y-58720000D02*
X106420000Y-58720000D01*
X90400000Y-57300000D02*
X105197056Y-57300000D01*
X106400000Y-58502944D02*
X106400000Y-58700000D01*
X86750000Y-60950000D02*
X90400000Y-57300000D01*
X106420000Y-58720000D02*
X106400000Y-58700000D01*
X86750000Y-63987500D02*
X86750000Y-60950000D01*
X106400000Y-59497056D02*
X104337056Y-61560000D01*
%TO.N,PA15*%
X102400000Y-62830000D02*
X101400000Y-62830000D01*
X99240000Y-78240000D02*
X99200000Y-78200000D01*
X107100000Y-56800000D02*
X82500000Y-56800000D01*
X105134803Y-72065197D02*
X109234803Y-72065197D01*
X99700000Y-66800000D02*
X99600000Y-66800000D01*
X108200000Y-55700000D02*
X107100000Y-56800000D01*
X101400000Y-62830000D02*
X100600000Y-63630000D01*
X100300000Y-74800000D02*
X100400000Y-74800000D01*
X98100000Y-72600000D02*
X100300000Y-74800000D01*
X109234803Y-72065197D02*
X111710000Y-69590000D01*
X111710000Y-69590000D02*
X111710000Y-57010000D01*
X111710000Y-57010000D02*
X110400000Y-55700000D01*
X79400000Y-62476041D02*
X81998959Y-65075000D01*
X87001041Y-65075000D02*
X87250000Y-64826041D01*
X110400000Y-55700000D02*
X108200000Y-55700000D01*
X99600000Y-66800000D02*
X99869606Y-66800000D01*
X81998959Y-65075000D02*
X87001041Y-65075000D01*
X100600000Y-63630000D02*
X100600000Y-65900000D01*
X99869606Y-66800000D02*
X105134803Y-72065197D01*
X79400000Y-59900000D02*
X79400000Y-62476041D01*
X100600000Y-65900000D02*
X99700000Y-66800000D01*
X82500000Y-56800000D02*
X79400000Y-59900000D01*
X99240000Y-87000000D02*
X99240000Y-78240000D01*
%TO.N,PC14*%
X82236654Y-65839387D02*
X82236654Y-65774103D01*
X81736654Y-66400000D02*
X82236654Y-65900000D01*
X80837500Y-66400000D02*
X81736654Y-66400000D01*
X95800000Y-81600000D02*
X97700000Y-81600000D01*
%TO.N,PC15*%
X80837500Y-66900000D02*
X79598360Y-66900000D01*
X79598360Y-66900000D02*
X79398360Y-66700000D01*
%TO.N,PB15*%
X91100000Y-71700000D02*
X91100000Y-72000000D01*
X94863000Y-75763000D02*
X95300000Y-75763000D01*
X89162500Y-69400000D02*
X90400000Y-69400000D01*
X90400000Y-69400000D02*
X91000000Y-68800000D01*
X91100000Y-72000000D02*
X94863000Y-75763000D01*
X95800000Y-80600000D02*
X97800000Y-80600000D01*
%TO.N,PB14*%
X118700000Y-70300000D02*
X118700000Y-61700000D01*
X102262500Y-69900000D02*
X105900000Y-73537500D01*
X114000000Y-73620000D02*
X105982500Y-73620000D01*
X70000000Y-49000000D02*
X76200000Y-49000000D01*
X69920000Y-49080000D02*
X69920000Y-52000000D01*
X70000000Y-49000000D02*
X69920000Y-49080000D01*
X114700000Y-56600000D02*
X107100000Y-49000000D01*
X105982500Y-73620000D02*
X105900000Y-73537500D01*
X115380000Y-73620000D02*
X118700000Y-70300000D01*
X107100000Y-49000000D02*
X81400000Y-49000000D01*
X114000000Y-73620000D02*
X115380000Y-73620000D01*
X118700000Y-61700000D02*
X114700000Y-57700000D01*
X114700000Y-57700000D02*
X114700000Y-56600000D01*
D37*
X106002500Y-73640000D02*
X105900000Y-73537500D01*
D38*
X89162500Y-69900000D02*
X102262500Y-69900000D01*
%TO.N,PB13*%
X109000000Y-75550000D02*
X103550000Y-75550000D01*
X113390000Y-75550000D02*
X109000000Y-75550000D01*
X109000000Y-75550000D02*
X109000000Y-75000000D01*
X82000000Y-55000000D02*
X83900000Y-55000000D01*
X98400000Y-70400000D02*
X103550000Y-75550000D01*
X114000000Y-76160000D02*
X113390000Y-75550000D01*
X89162500Y-70400000D02*
X98400000Y-70400000D01*
%TO.N,PB12*%
X106437500Y-77000000D02*
X109000000Y-77000000D01*
X89162500Y-70900000D02*
X94725000Y-76462500D01*
X94725000Y-76462500D02*
X105900000Y-76462500D01*
X105900000Y-76462500D02*
X106437500Y-77000000D01*
%TO.N,PB11*%
X77540000Y-55760000D02*
X77200000Y-56100000D01*
X71600000Y-76300000D02*
X70100000Y-76300000D01*
X77540000Y-52000000D02*
X77540000Y-55760000D01*
X71000000Y-56100000D02*
X68950000Y-58150000D01*
X68950000Y-65650000D02*
X66500000Y-68100000D01*
X77200000Y-56100000D02*
X71000000Y-56100000D01*
X86276041Y-71000000D02*
X84000000Y-71000000D01*
X70100000Y-76300000D02*
X68200000Y-74400000D01*
X86750000Y-71473959D02*
X86276041Y-71000000D01*
X68950000Y-58150000D02*
X68950000Y-65650000D01*
X72100000Y-81500000D02*
X72100000Y-78900000D01*
X86750000Y-72312500D02*
X86750000Y-71473959D01*
X72100000Y-78900000D02*
X73200000Y-77800000D01*
%TO.N,PB10*%
X80500000Y-47200000D02*
X80080000Y-47620000D01*
X108000000Y-47200000D02*
X80500000Y-47200000D01*
X110200000Y-89000000D02*
X110200000Y-86392894D01*
X110200000Y-86392894D02*
X119650000Y-76942894D01*
X119650000Y-76942894D02*
X119650000Y-58850000D01*
X61500000Y-90400000D02*
X108800000Y-90400000D01*
X108800000Y-90400000D02*
X110200000Y-89000000D01*
X80080000Y-47620000D02*
X80080000Y-52000000D01*
X60700000Y-88400000D02*
X60700000Y-89600000D01*
X119650000Y-58850000D02*
X108000000Y-47200000D01*
X61200000Y-87900000D02*
X60700000Y-88400000D01*
X86250000Y-78350000D02*
X86250000Y-72312500D01*
X60700000Y-89600000D02*
X61500000Y-90400000D01*
X86300000Y-78400000D02*
X86250000Y-78350000D01*
%TO.N,PB9*%
X83250000Y-63987500D02*
X83250000Y-62096191D01*
X83250000Y-62096191D02*
X83050500Y-61896691D01*
%TO.N,PB8*%
X83750000Y-61557107D02*
X83350500Y-61157607D01*
X83350500Y-58274535D02*
X84125535Y-57499500D01*
X85100000Y-55800000D02*
X85160000Y-55740000D01*
X85160000Y-55740000D02*
X85160000Y-52000000D01*
X83750000Y-63987500D02*
X83750000Y-61557107D01*
X83350500Y-61157607D02*
X83350500Y-58274535D01*
%TO.N,PB7*%
X84750000Y-63987500D02*
X84750000Y-58349500D01*
X86600000Y-55000000D02*
X87700000Y-53900000D01*
X84750000Y-58349500D02*
X85600000Y-57499500D01*
X86600000Y-55900000D02*
X86600000Y-55000000D01*
X87700000Y-53900000D02*
X87700000Y-52000000D01*
%TO.N,PB6*%
X90240000Y-53760000D02*
X90240000Y-52000000D01*
X86305378Y-58794622D02*
X86305378Y-58605378D01*
X85250000Y-59850000D02*
X85600000Y-59500000D01*
X88000000Y-56000000D02*
X90240000Y-53760000D01*
X85250000Y-63987500D02*
X85250000Y-59850000D01*
X85600000Y-59500000D02*
X86305378Y-58794622D01*
%TO.N,PB5*%
X85750000Y-63987500D02*
X85750000Y-60150000D01*
X92700000Y-53900000D02*
X92780000Y-53820000D01*
X87600000Y-58300000D02*
X87600000Y-58100000D01*
X89500000Y-56100000D02*
X91700000Y-53900000D01*
X92780000Y-53820000D02*
X92780000Y-52000000D01*
X85900000Y-60000000D02*
X87600000Y-58300000D01*
X91700000Y-53900000D02*
X92700000Y-53900000D01*
X85750000Y-60150000D02*
X85900000Y-60000000D01*
%TO.N,PB4*%
X91000000Y-55700000D02*
X92300000Y-54400000D01*
X95320000Y-54380000D02*
X95320000Y-52000000D01*
X95300000Y-54400000D02*
X95320000Y-54380000D01*
X92300000Y-54400000D02*
X95300000Y-54400000D01*
X86250000Y-60460756D02*
X88955378Y-57755378D01*
X86250000Y-63987500D02*
X86250000Y-60460756D01*
%TO.N,PB2*%
X120400000Y-58000000D02*
X108749500Y-46349500D01*
X60000000Y-87200000D02*
X60000000Y-90500000D01*
X111100000Y-86200000D02*
X120400000Y-76900000D01*
X111100000Y-89830419D02*
X111100000Y-86200000D01*
X60000000Y-90500000D02*
X61130419Y-91630419D01*
X120400000Y-76900000D02*
X120400000Y-58000000D01*
X85400000Y-77500000D02*
X85750000Y-77150000D01*
X61000000Y-86200000D02*
X60000000Y-87200000D01*
X85750000Y-72312500D02*
X85750000Y-77150000D01*
X109300000Y-91630419D02*
X111100000Y-89830419D01*
X108749500Y-46349500D02*
X100400000Y-46349500D01*
X61130419Y-91630419D02*
X109300000Y-91630419D01*
%TO.N,PB1*%
X112200000Y-86800000D02*
X121500000Y-77500000D01*
X107900000Y-48300000D02*
X111500000Y-51900000D01*
X59500000Y-91200000D02*
X60430419Y-92130419D01*
X59500000Y-85100000D02*
X59500000Y-91200000D01*
X118500000Y-58900000D02*
X118500000Y-59000000D01*
X60430419Y-92130419D02*
X109969581Y-92130419D01*
X85250000Y-75650000D02*
X85250000Y-72312500D01*
X121500000Y-77500000D02*
X121500000Y-59000000D01*
X84300000Y-76600000D02*
X85250000Y-75650000D01*
X112200000Y-89900000D02*
X112200000Y-86800000D01*
X59900000Y-84700000D02*
X59500000Y-85100000D01*
X109969581Y-92130419D02*
X112200000Y-89900000D01*
X111500000Y-51900000D02*
X118500000Y-58900000D01*
%TO.N,PB0*%
X123000000Y-77800000D02*
X123000000Y-62000000D01*
X58000000Y-84300000D02*
X58000000Y-90900000D01*
X105480000Y-52000000D02*
X108000000Y-52000000D01*
X84750000Y-74939244D02*
X83194622Y-76494622D01*
X113100000Y-90430419D02*
X113100000Y-87700000D01*
X110900000Y-92630419D02*
X113100000Y-90430419D01*
X58000000Y-90900000D02*
X59730419Y-92630419D01*
X113100000Y-87700000D02*
X123000000Y-77800000D01*
X108000000Y-52000000D02*
X118000000Y-62000000D01*
X84750000Y-72312500D02*
X84750000Y-74939244D01*
X59730419Y-92630419D02*
X110900000Y-92630419D01*
%TO.N,PA0*%
X77689950Y-74100000D02*
X79000000Y-72789950D01*
X66220000Y-87000000D02*
X66220000Y-83790050D01*
X79089950Y-70900000D02*
X79700000Y-70289950D01*
X79700000Y-70289950D02*
X79700000Y-70007106D01*
X79000000Y-70900000D02*
X79089950Y-70900000D01*
X66220000Y-83790050D02*
X75910050Y-74100000D01*
X79700000Y-70007106D02*
X79807106Y-69900000D01*
X79807106Y-69900000D02*
X80837500Y-69900000D01*
X75910050Y-74100000D02*
X77689950Y-74100000D01*
X79000000Y-72789950D02*
X79000000Y-70900000D01*
%TO.N,PA1*%
X81800000Y-70400000D02*
X82200000Y-70000000D01*
X80837500Y-70400000D02*
X81800000Y-70400000D01*
%TO.N,PA2*%
X73100000Y-80800000D02*
X80000000Y-73900000D01*
X80000000Y-71737500D02*
X80000000Y-73900000D01*
X71300000Y-87000000D02*
X71300000Y-84600000D01*
X71300000Y-84600000D02*
X73100000Y-82800000D01*
X73100000Y-82800000D02*
X73100000Y-80800000D01*
X80837500Y-70900000D02*
X80000000Y-71737500D01*
%TO.N,PA3*%
X81200000Y-73900000D02*
X73840000Y-81260000D01*
X82250000Y-72312500D02*
X81587500Y-72312500D01*
X81587500Y-72312500D02*
X81200000Y-72700000D01*
X81200000Y-72700000D02*
X81200000Y-73900000D01*
X73840000Y-81260000D02*
X73840000Y-87000000D01*
%TO.N,PA4*%
X76380000Y-80012894D02*
X82750000Y-73642894D01*
X76380000Y-87000000D02*
X76380000Y-80012894D01*
X82750000Y-73642894D02*
X82750000Y-72312500D01*
%TO.N,PA5*%
X83250000Y-72312500D02*
X83250000Y-73850000D01*
X83250000Y-73850000D02*
X78920000Y-78180000D01*
X78920000Y-78180000D02*
X78920000Y-87000000D01*
%TO.N,PA6*%
X81460000Y-76347106D02*
X81460000Y-87000000D01*
X83750000Y-72312500D02*
X83750000Y-74057106D01*
X83750000Y-74057106D02*
X81460000Y-76347106D01*
%TO.N,PA7*%
X84000000Y-84200000D02*
X82400000Y-82600000D01*
X82400000Y-76300000D02*
X82400000Y-82600000D01*
X84250000Y-74450000D02*
X82400000Y-76300000D01*
X84250000Y-72312500D02*
X84250000Y-74450000D01*
X84000000Y-87000000D02*
X84000000Y-84200000D01*
X84250000Y-86750000D02*
X84000000Y-87000000D01*
%TO.N,PA8*%
X86540000Y-82910000D02*
X89650000Y-79800000D01*
X89650000Y-72850000D02*
X88075000Y-71275000D01*
X88075000Y-69025000D02*
X88200000Y-68900000D01*
X86540000Y-87000000D02*
X86540000Y-82910000D01*
X88075000Y-71275000D02*
X88075000Y-69025000D01*
X89650000Y-79800000D02*
X89650000Y-72850000D01*
X88200000Y-68900000D02*
X89162500Y-68900000D01*
%TO.N,PA9*%
X87775500Y-68400000D02*
X87400000Y-68024500D01*
X89162500Y-68400000D02*
X87775500Y-68400000D01*
X90400000Y-83200000D02*
X90400000Y-77900000D01*
X89080000Y-84520000D02*
X90400000Y-83200000D01*
X89080000Y-87000000D02*
X89080000Y-84520000D01*
%TO.N,Net-(D3-K)*%
X71600000Y-58800000D02*
X72800000Y-57600000D01*
X72800000Y-57600000D02*
X74600000Y-57600000D01*
X71000000Y-58800000D02*
X71600000Y-58800000D01*
%TO.N,PA10*%
X89162500Y-67900000D02*
X90310050Y-67900000D01*
X90710050Y-67500000D02*
X91900000Y-67500000D01*
X91620000Y-87000000D02*
X91620000Y-78720000D01*
X91620000Y-78720000D02*
X91600000Y-78700000D01*
X90310050Y-67900000D02*
X90710050Y-67500000D01*
%TO.N,Net-(U1-PD1)*%
X79220000Y-67900000D02*
X78820000Y-68300000D01*
X80837500Y-67900000D02*
X79220000Y-67900000D01*
%TO.N,NRST*%
X80837500Y-68400000D02*
X81676041Y-68400000D01*
X82100000Y-67976041D02*
X82100000Y-67410050D01*
X102400000Y-64100000D02*
X105100000Y-64100000D01*
X82100000Y-67410050D02*
X83310050Y-66200000D01*
X83310050Y-66200000D02*
X85000000Y-66200000D01*
X81676041Y-68400000D02*
X82100000Y-67976041D01*
%TO.N,BOOT0*%
X84250000Y-61350000D02*
X84250000Y-63987500D01*
X93814950Y-68425000D02*
X93794975Y-68405025D01*
X84050500Y-58844396D02*
X84050500Y-61150500D01*
X96300000Y-68425000D02*
X93814950Y-68425000D01*
X84050500Y-61150500D02*
X84250000Y-61350000D01*
D37*
%TO.N,Net-(D2-K)*%
X66300000Y-80300000D02*
X66500000Y-80100000D01*
X64000000Y-80300000D02*
X66300000Y-80300000D01*
X64000000Y-79000000D02*
X64000000Y-80300000D01*
X66500000Y-80100000D02*
X66500000Y-79000000D01*
D36*
%TO.N,Net-(J1-5.0V)*%
X54700000Y-72500000D02*
X54900000Y-72700000D01*
X57460000Y-72860000D02*
X57100000Y-72500000D01*
X57100000Y-72500000D02*
X55100000Y-72500000D01*
X51575000Y-72500000D02*
X54700000Y-72500000D01*
X57460000Y-78000000D02*
X57460000Y-72860000D01*
X55100000Y-72500000D02*
X54900000Y-72700000D01*
%TD*%
M02*
