%TF.GenerationSoftware,KiCad,Pcbnew,7.0.7-7.0.7~ubuntu22.04.1*%
%TF.CreationDate,2023-09-22T21:22:16+02:00*%
%TF.ProjectId,kicad103,6b696361-6431-4303-932e-6b696361645f,rev?*%
%TF.SameCoordinates,Original*%
%TF.FileFunction,Paste,Top*%
%TF.FilePolarity,Positive*%
%FSLAX46Y46*%
G04 Gerber Fmt 4.6, Leading zero omitted, Abs format (unit mm)*
G04 Created by KiCad (PCBNEW 7.0.7-7.0.7~ubuntu22.04.1) date 2023-09-22 21:22:16*
%MOMM*%
%LPD*%
G01*
G04 APERTURE LIST*
G04 Aperture macros list*
%AMRoundRect*
0 Rectangle with rounded corners*
0 $1 Rounding radius*
0 $2 $3 $4 $5 $6 $7 $8 $9 X,Y pos of 4 corners*
0 Add a 4 corners polygon primitive as box body*
4,1,4,$2,$3,$4,$5,$6,$7,$8,$9,$2,$3,0*
0 Add four circle primitives for the rounded corners*
1,1,$1+$1,$2,$3*
1,1,$1+$1,$4,$5*
1,1,$1+$1,$6,$7*
1,1,$1+$1,$8,$9*
0 Add four rect primitives between the rounded corners*
20,1,$1+$1,$2,$3,$4,$5,0*
20,1,$1+$1,$4,$5,$6,$7,0*
20,1,$1+$1,$6,$7,$8,$9,0*
20,1,$1+$1,$8,$9,$2,$3,0*%
G04 Aperture macros list end*
%ADD10RoundRect,0.225000X-0.225000X-0.250000X0.225000X-0.250000X0.225000X0.250000X-0.225000X0.250000X0*%
%ADD11RoundRect,0.243750X-0.456250X0.243750X-0.456250X-0.243750X0.456250X-0.243750X0.456250X0.243750X0*%
%ADD12RoundRect,0.250000X0.450000X-0.262500X0.450000X0.262500X-0.450000X0.262500X-0.450000X-0.262500X0*%
%ADD13RoundRect,0.225000X0.225000X0.250000X-0.225000X0.250000X-0.225000X-0.250000X0.225000X-0.250000X0*%
%ADD14RoundRect,0.250000X-0.475000X0.250000X-0.475000X-0.250000X0.475000X-0.250000X0.475000X0.250000X0*%
%ADD15RoundRect,0.225000X-0.250000X0.225000X-0.250000X-0.225000X0.250000X-0.225000X0.250000X0.225000X0*%
%ADD16R,2.400000X0.740000*%
%ADD17R,2.000000X1.200000*%
%ADD18RoundRect,0.140000X0.140000X0.170000X-0.140000X0.170000X-0.140000X-0.170000X0.140000X-0.170000X0*%
%ADD19RoundRect,0.075000X-0.662500X-0.075000X0.662500X-0.075000X0.662500X0.075000X-0.662500X0.075000X0*%
%ADD20RoundRect,0.075000X-0.075000X-0.662500X0.075000X-0.662500X0.075000X0.662500X-0.075000X0.662500X0*%
%ADD21R,2.400000X2.000000*%
%ADD22RoundRect,0.250000X-0.450000X0.262500X-0.450000X-0.262500X0.450000X-0.262500X0.450000X0.262500X0*%
%ADD23RoundRect,0.243750X0.456250X-0.243750X0.456250X0.243750X-0.456250X0.243750X-0.456250X-0.243750X0*%
%ADD24RoundRect,0.150000X0.512500X0.150000X-0.512500X0.150000X-0.512500X-0.150000X0.512500X-0.150000X0*%
%ADD25RoundRect,0.225000X0.250000X-0.225000X0.250000X0.225000X-0.250000X0.225000X-0.250000X-0.225000X0*%
%ADD26RoundRect,0.135000X-0.135000X-0.185000X0.135000X-0.185000X0.135000X0.185000X-0.135000X0.185000X0*%
%ADD27RoundRect,0.250000X-0.625000X0.312500X-0.625000X-0.312500X0.625000X-0.312500X0.625000X0.312500X0*%
G04 APERTURE END LIST*
D10*
%TO.C,C6*%
X80850000Y-60200000D03*
X82400000Y-60200000D03*
%TD*%
D11*
%TO.C,D3*%
X71000000Y-58800000D03*
X71000000Y-60675000D03*
%TD*%
D12*
%TO.C,R1*%
X66500000Y-79000000D03*
X66500000Y-77175000D03*
%TD*%
D13*
%TO.C,C5*%
X88850000Y-75450000D03*
X87300000Y-75450000D03*
%TD*%
D14*
%TO.C,C2*%
X62200000Y-71600000D03*
X62200000Y-73500000D03*
%TD*%
D15*
%TO.C,C3*%
X92400000Y-63450000D03*
X92400000Y-65000000D03*
%TD*%
D16*
%TO.C,J3*%
X98500000Y-59020000D03*
X102400000Y-59020000D03*
X98500000Y-60290000D03*
X102400000Y-60290000D03*
X98500000Y-61560000D03*
X102400000Y-61560000D03*
X98500000Y-62830000D03*
X102400000Y-62830000D03*
X98500000Y-64100000D03*
X102400000Y-64100000D03*
%TD*%
D14*
%TO.C,C1*%
X54900000Y-72700000D03*
X54900000Y-74600000D03*
%TD*%
D17*
%TO.C,J1*%
X51575000Y-72500000D03*
X51575000Y-70000000D03*
X51575000Y-68000000D03*
X51575000Y-65500000D03*
%TD*%
D15*
%TO.C,C4*%
X78000000Y-70000000D03*
X78000000Y-71550000D03*
%TD*%
D18*
%TO.C,C9*%
X75960000Y-71800000D03*
X75000000Y-71800000D03*
%TD*%
D19*
%TO.C,U1*%
X80837500Y-65400000D03*
X80837500Y-65900000D03*
X80837500Y-66400000D03*
X80837500Y-66900000D03*
X80837500Y-67400000D03*
X80837500Y-67900000D03*
X80837500Y-68400000D03*
X80837500Y-68900000D03*
X80837500Y-69400000D03*
X80837500Y-69900000D03*
X80837500Y-70400000D03*
X80837500Y-70900000D03*
D20*
X82250000Y-72312500D03*
X82750000Y-72312500D03*
X83250000Y-72312500D03*
X83750000Y-72312500D03*
X84250000Y-72312500D03*
X84750000Y-72312500D03*
X85250000Y-72312500D03*
X85750000Y-72312500D03*
X86250000Y-72312500D03*
X86750000Y-72312500D03*
X87250000Y-72312500D03*
X87750000Y-72312500D03*
D19*
X89162500Y-70900000D03*
X89162500Y-70400000D03*
X89162500Y-69900000D03*
X89162500Y-69400000D03*
X89162500Y-68900000D03*
X89162500Y-68400000D03*
X89162500Y-67900000D03*
X89162500Y-67400000D03*
X89162500Y-66900000D03*
X89162500Y-66400000D03*
X89162500Y-65900000D03*
X89162500Y-65400000D03*
D20*
X87750000Y-63987500D03*
X87250000Y-63987500D03*
X86750000Y-63987500D03*
X86250000Y-63987500D03*
X85750000Y-63987500D03*
X85250000Y-63987500D03*
X84750000Y-63987500D03*
X84250000Y-63987500D03*
X83750000Y-63987500D03*
X83250000Y-63987500D03*
X82750000Y-63987500D03*
X82250000Y-63987500D03*
%TD*%
D21*
%TO.C,Y1*%
X75000000Y-69850000D03*
X75000000Y-66150000D03*
%TD*%
D22*
%TO.C,R4*%
X60600000Y-66475000D03*
X60600000Y-68300000D03*
%TD*%
D23*
%TO.C,D2*%
X64000000Y-79000000D03*
X64000000Y-77125000D03*
%TD*%
D12*
%TO.C,R5*%
X96300000Y-68425000D03*
X96300000Y-66600000D03*
%TD*%
D18*
%TO.C,C8*%
X75960000Y-64150000D03*
X75000000Y-64150000D03*
%TD*%
D24*
%TO.C,U2*%
X59375000Y-73450000D03*
X59375000Y-71550000D03*
X57100000Y-72500000D03*
%TD*%
D25*
%TO.C,C7*%
X78000000Y-64000000D03*
X78000000Y-62450000D03*
%TD*%
D26*
%TO.C,R3*%
X77800000Y-68300000D03*
X78820000Y-68300000D03*
%TD*%
D22*
%TO.C,R2*%
X74600000Y-57600000D03*
X74600000Y-59425000D03*
%TD*%
D27*
%TO.C,R6*%
X105900000Y-73537500D03*
X105900000Y-76462500D03*
%TD*%
M02*
