M48
; DRILL file {KiCad 7.0.7-7.0.7~ubuntu22.04.1} date ons 20 sep 2023 11:51:02
; FORMAT={-:-/ absolute / metric / decimal}
; #@! TF.CreationDate,2023-09-20T11:51:02+02:00
; #@! TF.GenerationSoftware,Kicad,Pcbnew,7.0.7-7.0.7~ubuntu22.04.1
; #@! TF.FileFunction,MixedPlating,1,4
FMAT,2
METRIC
; #@! TA.AperFunction,Plated,PTH,ViaDrill
T1C0.300
; #@! TA.AperFunction,Plated,PTH,ViaDrill
T2C0.400
; #@! TA.AperFunction,Plated,PTH,ComponentDrill
T3C0.600
; #@! TA.AperFunction,Plated,PTH,ComponentDrill
T4C1.000
; #@! TA.AperFunction,Plated,PTH,ComponentDrill
T5C1.250
; #@! TA.AperFunction,Plated,PTH,ComponentDrill
T6C2.596
; #@! TA.AperFunction,Plated,PTH,ComponentDrill
T7C4.300
%
G90
G05
T1
X54.9Y-75.9
X55.2Y-64.4
X55.2Y-66.6
X58.0Y-84.3
X59.4Y-70.2
X59.9Y-84.7
X60.6Y-64.6
X61.0Y-86.2
X61.2Y-87.9
X62.2Y-70.2
X62.2Y-74.8
X63.6Y-71.6
X63.7Y-73.5
X64.0Y-75.9
X66.5Y-68.1
X66.5Y-75.9
X68.2Y-74.4
X70.158Y-68.35
X70.158Y-69.65
X71.6Y-76.3
X72.1Y-81.5
X73.2Y-77.8
X74.2Y-64.1
X74.2Y-71.8
X76.2Y-49.0
X76.2Y-59.4
X78.0Y-61.4
X78.0Y-72.8
X79.0Y-70.0
X79.2Y-63.8
X79.398Y-66.7
X80.1Y-61.8
X81.4Y-49.0
X82.0Y-55.0
X82.2Y-70.0
X82.237Y-65.9
X82.4Y-59.2
X82.8Y-67.7
X83.05Y-61.897
X83.195Y-76.495
X83.55Y-68.35
X83.55Y-69.65
X83.9Y-55.0
X84.0Y-71.0
X84.05Y-58.844
X84.126Y-57.499
X84.3Y-76.6
X85.0Y-66.2
X85.1Y-55.8
X85.4Y-77.5
X85.6Y-57.499
X86.3Y-78.4
X86.305Y-58.605
X86.6Y-55.9
X87.3Y-76.6
X87.4Y-68.025
X87.6Y-58.1
X88.0Y-56.0
X88.9Y-76.6
X88.955Y-57.755
X89.5Y-56.1
X90.4Y-77.9
X91.0Y-55.7
X91.0Y-68.8
X91.1Y-71.7
X91.6Y-78.7
X91.9Y-67.5
X92.4Y-62.2
X92.4Y-66.0
X92.9Y-69.1
X92.9Y-80.5
X93.795Y-68.405
X94.7Y-66.6
X95.3Y-75.763
X95.8Y-80.6
X95.8Y-81.6
X97.7Y-81.6
X97.8Y-80.6
X98.1Y-72.6
X99.2Y-78.2
X99.6Y-66.8
X100.4Y-46.349
X100.4Y-59.0
X100.4Y-60.3
X100.4Y-61.5
X100.4Y-74.8
X104.3Y-60.3
X105.1Y-64.1
X105.2Y-59.0
X106.1Y-67.7
X106.3Y-71.2
X106.4Y-56.1
X106.4Y-57.6
X109.0Y-75.0
X109.0Y-77.0
X110.9Y-61.3
X111.3Y-71.6
X111.5Y-78.7
X118.0Y-62.0
X118.5Y-59.0
X121.5Y-59.0
X123.0Y-62.0
T2
X61.0Y-80.5
X107.9Y-48.3
T3
X54.795Y-50.6
X55.739Y-48.32
X55.739Y-52.88
X58.02Y-47.375
X58.02Y-53.825
X60.3Y-48.32
X60.3Y-52.88
X61.245Y-50.6
X117.975Y-49.6
X117.995Y-88.18
X118.92Y-47.32
X118.92Y-51.88
X118.939Y-85.9
X118.939Y-90.461
X121.2Y-46.375
X121.2Y-52.825
X121.22Y-84.955
X121.22Y-91.405
X123.48Y-47.32
X123.48Y-51.88
X123.5Y-85.9
X123.5Y-90.461
X124.425Y-49.6
X124.445Y-88.18
T4
X57.46Y-78.0
X60.0Y-78.0
X66.22Y-87.0
X67.38Y-52.0
X68.76Y-87.0
X69.92Y-52.0
X71.3Y-87.0
X72.46Y-52.0
X73.84Y-87.0
X75.0Y-52.0
X76.38Y-87.0
X77.54Y-52.0
X78.92Y-87.0
X80.08Y-52.0
X81.46Y-87.0
X82.62Y-52.0
X84.0Y-87.0
X85.16Y-52.0
X86.54Y-87.0
X87.7Y-52.0
X89.08Y-87.0
X90.24Y-52.0
X91.62Y-87.0
X92.78Y-52.0
X94.16Y-87.0
X95.32Y-52.0
X96.7Y-87.0
X97.86Y-52.0
X99.24Y-87.0
X100.4Y-52.0
X101.78Y-87.0
X102.94Y-52.0
X104.32Y-87.0
X105.48Y-52.0
X106.86Y-87.0
X108.6Y-58.72
X108.6Y-61.26
X108.6Y-63.8
X108.6Y-66.34
X108.6Y-68.88
X114.0Y-71.08
X114.0Y-73.62
X114.0Y-76.16
X114.0Y-78.7
T5
X48.7Y-66.75
X48.7Y-71.25
T6
X48.7Y-63.15
X48.7Y-74.85
T7
X58.02Y-50.6
X121.2Y-49.6
X121.22Y-88.18
T0
M30
