%TF.GenerationSoftware,KiCad,Pcbnew,7.0.7-7.0.7~ubuntu22.04.1*%
%TF.CreationDate,2023-08-27T08:37:15+02:00*%
%TF.ProjectId,adaptor,61646170-746f-4722-9e6b-696361645f70,rev?*%
%TF.SameCoordinates,Original*%
%TF.FileFunction,Legend,Bot*%
%TF.FilePolarity,Positive*%
%FSLAX46Y46*%
G04 Gerber Fmt 4.6, Leading zero omitted, Abs format (unit mm)*
G04 Created by KiCad (PCBNEW 7.0.7-7.0.7~ubuntu22.04.1) date 2023-08-27 08:37:15*
%MOMM*%
%LPD*%
G01*
G04 APERTURE LIST*
%ADD10C,0.200000*%
G04 APERTURE END LIST*
D10*
X191677945Y-73319600D02*
X191535088Y-73367219D01*
X191535088Y-73367219D02*
X191296993Y-73367219D01*
X191296993Y-73367219D02*
X191201755Y-73319600D01*
X191201755Y-73319600D02*
X191154136Y-73271980D01*
X191154136Y-73271980D02*
X191106517Y-73176742D01*
X191106517Y-73176742D02*
X191106517Y-73081504D01*
X191106517Y-73081504D02*
X191154136Y-72986266D01*
X191154136Y-72986266D02*
X191201755Y-72938647D01*
X191201755Y-72938647D02*
X191296993Y-72891028D01*
X191296993Y-72891028D02*
X191487469Y-72843409D01*
X191487469Y-72843409D02*
X191582707Y-72795790D01*
X191582707Y-72795790D02*
X191630326Y-72748171D01*
X191630326Y-72748171D02*
X191677945Y-72652933D01*
X191677945Y-72652933D02*
X191677945Y-72557695D01*
X191677945Y-72557695D02*
X191630326Y-72462457D01*
X191630326Y-72462457D02*
X191582707Y-72414838D01*
X191582707Y-72414838D02*
X191487469Y-72367219D01*
X191487469Y-72367219D02*
X191249374Y-72367219D01*
X191249374Y-72367219D02*
X191106517Y-72414838D01*
X190773183Y-72367219D02*
X190535088Y-73367219D01*
X190535088Y-73367219D02*
X190344612Y-72652933D01*
X190344612Y-72652933D02*
X190154136Y-73367219D01*
X190154136Y-73367219D02*
X189916041Y-72367219D01*
X189535088Y-73367219D02*
X189535088Y-72367219D01*
X189535088Y-72367219D02*
X189296993Y-72367219D01*
X189296993Y-72367219D02*
X189154136Y-72414838D01*
X189154136Y-72414838D02*
X189058898Y-72510076D01*
X189058898Y-72510076D02*
X189011279Y-72605314D01*
X189011279Y-72605314D02*
X188963660Y-72795790D01*
X188963660Y-72795790D02*
X188963660Y-72938647D01*
X188963660Y-72938647D02*
X189011279Y-73129123D01*
X189011279Y-73129123D02*
X189058898Y-73224361D01*
X189058898Y-73224361D02*
X189154136Y-73319600D01*
X189154136Y-73319600D02*
X189296993Y-73367219D01*
X189296993Y-73367219D02*
X189535088Y-73367219D01*
X188535088Y-73367219D02*
X188535088Y-72367219D01*
X187868422Y-72367219D02*
X187677946Y-72367219D01*
X187677946Y-72367219D02*
X187582708Y-72414838D01*
X187582708Y-72414838D02*
X187487470Y-72510076D01*
X187487470Y-72510076D02*
X187439851Y-72700552D01*
X187439851Y-72700552D02*
X187439851Y-73033885D01*
X187439851Y-73033885D02*
X187487470Y-73224361D01*
X187487470Y-73224361D02*
X187582708Y-73319600D01*
X187582708Y-73319600D02*
X187677946Y-73367219D01*
X187677946Y-73367219D02*
X187868422Y-73367219D01*
X187868422Y-73367219D02*
X187963660Y-73319600D01*
X187963660Y-73319600D02*
X188058898Y-73224361D01*
X188058898Y-73224361D02*
X188106517Y-73033885D01*
X188106517Y-73033885D02*
X188106517Y-72700552D01*
X188106517Y-72700552D02*
X188058898Y-72510076D01*
X188058898Y-72510076D02*
X187963660Y-72414838D01*
X187963660Y-72414838D02*
X187868422Y-72367219D01*
X191725564Y-74867219D02*
X191106517Y-74867219D01*
X191106517Y-74867219D02*
X191439850Y-75248171D01*
X191439850Y-75248171D02*
X191296993Y-75248171D01*
X191296993Y-75248171D02*
X191201755Y-75295790D01*
X191201755Y-75295790D02*
X191154136Y-75343409D01*
X191154136Y-75343409D02*
X191106517Y-75438647D01*
X191106517Y-75438647D02*
X191106517Y-75676742D01*
X191106517Y-75676742D02*
X191154136Y-75771980D01*
X191154136Y-75771980D02*
X191201755Y-75819600D01*
X191201755Y-75819600D02*
X191296993Y-75867219D01*
X191296993Y-75867219D02*
X191582707Y-75867219D01*
X191582707Y-75867219D02*
X191677945Y-75819600D01*
X191677945Y-75819600D02*
X191725564Y-75771980D01*
X190677945Y-75771980D02*
X190630326Y-75819600D01*
X190630326Y-75819600D02*
X190677945Y-75867219D01*
X190677945Y-75867219D02*
X190725564Y-75819600D01*
X190725564Y-75819600D02*
X190677945Y-75771980D01*
X190677945Y-75771980D02*
X190677945Y-75867219D01*
X190296993Y-74867219D02*
X189677946Y-74867219D01*
X189677946Y-74867219D02*
X190011279Y-75248171D01*
X190011279Y-75248171D02*
X189868422Y-75248171D01*
X189868422Y-75248171D02*
X189773184Y-75295790D01*
X189773184Y-75295790D02*
X189725565Y-75343409D01*
X189725565Y-75343409D02*
X189677946Y-75438647D01*
X189677946Y-75438647D02*
X189677946Y-75676742D01*
X189677946Y-75676742D02*
X189725565Y-75771980D01*
X189725565Y-75771980D02*
X189773184Y-75819600D01*
X189773184Y-75819600D02*
X189868422Y-75867219D01*
X189868422Y-75867219D02*
X190154136Y-75867219D01*
X190154136Y-75867219D02*
X190249374Y-75819600D01*
X190249374Y-75819600D02*
X190296993Y-75771980D01*
X189392231Y-74867219D02*
X189058898Y-75867219D01*
X189058898Y-75867219D02*
X188725565Y-74867219D01*
X191106517Y-67164838D02*
X191201755Y-67117219D01*
X191201755Y-67117219D02*
X191344612Y-67117219D01*
X191344612Y-67117219D02*
X191487469Y-67164838D01*
X191487469Y-67164838D02*
X191582707Y-67260076D01*
X191582707Y-67260076D02*
X191630326Y-67355314D01*
X191630326Y-67355314D02*
X191677945Y-67545790D01*
X191677945Y-67545790D02*
X191677945Y-67688647D01*
X191677945Y-67688647D02*
X191630326Y-67879123D01*
X191630326Y-67879123D02*
X191582707Y-67974361D01*
X191582707Y-67974361D02*
X191487469Y-68069600D01*
X191487469Y-68069600D02*
X191344612Y-68117219D01*
X191344612Y-68117219D02*
X191249374Y-68117219D01*
X191249374Y-68117219D02*
X191106517Y-68069600D01*
X191106517Y-68069600D02*
X191058898Y-68021980D01*
X191058898Y-68021980D02*
X191058898Y-67688647D01*
X191058898Y-67688647D02*
X191249374Y-67688647D01*
X190630326Y-68117219D02*
X190630326Y-67117219D01*
X190630326Y-67117219D02*
X190058898Y-68117219D01*
X190058898Y-68117219D02*
X190058898Y-67117219D01*
X189582707Y-68117219D02*
X189582707Y-67117219D01*
X189582707Y-67117219D02*
X189344612Y-67117219D01*
X189344612Y-67117219D02*
X189201755Y-67164838D01*
X189201755Y-67164838D02*
X189106517Y-67260076D01*
X189106517Y-67260076D02*
X189058898Y-67355314D01*
X189058898Y-67355314D02*
X189011279Y-67545790D01*
X189011279Y-67545790D02*
X189011279Y-67688647D01*
X189011279Y-67688647D02*
X189058898Y-67879123D01*
X189058898Y-67879123D02*
X189106517Y-67974361D01*
X189106517Y-67974361D02*
X189201755Y-68069600D01*
X189201755Y-68069600D02*
X189344612Y-68117219D01*
X189344612Y-68117219D02*
X189582707Y-68117219D01*
X120744838Y-68607768D02*
X122363885Y-68607768D01*
X122363885Y-68607768D02*
X122554361Y-68703006D01*
X122554361Y-68703006D02*
X122649600Y-68798244D01*
X122649600Y-68798244D02*
X122744838Y-68988720D01*
X122744838Y-68988720D02*
X122744838Y-69369673D01*
X122744838Y-69369673D02*
X122649600Y-69560149D01*
X122649600Y-69560149D02*
X122554361Y-69655387D01*
X122554361Y-69655387D02*
X122363885Y-69750625D01*
X122363885Y-69750625D02*
X120744838Y-69750625D01*
X122649600Y-70607768D02*
X122744838Y-70893482D01*
X122744838Y-70893482D02*
X122744838Y-71369673D01*
X122744838Y-71369673D02*
X122649600Y-71560149D01*
X122649600Y-71560149D02*
X122554361Y-71655387D01*
X122554361Y-71655387D02*
X122363885Y-71750625D01*
X122363885Y-71750625D02*
X122173409Y-71750625D01*
X122173409Y-71750625D02*
X121982933Y-71655387D01*
X121982933Y-71655387D02*
X121887695Y-71560149D01*
X121887695Y-71560149D02*
X121792457Y-71369673D01*
X121792457Y-71369673D02*
X121697219Y-70988720D01*
X121697219Y-70988720D02*
X121601980Y-70798244D01*
X121601980Y-70798244D02*
X121506742Y-70703006D01*
X121506742Y-70703006D02*
X121316266Y-70607768D01*
X121316266Y-70607768D02*
X121125790Y-70607768D01*
X121125790Y-70607768D02*
X120935314Y-70703006D01*
X120935314Y-70703006D02*
X120840076Y-70798244D01*
X120840076Y-70798244D02*
X120744838Y-70988720D01*
X120744838Y-70988720D02*
X120744838Y-71464911D01*
X120744838Y-71464911D02*
X120840076Y-71750625D01*
X121697219Y-73274435D02*
X121792457Y-73560149D01*
X121792457Y-73560149D02*
X121887695Y-73655387D01*
X121887695Y-73655387D02*
X122078171Y-73750625D01*
X122078171Y-73750625D02*
X122363885Y-73750625D01*
X122363885Y-73750625D02*
X122554361Y-73655387D01*
X122554361Y-73655387D02*
X122649600Y-73560149D01*
X122649600Y-73560149D02*
X122744838Y-73369673D01*
X122744838Y-73369673D02*
X122744838Y-72607768D01*
X122744838Y-72607768D02*
X120744838Y-72607768D01*
X120744838Y-72607768D02*
X120744838Y-73274435D01*
X120744838Y-73274435D02*
X120840076Y-73464911D01*
X120840076Y-73464911D02*
X120935314Y-73560149D01*
X120935314Y-73560149D02*
X121125790Y-73655387D01*
X121125790Y-73655387D02*
X121316266Y-73655387D01*
X121316266Y-73655387D02*
X121506742Y-73560149D01*
X121506742Y-73560149D02*
X121601980Y-73464911D01*
X121601980Y-73464911D02*
X121697219Y-73274435D01*
X121697219Y-73274435D02*
X121697219Y-72607768D01*
X191677945Y-70819600D02*
X191535088Y-70867219D01*
X191535088Y-70867219D02*
X191296993Y-70867219D01*
X191296993Y-70867219D02*
X191201755Y-70819600D01*
X191201755Y-70819600D02*
X191154136Y-70771980D01*
X191154136Y-70771980D02*
X191106517Y-70676742D01*
X191106517Y-70676742D02*
X191106517Y-70581504D01*
X191106517Y-70581504D02*
X191154136Y-70486266D01*
X191154136Y-70486266D02*
X191201755Y-70438647D01*
X191201755Y-70438647D02*
X191296993Y-70391028D01*
X191296993Y-70391028D02*
X191487469Y-70343409D01*
X191487469Y-70343409D02*
X191582707Y-70295790D01*
X191582707Y-70295790D02*
X191630326Y-70248171D01*
X191630326Y-70248171D02*
X191677945Y-70152933D01*
X191677945Y-70152933D02*
X191677945Y-70057695D01*
X191677945Y-70057695D02*
X191630326Y-69962457D01*
X191630326Y-69962457D02*
X191582707Y-69914838D01*
X191582707Y-69914838D02*
X191487469Y-69867219D01*
X191487469Y-69867219D02*
X191249374Y-69867219D01*
X191249374Y-69867219D02*
X191106517Y-69914838D01*
X190773183Y-69867219D02*
X190535088Y-70867219D01*
X190535088Y-70867219D02*
X190344612Y-70152933D01*
X190344612Y-70152933D02*
X190154136Y-70867219D01*
X190154136Y-70867219D02*
X189916041Y-69867219D01*
X188963660Y-70771980D02*
X189011279Y-70819600D01*
X189011279Y-70819600D02*
X189154136Y-70867219D01*
X189154136Y-70867219D02*
X189249374Y-70867219D01*
X189249374Y-70867219D02*
X189392231Y-70819600D01*
X189392231Y-70819600D02*
X189487469Y-70724361D01*
X189487469Y-70724361D02*
X189535088Y-70629123D01*
X189535088Y-70629123D02*
X189582707Y-70438647D01*
X189582707Y-70438647D02*
X189582707Y-70295790D01*
X189582707Y-70295790D02*
X189535088Y-70105314D01*
X189535088Y-70105314D02*
X189487469Y-70010076D01*
X189487469Y-70010076D02*
X189392231Y-69914838D01*
X189392231Y-69914838D02*
X189249374Y-69867219D01*
X189249374Y-69867219D02*
X189154136Y-69867219D01*
X189154136Y-69867219D02*
X189011279Y-69914838D01*
X189011279Y-69914838D02*
X188963660Y-69962457D01*
X188058898Y-70867219D02*
X188535088Y-70867219D01*
X188535088Y-70867219D02*
X188535088Y-69867219D01*
X187725564Y-70867219D02*
X187725564Y-69867219D01*
X187154136Y-70867219D02*
X187582707Y-70295790D01*
X187154136Y-69867219D02*
X187725564Y-70438647D01*
M02*
