%TF.GenerationSoftware,KiCad,Pcbnew,7.0.6-7.0.6~ubuntu22.04.1*%
%TF.CreationDate,2023-08-13T15:42:17+02:00*%
%TF.ProjectId,adaptor,61646170-746f-4722-9e6b-696361645f70,rev?*%
%TF.SameCoordinates,Original*%
%TF.FileFunction,Legend,Bot*%
%TF.FilePolarity,Positive*%
%FSLAX46Y46*%
G04 Gerber Fmt 4.6, Leading zero omitted, Abs format (unit mm)*
G04 Created by KiCad (PCBNEW 7.0.6-7.0.6~ubuntu22.04.1) date 2023-08-13 15:42:17*
%MOMM*%
%LPD*%
G01*
G04 APERTURE LIST*
%ADD10C,0.200000*%
G04 APERTURE END LIST*
D10*
X164927945Y-73319600D02*
X164785088Y-73367219D01*
X164785088Y-73367219D02*
X164546993Y-73367219D01*
X164546993Y-73367219D02*
X164451755Y-73319600D01*
X164451755Y-73319600D02*
X164404136Y-73271980D01*
X164404136Y-73271980D02*
X164356517Y-73176742D01*
X164356517Y-73176742D02*
X164356517Y-73081504D01*
X164356517Y-73081504D02*
X164404136Y-72986266D01*
X164404136Y-72986266D02*
X164451755Y-72938647D01*
X164451755Y-72938647D02*
X164546993Y-72891028D01*
X164546993Y-72891028D02*
X164737469Y-72843409D01*
X164737469Y-72843409D02*
X164832707Y-72795790D01*
X164832707Y-72795790D02*
X164880326Y-72748171D01*
X164880326Y-72748171D02*
X164927945Y-72652933D01*
X164927945Y-72652933D02*
X164927945Y-72557695D01*
X164927945Y-72557695D02*
X164880326Y-72462457D01*
X164880326Y-72462457D02*
X164832707Y-72414838D01*
X164832707Y-72414838D02*
X164737469Y-72367219D01*
X164737469Y-72367219D02*
X164499374Y-72367219D01*
X164499374Y-72367219D02*
X164356517Y-72414838D01*
X164023183Y-72367219D02*
X163785088Y-73367219D01*
X163785088Y-73367219D02*
X163594612Y-72652933D01*
X163594612Y-72652933D02*
X163404136Y-73367219D01*
X163404136Y-73367219D02*
X163166041Y-72367219D01*
X162785088Y-73367219D02*
X162785088Y-72367219D01*
X162785088Y-72367219D02*
X162546993Y-72367219D01*
X162546993Y-72367219D02*
X162404136Y-72414838D01*
X162404136Y-72414838D02*
X162308898Y-72510076D01*
X162308898Y-72510076D02*
X162261279Y-72605314D01*
X162261279Y-72605314D02*
X162213660Y-72795790D01*
X162213660Y-72795790D02*
X162213660Y-72938647D01*
X162213660Y-72938647D02*
X162261279Y-73129123D01*
X162261279Y-73129123D02*
X162308898Y-73224361D01*
X162308898Y-73224361D02*
X162404136Y-73319600D01*
X162404136Y-73319600D02*
X162546993Y-73367219D01*
X162546993Y-73367219D02*
X162785088Y-73367219D01*
X161785088Y-73367219D02*
X161785088Y-72367219D01*
X161118422Y-72367219D02*
X160927946Y-72367219D01*
X160927946Y-72367219D02*
X160832708Y-72414838D01*
X160832708Y-72414838D02*
X160737470Y-72510076D01*
X160737470Y-72510076D02*
X160689851Y-72700552D01*
X160689851Y-72700552D02*
X160689851Y-73033885D01*
X160689851Y-73033885D02*
X160737470Y-73224361D01*
X160737470Y-73224361D02*
X160832708Y-73319600D01*
X160832708Y-73319600D02*
X160927946Y-73367219D01*
X160927946Y-73367219D02*
X161118422Y-73367219D01*
X161118422Y-73367219D02*
X161213660Y-73319600D01*
X161213660Y-73319600D02*
X161308898Y-73224361D01*
X161308898Y-73224361D02*
X161356517Y-73033885D01*
X161356517Y-73033885D02*
X161356517Y-72700552D01*
X161356517Y-72700552D02*
X161308898Y-72510076D01*
X161308898Y-72510076D02*
X161213660Y-72414838D01*
X161213660Y-72414838D02*
X161118422Y-72367219D01*
X164975564Y-74867219D02*
X164356517Y-74867219D01*
X164356517Y-74867219D02*
X164689850Y-75248171D01*
X164689850Y-75248171D02*
X164546993Y-75248171D01*
X164546993Y-75248171D02*
X164451755Y-75295790D01*
X164451755Y-75295790D02*
X164404136Y-75343409D01*
X164404136Y-75343409D02*
X164356517Y-75438647D01*
X164356517Y-75438647D02*
X164356517Y-75676742D01*
X164356517Y-75676742D02*
X164404136Y-75771980D01*
X164404136Y-75771980D02*
X164451755Y-75819600D01*
X164451755Y-75819600D02*
X164546993Y-75867219D01*
X164546993Y-75867219D02*
X164832707Y-75867219D01*
X164832707Y-75867219D02*
X164927945Y-75819600D01*
X164927945Y-75819600D02*
X164975564Y-75771980D01*
X163927945Y-75771980D02*
X163880326Y-75819600D01*
X163880326Y-75819600D02*
X163927945Y-75867219D01*
X163927945Y-75867219D02*
X163975564Y-75819600D01*
X163975564Y-75819600D02*
X163927945Y-75771980D01*
X163927945Y-75771980D02*
X163927945Y-75867219D01*
X163546993Y-74867219D02*
X162927946Y-74867219D01*
X162927946Y-74867219D02*
X163261279Y-75248171D01*
X163261279Y-75248171D02*
X163118422Y-75248171D01*
X163118422Y-75248171D02*
X163023184Y-75295790D01*
X163023184Y-75295790D02*
X162975565Y-75343409D01*
X162975565Y-75343409D02*
X162927946Y-75438647D01*
X162927946Y-75438647D02*
X162927946Y-75676742D01*
X162927946Y-75676742D02*
X162975565Y-75771980D01*
X162975565Y-75771980D02*
X163023184Y-75819600D01*
X163023184Y-75819600D02*
X163118422Y-75867219D01*
X163118422Y-75867219D02*
X163404136Y-75867219D01*
X163404136Y-75867219D02*
X163499374Y-75819600D01*
X163499374Y-75819600D02*
X163546993Y-75771980D01*
X162642231Y-74867219D02*
X162308898Y-75867219D01*
X162308898Y-75867219D02*
X161975565Y-74867219D01*
X164356517Y-67164838D02*
X164451755Y-67117219D01*
X164451755Y-67117219D02*
X164594612Y-67117219D01*
X164594612Y-67117219D02*
X164737469Y-67164838D01*
X164737469Y-67164838D02*
X164832707Y-67260076D01*
X164832707Y-67260076D02*
X164880326Y-67355314D01*
X164880326Y-67355314D02*
X164927945Y-67545790D01*
X164927945Y-67545790D02*
X164927945Y-67688647D01*
X164927945Y-67688647D02*
X164880326Y-67879123D01*
X164880326Y-67879123D02*
X164832707Y-67974361D01*
X164832707Y-67974361D02*
X164737469Y-68069600D01*
X164737469Y-68069600D02*
X164594612Y-68117219D01*
X164594612Y-68117219D02*
X164499374Y-68117219D01*
X164499374Y-68117219D02*
X164356517Y-68069600D01*
X164356517Y-68069600D02*
X164308898Y-68021980D01*
X164308898Y-68021980D02*
X164308898Y-67688647D01*
X164308898Y-67688647D02*
X164499374Y-67688647D01*
X163880326Y-68117219D02*
X163880326Y-67117219D01*
X163880326Y-67117219D02*
X163308898Y-68117219D01*
X163308898Y-68117219D02*
X163308898Y-67117219D01*
X162832707Y-68117219D02*
X162832707Y-67117219D01*
X162832707Y-67117219D02*
X162594612Y-67117219D01*
X162594612Y-67117219D02*
X162451755Y-67164838D01*
X162451755Y-67164838D02*
X162356517Y-67260076D01*
X162356517Y-67260076D02*
X162308898Y-67355314D01*
X162308898Y-67355314D02*
X162261279Y-67545790D01*
X162261279Y-67545790D02*
X162261279Y-67688647D01*
X162261279Y-67688647D02*
X162308898Y-67879123D01*
X162308898Y-67879123D02*
X162356517Y-67974361D01*
X162356517Y-67974361D02*
X162451755Y-68069600D01*
X162451755Y-68069600D02*
X162594612Y-68117219D01*
X162594612Y-68117219D02*
X162832707Y-68117219D01*
X120744838Y-68607768D02*
X122363885Y-68607768D01*
X122363885Y-68607768D02*
X122554361Y-68703006D01*
X122554361Y-68703006D02*
X122649600Y-68798244D01*
X122649600Y-68798244D02*
X122744838Y-68988720D01*
X122744838Y-68988720D02*
X122744838Y-69369673D01*
X122744838Y-69369673D02*
X122649600Y-69560149D01*
X122649600Y-69560149D02*
X122554361Y-69655387D01*
X122554361Y-69655387D02*
X122363885Y-69750625D01*
X122363885Y-69750625D02*
X120744838Y-69750625D01*
X122649600Y-70607768D02*
X122744838Y-70893482D01*
X122744838Y-70893482D02*
X122744838Y-71369673D01*
X122744838Y-71369673D02*
X122649600Y-71560149D01*
X122649600Y-71560149D02*
X122554361Y-71655387D01*
X122554361Y-71655387D02*
X122363885Y-71750625D01*
X122363885Y-71750625D02*
X122173409Y-71750625D01*
X122173409Y-71750625D02*
X121982933Y-71655387D01*
X121982933Y-71655387D02*
X121887695Y-71560149D01*
X121887695Y-71560149D02*
X121792457Y-71369673D01*
X121792457Y-71369673D02*
X121697219Y-70988720D01*
X121697219Y-70988720D02*
X121601980Y-70798244D01*
X121601980Y-70798244D02*
X121506742Y-70703006D01*
X121506742Y-70703006D02*
X121316266Y-70607768D01*
X121316266Y-70607768D02*
X121125790Y-70607768D01*
X121125790Y-70607768D02*
X120935314Y-70703006D01*
X120935314Y-70703006D02*
X120840076Y-70798244D01*
X120840076Y-70798244D02*
X120744838Y-70988720D01*
X120744838Y-70988720D02*
X120744838Y-71464911D01*
X120744838Y-71464911D02*
X120840076Y-71750625D01*
X121697219Y-73274435D02*
X121792457Y-73560149D01*
X121792457Y-73560149D02*
X121887695Y-73655387D01*
X121887695Y-73655387D02*
X122078171Y-73750625D01*
X122078171Y-73750625D02*
X122363885Y-73750625D01*
X122363885Y-73750625D02*
X122554361Y-73655387D01*
X122554361Y-73655387D02*
X122649600Y-73560149D01*
X122649600Y-73560149D02*
X122744838Y-73369673D01*
X122744838Y-73369673D02*
X122744838Y-72607768D01*
X122744838Y-72607768D02*
X120744838Y-72607768D01*
X120744838Y-72607768D02*
X120744838Y-73274435D01*
X120744838Y-73274435D02*
X120840076Y-73464911D01*
X120840076Y-73464911D02*
X120935314Y-73560149D01*
X120935314Y-73560149D02*
X121125790Y-73655387D01*
X121125790Y-73655387D02*
X121316266Y-73655387D01*
X121316266Y-73655387D02*
X121506742Y-73560149D01*
X121506742Y-73560149D02*
X121601980Y-73464911D01*
X121601980Y-73464911D02*
X121697219Y-73274435D01*
X121697219Y-73274435D02*
X121697219Y-72607768D01*
X164927945Y-70819600D02*
X164785088Y-70867219D01*
X164785088Y-70867219D02*
X164546993Y-70867219D01*
X164546993Y-70867219D02*
X164451755Y-70819600D01*
X164451755Y-70819600D02*
X164404136Y-70771980D01*
X164404136Y-70771980D02*
X164356517Y-70676742D01*
X164356517Y-70676742D02*
X164356517Y-70581504D01*
X164356517Y-70581504D02*
X164404136Y-70486266D01*
X164404136Y-70486266D02*
X164451755Y-70438647D01*
X164451755Y-70438647D02*
X164546993Y-70391028D01*
X164546993Y-70391028D02*
X164737469Y-70343409D01*
X164737469Y-70343409D02*
X164832707Y-70295790D01*
X164832707Y-70295790D02*
X164880326Y-70248171D01*
X164880326Y-70248171D02*
X164927945Y-70152933D01*
X164927945Y-70152933D02*
X164927945Y-70057695D01*
X164927945Y-70057695D02*
X164880326Y-69962457D01*
X164880326Y-69962457D02*
X164832707Y-69914838D01*
X164832707Y-69914838D02*
X164737469Y-69867219D01*
X164737469Y-69867219D02*
X164499374Y-69867219D01*
X164499374Y-69867219D02*
X164356517Y-69914838D01*
X164023183Y-69867219D02*
X163785088Y-70867219D01*
X163785088Y-70867219D02*
X163594612Y-70152933D01*
X163594612Y-70152933D02*
X163404136Y-70867219D01*
X163404136Y-70867219D02*
X163166041Y-69867219D01*
X162213660Y-70771980D02*
X162261279Y-70819600D01*
X162261279Y-70819600D02*
X162404136Y-70867219D01*
X162404136Y-70867219D02*
X162499374Y-70867219D01*
X162499374Y-70867219D02*
X162642231Y-70819600D01*
X162642231Y-70819600D02*
X162737469Y-70724361D01*
X162737469Y-70724361D02*
X162785088Y-70629123D01*
X162785088Y-70629123D02*
X162832707Y-70438647D01*
X162832707Y-70438647D02*
X162832707Y-70295790D01*
X162832707Y-70295790D02*
X162785088Y-70105314D01*
X162785088Y-70105314D02*
X162737469Y-70010076D01*
X162737469Y-70010076D02*
X162642231Y-69914838D01*
X162642231Y-69914838D02*
X162499374Y-69867219D01*
X162499374Y-69867219D02*
X162404136Y-69867219D01*
X162404136Y-69867219D02*
X162261279Y-69914838D01*
X162261279Y-69914838D02*
X162213660Y-69962457D01*
X161308898Y-70867219D02*
X161785088Y-70867219D01*
X161785088Y-70867219D02*
X161785088Y-69867219D01*
X160975564Y-70867219D02*
X160975564Y-69867219D01*
X160404136Y-70867219D02*
X160832707Y-70295790D01*
X160404136Y-69867219D02*
X160975564Y-70438647D01*
M02*
