%TF.GenerationSoftware,KiCad,Pcbnew,7.0.6-7.0.6~ubuntu22.04.1*%
%TF.CreationDate,2023-08-13T15:42:17+02:00*%
%TF.ProjectId,adaptor,61646170-746f-4722-9e6b-696361645f70,rev?*%
%TF.SameCoordinates,Original*%
%TF.FileFunction,Legend,Top*%
%TF.FilePolarity,Positive*%
%FSLAX46Y46*%
G04 Gerber Fmt 4.6, Leading zero omitted, Abs format (unit mm)*
G04 Created by KiCad (PCBNEW 7.0.6-7.0.6~ubuntu22.04.1) date 2023-08-13 15:42:17*
%MOMM*%
%LPD*%
G01*
G04 APERTURE LIST*
%ADD10C,0.200000*%
%ADD11C,0.120000*%
G04 APERTURE END LIST*
D10*
X160822054Y-73319600D02*
X160964911Y-73367219D01*
X160964911Y-73367219D02*
X161203006Y-73367219D01*
X161203006Y-73367219D02*
X161298244Y-73319600D01*
X161298244Y-73319600D02*
X161345863Y-73271980D01*
X161345863Y-73271980D02*
X161393482Y-73176742D01*
X161393482Y-73176742D02*
X161393482Y-73081504D01*
X161393482Y-73081504D02*
X161345863Y-72986266D01*
X161345863Y-72986266D02*
X161298244Y-72938647D01*
X161298244Y-72938647D02*
X161203006Y-72891028D01*
X161203006Y-72891028D02*
X161012530Y-72843409D01*
X161012530Y-72843409D02*
X160917292Y-72795790D01*
X160917292Y-72795790D02*
X160869673Y-72748171D01*
X160869673Y-72748171D02*
X160822054Y-72652933D01*
X160822054Y-72652933D02*
X160822054Y-72557695D01*
X160822054Y-72557695D02*
X160869673Y-72462457D01*
X160869673Y-72462457D02*
X160917292Y-72414838D01*
X160917292Y-72414838D02*
X161012530Y-72367219D01*
X161012530Y-72367219D02*
X161250625Y-72367219D01*
X161250625Y-72367219D02*
X161393482Y-72414838D01*
X161726816Y-72367219D02*
X161964911Y-73367219D01*
X161964911Y-73367219D02*
X162155387Y-72652933D01*
X162155387Y-72652933D02*
X162345863Y-73367219D01*
X162345863Y-73367219D02*
X162583959Y-72367219D01*
X162964911Y-73367219D02*
X162964911Y-72367219D01*
X162964911Y-72367219D02*
X163203006Y-72367219D01*
X163203006Y-72367219D02*
X163345863Y-72414838D01*
X163345863Y-72414838D02*
X163441101Y-72510076D01*
X163441101Y-72510076D02*
X163488720Y-72605314D01*
X163488720Y-72605314D02*
X163536339Y-72795790D01*
X163536339Y-72795790D02*
X163536339Y-72938647D01*
X163536339Y-72938647D02*
X163488720Y-73129123D01*
X163488720Y-73129123D02*
X163441101Y-73224361D01*
X163441101Y-73224361D02*
X163345863Y-73319600D01*
X163345863Y-73319600D02*
X163203006Y-73367219D01*
X163203006Y-73367219D02*
X162964911Y-73367219D01*
X163964911Y-73367219D02*
X163964911Y-72367219D01*
X164631577Y-72367219D02*
X164822053Y-72367219D01*
X164822053Y-72367219D02*
X164917291Y-72414838D01*
X164917291Y-72414838D02*
X165012529Y-72510076D01*
X165012529Y-72510076D02*
X165060148Y-72700552D01*
X165060148Y-72700552D02*
X165060148Y-73033885D01*
X165060148Y-73033885D02*
X165012529Y-73224361D01*
X165012529Y-73224361D02*
X164917291Y-73319600D01*
X164917291Y-73319600D02*
X164822053Y-73367219D01*
X164822053Y-73367219D02*
X164631577Y-73367219D01*
X164631577Y-73367219D02*
X164536339Y-73319600D01*
X164536339Y-73319600D02*
X164441101Y-73224361D01*
X164441101Y-73224361D02*
X164393482Y-73033885D01*
X164393482Y-73033885D02*
X164393482Y-72700552D01*
X164393482Y-72700552D02*
X164441101Y-72510076D01*
X164441101Y-72510076D02*
X164536339Y-72414838D01*
X164536339Y-72414838D02*
X164631577Y-72367219D01*
X162893482Y-67414838D02*
X162798244Y-67367219D01*
X162798244Y-67367219D02*
X162655387Y-67367219D01*
X162655387Y-67367219D02*
X162512530Y-67414838D01*
X162512530Y-67414838D02*
X162417292Y-67510076D01*
X162417292Y-67510076D02*
X162369673Y-67605314D01*
X162369673Y-67605314D02*
X162322054Y-67795790D01*
X162322054Y-67795790D02*
X162322054Y-67938647D01*
X162322054Y-67938647D02*
X162369673Y-68129123D01*
X162369673Y-68129123D02*
X162417292Y-68224361D01*
X162417292Y-68224361D02*
X162512530Y-68319600D01*
X162512530Y-68319600D02*
X162655387Y-68367219D01*
X162655387Y-68367219D02*
X162750625Y-68367219D01*
X162750625Y-68367219D02*
X162893482Y-68319600D01*
X162893482Y-68319600D02*
X162941101Y-68271980D01*
X162941101Y-68271980D02*
X162941101Y-67938647D01*
X162941101Y-67938647D02*
X162750625Y-67938647D01*
X163369673Y-68367219D02*
X163369673Y-67367219D01*
X163369673Y-67367219D02*
X163941101Y-68367219D01*
X163941101Y-68367219D02*
X163941101Y-67367219D01*
X164417292Y-68367219D02*
X164417292Y-67367219D01*
X164417292Y-67367219D02*
X164655387Y-67367219D01*
X164655387Y-67367219D02*
X164798244Y-67414838D01*
X164798244Y-67414838D02*
X164893482Y-67510076D01*
X164893482Y-67510076D02*
X164941101Y-67605314D01*
X164941101Y-67605314D02*
X164988720Y-67795790D01*
X164988720Y-67795790D02*
X164988720Y-67938647D01*
X164988720Y-67938647D02*
X164941101Y-68129123D01*
X164941101Y-68129123D02*
X164893482Y-68224361D01*
X164893482Y-68224361D02*
X164798244Y-68319600D01*
X164798244Y-68319600D02*
X164655387Y-68367219D01*
X164655387Y-68367219D02*
X164417292Y-68367219D01*
X160572054Y-70819600D02*
X160714911Y-70867219D01*
X160714911Y-70867219D02*
X160953006Y-70867219D01*
X160953006Y-70867219D02*
X161048244Y-70819600D01*
X161048244Y-70819600D02*
X161095863Y-70771980D01*
X161095863Y-70771980D02*
X161143482Y-70676742D01*
X161143482Y-70676742D02*
X161143482Y-70581504D01*
X161143482Y-70581504D02*
X161095863Y-70486266D01*
X161095863Y-70486266D02*
X161048244Y-70438647D01*
X161048244Y-70438647D02*
X160953006Y-70391028D01*
X160953006Y-70391028D02*
X160762530Y-70343409D01*
X160762530Y-70343409D02*
X160667292Y-70295790D01*
X160667292Y-70295790D02*
X160619673Y-70248171D01*
X160619673Y-70248171D02*
X160572054Y-70152933D01*
X160572054Y-70152933D02*
X160572054Y-70057695D01*
X160572054Y-70057695D02*
X160619673Y-69962457D01*
X160619673Y-69962457D02*
X160667292Y-69914838D01*
X160667292Y-69914838D02*
X160762530Y-69867219D01*
X160762530Y-69867219D02*
X161000625Y-69867219D01*
X161000625Y-69867219D02*
X161143482Y-69914838D01*
X161476816Y-69867219D02*
X161714911Y-70867219D01*
X161714911Y-70867219D02*
X161905387Y-70152933D01*
X161905387Y-70152933D02*
X162095863Y-70867219D01*
X162095863Y-70867219D02*
X162333959Y-69867219D01*
X163286339Y-70771980D02*
X163238720Y-70819600D01*
X163238720Y-70819600D02*
X163095863Y-70867219D01*
X163095863Y-70867219D02*
X163000625Y-70867219D01*
X163000625Y-70867219D02*
X162857768Y-70819600D01*
X162857768Y-70819600D02*
X162762530Y-70724361D01*
X162762530Y-70724361D02*
X162714911Y-70629123D01*
X162714911Y-70629123D02*
X162667292Y-70438647D01*
X162667292Y-70438647D02*
X162667292Y-70295790D01*
X162667292Y-70295790D02*
X162714911Y-70105314D01*
X162714911Y-70105314D02*
X162762530Y-70010076D01*
X162762530Y-70010076D02*
X162857768Y-69914838D01*
X162857768Y-69914838D02*
X163000625Y-69867219D01*
X163000625Y-69867219D02*
X163095863Y-69867219D01*
X163095863Y-69867219D02*
X163238720Y-69914838D01*
X163238720Y-69914838D02*
X163286339Y-69962457D01*
X164191101Y-70867219D02*
X163714911Y-70867219D01*
X163714911Y-70867219D02*
X163714911Y-69867219D01*
X164524435Y-70867219D02*
X164524435Y-69867219D01*
X165095863Y-70867219D02*
X164667292Y-70295790D01*
X165095863Y-69867219D02*
X164524435Y-70438647D01*
X162024435Y-74867219D02*
X162643482Y-74867219D01*
X162643482Y-74867219D02*
X162310149Y-75248171D01*
X162310149Y-75248171D02*
X162453006Y-75248171D01*
X162453006Y-75248171D02*
X162548244Y-75295790D01*
X162548244Y-75295790D02*
X162595863Y-75343409D01*
X162595863Y-75343409D02*
X162643482Y-75438647D01*
X162643482Y-75438647D02*
X162643482Y-75676742D01*
X162643482Y-75676742D02*
X162595863Y-75771980D01*
X162595863Y-75771980D02*
X162548244Y-75819600D01*
X162548244Y-75819600D02*
X162453006Y-75867219D01*
X162453006Y-75867219D02*
X162167292Y-75867219D01*
X162167292Y-75867219D02*
X162072054Y-75819600D01*
X162072054Y-75819600D02*
X162024435Y-75771980D01*
X163072054Y-75771980D02*
X163119673Y-75819600D01*
X163119673Y-75819600D02*
X163072054Y-75867219D01*
X163072054Y-75867219D02*
X163024435Y-75819600D01*
X163024435Y-75819600D02*
X163072054Y-75771980D01*
X163072054Y-75771980D02*
X163072054Y-75867219D01*
X163453006Y-74867219D02*
X164072053Y-74867219D01*
X164072053Y-74867219D02*
X163738720Y-75248171D01*
X163738720Y-75248171D02*
X163881577Y-75248171D01*
X163881577Y-75248171D02*
X163976815Y-75295790D01*
X163976815Y-75295790D02*
X164024434Y-75343409D01*
X164024434Y-75343409D02*
X164072053Y-75438647D01*
X164072053Y-75438647D02*
X164072053Y-75676742D01*
X164072053Y-75676742D02*
X164024434Y-75771980D01*
X164024434Y-75771980D02*
X163976815Y-75819600D01*
X163976815Y-75819600D02*
X163881577Y-75867219D01*
X163881577Y-75867219D02*
X163595863Y-75867219D01*
X163595863Y-75867219D02*
X163500625Y-75819600D01*
X163500625Y-75819600D02*
X163453006Y-75771980D01*
X164357768Y-74867219D02*
X164691101Y-75867219D01*
X164691101Y-75867219D02*
X165024434Y-74867219D01*
X120744838Y-73762231D02*
X122363885Y-73762231D01*
X122363885Y-73762231D02*
X122554361Y-73666993D01*
X122554361Y-73666993D02*
X122649600Y-73571755D01*
X122649600Y-73571755D02*
X122744838Y-73381279D01*
X122744838Y-73381279D02*
X122744838Y-73000326D01*
X122744838Y-73000326D02*
X122649600Y-72809850D01*
X122649600Y-72809850D02*
X122554361Y-72714612D01*
X122554361Y-72714612D02*
X122363885Y-72619374D01*
X122363885Y-72619374D02*
X120744838Y-72619374D01*
X122649600Y-71762231D02*
X122744838Y-71476517D01*
X122744838Y-71476517D02*
X122744838Y-71000326D01*
X122744838Y-71000326D02*
X122649600Y-70809850D01*
X122649600Y-70809850D02*
X122554361Y-70714612D01*
X122554361Y-70714612D02*
X122363885Y-70619374D01*
X122363885Y-70619374D02*
X122173409Y-70619374D01*
X122173409Y-70619374D02*
X121982933Y-70714612D01*
X121982933Y-70714612D02*
X121887695Y-70809850D01*
X121887695Y-70809850D02*
X121792457Y-71000326D01*
X121792457Y-71000326D02*
X121697219Y-71381279D01*
X121697219Y-71381279D02*
X121601980Y-71571755D01*
X121601980Y-71571755D02*
X121506742Y-71666993D01*
X121506742Y-71666993D02*
X121316266Y-71762231D01*
X121316266Y-71762231D02*
X121125790Y-71762231D01*
X121125790Y-71762231D02*
X120935314Y-71666993D01*
X120935314Y-71666993D02*
X120840076Y-71571755D01*
X120840076Y-71571755D02*
X120744838Y-71381279D01*
X120744838Y-71381279D02*
X120744838Y-70905088D01*
X120744838Y-70905088D02*
X120840076Y-70619374D01*
X121697219Y-69095564D02*
X121792457Y-68809850D01*
X121792457Y-68809850D02*
X121887695Y-68714612D01*
X121887695Y-68714612D02*
X122078171Y-68619374D01*
X122078171Y-68619374D02*
X122363885Y-68619374D01*
X122363885Y-68619374D02*
X122554361Y-68714612D01*
X122554361Y-68714612D02*
X122649600Y-68809850D01*
X122649600Y-68809850D02*
X122744838Y-69000326D01*
X122744838Y-69000326D02*
X122744838Y-69762231D01*
X122744838Y-69762231D02*
X120744838Y-69762231D01*
X120744838Y-69762231D02*
X120744838Y-69095564D01*
X120744838Y-69095564D02*
X120840076Y-68905088D01*
X120840076Y-68905088D02*
X120935314Y-68809850D01*
X120935314Y-68809850D02*
X121125790Y-68714612D01*
X121125790Y-68714612D02*
X121316266Y-68714612D01*
X121316266Y-68714612D02*
X121506742Y-68809850D01*
X121506742Y-68809850D02*
X121601980Y-68905088D01*
X121601980Y-68905088D02*
X121697219Y-69095564D01*
X121697219Y-69095564D02*
X121697219Y-69762231D01*
D11*
%TO.C,J2*%
X123010000Y-65330000D02*
X171330000Y-65330000D01*
X123010000Y-65330000D02*
X123010000Y-62670000D01*
X171330000Y-65330000D02*
X171330000Y-62670000D01*
X120410000Y-64000000D02*
X120410000Y-62670000D01*
X120410000Y-62670000D02*
X121740000Y-62670000D01*
X123010000Y-62670000D02*
X171330000Y-62670000D01*
%TO.C,R1*%
X126130000Y-76210000D02*
X122290000Y-76210000D01*
X126130000Y-74370000D02*
X122290000Y-74370000D01*
%TO.C,J1*%
X123010000Y-80330000D02*
X171330000Y-80330000D01*
X123010000Y-80330000D02*
X123010000Y-77670000D01*
X171330000Y-80330000D02*
X171330000Y-77670000D01*
X120410000Y-79000000D02*
X120410000Y-77670000D01*
X120410000Y-77670000D02*
X121740000Y-77670000D01*
X123010000Y-77670000D02*
X171330000Y-77670000D01*
%TO.C,J3*%
X166480000Y-66440000D02*
X167750000Y-66440000D01*
X166480000Y-67710000D02*
X166480000Y-66440000D01*
X168792929Y-69870000D02*
X169190000Y-69870000D01*
X168792929Y-70630000D02*
X169190000Y-70630000D01*
X168792929Y-72410000D02*
X169190000Y-72410000D01*
X168792929Y-73170000D02*
X169190000Y-73170000D01*
X168792929Y-74950000D02*
X169190000Y-74950000D01*
X168792929Y-75710000D02*
X169190000Y-75710000D01*
X168860000Y-67330000D02*
X169190000Y-67330000D01*
X168860000Y-68090000D02*
X169190000Y-68090000D01*
X169190000Y-66380000D02*
X169190000Y-76660000D01*
X169190000Y-71520000D02*
X170350000Y-71520000D01*
X169190000Y-74060000D02*
X169950000Y-74060000D01*
X169190000Y-76660000D02*
X170350000Y-76660000D01*
%TD*%
M02*
